<svg xmlns="http://www.w3.org/2000/svg" viewBox="0 0 500 500"><defs><style>.cls-1{fill:#ebebeb;}.cls-2{fill:#e0e0e0;}.cls-13,.cls-3{fill:#fff;}.cls-4{fill:#f5f5f5;}.cls-5{fill:#982609;}.cls-6,.cls-8{fill:#263238;}.cls-11,.cls-7,.cls-9{fill:#407bff;}.cls-11,.cls-8{opacity:0.7;}.cls-9{opacity:0.6;}.cls-10{fill:#c52e0b;}.cls-12{fill:#a26d52;}.cls-13{opacity:0.1;}.cls-14{opacity:0.2;}.cls-15{fill:#b76a4f;}.cls-16{fill:#1c0d03;}</style></defs><g id="Background_Complete" data-name="Background Complete"><rect class="cls-1" x="2" y="382.4" width="500" height="0.25"/><rect class="cls-1" x="54.46" y="391.92" width="26" height="0.25"/><rect class="cls-1" x="148.33" y="389.21" width="54.1" height="0.25"/><rect class="cls-1" x="81.46" y="401.21" width="26.32" height="0.25"/><rect class="cls-1" x="432.67" y="399.53" width="19.23" height="0.25"/><rect class="cls-1" x="393.47" y="399.53" width="30.29" height="0.25"/><rect class="cls-1" x="260.23" y="395.31" width="54.56" height="0.25"/><path class="cls-1" d="M239,337.8H45.91a5.71,5.71,0,0,1-5.7-5.71V60.66A5.71,5.71,0,0,1,45.91,55H239a5.71,5.71,0,0,1,5.71,5.71V332.09A5.71,5.71,0,0,1,239,337.8ZM45.91,55.2a5.46,5.46,0,0,0-5.45,5.46V332.09a5.46,5.46,0,0,0,5.45,5.46H239a5.47,5.47,0,0,0,5.46-5.46V60.66A5.47,5.47,0,0,0,239,55.2Z"/><path class="cls-1" d="M455.31,337.8H262.21a5.72,5.72,0,0,1-5.71-5.71V60.66A5.72,5.72,0,0,1,262.21,55h193.1A5.71,5.71,0,0,1,461,60.66V332.09A5.71,5.71,0,0,1,455.31,337.8ZM262.21,55.2a5.47,5.47,0,0,0-5.46,5.46V332.09a5.47,5.47,0,0,0,5.46,5.46h193.1a5.47,5.47,0,0,0,5.46-5.46V60.66a5.47,5.47,0,0,0-5.46-5.46Z"/><path class="cls-2" d="M384.19,149.61H314.76l-9.59,9.59V372.81l9.59,9.59h69.43l9.59-9.59V159.2Z"/><polygon class="cls-1" points="305.17 372.81 314.76 382.4 336.29 382.4 326.7 372.81 305.17 372.81"/><polygon class="cls-1" points="305.17 159.2 314.76 149.61 336.29 149.61 326.7 159.2 305.17 159.2"/><path class="cls-1" d="M422.41,149.61H336.29l-9.59,9.59V372.81l9.59,9.59h86.12c3.74-3.75,5.84-5.85,9.59-9.59V159.2Z"/><polygon class="cls-3" points="337.51 377.92 331.18 371.59 331.18 160.42 337.51 154.09 421.19 154.09 427.52 160.42 427.52 371.59 421.19 377.92 337.51 377.92"/><rect class="cls-1" x="335.66" y="165.45" width="91.86" height="18.5"/><path class="cls-4" d="M422.33,352.91a.81.81,0,1,0,.81-.8A.81.81,0,0,0,422.33,352.91Z"/><path class="cls-3" d="M418.48,352.91a.8.8,0,1,0,.8-.8A.8.8,0,0,0,418.48,352.91Z"/><path class="cls-4" d="M414.62,352.91a.8.8,0,1,0,.8-.8A.8.8,0,0,0,414.62,352.91Z"/><rect class="cls-4" x="335.66" y="172.9" width="91.86" height="3.6"/><rect class="cls-2" x="331.18" y="165.45" width="4.48" height="18.5" transform="translate(666.84 349.4) rotate(180)"/><rect class="cls-1" x="335.66" y="185.74" width="91.86" height="18.5"/><path class="cls-4" d="M422.33,332.62a.81.81,0,1,0,.81-.8A.81.81,0,0,0,422.33,332.62Z"/><path class="cls-3" d="M418.48,332.62a.8.8,0,1,0,.8-.8A.8.8,0,0,0,418.48,332.62Z"/><path class="cls-3" d="M414.62,332.62a.8.8,0,1,0,.8-.8A.8.8,0,0,0,414.62,332.62Z"/><rect class="cls-4" x="335.66" y="193.19" width="91.86" height="3.6"/><rect class="cls-2" x="331.18" y="185.74" width="4.48" height="18.5" transform="translate(666.84 389.98) rotate(180)"/><rect class="cls-1" x="335.66" y="206.03" width="91.86" height="18.5"/><path class="cls-4" d="M422.33,312.34a.81.81,0,1,0,.81-.81A.8.8,0,0,0,422.33,312.34Z"/><path class="cls-4" d="M418.48,312.34a.8.8,0,1,0,1.6,0,.8.8,0,1,0-1.6,0Z"/><path class="cls-4" d="M414.62,312.34a.8.8,0,1,0,.8-.81A.8.8,0,0,0,414.62,312.34Z"/><rect class="cls-4" x="335.66" y="213.48" width="91.86" height="3.6"/><rect class="cls-2" x="331.18" y="206.03" width="4.48" height="18.5" transform="translate(666.84 430.56) rotate(180)"/><rect class="cls-1" x="335.66" y="226.32" width="91.86" height="18.5"/><path class="cls-3" d="M422.33,292.05a.81.81,0,1,0,.81-.81A.8.8,0,0,0,422.33,292.05Z"/><path class="cls-3" d="M418.48,292.05a.8.8,0,1,0,1.6,0,.8.8,0,1,0-1.6,0Z"/><path class="cls-4" d="M414.62,292.05a.8.8,0,1,0,.8-.81A.8.8,0,0,0,414.62,292.05Z"/><rect class="cls-4" x="335.66" y="233.77" width="91.86" height="3.6"/><rect class="cls-2" x="331.18" y="226.32" width="4.48" height="18.5" transform="translate(666.84 471.14) rotate(180)"/><rect class="cls-1" x="335.66" y="246.61" width="91.86" height="18.5"/><path class="cls-3" d="M422.33,271.76a.81.81,0,1,0,.81-.81A.8.8,0,0,0,422.33,271.76Z"/><path class="cls-3" d="M418.48,271.76a.8.8,0,1,0,1.6,0,.8.8,0,1,0-1.6,0Z"/><path class="cls-3" d="M414.62,271.76a.8.8,0,1,0,.8-.81A.8.8,0,0,0,414.62,271.76Z"/><rect class="cls-4" x="335.66" y="254.06" width="91.86" height="3.6"/><rect class="cls-2" x="331.18" y="246.61" width="4.48" height="18.5" transform="translate(666.84 511.72) rotate(180)"/><rect class="cls-1" x="335.66" y="266.9" width="91.86" height="18.5"/><path class="cls-4" d="M422.33,251.47a.81.81,0,0,0,1.61,0,.81.81,0,0,0-1.61,0Z"/><path class="cls-3" d="M418.48,251.47a.8.8,0,1,0,.8-.8A.8.8,0,0,0,418.48,251.47Z"/><path class="cls-4" d="M414.62,251.47a.8.8,0,1,0,.8-.8A.8.8,0,0,0,414.62,251.47Z"/><rect class="cls-4" x="335.66" y="274.35" width="91.86" height="3.6"/><rect class="cls-2" x="331.18" y="266.9" width="4.48" height="18.5" transform="translate(666.84 552.3) rotate(180)"/><rect class="cls-1" x="335.66" y="287.19" width="91.86" height="18.5"/><path class="cls-3" d="M422.33,231.18a.81.81,0,1,0,.81-.8A.8.8,0,0,0,422.33,231.18Z"/><path class="cls-3" d="M418.48,231.18a.8.8,0,1,0,.8-.8A.8.8,0,0,0,418.48,231.18Z"/><path class="cls-4" d="M414.62,231.18a.8.8,0,1,0,.8-.8A.8.8,0,0,0,414.62,231.18Z"/><rect class="cls-4" x="335.66" y="294.64" width="91.86" height="3.6"/><rect class="cls-2" x="331.18" y="287.19" width="4.48" height="18.5" transform="translate(666.84 592.88) rotate(180)"/><rect class="cls-1" x="335.66" y="307.48" width="91.86" height="18.5"/><path class="cls-3" d="M422.33,210.89a.81.81,0,1,0,.81-.8A.8.8,0,0,0,422.33,210.89Z"/><path class="cls-4" d="M418.48,210.89a.8.8,0,1,0,.8-.8A.8.8,0,0,0,418.48,210.89Z"/><path class="cls-3" d="M414.62,210.89a.8.8,0,1,0,.8-.8A.8.8,0,0,0,414.62,210.89Z"/><rect class="cls-4" x="335.66" y="314.93" width="91.86" height="3.6"/><rect class="cls-2" x="331.18" y="307.48" width="4.48" height="18.5" transform="translate(666.84 633.45) rotate(180)"/><rect class="cls-1" x="335.66" y="327.77" width="91.86" height="18.5"/><path class="cls-4" d="M422.33,190.6a.81.81,0,1,0,.81-.8A.8.8,0,0,0,422.33,190.6Z"/><path class="cls-3" d="M418.48,190.6a.8.8,0,1,0,.8-.8A.8.8,0,0,0,418.48,190.6Z"/><path class="cls-4" d="M414.62,190.6a.8.8,0,1,0,.8-.8A.8.8,0,0,0,414.62,190.6Z"/><rect class="cls-4" x="335.66" y="335.22" width="91.86" height="3.6"/><rect class="cls-2" x="331.18" y="327.77" width="4.48" height="18.5" transform="translate(666.84 674.03) rotate(180)"/><rect class="cls-1" x="335.66" y="348.06" width="91.86" height="18.5"/><path class="cls-4" d="M422.33,170.31a.81.81,0,1,0,.81-.8A.8.8,0,0,0,422.33,170.31Z"/><path class="cls-4" d="M418.48,170.31a.8.8,0,1,0,.8-.8A.8.8,0,0,0,418.48,170.31Z"/><path class="cls-3" d="M414.62,170.31a.8.8,0,1,0,.8-.8A.8.8,0,0,0,414.62,170.31Z"/><rect class="cls-4" x="335.66" y="355.51" width="91.86" height="3.6"/><rect class="cls-2" x="331.18" y="348.06" width="4.48" height="18.5" transform="translate(666.84 714.61) rotate(180)"/><path class="cls-2" d="M267.61,149.61H198.18l-9.6,9.59V372.81l9.6,9.59h69.43l9.59-9.59V159.2Z"/><polygon class="cls-1" points="188.59 372.81 198.18 382.4 219.71 382.4 210.12 372.81 188.59 372.81"/><polygon class="cls-1" points="188.59 159.2 198.18 149.61 219.71 149.61 210.12 159.2 188.59 159.2"/><path class="cls-1" d="M305.82,149.61H219.71l-9.59,9.59V372.81l9.59,9.59h86.11l9.6-9.59V159.2Z"/><polygon class="cls-3" points="220.93 377.92 214.6 371.59 214.6 160.42 220.93 154.09 304.6 154.09 310.94 160.42 310.94 371.59 304.6 377.92 220.93 377.92"/><rect class="cls-1" x="219.08" y="165.45" width="91.86" height="18.5"/><path class="cls-4" d="M305.75,170.31a.8.8,0,1,1,.8.8A.8.8,0,0,1,305.75,170.31Z"/><path class="cls-3" d="M301.89,170.31a.81.81,0,1,1,.8.8A.8.8,0,0,1,301.89,170.31Z"/><path class="cls-4" d="M298,170.31a.81.81,0,1,1,.8.8A.8.8,0,0,1,298,170.31Z"/><rect class="cls-4" x="219.08" y="172.9" width="91.86" height="3.6"/><rect class="cls-2" x="214.6" y="165.45" width="4.48" height="18.5" transform="translate(433.67 349.4) rotate(180)"/><rect class="cls-1" x="219.08" y="185.74" width="91.86" height="18.5"/><path class="cls-4" d="M305.75,190.6a.8.8,0,1,1,.8.8A.8.8,0,0,1,305.75,190.6Z"/><path class="cls-3" d="M301.89,190.6a.81.81,0,1,1,.8.8A.8.8,0,0,1,301.89,190.6Z"/><path class="cls-3" d="M298,190.6a.81.81,0,1,1,.8.8A.8.8,0,0,1,298,190.6Z"/><rect class="cls-4" x="219.08" y="193.19" width="91.86" height="3.6"/><rect class="cls-2" x="214.6" y="185.74" width="4.48" height="18.5" transform="translate(433.67 389.98) rotate(180)"/><rect class="cls-1" x="219.08" y="206.03" width="91.86" height="18.5"/><path class="cls-4" d="M305.75,210.89a.8.8,0,1,1,.8.8A.8.8,0,0,1,305.75,210.89Z"/><path class="cls-4" d="M301.89,210.89a.81.81,0,1,1,.8.8A.8.8,0,0,1,301.89,210.89Z"/><path class="cls-4" d="M298,210.89a.81.81,0,1,1,.8.8A.8.8,0,0,1,298,210.89Z"/><rect class="cls-4" x="219.08" y="213.48" width="91.86" height="3.6"/><rect class="cls-2" x="214.6" y="206.03" width="4.48" height="18.5" transform="translate(433.67 430.56) rotate(180)"/><rect class="cls-1" x="219.08" y="226.32" width="91.86" height="18.5"/><path class="cls-3" d="M305.75,231.18a.8.8,0,1,1,.8.8A.8.8,0,0,1,305.75,231.18Z"/><path class="cls-3" d="M301.89,231.18a.81.81,0,1,1,.8.8A.8.8,0,0,1,301.89,231.18Z"/><path class="cls-4" d="M298,231.18a.81.81,0,1,1,.8.8A.8.8,0,0,1,298,231.18Z"/><rect class="cls-4" x="219.08" y="233.77" width="91.86" height="3.6"/><rect class="cls-2" x="214.6" y="226.32" width="4.48" height="18.5" transform="translate(433.67 471.14) rotate(180)"/><rect class="cls-1" x="219.08" y="246.61" width="91.86" height="18.5"/><path class="cls-3" d="M305.75,251.47a.8.8,0,1,1,.8.8A.8.8,0,0,1,305.75,251.47Z"/><path class="cls-3" d="M301.89,251.47a.81.81,0,0,1,1.61,0,.81.81,0,0,1-1.61,0Z"/><path class="cls-3" d="M298,251.47a.81.81,0,0,1,1.61,0,.81.81,0,0,1-1.61,0Z"/><rect class="cls-4" x="219.08" y="254.06" width="91.86" height="3.6"/><rect class="cls-2" x="214.6" y="246.61" width="4.48" height="18.5" transform="translate(433.67 511.72) rotate(180)"/><rect class="cls-1" x="219.08" y="266.9" width="91.86" height="18.5"/><path class="cls-4" d="M305.75,271.76a.8.8,0,1,1,.8.8A.8.8,0,0,1,305.75,271.76Z"/><path class="cls-3" d="M301.89,271.76a.81.81,0,1,1,.8.8A.8.8,0,0,1,301.89,271.76Z"/><path class="cls-4" d="M298,271.76a.81.81,0,1,1,.8.8A.8.8,0,0,1,298,271.76Z"/><rect class="cls-4" x="219.08" y="274.35" width="91.86" height="3.6"/><rect class="cls-2" x="214.6" y="266.9" width="4.48" height="18.5" transform="translate(433.67 552.3) rotate(180)"/><rect class="cls-1" x="219.08" y="287.19" width="91.86" height="18.5"/><path class="cls-3" d="M305.75,292.05a.8.8,0,1,1,.8.8A.8.8,0,0,1,305.75,292.05Z"/><path class="cls-3" d="M301.89,292.05a.81.81,0,1,1,.8.8A.8.8,0,0,1,301.89,292.05Z"/><path class="cls-4" d="M298,292.05a.81.81,0,1,1,.8.8A.8.8,0,0,1,298,292.05Z"/><rect class="cls-4" x="219.08" y="294.64" width="91.86" height="3.6"/><rect class="cls-2" x="214.6" y="287.19" width="4.48" height="18.5" transform="translate(433.67 592.88) rotate(180)"/><rect class="cls-1" x="219.08" y="307.48" width="91.86" height="18.5"/><path class="cls-3" d="M305.75,312.34a.8.8,0,1,1,.8.8A.8.8,0,0,1,305.75,312.34Z"/><path class="cls-4" d="M301.89,312.34a.81.81,0,1,1,.8.8A.8.8,0,0,1,301.89,312.34Z"/><path class="cls-3" d="M298,312.34a.81.81,0,1,1,.8.8A.8.8,0,0,1,298,312.34Z"/><rect class="cls-4" x="219.08" y="314.93" width="91.86" height="3.6"/><rect class="cls-2" x="214.6" y="307.48" width="4.48" height="18.5" transform="translate(433.67 633.45) rotate(180)"/><rect class="cls-1" x="219.08" y="327.77" width="91.86" height="18.5"/><path class="cls-4" d="M305.75,332.62a.8.8,0,1,1,.8.81A.8.8,0,0,1,305.75,332.62Z"/><path class="cls-3" d="M301.89,332.62a.81.81,0,1,1,.8.81A.8.8,0,0,1,301.89,332.62Z"/><path class="cls-4" d="M298,332.62a.81.81,0,1,1,.8.81A.8.8,0,0,1,298,332.62Z"/><rect class="cls-4" x="219.08" y="335.22" width="91.86" height="3.6"/><rect class="cls-2" x="214.6" y="327.77" width="4.48" height="18.5" transform="translate(433.67 674.03) rotate(180)"/><rect class="cls-1" x="219.08" y="348.06" width="91.86" height="18.5"/><path class="cls-4" d="M305.75,352.91a.8.8,0,1,1,.8.81A.8.8,0,0,1,305.75,352.91Z"/><path class="cls-4" d="M301.89,352.91a.81.81,0,1,1,.8.81A.8.8,0,0,1,301.89,352.91Z"/><path class="cls-3" d="M298,352.91a.81.81,0,1,1,.8.81A.8.8,0,0,1,298,352.91Z"/><rect class="cls-4" x="219.08" y="355.51" width="91.86" height="3.6"/><rect class="cls-2" x="214.6" y="348.06" width="4.48" height="18.5" transform="translate(433.67 714.61) rotate(180)"/><path class="cls-2" d="M151,149.61H81.59L72,159.2V372.81l9.59,9.59H151l9.6-9.59V159.2Z"/><polygon class="cls-1" points="72 372.81 81.59 382.4 103.13 382.4 93.53 372.81 72 372.81"/><polygon class="cls-1" points="72 159.2 81.59 149.61 103.13 149.61 93.53 159.2 72 159.2"/><path class="cls-1" d="M189.24,149.61H103.12l-9.59,9.59V372.81l9.59,9.59h86.12l9.59-9.59V159.2Z"/><polygon class="cls-3" points="104.35 377.92 98.01 371.59 98.01 160.42 104.35 154.09 188.02 154.09 194.35 160.42 194.35 371.59 188.02 377.92 104.35 377.92"/><rect class="cls-1" x="102.49" y="165.45" width="91.86" height="18.5"/><path class="cls-4" d="M189.16,352.91a.81.81,0,1,0,.81-.8A.81.81,0,0,0,189.16,352.91Z"/><path class="cls-3" d="M185.31,352.91a.8.8,0,1,0,.8-.8A.8.8,0,0,0,185.31,352.91Z"/><path class="cls-4" d="M181.45,352.91a.8.8,0,1,0,.8-.8A.8.8,0,0,0,181.45,352.91Z"/><rect class="cls-4" x="102.49" y="172.9" width="91.86" height="3.6"/><rect class="cls-2" x="98.01" y="165.45" width="4.48" height="18.5" transform="translate(200.5 349.4) rotate(180)"/><rect class="cls-1" x="102.49" y="185.74" width="91.86" height="18.5"/><path class="cls-4" d="M189.16,332.62a.81.81,0,1,0,.81-.8A.81.81,0,0,0,189.16,332.62Z"/><path class="cls-3" d="M185.31,332.62a.8.8,0,1,0,.8-.8A.8.8,0,0,0,185.31,332.62Z"/><path class="cls-3" d="M181.45,332.62a.8.8,0,1,0,.8-.8A.8.8,0,0,0,181.45,332.62Z"/><rect class="cls-4" x="102.49" y="193.19" width="91.86" height="3.6"/><rect class="cls-2" x="98.01" y="185.74" width="4.48" height="18.5" transform="translate(200.5 389.98) rotate(180)"/><rect class="cls-1" x="102.49" y="206.03" width="91.86" height="18.5"/><path class="cls-4" d="M189.16,312.34a.81.81,0,1,0,.81-.81A.8.8,0,0,0,189.16,312.34Z"/><path class="cls-4" d="M185.31,312.34a.8.8,0,1,0,1.6,0,.8.8,0,1,0-1.6,0Z"/><path class="cls-4" d="M181.45,312.34a.8.8,0,1,0,.8-.81A.8.8,0,0,0,181.45,312.34Z"/><rect class="cls-4" x="102.49" y="213.48" width="91.86" height="3.6"/><rect class="cls-2" x="98.01" y="206.03" width="4.48" height="18.5" transform="translate(200.5 430.56) rotate(180)"/><rect class="cls-1" x="102.49" y="226.32" width="91.86" height="18.5"/><path class="cls-3" d="M189.16,292.05a.81.81,0,1,0,.81-.81A.8.8,0,0,0,189.16,292.05Z"/><path class="cls-3" d="M185.31,292.05a.8.8,0,1,0,1.6,0,.8.8,0,1,0-1.6,0Z"/><path class="cls-4" d="M181.45,292.05a.8.8,0,1,0,.8-.81A.8.8,0,0,0,181.45,292.05Z"/><rect class="cls-4" x="102.49" y="233.77" width="91.86" height="3.6"/><rect class="cls-2" x="98.01" y="226.32" width="4.48" height="18.5" transform="translate(200.5 471.14) rotate(180)"/><rect class="cls-1" x="102.49" y="246.61" width="91.86" height="18.5"/><path class="cls-3" d="M189.16,271.76A.81.81,0,1,0,190,271,.8.8,0,0,0,189.16,271.76Z"/><path class="cls-3" d="M185.31,271.76a.8.8,0,1,0,1.6,0,.8.8,0,1,0-1.6,0Z"/><path class="cls-3" d="M181.45,271.76a.8.8,0,1,0,.8-.81A.8.8,0,0,0,181.45,271.76Z"/><rect class="cls-4" x="102.49" y="254.06" width="91.86" height="3.6"/><rect class="cls-2" x="98.01" y="246.61" width="4.48" height="18.5" transform="translate(200.5 511.72) rotate(180)"/><rect class="cls-1" x="102.49" y="266.9" width="91.86" height="18.5"/><path class="cls-4" d="M189.16,251.47a.81.81,0,0,0,1.61,0,.81.81,0,0,0-1.61,0Z"/><path class="cls-3" d="M185.31,251.47a.8.8,0,1,0,.8-.8A.8.8,0,0,0,185.31,251.47Z"/><path class="cls-4" d="M181.45,251.47a.8.8,0,1,0,.8-.8A.8.8,0,0,0,181.45,251.47Z"/><rect class="cls-4" x="102.49" y="274.35" width="91.86" height="3.6"/><rect class="cls-2" x="98.01" y="266.9" width="4.48" height="18.5" transform="translate(200.5 552.3) rotate(180)"/><rect class="cls-1" x="102.49" y="287.19" width="91.86" height="18.5"/><path class="cls-3" d="M189.16,231.18a.81.81,0,1,0,.81-.8A.8.8,0,0,0,189.16,231.18Z"/><path class="cls-3" d="M185.31,231.18a.8.8,0,1,0,.8-.8A.8.8,0,0,0,185.31,231.18Z"/><path class="cls-4" d="M181.45,231.18a.8.8,0,1,0,.8-.8A.8.8,0,0,0,181.45,231.18Z"/><rect class="cls-4" x="102.49" y="294.64" width="91.86" height="3.6"/><rect class="cls-2" x="98.01" y="287.19" width="4.48" height="18.5" transform="translate(200.5 592.88) rotate(180)"/><rect class="cls-1" x="102.49" y="307.48" width="91.86" height="18.5"/><path class="cls-3" d="M189.16,210.89a.81.81,0,1,0,.81-.8A.8.8,0,0,0,189.16,210.89Z"/><path class="cls-4" d="M185.31,210.89a.8.8,0,1,0,.8-.8A.8.8,0,0,0,185.31,210.89Z"/><path class="cls-3" d="M181.45,210.89a.8.8,0,1,0,.8-.8A.8.8,0,0,0,181.45,210.89Z"/><rect class="cls-4" x="102.49" y="314.93" width="91.86" height="3.6"/><rect class="cls-2" x="98.01" y="307.48" width="4.48" height="18.5" transform="translate(200.5 633.45) rotate(180)"/><rect class="cls-1" x="102.49" y="327.77" width="91.86" height="18.5"/><path class="cls-4" d="M189.16,190.6a.81.81,0,1,0,.81-.8A.8.8,0,0,0,189.16,190.6Z"/><path class="cls-3" d="M185.31,190.6a.8.8,0,1,0,.8-.8A.8.8,0,0,0,185.31,190.6Z"/><path class="cls-4" d="M181.45,190.6a.8.8,0,1,0,.8-.8A.8.8,0,0,0,181.45,190.6Z"/><rect class="cls-4" x="102.49" y="335.22" width="91.86" height="3.6"/><rect class="cls-2" x="98.01" y="327.77" width="4.48" height="18.5" transform="translate(200.5 674.03) rotate(180)"/><rect class="cls-1" x="102.49" y="348.06" width="91.86" height="18.5"/><path class="cls-4" d="M189.16,170.31a.81.81,0,1,0,.81-.8A.8.8,0,0,0,189.16,170.31Z"/><path class="cls-4" d="M185.31,170.31a.8.8,0,1,0,.8-.8A.8.8,0,0,0,185.31,170.31Z"/><path class="cls-3" d="M181.45,170.31a.8.8,0,1,0,.8-.8A.8.8,0,0,0,181.45,170.31Z"/><rect class="cls-4" x="102.49" y="355.51" width="91.86" height="3.6"/><rect class="cls-2" x="98.01" y="348.06" width="4.48" height="18.5" transform="translate(200.5 714.61) rotate(180)"/><path class="cls-4" d="M424.27,87.45a19.63,19.63,0,0,0-27-18.06,23.73,23.73,0,0,0-44.48,5.25,20.42,20.42,0,0,0,1.33,40.8h65a14.47,14.47,0,0,0,5.15-28Z"/><path class="cls-4" d="M161.39,99.77a21.05,21.05,0,0,0-28.93-19.36A25.44,25.44,0,0,0,84.77,86a21.9,21.9,0,0,0,1.42,43.75h69.68a15.52,15.52,0,0,0,5.52-30Z"/></g><g id="Shadow"><ellipse id="_Path_" data-name="&lt;Path&gt;" class="cls-4" cx="252" cy="416.24" rx="193.89" ry="11.32"/></g><g id="Server"><path class="cls-5" d="M55.05,407.1V405H42.69a1,1,0,0,0-1,1h0a1,1,0,0,0,1,1.05Z"/><path class="cls-5" d="M55.05,416.07V414H42.69a1,1,0,0,0-1,1h0a1,1,0,0,0,1,1.05Z"/><path class="cls-6" d="M50.6,399.89h0a1.75,1.75,0,0,0-1.75,1.74v18.24a1.75,1.75,0,0,0,1.75,1.74h0a1.74,1.74,0,0,0,1.74-1.74V401.63A1.74,1.74,0,0,0,50.6,399.89Z"/><path class="cls-6" d="M55.54,402.43H50.6v16.64h4.94a8.32,8.32,0,0,0,8.31-8.32h0A8.32,8.32,0,0,0,55.54,402.43Z"/><path class="cls-6" d="M108.52,425.94a117.25,117.25,0,0,1-14.23-1.12l-8.12-1c-1.29.06-2.59.15-3.91.29-1.87.19-3.78.49-5.62.78a56.09,56.09,0,0,1-10.71,1,5.24,5.24,0,0,1-2.2-.44,2.34,2.34,0,0,1-.06-4.34,5.45,5.45,0,0,1,2-.5,60.57,60.57,0,0,1,12.22.61l8.29,1c3.36-.15,6.6-.07,9.76,0a120.31,120.31,0,0,0,12.54-.16c3.69-.3,6.31-1.54,6.46-2.09-.8-1-2.84-1.26-7-1.79-3.1-.39-7-.5-11.22-.61-3.29-.09-6.7-.18-10.19-.41-7-.47-15.91-1.57-23.53-6a.8.8,0,0,1-.28-1.1.81.81,0,0,1,1.1-.29c7.32,4.29,16,5.36,22.82,5.81,3.45.23,6.84.32,10.12.41,4.22.11,8.2.22,11.38.62a46.26,46.26,0,0,1,5.44.89l-.21-.28c-.6-.78-1.22-1.58-1.78-2.44a11.66,11.66,0,0,1-1.76-3.76,5,5,0,0,1,.92-4.37,6.54,6.54,0,0,1,4.36-1.84,45.87,45.87,0,0,1,11.49.71.8.8,0,0,1,.68.91.78.78,0,0,1-.91.68,44.37,44.37,0,0,0-11.09-.7A5.08,5.08,0,0,0,112,407.7a3.46,3.46,0,0,0-.57,3,10.27,10.27,0,0,0,1.55,3.23c.51.8,1.11,1.58,1.69,2.33.38.48.75,1,1.11,1.46l.19.26c.82,1.12,2,2.66,1.71,4.29-.51,3.54-5.51,3.64-7.92,3.68ZM101,424a75.11,75.11,0,0,0,8.63.37c2.06,0,6.15-.11,6.46-2.3a1.88,1.88,0,0,0-.06-.74c-1.38,1.44-5,2.22-7.37,2.42C106,423.91,103.49,424,101,424Zm-32.32-1.82c-.94,0-1.89,0-2.82.12a3.76,3.76,0,0,0-1.45.32.76.76,0,0,0,0,1.47,3.89,3.89,0,0,0,1.55.27,54,54,0,0,0,10.39-1c.78-.12,1.56-.25,2.35-.36l-1-.12A75.79,75.79,0,0,0,68.68,422.13Z"/><path d="M222.11,171H132.32l-10,10V403.74l10,10h89.79l10-10V181Z"/><polygon class="cls-7" points="106.16 190.4 104.14 193.16 99 185.82 102.85 200.2 104.88 197.45 110.01 204.79 106.16 190.4"/><polygon class="cls-7" points="167.04 138.49 164.01 140.05 162.68 131.19 159.72 145.79 162.75 144.23 164.09 153.08 167.04 138.49"/><polygon class="cls-7" points="208.65 146.2 204.03 145.12 210.57 134.55 194.33 147.35 198.95 148.42 192.4 158.99 208.65 146.2"/><polygon class="cls-8" points="122.32 403.74 132.32 413.74 172.17 413.74 162.17 403.74 122.32 403.74"/><polygon class="cls-8" points="122.32 181.01 132.32 171.01 172.17 171.01 162.17 181.01 122.32 181.01"/><path class="cls-6" d="M262,171H172.17c-3.91,3.91-6.09,6.1-10,10V403.74c3.91,3.9,6.09,6.09,10,10H262l10-10V181Z"/><polygon class="cls-9" points="173.44 409.07 166.84 402.46 166.84 182.29 173.44 175.68 260.69 175.68 267.29 182.29 267.29 402.46 260.69 409.07 173.44 409.07"/><rect class="cls-6" x="171.51" y="187.53" width="95.78" height="19.29"/><path class="cls-7" d="M261.88,192.6a.85.85,0,0,1,.84-.84.84.84,0,0,1,0,1.68A.85.85,0,0,1,261.88,192.6Z"/><path class="cls-10" d="M257.86,192.6a.84.84,0,1,1,.83.84A.84.84,0,0,1,257.86,192.6Z"/><path class="cls-7" d="M253.83,192.6a.84.84,0,1,1,.84.84A.85.85,0,0,1,253.83,192.6Z"/><rect class="cls-7" x="171.51" y="195.3" width="95.78" height="3.75"/><rect x="166.84" y="187.53" width="4.67" height="19.29" transform="translate(338.35 394.36) rotate(180)"/><rect class="cls-6" x="171.51" y="208.69" width="95.78" height="19.29"/><circle class="cls-7" cx="262.72" cy="213.75" r="0.84"/><circle class="cls-3" cx="258.69" cy="213.75" r="0.84"/><circle class="cls-3" cx="254.67" cy="213.75" r="0.84"/><rect class="cls-7" x="171.51" y="216.46" width="95.78" height="3.75"/><rect x="166.84" y="208.69" width="4.67" height="19.29" transform="translate(338.35 436.67) rotate(180)"/><rect class="cls-6" x="171.51" y="229.84" width="95.78" height="19.29"/><circle class="cls-7" cx="262.72" cy="234.91" r="0.84"/><circle class="cls-7" cx="258.69" cy="234.91" r="0.84"/><circle class="cls-7" cx="254.67" cy="234.91" r="0.84"/><rect class="cls-7" x="171.51" y="237.61" width="95.78" height="3.75"/><rect x="166.84" y="229.84" width="4.67" height="19.29" transform="translate(338.35 478.98) rotate(180)"/><rect class="cls-6" x="171.51" y="251" width="95.78" height="19.29"/><circle class="cls-10" cx="262.72" cy="256.06" r="0.84"/><circle class="cls-3" cx="258.69" cy="256.06" r="0.84"/><circle class="cls-7" cx="254.67" cy="256.06" r="0.84"/><rect class="cls-7" x="171.51" y="258.77" width="95.78" height="3.75"/><rect x="166.84" y="251" width="4.67" height="19.29" transform="translate(338.35 521.29) rotate(180)"/><rect class="cls-6" x="171.51" y="272.15" width="95.78" height="19.29"/><path class="cls-10" d="M261.88,277.22a.85.85,0,0,1,.84-.84.84.84,0,0,1,0,1.68A.85.85,0,0,1,261.88,277.22Z"/><path class="cls-10" d="M257.86,277.22a.84.84,0,1,1,.83.84A.84.84,0,0,1,257.86,277.22Z"/><path class="cls-10" d="M253.83,277.22a.84.84,0,1,1,.84.84A.85.85,0,0,1,253.83,277.22Z"/><rect class="cls-7" x="171.51" y="279.92" width="95.78" height="3.75"/><rect x="166.84" y="272.15" width="4.67" height="19.29" transform="translate(338.35 563.6) rotate(180)"/><rect class="cls-6" x="171.51" y="293.31" width="95.78" height="19.29"/><path class="cls-7" d="M261.88,298.37a.84.84,0,0,1,.84-.83.84.84,0,0,1,0,1.67A.84.84,0,0,1,261.88,298.37Z"/><path class="cls-3" d="M257.86,298.37a.84.84,0,1,1,.83.84A.83.83,0,0,1,257.86,298.37Z"/><path class="cls-7" d="M253.83,298.37a.84.84,0,1,1,.84.84A.84.84,0,0,1,253.83,298.37Z"/><rect class="cls-7" x="171.51" y="301.08" width="95.78" height="3.75"/><rect x="166.84" y="293.31" width="4.67" height="19.29" transform="translate(338.35 605.9) rotate(180)"/><rect class="cls-6" x="171.51" y="314.46" width="95.78" height="19.29"/><circle class="cls-3" cx="262.72" cy="319.53" r="0.84"/><circle class="cls-10" cx="258.69" cy="319.53" r="0.84"/><circle class="cls-7" cx="254.67" cy="319.53" r="0.84"/><rect class="cls-7" x="171.51" y="322.23" width="95.78" height="3.75"/><rect x="166.84" y="314.46" width="4.67" height="19.29" transform="translate(338.35 648.21) rotate(180)"/><rect class="cls-6" x="171.51" y="335.62" width="95.78" height="19.29"/><circle class="cls-3" cx="262.72" cy="340.68" r="0.84"/><circle class="cls-7" cx="258.69" cy="340.68" r="0.84"/><circle class="cls-10" cx="254.67" cy="340.68" r="0.84"/><rect class="cls-7" x="171.51" y="343.39" width="95.78" height="3.75"/><rect x="166.84" y="335.62" width="4.67" height="19.29" transform="translate(338.35 690.52) rotate(180)"/><rect class="cls-6" x="171.51" y="356.77" width="95.78" height="19.29"/><circle class="cls-7" cx="262.72" cy="361.84" r="0.84"/><circle class="cls-3" cx="258.69" cy="361.84" r="0.84"/><circle class="cls-7" cx="254.67" cy="361.84" r="0.84"/><rect class="cls-7" x="171.51" y="364.54" width="95.78" height="3.75"/><rect x="166.84" y="356.77" width="4.67" height="19.29" transform="translate(338.35 732.83) rotate(180)"/><rect class="cls-6" x="171.51" y="377.93" width="95.78" height="19.29"/><circle class="cls-7" cx="262.72" cy="382.99" r="0.84"/><circle class="cls-7" cx="258.69" cy="382.99" r="0.84"/><circle class="cls-3" cx="254.67" cy="382.99" r="0.84"/><rect class="cls-7" x="171.51" y="385.7" width="95.78" height="3.75"/><rect x="166.84" y="377.93" width="4.67" height="19.29" transform="translate(338.35 775.14) rotate(180)"/><polygon class="cls-11" points="173.44 409.07 166.84 402.46 166.84 182.29 173.44 175.68 225.12 175.68 231.72 182.29 231.72 402.46 225.12 409.07 173.44 409.07"/><polygon class="cls-7" points="225.12 409.07 231.72 402.46 231.72 182.29 225.12 175.68 227.71 175.68 233.38 181.35 233.38 403.4 227.71 409.07 225.12 409.07 225.12 409.07"/><polygon class="cls-7" points="118.99 142.46 117.31 145.43 111.34 138.76 116.88 152.58 118.56 149.61 124.54 156.28 118.99 142.46"/></g><g id="Character"><path class="cls-12" d="M360.18,179.71c2.18,4.26,4.1,8.49,5.88,12.91.88,2.2,1.72,4.45,2.48,6.75a56,56,0,0,1,2,7.32l.09.5.05.27.05.37c0,.24.07.5.09.74l0,.66a17,17,0,0,1-.11,2.33,35.26,35.26,0,0,1-.73,3.95,66.55,66.55,0,0,1-2.2,7,99.09,99.09,0,0,1-5.94,12.95,2.74,2.74,0,0,1-5.08-1.94l0-.06c1-4.42,2.11-8.9,3-13.26.46-2.18.83-4.36,1.09-6.42a26.05,26.05,0,0,0,.2-2.91,8.73,8.73,0,0,0-.07-1.13l0-.21,0-.11-.06-.21-.1-.35c-.54-1.83-1.31-3.87-2.13-5.9s-1.72-4.07-2.65-6.12c-1.84-4.08-3.78-8.23-5.68-12.26l0-.06a5.5,5.5,0,0,1,9.88-4.85Z"/><path class="cls-12" d="M355.33,234.89l3.41-5,3.39-1c1.56,1.9,1.11,4.83.65,6.51h0l-1,6.26a2.68,2.68,0,0,1-2.3,2.24l-2.23.32a2.91,2.91,0,0,1-3.31-2.64l-.09-1.08A8.61,8.61,0,0,1,355.33,234.89Z"/><path class="cls-6" d="M349.76,248.4A5,5,0,0,0,351,245l16.82-7.81.13.12a5.05,5.05,0,0,0,7.11-.61,5,5,0,0,0,.86-1.49l-3.65.5a1.72,1.72,0,0,1-1.94-1.55l-.11-1.26a1.71,1.71,0,0,1,1.65-1.86l3.69-.14a5.3,5.3,0,0,0-1.11-1.31,5,5,0,0,0-8.29,4l-16.83,7.81-.12-.12a5.05,5.05,0,0,0-7.11.61,5.33,5.33,0,0,0-.87,1.48l3.66-.49a1.72,1.72,0,0,1,1.94,1.55l.1,1.26a1.71,1.71,0,0,1-1.64,1.86l-3.69.13a4.79,4.79,0,0,0,1.11,1.32A5,5,0,0,0,349.76,248.4Z"/><path class="cls-13" d="M350.61,243h0a1,1,0,0,1,.49-1.35l13.46-6.24a1,1,0,0,1,1.35.49h0a1,1,0,0,1-.49,1.34L352,243.46A1,1,0,0,1,350.61,243Z"/><path class="cls-6" d="M348.33,169.28c6,1.32,9,4.4,14.8,14.1-3.3,4.89-11.37,9.12-11.37,9.12l-3.5-4c-4.38-8.13.07-19.2.07-19.2"/><path class="cls-14" d="M346.34,180.35a17.5,17.5,0,0,0,1.92,8.13l3.49,4s1.27-.67,3-1.78C351.91,185,349.68,182.15,346.34,180.35Z"/><path class="cls-12" d="M320.55,178.58l-.11.63-.1.48-.21.89c-.16.57-.34,1.13-.53,1.67a26.34,26.34,0,0,1-1.37,3.17,24.27,24.27,0,0,1-4,5.65,23.22,23.22,0,0,1-5.5,4.27,25.28,25.28,0,0,1-6.31,2.49l-.35.09a4.85,4.85,0,0,1-5.88-3.52,4.51,4.51,0,0,1-.12-.72,20.74,20.74,0,0,1,.35-6,37.84,37.84,0,0,1,1.47-5.19,59.73,59.73,0,0,1,4.33-9.11,96.89,96.89,0,0,1,5.32-8.16c1.93-2.6,3.87-5.1,6.08-7.54a2.73,2.73,0,0,1,4.39,3.2l0,.07c-1.51,2.59-3.05,5.3-4.44,8s-2.74,5.42-3.92,8.16a60.6,60.6,0,0,0-2.94,8.18,18.26,18.26,0,0,0-.74,7.22l-6.36-4.15a18.43,18.43,0,0,0,3.69-1.94,15.92,15.92,0,0,0,2.94-2.67,17.19,17.19,0,0,0,2.19-3.34,14.54,14.54,0,0,0,.81-1.86c.12-.31.21-.63.31-.93l.13-.44.05-.19s0-.16,0,0a5.5,5.5,0,1,1,10.87,1.67Z"/><path class="cls-6" d="M323.09,177.83c.62-3.76-2-8.27-2-8.27-6,.29-11.72,1.75-17.24,13.05,1.33,6.3,9.68,10.74,9.68,10.74l5.89-7.64S322.46,181.6,323.09,177.83Z"/><path class="cls-12" d="M315.23,154.88l1.66-1.8a6.62,6.62,0,0,1,2.61-1.72l1.58-.57a3.08,3.08,0,0,1,4.05,2.32l.39,2.08a3.07,3.07,0,0,1-2.15,3.52l-2.43.71a6.9,6.9,0,0,1-8.54,2.65A10.53,10.53,0,0,1,315.23,154.88Z"/><path class="cls-12" d="M358.83,398.09h-8.32s.4,6.09.37,9.7l7.34.88C357.59,404.67,358.83,398.09,358.83,398.09Z"/><path class="cls-10" d="M322.17,226.93s14.93,63.27,19.59,89c4.89,27,8.22,81.17,8.21,83.15,2.68-.53,7-.65,9.15,0,0,0,10.28-63.7,1-87.35-3.53-44.84,1-70.21-8-84.79Z"/><path class="cls-14" d="M341.18,246.55c-2.44-10-10.72-9-16.11-7.18,3.36,14.45,8.93,38.78,13,58.08C343.85,283.59,344.48,260,341.18,246.55Z"/><path class="cls-12" d="M305.84,397c-.75,9.67-8.6,20.07-8.6,20.07l12.11-3.1,5.1-7.58a35.77,35.77,0,0,1,1.13-8.55Z"/><path class="cls-10" d="M310,226.93s2.11,67.32,1.56,87c-.77,27.28-6.49,85.16-6.49,85.16,4.34-.45,8.09-.58,10.49,0,0,0,18-46.86,15.89-84.9,4.5-35.25,19.66-67.63,10.29-87.24Z"/><path class="cls-12" d="M342.07,151c-1.18,5.1-2.51,14.45.94,17.86a27.33,27.33,0,0,1-12.66,10.39c-6.68-4.28-3.2-10.39-3.2-10.39,5.74-1.36,5.74-5.58,4.89-9.55Z"/><path class="cls-10" d="M343.07,163.57s-11.6-1.58-17.3,3.16a5.12,5.12,0,0,1-1.39,3.15,57,57,0,0,0,18.93.93C344.82,168.22,343.07,163.57,343.07,163.57Z"/><path class="cls-6" d="M311.22,180.8c.62,16-2.9,40.33-1.2,46.13,17.16,1.74,30.57,1.45,42.11,0,2-6.33-2.76-25.13,2.71-47.5a8.23,8.23,0,0,0-7.15-10.25c-1.48-.15-3.06-.28-4.68-.36a111.82,111.82,0,0,0-15.86,0c-2,.18-4.12.45-6.08.74C315.49,170.37,311,175.2,311.22,180.8Z"/><path class="cls-6" d="M323.24,142.38c-.07.7-.49,1.24-.94,1.21s-.76-.61-.69-1.31.48-1.23.93-1.2S323.3,141.69,323.24,142.38Z"/><path class="cls-6" d="M322.74,141.13l-1.61-.59S321.85,141.9,322.74,141.13Z"/><path class="cls-6" d="M322.35,137.82a.37.37,0,0,1-.25-.18.41.41,0,0,1,.15-.56,4,4,0,0,1,3.69-.44.4.4,0,0,1,.18.54.41.41,0,0,1-.54.21,3.18,3.18,0,0,0-2.92.38A.43.43,0,0,1,322.35,137.82Z"/><path class="cls-15" d="M323.1,144.3a19.43,19.43,0,0,1-2.87,4.28,2.88,2.88,0,0,0,2.41.62Z"/><path class="cls-12" d="M346.73,141c-1.32,8.5-1.7,12.13-6.38,16.25-7,6.2-17.07,3.06-18.29-5.59-1.09-7.78,1.25-20.38,9.84-23.27A11.23,11.23,0,0,1,346.73,141Z"/><path class="cls-6" d="M325.52,131.38c-1.71,3.37,1.66,9.62,3.92,12.18-4,4.33-8,11.8-2.73,16.28,4.86,4.08,30.92,4,25.85-4.74,4.47-5.5-3-6.28.58-17,2.59-7.77-2.28-9.93-6.65-9.19C341.51,122.65,329.07,124.37,325.52,131.38Z"/><path class="cls-2" d="M327.43,134.91s8.06,6.6,17.34,7.68c5,.58,7.5.51,7.73-.25s.66-3.32.66-3.32Z"/><path class="cls-10" d="M320.59,133.18c2.44,1.93,20.88,7.2,33.31,6,.12-.74-.28-.83-.28-.83s2.86-9.59-3.71-13.19c-3.1-5.07-12.46-4.76-16.6-3.33l-.59.74s-8.11,1.89-8.23,8.61C321.29,131.59,317.9,131.06,320.59,133.18Z"/><path class="cls-14" d="M332.72,122.61l.59-.74a17,17,0,0,1,12,4C342.2,124,337,122.25,332.72,122.61Z"/><path class="cls-12" d="M328.22,140.86c-1.77-.24-3.45,2.34-4.06,4.18-.67,2.06.06,4,1.9,3.3a6.66,6.66,0,0,0,3.42-3.14C330.45,143.35,330,141.09,328.22,140.86Z"/><path class="cls-6" d="M353.41,402.2c5.11-.9,5,1.74,5.34,4.57a8.14,8.14,0,0,1-.84,5c-1.8,3.17-.26,7.85-6,7.85s-6.25-1.33-4.71-4.16a32.2,32.2,0,0,0,3-9.09C350.59,404.73,351.14,402.6,353.41,402.2Z"/><path class="cls-6" d="M358.42,408.25c0,3.43.06,11.37.06,11.37l-.91,0s-.78-8.45-1.27-10.73Z"/><path class="cls-6" d="M315.1,403.33a6.25,6.25,0,0,1,.47,2.88c-.21,3.62-1,13.24-1,13.24h-.83a84,84,0,0,0-.08-8.85c-.31-2.39-1.49,1.83-3.15,4.21s-4.82,4.56-10.22,4.73c-6.32.2-8.87-.07-7-1.65s6.13-2.62,6.13-2.62a17.08,17.08,0,0,0,7.94-7.15,15.15,15.15,0,0,1,6.61-5.88A1.62,1.62,0,0,1,315.1,403.33Z"/><path class="cls-16" d="M377.63,110.13a5.48,5.48,0,0,1,5.7,4.42h-3.56a2.32,2.32,0,0,0-2.19-1.38c-1.51,0-2.51,1.18-2.51,3s1,3,2.51,3a2.31,2.31,0,0,0,2.19-1.38h3.56a5.48,5.48,0,0,1-5.7,4.42,6,6,0,0,1,0-12.09Z"/><path class="cls-16" d="M389.29,122.25a4.85,4.85,0,1,1,5-4.85A4.64,4.64,0,0,1,389.29,122.25Zm0-2.86c.85,0,1.62-.63,1.62-2s-.76-2-1.6-2-1.58.62-1.58,2S388.43,119.39,389.29,119.39Z"/><path class="cls-16" d="M402.05,117.06a1.57,1.57,0,1,0-3.13,0v5.07h-3.31v-9.45h3.31V114a3.4,3.4,0,0,1,2.88-1.44c2.19,0,3.55,1.55,3.55,4v5.51h-3.3Z"/><path class="cls-16" d="M413.61,117.06a1.57,1.57,0,1,0-3.13,0v5.07h-3.31v-9.45h3.31V114a3.4,3.4,0,0,1,2.88-1.44c2.19,0,3.55,1.55,3.55,4v5.51h-3.3Z"/><path class="cls-16" d="M423,122.25a4.85,4.85,0,0,1,0-9.69,4.48,4.48,0,0,1,4.77,4.74,6.64,6.64,0,0,1,0,.77h-6.26c.07,1.1.66,1.54,1.4,1.54a1.23,1.23,0,0,0,1.18-.75h3.52A4.47,4.47,0,0,1,423,122.25Zm-1.52-5.78h2.92a1.3,1.3,0,0,0-1.42-1.3A1.43,1.43,0,0,0,421.48,116.47Z"/><path class="cls-16" d="M433.36,112.56A4.43,4.43,0,0,1,438,116.3h-3.51a1.16,1.16,0,0,0-1.18-.92c-.81,0-1.35.67-1.35,2s.54,2,1.35,2a1.15,1.15,0,0,0,1.18-.93H438a4.46,4.46,0,0,1-4.62,3.74,4.85,4.85,0,0,1,0-9.69Z"/><path class="cls-16" d="M439.86,115.43H438.7v-2.75h1.16v-2.29h3.33v2.29h1.71v2.75h-1.71v3.16c0,.51.21.73.77.73h1v2.81h-1.43c-2.09,0-3.63-.87-3.63-3.59Z"/><path class="cls-16" d="M446.17,110.12a1.94,1.94,0,0,1,3.86,0,1.95,1.95,0,0,1-3.86,0Zm.27,2.56h3.3v9.45h-3.3Z"/><path class="cls-16" d="M456,122.25a4.85,4.85,0,1,1,5-4.85A4.65,4.65,0,0,1,456,122.25Zm0-2.86c.84,0,1.61-.63,1.61-2s-.75-2-1.6-2-1.58.62-1.58,2S455.17,119.39,456,119.39Z"/><path class="cls-16" d="M468.78,117.06a1.57,1.57,0,1,0-3.13,0v5.07h-3.31v-9.45h3.31V114a3.4,3.4,0,0,1,2.88-1.44c2.19,0,3.56,1.55,3.56,4v5.51h-3.31Z"/><path class="cls-10" d="M363,139.64c-3.49,0-5.73-2.2-5.73-5s2.24-5.08,5.73-5.08,5.68,2.24,5.68,5.08S366.45,139.64,363,139.64Zm-5.33-37.32h10.61l-1.15,23.77h-8.32Z"/><path class="cls-16" d="M380.43,127.91H376.1v2h3.82v2.53H376.1v2.15h4.33v2.67h-7.66v-12h7.66Z"/><path class="cls-16" d="M385.4,137.22h-3.32v-9.53h3.32v1.68a3.8,3.8,0,0,1,3.08-1.76v3.55h-.94c-1.37,0-2.14.44-2.14,1.9Z"/><path class="cls-16" d="M393,137.22h-3.33v-9.53H393v1.68a3.8,3.8,0,0,1,3.08-1.76v3.55h-.94c-1.37,0-2.14.44-2.14,1.9Z"/><path class="cls-16" d="M401.69,137.34a4.89,4.89,0,1,1,5-4.89A4.68,4.68,0,0,1,401.69,137.34Zm0-2.89c.85,0,1.63-.63,1.63-2s-.77-2-1.62-2-1.59.63-1.59,2S400.82,134.45,401.69,134.45Z"/><path class="cls-16" d="M411.38,137.22h-3.33v-9.53h3.33v1.68a3.78,3.78,0,0,1,3.07-1.76v3.55h-.93c-1.38,0-2.14.44-2.14,1.9Z"/></g></svg>