<svg id="Layer_1" data-name="Layer 1" xmlns="http://www.w3.org/2000/svg" viewBox="0 0 533.74 533.74"><defs><style>.cls-1{fill:#ebf2f9;}.cls-2{fill:#f8fbff;}.cls-3{fill:#c9e0f2;}.cls-4{fill:#a8d29f;}.cls-5{fill:#82b378;}.cls-6,.cls-7{fill:#979bb4;}.cls-7{font-size:23.6px;font-family:Poppins-SemiBold, Poppins;font-weight:600;}.cls-8{fill:#d9935c;}.cls-9{fill:#171228;}.cls-10{fill:#909aa3;}.cls-11{fill:#cb7d45;}.cls-12{fill:#233862;}.cls-13{fill:#ee9849;}.cls-14{fill:#e58638;}.cls-15{fill:#2b478b;}.cls-16,.cls-20{fill:#ff431a;}.cls-17{fill:#466aa5;}.cls-18{fill:#aebacb;}.cls-18,.cls-20{fill-rule:evenodd;}.cls-19{fill:#fff;}</style></defs><path class="cls-1" d="M573.48,170.91c-32-25.57-82.67-31.3-130.75-27.46-116.26,9.28-118.46,87-157.37,89S142.75,166.69,62.5,247.68a111.57,111.57,0,0,0-26.9,44.4q-1.83,5.6-3.13,11.25s0,0,0,.05a145.79,145.79,0,0,0-3,18.39c-4.89,48.76,13.35,93.85,13.35,93.85l345.91.11h20.42l148.32,0h16Z"/><path class="cls-2" d="M574,211.47,100,343.14a163.39,163.39,0,0,0,5.74,53.73L574,336Z"/><path class="cls-2" d="M398.55,229.89,29.46,321.77a145.79,145.79,0,0,1,3-18.39s0,0,0-.05q1.31-5.65,3.13-11.25Z"/><path class="cls-3" d="M388.72,415.73l-345.91-.11S19.72,358.54,32.46,303.38c0,0,0,0,0-.05a172.72,172.72,0,0,1,93.46,22.54c58.38,33.2,154.22,8.91,182,27.53s34.11,37.9,54.74,41.22c18,2.89,24.68,17.44,26.09,21.11Z"/><path class="cls-2" d="M528.28,192a9.65,9.65,0,1,1,9.65,9.64A9.65,9.65,0,0,1,528.28,192Z"/><path class="cls-4" d="M494.39,388.18c9.58-3,21.9-7.89,15.2-11.56-7.18-3.93-16.33,4.41-21.29,9.93l-.78-.12a27.26,27.26,0,0,0-3.85-.27c9.45-15.16,20-35.34,11-37.91-9.68-2.76-16.62,21.77-20,39-9.46,2.06-19.64,6.65-30.24,9.71C440.66,383.29,432,363,414,363.41c-19,.47,4.72,22.53,20.68,35.76a52.78,52.78,0,0,1-10.81.68c-23.21-1.08-37.75,14.66-37.75,14.66H510.73C515.41,407.09,508.32,393.4,494.39,388.18Z"/><path class="cls-5" d="M1.44,414.68l131.31.86s-12.14-24.41-42.27-19.19c-19,3.29-25.31-1.68-33.14-6.55,14.49-5.48,36-14.54,26-16.73-9.53-2.09-22.53,7.19-30.53,14.09a39.38,39.38,0,0,0-5.56-2.35c17.12-16,49.35-47.88,35.12-48.79-14-.89-31.65,30.66-40.06,47.49-1-.19-2-.36-3.05-.5a22.41,22.41,0,0,0-12.15,1.87c-1.86-7-5.29-15-9.85-13.35s.6,9.74,5.38,15.82C9.37,396.14,1.44,414.68,1.44,414.68Z"/><path class="cls-6" d="M573.48,414.51H-5.84a1,1,0,0,0-1,1,1,1,0,0,0,1,1H573.48Z"/><text class="cls-7" transform="translate(118.56 465.5)">There are no comments</text><path class="cls-8" d="M238,257.1C225.62,254,212,234.69,212,234.69l3.49-3c3.62,4.26,18.66,11.61,18.66,11.61-.08-3.9,0-7.46.27-10.7,1.67-22,10-29.37,12.24-31a5.92,5.92,0,0,1,.58-.37s0,.16,0,.46c0,.66.09,2,.15,3.79C247.85,219,248.4,259.75,238,257.1Z"/><path class="cls-8" d="M215.47,231.66c-.05-.52-.4-8.09-1.9-9.53s-4.48-3.4-5.33-3.24-3.75,5-2.38,8.29,6.12,7.51,6.12,7.51Z"/><rect class="cls-9" x="207.8" y="216.21" width="9.16" height="16.58" rx="1.4" transform="translate(-9.2 9.07) rotate(-2.4)"/><path class="cls-10" d="M210,218.64a.66.66,0,0,1-.85.36.65.65,0,1,1,.85-.36Z"/><path class="cls-8" d="M207.62,219.46s2.23-2.48,4.46-.58-.15,6-2.08,7.07a15.52,15.52,0,0,0-2.56,1.69Z"/><path class="cls-11" d="M265.06,385.16c-.76,3-1.59,5.87-2.44,8.53-.18.58-.36,1.14-.54,1.69l-.27.81c-.18.52-.35,1-.53,1.55s-.46,1.3-.68,1.92c-.17.46-.34.91-.5,1.36-2.52,6.75-4.63,11-4.63,11l-5-.34a136.94,136.94,0,0,0,2.26-21.79l0-1.38c0-1,0-2,0-3V384.2c-.1-11.05-1.47-24.11-5.84-36.58a238.35,238.35,0,0,1-8-28.19c-6-27.67-4.59-45.84-4.59-45.84l28.21,3.3,1.31.15c.12,13,.46,30.55.75,44.31.05,2.38.09,4.66.14,6.77.2,8.83.34,14.87.34,14.87C270.55,354.67,268.58,371.16,265.06,385.16Z"/><path class="cls-12" d="M257,176.72s6.68,5.68.56,12.22c0,0,5.09.5,6.82-.91a4.85,4.85,0,0,1-.65,1s5.7.2,8.05-1.58.84-30.94-15-27.68c0,0-13.41-1-12.16,14.5s-3.82,15.52-3.82,15.52a7.18,7.18,0,0,0,2.09.7s1-.38,1.19-.93a3.71,3.71,0,0,1-.45,1.14s5.47.52,8.19-1.55S257.76,179.92,257,176.72Z"/><path class="cls-8" d="M278.52,270.42c-5.33-12-7.88-15.34-8-19.1-.07-3,1.39-6.19,4.24-14.06a28.21,28.21,0,0,0,1.42-5.69c2.26-15.17-6.52-31.58-12-32.69-1.52-.41-4.09-5.89-4.06-14.72l-.68.14L248,186.57s.26,3.61.27,7c0,2.84-.14,5.72-.79,6.06-.82.08-1.58.23-1.58.23S236.2,206.7,235.57,216c-.84,12.37,7.88,27,.15,51.74C227.82,293,281.47,277,278.52,270.42Z"/><path class="cls-11" d="M248,186.57s.26,3.61.27,7c6.43-.18,9.82-6,11.22-9.29Z"/><path class="cls-12" d="M260.68,183.05s3.37-5.33,4.18-9.88c.58-3.24-1.08-15.29-13.18-13.55a16.35,16.35,0,0,0-6.82,2.58c-2.62,1.77-6.42,5.6-2.18,16.11l1.1,3.55Z"/><path class="cls-8" d="M245.87,189.79s15.2.25,15.21-9.22,2-15.81-7.73-16.37-11.59,3.05-12.37,6.21S241.91,189.48,245.87,189.79Z"/><path class="cls-12" d="M246.43,164s4.16,11.11,10.55,12.76,9.16-.07,9.16-.07A18.09,18.09,0,0,1,260.22,166S249.57,158.67,246.43,164Z"/><path class="cls-12" d="M247.46,164.87s-3.11,2.48-3.87,4.89-1.1,7.37-2.54,7.21c0,0-3.14-7.56.39-11.83C245.17,160.61,247.46,164.87,247.46,164.87Z"/><path class="cls-8" d="M298.29,283.12l-4.56,1.37s-15.06-25-16.43-31.48c-.44-2.12-1.54-6.36-2.82-11.1-2.64-9.83-6.05-21.85-6.05-21.85l-1.13-4.87-3.83-16.6s7.34.75,11.63,2.55a5.35,5.35,0,0,1,2.89,2.13c3.15,6.93,6.3,24.43,8.51,36.92,1.24,6.95,2.18,12.36,2.67,13.5C290.54,256.88,294.72,274.45,298.29,283.12Z"/><path class="cls-12" d="M246.88,165.24s3,11.64,11,15.36c0,0-8.06-7.15-8.75-14.83S246.88,165.24,246.88,165.24Z"/><path class="cls-8" d="M298,282.36s1.39,3.27,2.83,4.18a8.11,8.11,0,0,1,3.12,4.87,4.3,4.3,0,0,1-3.76,5.25c-1.82,0-3.56-2.49-4.64-8.43-.06-.33-1.79-3.74-1.79-3.74Z"/><path class="cls-8" d="M281.24,382.73c-1.62,17.31-8.76,28.51-8.76,28.51L270,413.46s-2.22-12.68-3.83-27.19c-1.53-13.79-3.62-28.39-6-32.84-3.54-6.66-6.16-20.27-8-34.65-3.1-23.8-4.2-49.72-4.2-49.72l28.6-1.42c2.88,4.84,4.13,12.77,4.43,21.79a219.63,219.63,0,0,1-1.47,29.72c-1.45,13.37-3.46,24.52-3.93,27h0a1.48,1.48,0,0,0,.19,1C281.49,358.41,282.31,371.29,281.24,382.73Z"/><path class="cls-13" d="M247.86,230.67c-.64,15.71-3,31.27-9.83,30.27-8.39-1.22-10.57-9.05-11-14.87a33.12,33.12,0,0,1,.12-6.46s4.13,0,4.8-.64c3.17-2.92,2.23-31.64,3.79-34.62s11.75-4.9,11.75-4.9S248.5,215.14,247.86,230.67Z"/><path class="cls-14" d="M247.86,230.67c-.64,15.71-3,31.27-9.83,30.27-8.39-1.22-10.57-9.05-11-14.87,2.06-.1,5.68-.6,7.12-2.8,2.07-3.14,8.5-23.39,8.5-23.39S245.16,224.43,247.86,230.67Z"/><path class="cls-12" d="M265.06,385.16c-.76,3-1.59,5.87-2.44,8.53-.18.58-.36,1.14-.54,1.69l-.27.81c-.18.52-.35,1-.53,1.55s-.46,1.3-.68,1.92c-.17.46-.34.91-.5,1.36-2.52,6.75-4.63,11-4.63,11l-5-.34a136.94,136.94,0,0,0,2.26-21.79l0-1.38c0-1,0-2,0-3V384.2c-.1-11.05-1.47-24.11-5.84-36.58a238.35,238.35,0,0,1-8-28.19c3,.61,5.61,0,13.22-.65.81-.07,4.63,4.67,8.42,10.94.19,8.83,4.52,13.27,4.52,13.27C270.55,354.67,268.58,371.16,265.06,385.16Z"/><path class="cls-15" d="M281.24,382.73c-1.62,17.31-8.76,28.51-8.76,28.51L270,413.46s-2.22-12.68-3.83-27.19c-1.53-13.79-3.62-28.39-6-32.84-3.54-6.66-6.16-20.27-8-34.65,2.64,1.09,11.6,3.94,27.36.37-1.45,13.37-3.46,24.52-3.93,27h0a1.48,1.48,0,0,0,.19,1C281.49,358.41,282.31,371.29,281.24,382.73Z"/><path class="cls-12" d="M239,252s16.83,4.23,31.59-.69c0,0,8.1,17.21,10.33,24.58s5.84,22.6,5.84,22.6-30,9.25-54.6,0c0,0-1.13-20.28,2.1-30.86S239,252,239,252Z"/><path class="cls-13" d="M300,259.9c0,3.94-4,6.37-8.35,7.55-4.16,1.14-8.58,1.12-10,.19-2.38-1.6-6.28-19.39-7.41-24.81-.21-1-.32-1.55-.32-1.55s-3.11,7.4-3.2,8.09c0,.31-.09.74-.11,1.12s-.05.83-.05.83-16.85,8.5-31.59.69c0,0-6-34.64-3.39-40.6,1.29-3,8-9.08,10.73-11.71.61-.59.55-1.77.31-2.84a1.24,1.24,0,0,1,1.52-1.47,16,16,0,0,0,8.21-.73,19.82,19.82,0,0,0,5-2.45.77.77,0,0,1,1.19.54c.26,2.07.88,5.84,2,5.84,1.57,0,12.28,1.31,13.06,2.63.27.46,3.06,6.76,6.57,15.1a.08.08,0,0,0,0,0C290.79,232,300,254.85,300,259.9Z"/><path class="cls-14" d="M273.91,241.28s-3.11,7.4-3.2,8.09c0,.31-.09.74-.11,1.12a15.34,15.34,0,0,1-5.17,2.71c-5.25,1.59-7.53-8.47-7.21-13.49s7.74-19.36,10.21-19.65S273.91,241.28,273.91,241.28Z"/><path class="cls-14" d="M274.23,242.83c-.21-1-.32-1.55-.32-1.55A8.07,8.07,0,0,1,274.23,242.83Z"/><path class="cls-16" d="M252.55,255.22c-9.58,0-13.39-2.69-13.68-2.91l-.62-4.52c.09.07,12.95,7.79,32.86.4l-.43,3.42C263,254.45,257.53,255.22,252.55,255.22Z"/><path class="cls-14" d="M300,259.9c0,3.94-4,6.37-8.35,7.55,5.95-7.09-7.08-50-7.41-51.1C290.79,232,300,254.85,300,259.9Z"/><path class="cls-14" d="M264.56,198.59s-8,5.08-14.09,3.88c0,0-1.45-.92.56-1.85s6.27-3.43,5.31-6a19.82,19.82,0,0,0,5-2.45.77.77,0,0,1,1.19.54C262.8,194.82,263.42,198.59,264.56,198.59Z"/><path class="cls-12" d="M258.36,416.25h-3.2c-1.07-.17-1.86-.48-3-.62a3,3,0,0,0-2.6.62l0,0H236c-.35-.49,0-1.62.3-2.45a1.9,1.9,0,0,1,1.28-1.16c1.44-.42,4.28-.79,6.88-3.15,1.47-1.32,7.08-4.87,7.08-4.87h0c.12,0,.71.18,3.26,2.33,1.32,1.11,3.56-1.57,3.56-1.57a3.11,3.11,0,0,1,.74,1,3.39,3.39,0,0,1,.29,2.09c-.2,1.22.45,3.5,1,5,.31.94.58,1.6.58,1.6S261.11,415.91,258.36,416.25Z"/><path class="cls-17" d="M259.11,406.41a10.11,10.11,0,0,1-3.45,1.74c-1.44.19-4.14-3.5-4.14-3.5h0c.12,0,.71.18,3.26,2.33,1.32,1.11,3.56-1.57,3.56-1.57A3.11,3.11,0,0,1,259.11,406.41Z"/><path class="cls-17" d="M258.36,416.25h-3.2c-1.07-.17-1.86-.48-3-.62a3,3,0,0,0-2.6.62l0,0H236c-.35-.49,0-1.62.3-2.45.42-.37.53,1.59.76,1.91s11.09.11,11.72-.35a6.6,6.6,0,0,1,5.14-.62c2.28.54,5.64-.86,6.48-1.23.31.94.58,1.6.58,1.6S261.11,415.91,258.36,416.25Z"/><path class="cls-12" d="M275.44,416.25h-3.2c-1.07-.17-1.86-.48-3-.62a3,3,0,0,0-2.59.62l0,0h-13.6c-.34-.49,0-1.62.31-2.45a1.89,1.89,0,0,1,1.27-1.16c1.44-.42,4.28-.79,6.89-3.15,1.46-1.32,7.07-4.87,7.07-4.87h0c.12,0,.71.18,3.26,2.33,1.32,1.11,3.57-1.57,3.57-1.57a3.17,3.17,0,0,1,.73,1,3.32,3.32,0,0,1,.29,2.09c-.2,1.22.46,3.5,1,5,.32.94.58,1.6.58,1.6S278.2,415.91,275.44,416.25Z"/><path class="cls-17" d="M276.19,406.41a10.06,10.06,0,0,1-3.44,1.74c-1.45.19-4.15-3.5-4.15-3.5h0c.12,0,.71.18,3.26,2.33,1.32,1.11,3.57-1.57,3.57-1.57A3.17,3.17,0,0,1,276.19,406.41Z"/><path class="cls-17" d="M275.44,416.25h-3.2c-1.07-.17-1.86-.48-3-.62a3,3,0,0,0-2.59.62l0,0h-13.6c-.34-.49,0-1.62.31-2.45.41-.37.53,1.59.75,1.91s11.1.11,11.72-.35a6.6,6.6,0,0,1,5.14-.62c2.28.54,5.65-.86,6.48-1.23.32.94.58,1.6.58,1.6S278.2,415.91,275.44,416.25Z"/><path class="cls-18" d="M220.21,189.12a3.41,3.41,0,0,0-3.41-3.4H180.13a3.41,3.41,0,0,0-3.41,3.4V206.6a3.41,3.41,0,0,0,3.41,3.41H205l7.29,6.93a1.36,1.36,0,0,0,1.45.28,1.38,1.38,0,0,0,.87-1.2c.14-2.62.33-6,.33-6h1.87a3.41,3.41,0,0,0,3.41-3.41Z"/><rect class="cls-19" x="181.83" y="191.1" width="33.4" height="2.04"/><rect class="cls-19" x="181.9" y="196.91" width="33.4" height="2.04"/><rect class="cls-19" x="181.9" y="202.59" width="33.4" height="2.04"/><path class="cls-18" d="M146.15,109.06a3.45,3.45,0,0,1,.66-2.52,3.4,3.4,0,0,1,2.26-1.31l35.05-4.76a3.36,3.36,0,0,1,2.52.66,3.41,3.41,0,0,1,1.31,2.25l2.78,20.44a3.45,3.45,0,0,1-.66,2.52,3.4,3.4,0,0,1-2.26,1.31L164,130.89l-5.82,8.53a1.37,1.37,0,0,1-1.42.57,1.35,1.35,0,0,1-1.07-1.09l-1.24-6.71-1.7.23a3.41,3.41,0,0,1-2.52-.67,3.36,3.36,0,0,1-1.31-2.25Z"/><path class="cls-18" d="M227.76,137.34a3.41,3.41,0,0,0-3.83-2.92l-36.35,4.94a3.41,3.41,0,0,0-2.91,3.84l2.89,21.27a3.4,3.4,0,0,0,3.83,2.92L216,164l8.22,7a1.38,1.38,0,0,0,2.26-1.18l-.63-7.11,1.86-.25a3.4,3.4,0,0,0,2.91-3.83Z"/><rect class="cls-19" x="151.78" y="108.17" width="32.4" height="2.31" transform="translate(-13.19 23.62) rotate(-7.74)"/><rect class="cls-19" x="190.12" y="143.08" width="33.4" height="2.38" transform="translate(-17.55 29.17) rotate(-7.74)"/><rect class="cls-19" x="152.74" y="114.68" width="32.4" height="2.31" transform="translate(-14.06 23.81) rotate(-7.74)"/><rect class="cls-19" x="191.1" y="149.78" width="33.4" height="2.38" transform="translate(-18.44 29.36) rotate(-7.74)"/><rect class="cls-19" x="153.6" y="121.03" width="32.4" height="2.31" transform="translate(-14.91 23.98) rotate(-7.74)"/><rect class="cls-19" x="192" y="156.34" width="33.4" height="2.38" transform="translate(-19.32 29.54) rotate(-7.74)"/><path class="cls-20" d="M181.48,137.07s-.79-4.62-4.95-3.79c-4.62.93-4.2,9,5.49,13.82,0,0,9.75-8.5,6.2-13C186,131.29,181.86,133.08,181.48,137.07Z"/><path class="cls-20" d="M223.43,186.19s-.49-2.81-3-2.31c-2.81.57-2.55,5.49,3.34,8.41,0,0,5.94-5.17,3.78-7.88C226.14,182.67,223.66,183.76,223.43,186.19Z"/></svg>