<svg id="Layer_1" data-name="Layer 1" xmlns="http://www.w3.org/2000/svg" viewBox="0 0 533.74 533.74"><defs><style>.cls-1{fill:#ebf2f9;}.cls-2{fill:#f8fbff;}.cls-3{fill:#c9e0f2;}.cls-4{fill:#a8d29f;}.cls-5{fill:#82b378;}.cls-22,.cls-23,.cls-6{fill:#979bb4;}.cls-7{fill:#233862;}.cls-8{fill:#a55b29;}.cls-9{fill:#739af0;}.cls-10{fill:#4a75cb;}.cls-11{fill:#8e5025;}.cls-12{fill:#2b478b;}.cls-13{fill:#ff431a;}.cls-14{fill:#f1ede1;}.cls-15{fill:#dedbd0;}.cls-16{fill:#4ba1a1;}.cls-17{fill:#3b8281;}.cls-18{fill:#f4ba51;}.cls-19{fill:#d4a247;}.cls-20{fill:#4c4e50;}.cls-21{fill:#3e3e40;}.cls-22{font-size:23.6px;font-family:Poppins-SemiBold, Poppins;font-weight:600;}.cls-23{font-size:8.26px;font-family:Poppins-Thin, Poppins;font-weight:200;letter-spacing:0.1em;}</style></defs><path class="cls-1" d="M574.48,171.91c-32-25.57-82.67-31.3-130.75-27.46-116.26,9.28-118.46,87-157.37,89S143.75,167.69,63.5,248.68a111.57,111.57,0,0,0-26.9,44.4q-1.83,5.6-3.13,11.25s0,0,0,.05a145.79,145.79,0,0,0-3,18.39c-4.89,48.76,13.35,93.85,13.35,93.85l345.91.11h20.42l148.32,0h16Z"/><path class="cls-2" d="M575,212.47,101,344.14a163.39,163.39,0,0,0,5.74,53.73L575,337Z"/><path class="cls-2" d="M399.55,230.89,30.46,322.77a145.79,145.79,0,0,1,3-18.39s0,0,0-.05q1.31-5.65,3.13-11.25Z"/><path class="cls-3" d="M389.72,416.73l-345.91-.11S20.72,359.54,33.46,304.38c0,0,0,0,0-.05a172.72,172.72,0,0,1,93.46,22.54c58.38,33.2,154.22,8.91,182,27.53s34.11,37.9,54.74,41.22c18,2.89,24.68,17.44,26.09,21.11Z"/><path class="cls-2" d="M529.28,193a9.65,9.65,0,1,1,9.65,9.64A9.65,9.65,0,0,1,529.28,193Z"/><path class="cls-4" d="M495.39,389.18c9.58-3,21.9-7.89,15.2-11.56-7.18-3.93-16.33,4.41-21.29,9.93l-.78-.12a27.26,27.26,0,0,0-3.85-.27c9.45-15.16,20-35.34,11-37.91-9.68-2.76-16.62,21.77-20,39-9.46,2.06-19.64,6.65-30.24,9.71C441.66,384.29,433,364,415,364.41c-19,.47,4.72,22.53,20.68,35.76a52.78,52.78,0,0,1-10.81.68c-23.21-1.08-37.75,14.66-37.75,14.66H511.73C516.41,408.09,509.32,394.4,495.39,389.18Z"/><path class="cls-5" d="M2.44,415.68l131.31.86s-12.14-24.41-42.27-19.19c-19,3.29-25.31-1.68-33.14-6.55,14.49-5.48,36-14.54,26-16.73-9.53-2.09-22.53,7.19-30.53,14.09a39.38,39.38,0,0,0-5.56-2.35c17.12-16,49.35-47.88,35.12-48.79-14-.89-31.65,30.66-40.06,47.49-1-.19-2-.36-3.05-.5a22.41,22.41,0,0,0-12.15,1.87c-1.86-7-5.29-15-9.85-13.35s.6,9.74,5.38,15.82C10.37,397.14,2.44,415.68,2.44,415.68Z"/><path class="cls-6" d="M574.48,415.51H-4.84a1,1,0,0,0-1,1,1,1,0,0,0,1,1H574.48Z"/><path class="cls-7" d="M263.87,155.28s-3.75-10.66-3.95-13.43,1.05-10.76,10.28-11.61,12.67-1.84,12.67-1.84l-1.76,2.08a6.61,6.61,0,0,1,5.24,1c2.67,1.76,4,7,3.63,11.43s-3.9,9.4-4,11.25S263.87,155.28,263.87,155.28Z"/><path class="cls-8" d="M238.7,265.93s-.21,2.44-2.76,7.74c0,0-1.16,3.6,6.47,9s.21-16.74.21-16.74Z"/><path class="cls-8" d="M265.62,171.82s-4.28,22.9-8.95,46.83c-5.07,26-10.6,53.22-11.59,53.55-1.91.64-4.83-1.85-6.1-5-1-2.56-2.77-23.57-1.58-37.15a68.67,68.67,0,0,1,1-7.72c1.91-8.58,2.49-38.94,8.21-43.7S265.62,171.82,265.62,171.82Z"/><path class="cls-9" d="M265.62,171.82s-2.47,13.2-5.7,30c-1,5.34-2.12,11-3.25,16.81-4.57,9-8.5,15.06-9.71,13.91-2.47-2.34-6.81-2.62-9.56-2.54a68.67,68.67,0,0,1,1-7.72c.15-.67.29-1.49.43-2.41,1.6-10.8,2.51-36.9,7.78-41.29C252.33,173.83,265.62,171.82,265.62,171.82Z"/><path class="cls-10" d="M259.92,201.84c-1,5.34-2.12,11-3.25,16.81-4.57,9-8.5,15.06-9.71,13.91-2.47-2.34-6.81-2.62-9.56-2.54a68.67,68.67,0,0,1,1-7.72c.15-.67.29-1.49.43-2.41l13.71-33.1Z"/><path class="cls-8" d="M284.59,171.48a100.62,100.62,0,0,0-.6-14.8l-18.44,3s0,5.62.08,11.87h0s-.51,5.79,6.63,6.64S284.78,176,284.59,171.48Z"/><path class="cls-11" d="M265.5,160.83s4.35,8.9,9.33,8.9,9.64-8.37,9.64-8.37Z"/><path class="cls-7" d="M277.79,415.92a32.37,32.37,0,0,1,2.23-8.34c1.55-3.11,11.44-1.13,11.44-1.13s2,1.7,2.4,9.61Z"/><path class="cls-7" d="M244.1,415.85c2.33-1.42,1-12,1-12s-10.82-8.66-12.31-2-10.29,9.61-15.3,10.42c-3.45.56-4.52,2.47-4.85,3.61Z"/><path class="cls-8" d="M266.1,161.49c1.79,1.41,7,2.81,8.56,3,0,0,7.79-1.74,9.21-2.6,2.19-1.32,2.05-4,2.16-7.76.14-4.42.59-7.9.09-10.45-.59-3.06-2.52-4.8-7.94-5.27-9.95-.86-14.1,1.63-14.27,5-.05.89-.09,1.75-.12,2.56C263.39,156.32,264.22,160,266.1,161.49Z"/><path class="cls-12" d="M266.53,337.23a51.66,51.66,0,0,0-.8,5.85c-1,19.63-16.52,64.51-19.3,65.56-4.29,1.62-11.06-1.82-14.6-2.95a3.05,3.05,0,0,1-2.13-3.45c7.69-35.33,10.51-86.2,11.54-116.32a136.4,136.4,0,0,1,3.13-25.66s37.85-10.09,38.07,2.68C282.64,274.24,269.9,318.58,266.53,337.23Z"/><path class="cls-7" d="M266.53,337.23l-25.29-51.31a136.4,136.4,0,0,1,3.13-25.66s37.85-10.09,38.07,2.68C282.64,274.24,269.9,318.58,266.53,337.23Z"/><path class="cls-12" d="M258.11,263l20,145s8.78,2.12,15.62.42c0,0,5.85-77.13,5.37-95.78s4.2-49.89-1.07-53.34S258.11,263,258.11,263Z"/><path class="cls-13" d="M300.91,259.31a3,3,0,0,1-2.94,3.11l-31.53.48-23.16.35c-1.09,0,2.34-8.65,2.41-65.23,0-12.62,19.56-26.21,19.92-26.21h0c0,1.81,2.86,5.17,7.27,5.46,5.24.34,11.67-2.26,11.67-5.28a13.17,13.17,0,0,1,1.59,2.05c2.61,3.81,7.88,13.1,11.24,29.27,2.66,12.77,1.64,29.84,3.55,51.87C301.08,256.78,300.87,258.2,300.91,259.31Z"/><path class="cls-9" d="M299.75,262.59a64.19,64.19,0,0,1-12,3.51,118.7,118.7,0,0,1-23.31,2.34c-15.33.1-21.13-5.19-21.13-5.19-1.09,0,2.34-8.65,2.41-65.23,0-12.62,19.56-26.21,19.92-26.21h0s-.51,16.81,4.58,21.75c0,0,7.13-5.51,16.39-21.19,2.61,3.81,7.44,14.77,10.8,30.94a88.06,88.06,0,0,1,1.43,10.73c.9,11.16.7,24.79,2.12,41.14.14,1.59-.07,3,0,4.12C301,261,301.43,262.57,299.75,262.59Z"/><path class="cls-10" d="M299.75,262.59a64.19,64.19,0,0,1-12,3.51c-2.47-3.76-5.58-10.55-6-21.25-.73-18.09,16.46-41.39,16.46-41.39l.65,10.59c.9,11.16.7,24.79,2.12,41.14.14,1.59-.07,3,0,4.12C301,261,301.43,262.57,299.75,262.59Z"/><rect class="cls-12" x="264.9" y="206.68" width="33.83" height="46.4" transform="translate(-77.19 171.71) rotate(-30)"/><path class="cls-14" d="M308.63,239.35,297.82,221,287,202.69a2.43,2.43,0,0,0-3.33-.85l-26.77,15.78a2.43,2.43,0,0,0-.86,3.33l10.81,18.33,10.81,18.33a2.43,2.43,0,0,0,3.33.85l26.77-15.78A2.44,2.44,0,0,0,308.63,239.35Z"/><path class="cls-15" d="M278,255.4a2.21,2.21,0,0,0,3,.78l24.53-14.46a2.23,2.23,0,0,0,.79-3.05l-9.91-16.79L268.13,238.6Z"/><path class="cls-16" d="M274,234.06l2.48-7.1a2.06,2.06,0,0,0-1.43-2.43L257.79,218c-1-.16-1.35,1-.72,2.07l7.31,12.38,3.05,5.18.65,1.1,5.34-3.15Z"/><path class="cls-17" d="M281.77,257.35l9.28-15.72a2.88,2.88,0,0,0-2-3.38l-10.32-1.75-5.33-.91h0v0l-5.34,3.15v0l1.22,2.06,5,8.45,4.62,7.83C279.79,258.57,281.32,258.63,281.77,257.35Z"/><path class="cls-18" d="M278.8,215.59a3.37,3.37,0,0,0-1.19,4.61l5.8-3.42A3.37,3.37,0,0,0,278.8,215.59Z"/><path class="cls-19" d="M283.41,216.78l-5.8,3.42a3.37,3.37,0,0,0,5.8-3.42Z"/><path class="cls-20" d="M258.23,221.81a2.23,2.23,0,0,1,.78-3.05l24.53-14.46a2.23,2.23,0,0,1,3,.78l9.9,16.8,1.14-.67-10.81-18.33a2.44,2.44,0,0,0-3.33-.86l-26.77,15.79a2.43,2.43,0,0,0-.86,3.33l10.81,18.33,1.46-.87Z"/><path class="cls-21" d="M308.44,239.54l-10.81-18.33-1.14.67,9.91,16.79a2.23,2.23,0,0,1-.79,3.05l-24.53,14.46a2.21,2.21,0,0,1-3-.78l-9.91-16.8-1.46.87,10.81,18.32a2.43,2.43,0,0,0,3.33.86l26.77-15.79A2.43,2.43,0,0,0,308.44,239.54Z"/><path class="cls-8" d="M312.65,238.92a91,91,0,0,1-16.26-.47,156.55,156.55,0,0,1-28.19-5.68l3.27-5.58s13.36-.59,23.14-2a57.74,57.74,0,0,0,6.38-1.23c2.13-.57-8.43-27.33-13.75-43.07a91.72,91.72,0,0,1-2.68-8.87s.93.15,2.39.44c4.15.81,12.58,2.74,16.16,5.45C308,181.56,320.08,222.93,312.65,238.92Z"/><path class="cls-8" d="M271.59,227.19s-4.53-4.24-6.27-4.24-6.79,1.84-7.31,3.25-.72,4,.72,4.52a64,64,0,0,0,8.95,2.12C269.22,233,273,232.14,271.59,227.19Z"/><path class="cls-9" d="M312.65,238.92a91,91,0,0,1-16.26-.47,19.42,19.42,0,0,0-1.78-13.28,57.74,57.74,0,0,0,6.38-1.23c2.13-.57-8.43-27.33-13.75-43.07-.43-5.08-.65-8.49-.65-8.49l.36.06c4.15.81,12.58,2.74,16.16,5.45C308,181.56,320.08,222.93,312.65,238.92Z"/><path class="cls-10" d="M270.2,193.57s14.27-6.29,14.48-6.78a11.34,11.34,0,0,0-1.7-5.44s6.85.64,7.28-.21.56-7.91.56-7.91a10.89,10.89,0,0,0-6.21-3.11s-3.09,7.67-4.24,10C277.33,186.15,270.2,193.57,270.2,193.57Z"/><path class="cls-10" d="M266.81,181.14s.92,7.35,3.39,12.43c0,0-7.45-5.19-8.09-6.89s1.8-5,1.8-5-4.45-.1-4.55-1.58,1.37-7.31,1.37-7.31,3.83-2.8,4.89-2.69Z"/><path class="cls-7" d="M263.7,149.25s.39-6.63,4.5-6.71,11.28-.48,14.25-3.28-17.67-1.51-17.67-1.51S262.28,145.73,263.7,149.25Z"/><path class="cls-7" d="M280.23,140.25s5.36,2.19,6.12,5.59C286.35,145.84,288.11,133.27,280.23,140.25Z"/><text class="cls-22" transform="translate(197.99 465.5)">No pictures</text><text class="cls-23" transform="translate(186.38 482.78) rotate(0.5)">Uploaded videos will display here</text></svg>