<svg id="Layer_1" data-name="Layer 1" xmlns="http://www.w3.org/2000/svg" viewBox="0 0 533.74 533.74"><defs><style>.cls-1{fill:#ebf2f9;}.cls-2{fill:#f8fbff;}.cls-3{fill:#c9e0f2;}.cls-4{fill:#a8d29f;}.cls-5{fill:#82b378;}.cls-13,.cls-14,.cls-6{fill:#979bb4;}.cls-7{fill:#d9935c;}.cls-8{fill:#163560;}.cls-9{fill:#5fabb7;}.cls-10{fill:#cb7d45;}.cls-11{fill:#ff431a;}.cls-12{fill:#b32100;}.cls-13{font-size:23.6px;font-family:Poppins-SemiBold, Poppins;font-weight:600;}.cls-14{font-size:8.26px;font-family:Poppins-Thin, Poppins;font-weight:200;letter-spacing:0.1em;}.cls-15{fill:none;stroke:#454c53;stroke-miterlimit:10;stroke-width:5px;}.cls-16{fill:#8d4666;}.cls-17{fill:#fff;}.cls-18{fill:#6dcecd;}.cls-19{fill:#454c53;}.cls-20{fill:#ffbd09;}.cls-21{fill:#ff4d35;}</style></defs><path class="cls-1" d="M572.48,171.91c-32-25.57-82.67-31.3-130.75-27.46-116.26,9.28-118.46,87-157.37,89S141.75,167.69,61.5,248.68a111.57,111.57,0,0,0-26.9,44.4q-1.83,5.6-3.13,11.25s0,0,0,.05a145.79,145.79,0,0,0-3,18.39c-4.89,48.76,13.35,93.85,13.35,93.85l345.91.11h20.42l148.32,0h16Z"/><path class="cls-2" d="M573,212.47,99,344.14a163.39,163.39,0,0,0,5.74,53.73L573,337Z"/><path class="cls-2" d="M397.55,230.89,28.46,322.77a145.79,145.79,0,0,1,3-18.39s0,0,0-.05q1.31-5.65,3.13-11.25Z"/><path class="cls-3" d="M387.72,416.73l-345.91-.11S18.72,359.54,31.46,304.38c0,0,0,0,0-.05a172.72,172.72,0,0,1,93.46,22.54c58.38,33.2,154.22,8.91,182,27.53s34.11,37.9,54.74,41.22c18,2.89,24.68,17.44,26.09,21.11Z"/><path class="cls-2" d="M527.28,193a9.65,9.65,0,1,1,9.65,9.64A9.65,9.65,0,0,1,527.28,193Z"/><path class="cls-4" d="M493.39,389.18c9.58-3,21.9-7.89,15.2-11.56-7.18-3.93-16.33,4.41-21.29,9.93l-.78-.12a27.26,27.26,0,0,0-3.85-.27c9.45-15.16,20-35.34,11-37.91-9.68-2.76-16.62,21.77-20,39-9.46,2.06-19.64,6.65-30.24,9.71C439.66,384.29,431,364,413,364.41c-19,.47,4.72,22.53,20.68,35.76a52.78,52.78,0,0,1-10.81.68c-23.21-1.08-37.75,14.66-37.75,14.66H509.73C514.41,408.09,507.32,394.4,493.39,389.18Z"/><path class="cls-5" d="M.44,415.68l131.31.86s-12.14-24.41-42.27-19.19c-19,3.29-25.31-1.68-33.14-6.55,14.49-5.48,36-14.54,26-16.73-9.53-2.09-22.53,7.19-30.53,14.09a39.38,39.38,0,0,0-5.56-2.35c17.12-16,49.35-47.88,35.12-48.79-14-.89-31.65,30.66-40.06,47.49-1-.19-2-.36-3.05-.5a22.41,22.41,0,0,0-12.15,1.87c-1.86-7-5.29-15-9.85-13.35s.6,9.74,5.38,15.82C8.37,397.14.44,415.68.44,415.68Z"/><path class="cls-6" d="M572.48,415.51H-6.84a1,1,0,0,0-1,1,1,1,0,0,0,1,1H572.48Z"/><polygon class="cls-7" points="212.18 381.43 216.62 400.14 223.28 400.11 223.52 381.43 212.18 381.43"/><polygon class="cls-7" points="268.18 382.22 280.82 400.14 285.75 393.81 278.14 379.76 268.18 382.22"/><path class="cls-8" d="M222.72,147.7a13,13,0,0,0-7.11.07,3.26,3.26,0,0,1,1.31-1c-1.21.06-3.59,1.75-3.59,1.75-17.55-3-15.28,21.51-13.81,27s-4,8.49-11.58,14.59c-14.48,11.64-13.64,23.14-13.64,23.14l.45.18c.53-1.52,1.67-4.41,3-5.08,0,.14-.93,3.85-1.14,5.91,5.5,2.67,16,8.91,23.42,13.36a9.36,9.36,0,0,1-.29-3.62l1.7,4.47c4,2.39,6.67,4.08,6.67,4.08-1.31-4.42,14.67-32.37,24.08-41.67,1.85-4.42,1.41-11.47,1.37-12,.64,5.53.32,8.77-.16,10.66C240.85,179.26,229.37,149.89,222.72,147.7Z"/><path class="cls-7" d="M229.66,192.78c.06,0-5.33,2.82-9.39,1.71-3.82-1-6.31-6-6.26-6,1.62-.32,2.08-2.54,2.05-12.08l.73.14L229.08,179s-.28,3.87-.29,7.51C228.78,189.55,229,192.45,229.66,192.78Z"/><path class="cls-9" d="M210,154.36s4.66-7.52,13.33-3C223.29,151.34,218.8,151.46,210,154.36Z"/><path class="cls-10" d="M229.08,179s-.28,3.87-.29,7.51c-6.88-.19-10.51-6.46-12-9.94Z"/><path class="cls-8" d="M214.26,177s-4.66-4.87-6.47-9.47c-1.29-3.28-2.1-16.26,11-17a17.57,17.57,0,0,1,7.69,1.26c3.13,1.31,7.92,4.52,5.69,16.44l-.4,3.95Z"/><path class="cls-11" d="M284.57,389.72s-3.27.56-5.95.77c-.59,0-1.16.07-1.65.07a29.33,29.33,0,0,1-5.18-.85l-.12,0-1.4-.34-.09,0s-16.28-18.13-25.41-47.19c-.21-.68-.44-1.36-.68-2.05-5-14.58-15.36-32.87-20.82-49.43-.87-2.64-1.65-5.12-2.35-7.47-.22-.75-.44-1.49-.65-2.22A175.54,175.54,0,0,1,214,248l32.83,8.35S260.63,316.1,284.57,389.72Z"/><path class="cls-7" d="M231.23,180.93s-15.9,3.47-17.91-6.46S207.9,158.3,218,155.66s12.81.75,14.29,3.9S235.31,179.77,231.23,180.93Z"/><path class="cls-8" d="M225.18,154s-2,12.53-8.38,15.6-9.62,1.87-9.62,1.87A19.35,19.35,0,0,0,211.13,159S220.76,149.07,225.18,154Z"/><path class="cls-8" d="M224.28,155.12s3.79,1.94,5.09,4.31,2.71,7.51,4.2,7c0,0,1.69-8.58-2.91-12.31C225.78,150.18,224.28,155.12,224.28,155.12Z"/><path class="cls-7" d="M216.4,399.1a18.11,18.11,0,0,1-.85,7.67s-1.09,5,3.8,5.06,6.09-.37,5.54-3.41-1.61-8.31-1.61-8.31Z"/><path class="cls-8" d="M215.55,406.77s-.9,4.69-.35,7.18c0,0,1.47,1.11,5,1.11a10.22,10.22,0,0,0,5.12-1.11s.1-5.14-.8-7.3C224.55,406.65,221.09,411.85,215.55,406.77Z"/><path class="cls-7" d="M297.53,408.91s-9-10-11.78-15.09l-6.7,3.43,15,14.07,3.51-.46Z"/><path class="cls-8" d="M303.26,414.78s-9.69,0-11.35-.19-3-2.58-4.79-6.18a6.09,6.09,0,0,0-4.09-2.73V414h-2.56l-2.42-8.86c-1.59-2.93-.12-5.59,1-7.91,1.31,0,4.82.89,11.48,8.39a8.69,8.69,0,0,0,7,3.27l.1.06C303.17,411.46,303.26,414.78,303.26,414.78Z"/><path class="cls-12" d="M278.62,390.49c-.59,0-1.16.07-1.65.07a29.33,29.33,0,0,1-5.18-.85l-.12,0-1.4-.34-.09,0s-16.28-18.13-25.41-47.19c-.21-.68-.44-1.36-.68-2.05-5-14.58-15.36-32.87-20.82-49.43-.87-2.64-1.65-5.12-2.35-7.47-.22-.75-.44-1.49-.65-2.22l5.81-4.41s17.43,28.23,22.83,54.8C253.38,353.37,272.64,381.92,278.62,390.49Z"/><path class="cls-11" d="M226.68,333.83c.1,12.91-.55,42.62-2.23,54.92,0,0-1.6,1.41-5.56,1.42S213,388.7,213,388.7c-4.22-21.39-7.22-39.08-9.41-54.32-1.79-12.51-3.39-23.24-4.61-32.47-1.09-8.18-1.89-15.19-2.27-21.24-.05-.82-.1-1.62-.13-2.4-.05-1-.09-2-.11-3s0-1.94,0-2.87h.14l8.16-.8,25.77-2.51C230.13,291.7,226.63,326.32,226.68,333.83Z"/><path class="cls-12" d="M218.89,390.17A10.1,10.1,0,0,1,213,388.7c-4.22-21.39-7.22-39.08-9.41-54.32-1.79-12.51-3.39-23.24-4.61-32.47-1.09-8.18-1.89-15.19-2.27-21.24,0-3-.08-5.83-.11-8.3s-.08-4.63-.15-6.11l8.31,5.31,8.73,5.59s-12.39,11.27-9.35,32.59S214.66,387.16,218.89,390.17Z"/><path class="cls-11" d="M225.65,188.08s13.24-2.1,17.69,2.32c5.44,5.42,15.67,36.49,15.27,40-.16,1.35-5.53.72-7.38-1.21C242.05,219.6,228.88,195.29,225.65,188.08Z"/><path class="cls-11" d="M251.37,274.84c-9.88,2.57-56,7.65-56.42-3.91-.1-2.82,0-6.22.23-9.91.68-11.41,2.56-25.52,3.45-33.28.42-3.56-.95-19.49.1-28.17a18.83,18.83,0,0,1,.64-3.32c2-6.55,10.94-8.33,15.54-8.49l13.87-.47s14.32,16,16.31,20.91,2.65,21.75,4.2,29.9S256.18,273.6,251.37,274.84Z"/><path class="cls-12" d="M224.13,235.79s-7.71,23.68-28.95,25.23c.68-11.41,2.56-25.52,3.45-33.28.42-3.56-.95-19.49.1-28.17.27.05.52.21.81.26C222.93,204.35,226.25,230.85,224.13,235.79Z"/><path class="cls-10" d="M257.94,231s-13.92,4.57-30.89-2.75c0,0-4.62-.44-6.91.14,0,0,.49-4.58,2.73-5.83s11.89,1.45,14.77,1.06C243.94,222.77,254.92,222.09,257.94,231Z"/><path class="cls-12" d="M245.53,220.36s1.31-11.31-3.12-18.13a2.34,2.34,0,0,1,2.68,1.24c1.13,1.77,8.95,18.58,5.22,19.81S245.53,220.36,245.53,220.36Z"/><path class="cls-10" d="M225.2,222.25c-.19,0-6.57.83-7.7,1.63s-.13,3.59,2,3.85S225.2,222.25,225.2,222.25Z"/><path class="cls-7" d="M207.77,226.54a262.15,262.15,0,0,0,34.64-3.86s3,0,2.66,2.66-28.56,17.35-34.76,14.52Z"/><path class="cls-7" d="M242.41,222.68s1.93-2.32,3.12-2.32,4.32,1.53,4.78,2.92-3.69.4-5.24,2.06S242.41,222.68,242.41,222.68Z"/><path class="cls-11" d="M214.91,187.76s-15.26,0-17.49,5.52c-4.08,10,9.35,43.21,12.89,46.58,1.53,1.45,8.58-.84,8.58-10.4C218.89,224.5,218.54,195.52,214.91,187.76Z"/><text class="cls-13" transform="translate(213.6 465.5)">No Music</text><text class="cls-14" transform="translate(189.79 483.46)">Uploaded audio will display here</text><rect class="cls-15" x="330.69" y="352.07" width="57.73" height="57.73" rx="8.44"/><path class="cls-16" d="M404,405.81c0,4.77-3.82,8.93-8.48,8.93H325.9c-4.66,0-8.5-4.16-8.5-8.93V369.62a8.75,8.75,0,0,1,8.5-8.82h69.62a8.74,8.74,0,0,1,8.48,8.82Z"/><path class="cls-17" d="M322.47,394.1a15.39,15.39,0,1,1,15.39,15.39A15.39,15.39,0,0,1,322.47,394.1Z"/><path class="cls-18" d="M325,394.1A12.91,12.91,0,1,1,337.86,407,12.91,12.91,0,0,1,325,394.1Z"/><path class="cls-17" d="M399.92,394.1a15.39,15.39,0,1,0-15.39,15.39A15.39,15.39,0,0,0,399.92,394.1Z"/><path class="cls-18" d="M397.44,394.1A12.91,12.91,0,1,0,384.53,407,12.91,12.91,0,0,0,397.44,394.1Z"/><path class="cls-17" d="M396,368.78c0,1.14-1.23,1.9-2.73,1.9H328.17c-1.5,0-2.73-.76-2.73-1.9h0c0-1.14,1.23-1.9,2.73-1.9h65.05c1.5,0,2.73.76,2.73,1.9Z"/><rect class="cls-19" x="352.34" y="375.24" width="15.95" height="6.84"/><rect class="cls-20" x="357.66" y="385.11" width="6.08" height="3.8"/><rect class="cls-20" x="357.66" y="390.43" width="6.08" height="6.08"/><rect class="cls-20" x="357.66" y="397.27" width="6.08" height="5.32"/><rect class="cls-20" x="357.66" y="404.1" width="6.08" height="4.56"/><path class="cls-21" d="M220,147.75v-2a19.59,19.59,0,0,0-17.1,27.11,2,2,0,0,1,.32-.26,2.62,2.62,0,0,1,1.15-1.58A17.55,17.55,0,0,1,220,147.75Z"/><path class="cls-16" d="M205.58,180.17l-2.28-6a2.65,2.65,0,0,1-.08-1.62,2,2,0,0,0-.32.26,2.12,2.12,0,0,0-.46,2.22l1.93,5a2.08,2.08,0,0,0,2.22,1.33A2.67,2.67,0,0,1,205.58,180.17Z"/><path class="cls-20" d="M203.22,172.58a2.65,2.65,0,0,0,.08,1.62l2.28,6a2.67,2.67,0,0,0,1,1.25,2.63,2.63,0,0,0,2.44.28l.18-.07a3.27,3.27,0,0,1-.9-1.28l-2.84-7.44a3.31,3.31,0,0,1,0-2.4l-.65.25a1.89,1.89,0,0,0-.47.24A2.65,2.65,0,0,0,203.22,172.58Z"/><path class="cls-19" d="M205.47,172.91l2.84,7.44a3.33,3.33,0,0,0,4.26,1.9l1.8-.69a3.3,3.3,0,0,0,1.9-4.26l-2.84-7.43a3.31,3.31,0,0,0-4.26-1.91l-1.79.69a3.27,3.27,0,0,0-1.89,1.86A3.31,3.31,0,0,0,205.47,172.91Z"/><path class="cls-21" d="M222,147.43a2.21,2.21,0,0,0-2.09-1.7l.09,1.7h2"/><path class="cls-9" d="M216.91,148.85s1.27-4,4.61-1A11,11,0,0,0,216.91,148.85Z"/></svg>