<svg id="Layer_1" data-name="Layer 1" xmlns="http://www.w3.org/2000/svg" viewBox="0 0 533.74 533.74"><defs><style>.cls-1{fill:#ebf2f9;}.cls-2{fill:#f8fbff;}.cls-3{fill:#c9e0f2;}.cls-4{fill:#a8d29f;}.cls-5{fill:#82b378;}.cls-24,.cls-6,.cls-7{fill:#979bb4;}.cls-7{font-size:23.6px;font-family:Poppins-SemiBold, Poppins;font-weight:600;}.cls-8{fill:#1c1c1c;}.cls-9{fill:#d9935c;}.cls-10{fill:#ffd455;}.cls-11{fill:#edb838;}.cls-12{fill:#fff0e7;}.cls-13{fill:#0f3358;}.cls-14{fill:#274f74;}.cls-15{fill:#ff431a;}.cls-16{fill:#313044;}.cls-17{fill:#414156;}.cls-18{fill:#cf691f;}.cls-19{fill:#ff9300;}.cls-20{fill:#cb7d45;}.cls-21{fill:#ffdaba;}.cls-22{fill:#161818;}.cls-23{fill:#ebf1ed;}.cls-24{font-size:8.26px;font-family:Poppins-Thin, Poppins;font-weight:200;letter-spacing:0.1em;}</style></defs><path class="cls-1" d="M573.48,168.91c-32-25.57-82.67-31.3-130.75-27.46-116.26,9.28-118.46,87-157.37,89S142.75,164.69,62.5,245.68a111.57,111.57,0,0,0-26.9,44.4q-1.83,5.6-3.13,11.25s0,0,0,.05a145.79,145.79,0,0,0-3,18.39c-4.89,48.76,13.35,93.85,13.35,93.85l345.91.11h20.42l148.32,0h16Z"/><path class="cls-2" d="M574,209.47,100,341.14a163.39,163.39,0,0,0,5.74,53.73L574,334Z"/><path class="cls-2" d="M398.55,227.89,29.46,319.77a145.79,145.79,0,0,1,3-18.39s0,0,0-.05q1.31-5.65,3.13-11.25Z"/><path class="cls-3" d="M388.72,413.73l-345.91-.11S19.72,356.54,32.46,301.38c0,0,0,0,0-.05a172.72,172.72,0,0,1,93.46,22.54c58.38,33.2,154.22,8.91,182,27.53s34.11,37.9,54.74,41.22c18,2.89,24.68,17.44,26.09,21.11Z"/><path class="cls-2" d="M528.28,190a9.65,9.65,0,1,1,9.65,9.64A9.65,9.65,0,0,1,528.28,190Z"/><path class="cls-4" d="M494.39,386.18c9.58-3,21.9-7.89,15.2-11.56-7.18-3.93-16.33,4.41-21.29,9.93l-.78-.12a27.26,27.26,0,0,0-3.85-.27c9.45-15.16,20-35.34,11-37.91-9.68-2.76-16.62,21.77-20,39-9.46,2.06-19.64,6.65-30.24,9.71C440.66,381.29,432,361,414,361.41c-19,.47,4.72,22.53,20.68,35.76a52.78,52.78,0,0,1-10.81.68c-23.21-1.08-37.75,14.66-37.75,14.66H510.73C515.41,405.09,508.32,391.4,494.39,386.18Z"/><path class="cls-5" d="M1.44,412.68l131.31.86s-12.14-24.41-42.27-19.19c-19,3.29-25.31-1.68-33.14-6.55,14.49-5.48,36-14.54,26-16.73-9.53-2.09-22.53,7.19-30.53,14.09a39.38,39.38,0,0,0-5.56-2.35c17.12-16,49.35-47.88,35.12-48.79-14-.89-31.65,30.66-40.06,47.49-1-.19-2-.36-3.05-.5a22.41,22.41,0,0,0-12.15,1.87c-1.86-7-5.29-15-9.85-13.35s.6,9.74,5.38,15.82C9.37,394.14,1.44,412.68,1.44,412.68Z"/><path class="cls-6" d="M573.48,412.51H-5.84a1,1,0,0,0-1,1,1,1,0,0,0,1,1H573.48Z"/><text class="cls-7" transform="translate(209.62 465.5)">No school</text><path class="cls-8" d="M244.9,178.67a30.77,30.77,0,0,0,3.86.64c8.92.93,19.75-1.36,26-3,3.14-.83,5.12-1.48,5.12-1.48s.24-8.69-.05-12a38.19,38.19,0,0,0-.93-5.55c-2.89-11.66-10.58-16.4-11.12-16.72l0,0h0l-13.51,1.22-4.72,3-.95.6-.36.23-5.17,3.28.29,4.67.23,3.72Z"/><path class="cls-8" d="M247.48,176.74a12.58,12.58,0,0,0,1.28,2.57c8.92.93,19.75-1.36,26-3a.14.14,0,0,0,0-.06A21.43,21.43,0,0,0,277,164.78a40.8,40.8,0,0,0-2.72-11.49,28.77,28.77,0,0,0-4.32-8.18,14,14,0,0,0-5.57-4.23l-.33-.12a17,17,0,0,0-7.51-.44,10.09,10.09,0,0,0-8,5.08c-1.37,2.66-1.23,5.8-1.35,8.79-.15,3.79-.77,7.55-1,11.33A27.07,27.07,0,0,0,247.48,176.74Z"/><path class="cls-9" d="M211.38,179.64c.4,3.51,16.13,15.39,16.13,15.39l3.53-9.14,1.24-3.21-4.68-2.43,19.6-16.61-.2-11.21s-12.29,7.94-14.05,9.14C226.42,166,211.07,176.87,211.38,179.64Z"/><path class="cls-10" d="M224.22,198.46l2.26.8,20.85,7.3,2,.72,8.21-18.15h0l-.79-.34c-3.11-1.35-15.22-7.46-22.15-10.55Z"/><polygon class="cls-11" points="226.48 199.26 247.33 206.56 250.26 204.5 247.2 202.92 227.07 195.8 226.48 199.26"/><polygon class="cls-12" points="233.28 176.56 222.35 199.11 227.85 201.04 238.72 179.09 233.28 176.56"/><path class="cls-13" d="M267.43,240l13.68,24.53,4.07,7.3s17.51-2.88,23.6-14-11.87-42.23-11.87-42.23l-1-.23-24-5.42Z"/><path class="cls-14" d="M281.11,264.49l4.07,7.3s17.51-2.88,23.6-14-11.87-42.23-11.87-42.23l-1-.23c3.43,9.54,12.56,40.78-11.48,48A32.74,32.74,0,0,0,281.11,264.49Z"/><path class="cls-12" d="M327.83,358.06s3.81,2.15,4.16,2.8-7.86,23.19-7.86,23.19l-3.49-1.32V367.44Z"/><path class="cls-15" d="M320.64,382.73s9.44-22.26,8.26-24.05c-.8-1.22-11.87-5-11.87-5l-2.36,6.11S320.32,383.65,320.64,382.73Z"/><path class="cls-12" d="M320,367.21c0,.4-.37.71-.72.92a5.17,5.17,0,0,1-4.42.77.73.73,0,0,1-.28-.17.49.49,0,0,1,0-.58,1.24,1.24,0,0,1,.46-.42C315.65,367.32,319.94,365.36,320,367.21Z"/><path class="cls-12" d="M321.23,370.41c0,.4-.36.7-.72.92a5.15,5.15,0,0,1-4.41.77.77.77,0,0,1-.29-.17.51.51,0,0,1,0-.58,1.33,1.33,0,0,1,.46-.42C316.89,370.51,321.18,368.55,321.23,370.41Z"/><path class="cls-12" d="M232.68,412.06s-1.11,4.23-1.64,4.72-24.15-2.66-24.15-2.66l.4-3.74L221.92,407Z"/><path class="cls-15" d="M207.29,410.38s23.65,4.42,25.06,2.87c1-1.07,1.86-12.83,1.86-12.83l-6.44-1S206.33,410.27,207.29,410.38Z"/><path class="cls-12" d="M222,406.33c-.38.1-.76-.21-1.06-.51a5.45,5.45,0,0,1-1.83-4.19.7.7,0,0,1,.09-.32.49.49,0,0,1,.55-.15,1.4,1.4,0,0,1,.52.36C220.8,402.06,223.74,405.87,222,406.33Z"/><path class="cls-12" d="M219.23,408.25c-.38.1-.77-.2-1.06-.5a5.44,5.44,0,0,1-1.83-4.2.73.73,0,0,1,.09-.32.49.49,0,0,1,.55-.15,1.52,1.52,0,0,1,.51.37C218.05,404,221,407.79,219.23,408.25Z"/><path class="cls-16" d="M248.7,244.94s-4.46,17.51-3.46,27.28c3.39,23.58,8.63,55.6,9.67,58.07,1.62,3.86,60.71,33.27,60.71,33.27L319.84,353s-31.38-24.32-34.63-28c-2.74-3.1-15.23-5.16-15.23-5.16l3.36-71.88Z"/><path class="cls-17" d="M223.37,400.25l9.91,2.18,3,.66s23.58-55.16,24.89-57.15,2.52-20.62,2.52-20.62,17.72-37.2,21.53-43.51-3.36-37.15-3.36-37.15l-2.18.86-19.21,1-15.05,71.45Z"/><path class="cls-16" d="M233.28,402.43l3,.66s23.58-55.16,24.89-57.15,2.52-20.62,2.52-20.62,17.72-37.2,21.53-43.51-3.36-37.15-3.36-37.15l-2.18.86c1.21,10,3.51,30.43,2.34,33.3-1.56,3.82-22.64,42.84-22.64,42.84s-.79,20-2.42,23.29C255.55,347.82,237.58,393.59,233.28,402.43Z"/><path class="cls-10" d="M248.23,245.17c13.84,9.62,34.24-.23,34.24-.23-.38-3.2,1.37-18.55,3-31.69.42-3.55.82-7,1.13-10.1a35.6,35.6,0,0,0-.94-12.3,17.88,17.88,0,0,0-1.42-4,9.29,9.29,0,0,0-2.76-2h0l-.61-.33-.09-.05-.19-.1,0,0,0,0a39.69,39.69,0,0,0-6.72-2.85h-.05l-1.38-.33c-1.78-.39-3.15-.57-3.15-.57l-10.43.94h-.25a7.47,7.47,0,0,0-1.87.44h0c-.37.13-.77.29-1.22.5a22.93,22.93,0,0,0-4.47,2.86,38.48,38.48,0,0,0-3.56,3.22c-7.23,7.28-5.69,19.85-.22,28.47C248.77,219.56,248.23,245.17,248.23,245.17Z"/><path class="cls-11" d="M248.87,215.53l1.07-.15,2.88-.44a28.91,28.91,0,0,1,9.15-.23c.88.14,1.76.33,2.64.49a22.39,22.39,0,0,0,2.62.3,20.19,20.19,0,0,0,4.43-.25,7.51,7.51,0,0,0,1.69-.48,3.85,3.85,0,0,0,1.13-.71,2.75,2.75,0,0,0,.5-.65,2,2,0,0,0,.12-.26l-.19.2a2.41,2.41,0,0,1-.63.43,5.42,5.42,0,0,1-2.69.4,34.15,34.15,0,0,1-4.16-.47c-.77-.14-1.56-.31-2.4-.52s-1.74-.43-2.7-.6a15.71,15.71,0,0,0-5.54.09,24.08,24.08,0,0,0-4.25,1.22c-1.16.45-2.07.86-2.7,1.16S248.87,215.53,248.87,215.53Z"/><polygon class="cls-15" points="314.78 255.84 314.95 257.4 316.83 258.86 319.93 285.77 314.28 286.13 280.94 288.2 278.56 285.2 276.88 258.2 314.78 255.84"/><polygon class="cls-12" points="314.95 257.4 316.07 258.28 318.33 260.03 319.84 284.3 314.41 284.64 281.74 286.67 279.42 283.99 277.91 259.71 314.95 257.4"/><rect class="cls-15" x="280.06" y="259.96" width="39.07" height="27.05" transform="translate(615.61 527.83) rotate(176.44)"/><rect class="cls-12" x="286.3" y="265.23" width="4.51" height="17.9" transform="translate(593.55 529.93) rotate(176.44)"/><polygon class="cls-18" points="315.24 256.56 315.71 258.06 317.84 259.13 326.13 284.92 320.65 286.36 288.35 294.89 285.44 292.42 278.53 266.26 315.24 256.56"/><polygon class="cls-12" points="315.71 258.06 316.99 258.7 319.54 259.98 325.75 283.49 320.49 284.88 288.83 293.24 286.04 291.06 279.83 267.54 315.71 258.06"/><rect class="cls-19" x="284.25" y="263.3" width="39.07" height="27.05" transform="matrix(-0.97, 0.26, -0.26, -0.97, 668.19, 466.9)"/><rect class="cls-12" x="290.83" y="270.71" width="4.51" height="17.9" transform="translate(647.91 475.12) rotate(165.19)"/><path class="cls-9" d="M290.57,233.81c-.08,1.29,1.57,7.82,3.68,15.56,1.14,4.15,2.41,8.65,3.62,12.87s2.35,8.16,3.24,11.2l.87,8.18s-3.65,1.71-3.53,2.32a23.85,23.85,0,0,1-2.32,6.46c-.6.62,1.56,2.1,1.56,2.1a10.07,10.07,0,0,1,2.94-1c.55.07,1.62,2.48,2.69,3.62a1.65,1.65,0,0,0,.95.59c1.33.07,3,.15,3.25-.67s.77-2.36,1.57-2.68,3.22-2.2,3.2-3.32-.8-4.57-.92-5.48-.38-4-.38-4l-1.17-5.53L306,239.87c-.35-3.16-4.09-12.26-4.09-12.26l-.47-2.74-1-9.6a26.6,26.6,0,0,0-4.1-11.71c-1.84-3.05-5.1-4.07-8.53-4.45-.95-.11-1.92-.16-2.88-.2l-1.46,0h0S290.77,230.33,290.57,233.81Z"/><path class="cls-20" d="M299.69,229.35s0,.12-.11.34a1.89,1.89,0,0,1-.16.39,4,4,0,0,1-.26.49,3.35,3.35,0,0,1-.41.54,4.7,4.7,0,0,1-.54.56,5.29,5.29,0,0,1-1.51.87,4.74,4.74,0,0,1-1.7.25,4.26,4.26,0,0,1-.74-.1,4.21,4.21,0,0,1-1.11-.42,2,2,0,0,1-.34-.21l-.27-.2.32,0,.38,0c.15,0,.31,0,.49,0s.37,0,.58,0a5.35,5.35,0,0,0,.65-.07,9.75,9.75,0,0,0,1.43-.37,10.7,10.7,0,0,0,1.36-.61c.19-.12.39-.22.56-.35a5,5,0,0,0,.48-.35c.15-.11.27-.23.39-.33l.28-.27Z"/><path class="cls-10" d="M273.1,197.6l13.63,30.82h0l2.94,6.63.59,2.39,11.3-3.5,3.23-1c-.25-.82-.51-1.64-.79-2.45l-.22-.62a129,129,0,0,0-4.35-20.17c-2.73-8.86-6.95-18-13.15-21.18a11.37,11.37,0,0,0-1.77-.73L283.18,189Z"/><polygon class="cls-12" points="305.1 227.6 306.4 234.77 289.81 238.86 288.22 234.48 305.1 227.6"/><path class="cls-13" d="M285,186.82s-3.76-4.13-7.79-4.06c0,0-2.25,48.17,10.55,53.85C287.78,236.61,277.72,211.19,285,186.82Z"/><path class="cls-8" d="M243.06,168.51c0-.21.06-.52.12-.89a7.84,7.84,0,0,1,.35-1.28,5.13,5.13,0,0,1,.8-1.48,5,5,0,0,1,1.25-1.12,6.48,6.48,0,0,1,1.2-.61l.42-.15.23-.25s0,.07-.07.2l.27-.07.31-.08-.71.56c-.08.24-.17.54-.29.9a15.45,15.45,0,0,0-.77,3.51,20.2,20.2,0,0,0,.16,3.63c0,.48.09.88.11,1.15s0,.43,0,.43-.08-.13-.21-.38-.31-.6-.51-1.05a10.09,10.09,0,0,1-.57-1.67,7,7,0,0,1-.19-2.2,6.53,6.53,0,0,1,.54-2.14,8.55,8.55,0,0,1,.83-1.47,9.71,9.71,0,0,0-1.34,1.37,15.13,15.13,0,0,0-1.42,2.35l-.42.78-.16.28Z"/><path class="cls-9" d="M250.92,185.3a13,13,0,0,0,9.53,8.07c7.85,1.86,12-8.17,13.24-11.92a45.69,45.69,0,0,0-4.53-.9l-10.43.94h-.25a7.47,7.47,0,0,0-1.87.44h0c-.37.13-.77.29-1.22.5A22.93,22.93,0,0,0,250.92,185.3Z"/><path class="cls-9" d="M260.72,191.87l8.45-11.32c-.16-1.56-.34-2.13-.83-6-.54-4.26-1.06-8.26-1.06-8.26l-11.65,5.87a28.61,28.61,0,0,1,3,9.55A79.77,79.77,0,0,0,260.72,191.87Z"/><path class="cls-20" d="M255.63,172.19a28.61,28.61,0,0,1,3,9.55c.4.12.78.23,1.14.32,1.45.37,5.6-4,8.53-7.48-.54-4.26-1.06-8.26-1.06-8.26Z"/><path class="cls-9" d="M245.17,162.32c.29.92.64,1.88,1.06,2.87,0,0,0,5.1.64,6.19s4.67,7.84,8.21,7.08c2.95-.63,9.85-5.66,12.14-8.5a3,3,0,0,0,.77-1.37c.17-2,.56-11,.61-11.75.12-2-.42-17.31-18.41-11.42a8.9,8.9,0,0,0-6.06,7.25A22.08,22.08,0,0,0,245.17,162.32Z"/><path class="cls-9" d="M246.23,165.19s0,5.1.64,6.19,4.67,7.84,8.21,7.08c2.95-.63,9.85-5.66,12.14-8.5-2.91,2.44-10.69,8.69-13.19,8.07-3.1-.78-7.11-7.13-7.1-7.79s-.19-5-.19-5-.73-1.31-1.57-2.92C245.46,163.24,245.81,164.2,246.23,165.19Z"/><path class="cls-9" d="M267.14,168.41a7.07,7.07,0,0,0,4.64-3.14c.07-.13.13-.24.18-.35.55-1.26.36-5.42-1.42-6.23a1.64,1.64,0,0,0-2.13.76h0a4.43,4.43,0,0,0-.23.52Z"/><path class="cls-21" d="M271.62,161.52a1.74,1.74,0,0,1,0,1c-.33,1.43-1.63,2.62-2.87,3.72A3.49,3.49,0,0,0,269,164a6.38,6.38,0,0,1-.15-.76C268.77,162.23,270.94,159.6,271.62,161.52Z"/><path class="cls-20" d="M268.13,166.71l.07-.05.21-.15a3.27,3.27,0,0,0,.6-.65,2.77,2.77,0,0,0,.44-1.15,2.35,2.35,0,0,0-.3-1.45.66.66,0,0,0-.12-.17l0,0h0l0,0,0-.08a.8.8,0,0,1,.08-.16,5.07,5.07,0,0,1,.34-.61c.13-.19.26-.37.39-.53a3.31,3.31,0,0,1,.38-.43.93.93,0,0,1,.42-.23.64.64,0,0,1,.37,0,.3.3,0,0,1,.17.13.13.13,0,0,1,0,.07.13.13,0,0,0,0-.08.31.31,0,0,0-.15-.17.74.74,0,0,0-.43-.1,1.22,1.22,0,0,0-.56.22,4.54,4.54,0,0,0-.48.41,6.11,6.11,0,0,0-.47.53,4.93,4.93,0,0,0-.42.63l-.09.17,0,.09-.06.12,0,.09a.35.35,0,0,0,.05.08l.08.11a1.3,1.3,0,0,1,.1.15,2.54,2.54,0,0,1,.33,1.27,2.78,2.78,0,0,1-.26,1.09,3.31,3.31,0,0,1-.44.69l-.16.17Z"/><path class="cls-22" d="M242,163.27a4.64,4.64,0,0,0,1.57,3.09,4,4,0,0,0,.6.46l0,0a4,4,0,0,0,.4.22l.48.21a5,5,0,0,0,1.11.25h.69l.21,0,.38-.05a4.68,4.68,0,0,0,3.62-3.1,4.22,4.22,0,0,0,.24-1,5.88,5.88,0,0,0,0-.73,2.24,2.24,0,0,1,2.17-.19,5.18,5.18,0,0,0,3.8,4.27,5.37,5.37,0,0,0,1.75.14,5.14,5.14,0,0,0,4-2.55,5,5,0,0,0,.67-3,4.72,4.72,0,0,0-.21-1.07l2.68-.69,1.91-.49.25-.06.18,0,.33-.08h0l.31-.08h0l.07,0,.71-.19.1,0v0l-.1-.36-.06-.25,0-.13-1.27.32h0l-.71.18-4.65,1.2a5.13,5.13,0,0,0-9.74,2.13,3,3,0,0,0-2.25.15,4.72,4.72,0,0,0-4.25-3.58h-.73a4.38,4.38,0,0,0-1.26.3,3.73,3.73,0,0,0-.64.3,4.33,4.33,0,0,0-.61.41A4.71,4.71,0,0,0,242,163.27Zm12.28-1.15a4.35,4.35,0,1,1,4.73,3.93,4.12,4.12,0,0,1-1.22-.06A4.35,4.35,0,0,1,254.23,162.12Zm-11.5,1.08a3.92,3.92,0,0,1,1-3,3.7,3.7,0,0,1,.71-.6,3.87,3.87,0,0,1,1.81-.65,3.74,3.74,0,0,1,.58,0,3.91,3.91,0,0,1,3.59,3c0,.17.06.33.08.5s0,.22,0,.33a3.91,3.91,0,0,1-3.55,3.92h-.18a4.13,4.13,0,0,1-.5,0h-.13a4,4,0,0,1-1-.25,3.25,3.25,0,0,1-.67-.34,3.36,3.36,0,0,1-.43-.31,2.73,2.73,0,0,1-.25-.23A3.91,3.91,0,0,1,242.73,163.2Z"/><path class="cls-8" d="M243,153.77a33.06,33.06,0,0,0,.59,3.53c.06.25.1.39.1.39,5.53-4.69,5.12-9.47,4.82-11C250.85,155,269,158.17,269,158.17l2.58.86a7.68,7.68,0,0,0,1.15-2.31c.8-2.42,1.23-6.7-1.92-12.58a10.18,10.18,0,0,0-3-3.54l0,0c-6.16-4.41-15.87-.66-15.87-.66C242.86,139.91,242.42,148.53,243,153.77Z"/><path class="cls-8" d="M264.68,162.66c.05-.2.12-.5.24-.86a8.11,8.11,0,0,1,.51-1.23,5.24,5.24,0,0,1,1-1.35,5,5,0,0,1,1.39-.95,6,6,0,0,1,1.26-.44l.44-.1.26-.22-.09.19.27,0,.33,0-.78.47-.41.85a15.28,15.28,0,0,0-1.22,3.38,20.17,20.17,0,0,0-.32,3.62c0,.48,0,.88,0,1.16l0,.43s-.05-.15-.15-.41-.23-.63-.37-1.11a10.89,10.89,0,0,1-.34-1.72,7.28,7.28,0,0,1,.09-2.21,6.49,6.49,0,0,1,.83-2.06,8.8,8.8,0,0,1,1-1.34,10.16,10.16,0,0,0-1.5,1.18,16.41,16.41,0,0,0-1.72,2.14c-.22.3-.39.55-.51.72l-.2.26S264.64,162.87,264.68,162.66Z"/><path class="cls-8" d="M243,153.77l.36-.19c2.69-1.53,4.17-5.4,4.88-8a24.37,24.37,0,0,0,.55-2.39,3.77,3.77,0,0,0,.76,1.56c2.09,2.88,7.77,6.7,7.77,6.7l-1-2.35s1.66,2.22,7.44,5.18a30.53,30.53,0,0,0,9,2.39c2.29.33,4.5.5,6.15.6a31.91,31.91,0,0,0-2-5.82,25.41,25.41,0,0,0-9.08-10.9l0,0c-6.16-4.41-15.87-.66-15.87-.66a12.58,12.58,0,0,0-1.8.13C242.8,141.12,242.46,148.9,243,153.77Z"/><path class="cls-8" d="M250.1,140.05c1.23,2,3.41,3.41,5.51,4.6a3.83,3.83,0,0,1-.64-2.07,24.17,24.17,0,0,0,11.15,7.54,6.28,6.28,0,0,1-1-3.13,22.19,22.19,0,0,0,9.51,4.14,19.26,19.26,0,0,0,2.2.37,25.41,25.41,0,0,0-9.08-10.9l0,0c-6.16-4.41-15.87-.66-15.87-.66A12.58,12.58,0,0,0,250.1,140.05Z"/><path class="cls-23" d="M297.56,130.57c-1.23,1.64-3.45,2.07-5.4,2.7a20.06,20.06,0,0,0-7.67,4.57,30.26,30.26,0,0,1,3.45-7.29c1.62-2.35,4.26-4.94,7.24-5.33S299.25,128.34,297.56,130.57Z"/><path class="cls-23" d="M299.05,143.65c-1.64.21-3.14-.82-4.61-1.58a16,16,0,0,0-7-1.83,24.28,24.28,0,0,1,6.15-2.14c2.27-.4,5.26-.35,7.16,1.15S301.29,143.36,299.05,143.65Z"/><path class="cls-23" d="M284.49,127.28c-.06,1.1-.92,2-1.6,2.84a10.58,10.58,0,0,0-2.06,4.36,16.2,16.2,0,0,1-.66-4.31,6.34,6.34,0,0,1,1.64-4.57C283.06,124.5,284.58,125.77,284.49,127.28Z"/><text class="cls-24" transform="translate(187.92 482.46)">Selected schools will display here</text></svg>