<svg id="Layer_1" data-name="Layer 1" xmlns="http://www.w3.org/2000/svg" viewBox="0 0 533.74 533.74"><defs><style>.cls-1{fill:#ebf2f9;}.cls-2{fill:#f8fbff;}.cls-3{fill:#c9e0f2;}.cls-4{fill:#a8d29f;}.cls-5{fill:#82b378;}.cls-18,.cls-6{fill:#979bb4;}.cls-7{fill:#844820;}.cls-8{fill:#233862;}.cls-9{fill:#4b4f68;}.cls-10{fill:#36384a;}.cls-11{fill:#592c13;}.cls-12{fill:#ee9849;}.cls-13{fill:#e58638;}.cls-14{fill:#ff6d4d;}.cls-15{fill:#ba4c43;}.cls-16{fill:#ff431a;}.cls-17{fill:#0c0c0c;}.cls-18{font-size:23.6px;font-family:Poppins-SemiBold, Poppins;font-weight:600;}.cls-19{fill:#fff;fill-rule:evenodd;}</style></defs><path class="cls-1" d="M573.48,171.91c-32-25.57-82.67-31.3-130.75-27.46-116.26,9.28-118.46,87-157.37,89S142.75,167.69,62.5,248.68a111.57,111.57,0,0,0-26.9,44.4q-1.83,5.6-3.13,11.25s0,0,0,.05a145.79,145.79,0,0,0-3,18.39c-4.89,48.76,13.35,93.85,13.35,93.85l345.91.11h20.42l148.32,0h16Z"/><path class="cls-2" d="M574,212.47,100,344.14a163.39,163.39,0,0,0,5.74,53.73L574,337Z"/><path class="cls-2" d="M398.55,230.89,29.46,322.77a145.79,145.79,0,0,1,3-18.39s0,0,0-.05q1.31-5.65,3.13-11.25Z"/><path class="cls-3" d="M388.72,416.73l-345.91-.11S19.72,359.54,32.46,304.38c0,0,0,0,0-.05a172.72,172.72,0,0,1,93.46,22.54c58.38,33.2,154.22,8.91,182,27.53s34.11,37.9,54.74,41.22c18,2.89,24.68,17.44,26.09,21.11Z"/><path class="cls-2" d="M528.28,193a9.65,9.65,0,1,1,9.65,9.64A9.65,9.65,0,0,1,528.28,193Z"/><path class="cls-4" d="M494.39,389.18c9.58-3,21.9-7.89,15.2-11.56-7.18-3.93-16.33,4.41-21.29,9.93l-.78-.12a27.26,27.26,0,0,0-3.85-.27c9.45-15.16,20-35.34,11-37.91-9.68-2.76-16.62,21.77-20,39-9.46,2.06-19.64,6.65-30.24,9.71C440.66,384.29,432,364,414,364.41c-19,.47,4.72,22.53,20.68,35.76a52.78,52.78,0,0,1-10.81.68c-23.21-1.08-37.75,14.66-37.75,14.66H510.73C515.41,408.09,508.32,394.4,494.39,389.18Z"/><path class="cls-5" d="M1.44,415.68l131.31.86s-12.14-24.41-42.27-19.19c-19,3.29-25.31-1.68-33.14-6.55,14.49-5.48,36-14.54,26-16.73-9.53-2.09-22.53,7.19-30.53,14.09a39.38,39.38,0,0,0-5.56-2.35c17.12-16,49.35-47.88,35.12-48.79-14-.89-31.65,30.66-40.06,47.49-1-.19-2-.36-3.05-.5a22.41,22.41,0,0,0-12.15,1.87c-1.86-7-5.29-15-9.85-13.35s.6,9.74,5.38,15.82C9.37,397.14,1.44,415.68,1.44,415.68Z"/><path class="cls-6" d="M573.48,415.51H-5.84a1,1,0,0,0-1,1,1,1,0,0,0,1,1H573.48Z"/><path class="cls-7" d="M220.22,139.38s-7.23-7.88-9.46-8.15-11.44,4.15-12,5.89,10.12-1.74,10.71,0,1.25,2.92,4.27,3a12.74,12.74,0,0,1,5.65,1.84Z"/><path class="cls-8" d="M228.89,415.86c-2.29-1.4-1-11.86-1-11.86s10.71-8.56,12.18-2,10.17,9.5,15.12,10.3c3.41.56,4.47,2.45,4.8,3.57Z"/><path class="cls-9" d="M227,409.21c-2.75-1-18-37.69-17.38-49.6.07-1.41-.2-13-.64-15.39-.34-1.87-.79-4.05-1.34-6.47-.83-3.68-1.87-7.91-3-12.45-3.25-12.77-7.39-27.95-10.24-40,5.12-11.48,11.68-21.53,17.7-25,4.29.52,8.43,1.32,11.5,2a53.93,53.93,0,0,1,5.63,3.71c.47,2.38,1.17,6.35,1.73,11.47.36,3.34.67,7.18.81,11.38,1,29.78-4.19,62.14,9.09,115C241.18,405.28,231.22,410.82,227,409.21Z"/><path class="cls-10" d="M230.91,277.47c-2.21,11.07-7.54,34.73-26.32,47.83-3.25-12.77-7.39-27.95-10.24-40,5.12-11.48,11.68-21.53,17.7-25,4.29.52,8.43,1.32,11.5,2a53.93,53.93,0,0,1,5.63,3.71C229.65,268.38,230.35,272.35,230.91,277.47Z"/><path class="cls-7" d="M207.81,173.3v1.86s.51,5.81-6.65,6.65-12.57-2.26-12.37-6.74c.64-3.47,1.35-5.86,1.4-8.73a20.94,20.94,0,0,0-.26-3.48l13.86-.27,4.08.66Z"/><path class="cls-11" d="M207.86,163.25l-.05,10.05a11.76,11.76,0,0,1-5,1.1c-6.37,0-10.49-4.67-12.64-8.06a20.94,20.94,0,0,0-.26-3.48l13.86-.27Z"/><path class="cls-7" d="M208.67,168.13s-17.75,3.59-19.81-7.5-5.74-18.09,5.5-20.85,14.24,1.06,15.83,4.6S213.24,166.92,208.67,168.13Z"/><path class="cls-8" d="M195.89,415.86a39.81,39.81,0,0,0-2.5-8.38c-1.54-3.07-11.32-1.12-11.32-1.12s-1.95,1.68-2.37,9.5Z"/><path class="cls-9" d="M215.05,266.18s-9.73,43.35-12.85,62.92c-1.17,7.32-3.6,30.78-4,38.18-.52,10.16-3.87,41.26-3.87,41.26s-5.65-3.57-14-.23c0,0-2.12-13.94-3.46-43.14-.4-8.56,1.26-21.42,1.05-25.59-1-20.54-7.54-73.63-2.33-77S215.05,266.18,215.05,266.18Z"/><path class="cls-12" d="M218.38,135.55a5,5,0,0,0-2.39,2.72c-1.15,2.7-.21,4.18-.21,4.18s18.78,17,17.56,20.14c-.64,1.62-15.19,10.15-21.24,13.64-2.49-.21-4.41-.19-4.47-.19h0s-4.11,12.53-18.84-1c-2.59,3.76-22.65,13-19.17,29q1.23,5.63,2.14,10.62c4.14,22.61,3.82,35.94,3,43.3-.63,5.74-3,6.32-.88,7.84a63.26,63.26,0,0,0,11.89,3.47,118,118,0,0,0,23,2.31c15.15.1,20.89-5.13,20.89-5.13,4-3.92-3.92-19.36-3.29-30.51.33-5.71,0-25.29-.09-34.28h0c.73-.8,22.9-25.19,27.26-39h0a19.77,19.77,0,0,0,.51-2C255.46,153.76,218.38,135.55,218.38,135.55Z"/><path class="cls-13" d="M174.76,258c.81-7.36,1.13-20.69-3-43.3.28-.9.57-1.76.84-2.59a4,4,0,0,1,7.58.27C183.23,224.16,186,244.27,174.76,258Z"/><path class="cls-7" d="M170.23,245.59s9.22-5.57,12.07-4.86,9,3.39,8.67,5-7.58,2.77-8.83,2.58a6.12,6.12,0,0,0-4.1.74c-.82.71-7.35,1-8.14-.94S170.23,245.59,170.23,245.59Z"/><path class="cls-12" d="M188.78,175.07s-11.3.81-17.44,4.41c-4,2.33-27,39-27,44.39s24.17,24.54,24.17,24.54,4.48,1.49,4.64-5.65c0,0-12.06-17.82-11.42-19.88.4-1.3,18.16-15.55,18.16-15.55Z"/><path class="cls-13" d="M253.61,162.59c-4.36,13.85-26.53,38.24-27.26,39h0c-.07-.24-1.89-7.22,2.47-12.21S248.58,171.62,253.61,162.59Z"/><path class="cls-13" d="M184.52,177.15c-.05-1,4.59-2.33,4.59-2.33s5.3,7.36,14,7.49c0,0-2.49,4.85-5.42,6.1C197.73,188.41,184.81,183,184.52,177.15Z"/><path class="cls-13" d="M203.15,182.14s4.63-2.75,4.65-5.73c0,0,3-.37,4.3,1.08,0,0,1.1,5.1-.36,8.06C211.74,185.55,205.07,184.54,203.15,182.14Z"/><path class="cls-14" d="M219.26,251.24a9.64,9.64,0,0,1-2.76,6.41l-2.64,2.71a1.62,1.62,0,0,1-2.39-.07l-3.67-4.19a5.74,5.74,0,0,1-1.43-4.07c.15-3.33.41-9.73.57-15.91.13-5,.19-9.86.06-12.8-.41-9.41-3.85-39.29-3.85-39.29h2.27a121,121,0,0,1,10,27,104,104,0,0,1,2.2,12.26S219.65,240.38,219.26,251.24Z"/><path class="cls-15" d="M200,181.69l6.28-1.5a1,1,0,0,1,.8,1.09c0,1-1.77,4-2.54,4.25S198.52,183.76,200,181.69Z"/><path class="cls-12" d="M184.52,175.73c-.05-1,4.59-2.34,4.59-2.34s5.3,7.36,14,7.49c0,0-2.49,4.85-5.42,6.1C197.73,187,184.81,181.54,184.52,175.73Z"/><path class="cls-12" d="M203.15,180.88s4.63-2.75,4.65-5.72c0,0,3-.38,4.3,1.07,0,0,1.1,5.1-.36,8.07C211.74,184.3,205.07,183.28,203.15,180.88Z"/><path class="cls-16" d="M219.26,251.24a9.64,9.64,0,0,1-2.76,6.41l-2.64,2.71a1.62,1.62,0,0,1-2.39-.07l-3.67-4.19a5.74,5.74,0,0,1-1.43-4.07c.15-3.33.41-9.73.57-15.91,5.87-7.32,7.88-17.12,8.44-25.06a104,104,0,0,1,2.2,12.26S219.65,240.38,219.26,251.24Z"/><path class="cls-17" d="M213.64,136.14a37.08,37.08,0,0,1-10.78-2.92,12.93,12.93,0,0,0-7.61-.5,19.34,19.34,0,0,0-8.5,3.73l0,0c-5.65,4.45-6,14.32-3.87,16.78,2.86,3.25,6.29,10.58,6.29,10.58a6.22,6.22,0,0,0,.73-4.59c-.52-2.87,2-2.87,5.08-4.17s.52-4.94,3.25-7.15,12.75-.91,12.62-2.6C214.61,144,213.64,136.52,213.64,136.14Z"/><text class="cls-18" transform="translate(149.42 465.5)">There are no videos</text><path class="cls-16" d="M380.28,416.26s-33.6,1-44.8,1-44.8-1-44.8-1c-8.68,0-15.78-7.91-15.78-17.57,0,0-.94-22-.94-29.34s.94-29.33.94-29.33c0-9.66,7.1-17.57,15.78-17.57,0,0,33.6-1.05,44.8-1.05s44.8,1.05,44.8,1.05c8.68,0,15.78,7.91,15.78,17.57,0,0,.94,22,.94,29.33s-.94,29.34-.94,29.34C396.06,408.35,389,416.26,380.28,416.26Z"/><polygon class="cls-19" points="320.93 390.78 320.93 347.93 356 369.35 320.93 390.78"/></svg>