<svg xmlns="http://www.w3.org/2000/svg" xmlns:xlink="http://www.w3.org/1999/xlink" viewBox="0 0 533.74 533.74"><defs><style>.cls-1,.cls-15,.cls-16,.cls-18,.cls-19,.cls-20,.cls-9{fill:none;}.cls-2,.cls-3{fill:#ff431a;}.cls-21,.cls-3{clip-path:url(#clip-path);}.cls-4{isolation:isolate;}.cls-5{font-size:30.27px;font-family:Poppins-SemiBold, Poppins;font-weight:600;}.cls-5,.cls-6,.cls-7{fill:#979bb4;}.cls-6{font-size:10.6px;font-family:Poppins-Thin, Poppins;font-weight:200;letter-spacing:0.1em;}.cls-7{opacity:0.24;}.cls-8{fill:#fff;}.cls-9{stroke:#00327c;stroke-width:0.92px;}.cls-18,.cls-9{stroke-miterlimit:10;}.cls-10{opacity:0.5;}.cls-11{clip-path:url(#clip-path-2);}.cls-12{fill:#2114c6;}.cls-13{opacity:0.35;}.cls-14{clip-path:url(#clip-path-3);}.cls-15{stroke:#fcfdff;stroke-width:1.86px;}.cls-15,.cls-16,.cls-19,.cls-20{stroke-linecap:round;stroke-linejoin:round;}.cls-16{stroke:#2114c6;stroke-width:0.93px;}.cls-17{fill:#fcb82c;mix-blend-mode:screen;}.cls-18{stroke:#0f0f0f;}.cls-19,.cls-20{stroke:#020101;}.cls-19{stroke-width:0.93px;}.cls-20{stroke-width:0.97px;}.cls-22{fill:#ffc0b3;}.cls-23{fill:#36384a;}.cls-24{fill:#efefef;}.cls-25{fill:#231f20;}</style><clipPath id="clip-path"><path id="SVGID" class="cls-2" d="M183.74,114.41a9.93,9.93,0,1,1-9.93-9.92A9.93,9.93,0,0,1,183.74,114.41Z"/></clipPath><clipPath id="clip-path-2"><circle class="cls-1" cx="359.1" cy="170.79" r="28.77"/></clipPath><clipPath id="clip-path-3"><rect class="cls-1" x="154.65" y="269.98" width="31.95" height="57.78"/></clipPath></defs><g class="cls-4"><g id="Layer_1" data-name="Layer 1"><text class="cls-5" transform="translate(208.12 440.27)">No post</text><text class="cls-6" transform="translate(184.87 462.03)">Post will be displayed here</text><rect class="cls-7" x="146" y="103.43" width="248" height="286.19" rx="9.25"/><rect class="cls-8" x="143" y="100.43" width="248" height="286.19" rx="9.25"/><rect class="cls-2" x="164.31" y="129.29" width="204.47" height="198.56"/><rect class="cls-9" x="160.78" y="132.71" width="204.47" height="198.56"/><g class="cls-10"><g class="cls-11"><circle class="cls-12" cx="319.66" cy="130.27" r="1.18"/><circle class="cls-12" cx="325" cy="130.27" r="1.18"/><circle class="cls-12" cx="330.34" cy="130.27" r="1.18"/><circle class="cls-12" cx="335.67" cy="130.27" r="1.18"/><circle class="cls-12" cx="341.01" cy="130.27" r="1.18"/><circle class="cls-12" cx="346.35" cy="130.27" r="1.18"/><circle class="cls-12" cx="351.69" cy="130.27" r="1.18"/><circle class="cls-12" cx="357.02" cy="130.27" r="1.18"/><circle class="cls-12" cx="362.36" cy="130.27" r="1.18"/><circle class="cls-12" cx="367.7" cy="130.27" r="1.18"/><circle class="cls-12" cx="373.03" cy="130.27" r="1.18"/><circle class="cls-12" cx="378.37" cy="130.27" r="1.18"/><circle class="cls-12" cx="383.71" cy="130.27" r="1.18"/><circle class="cls-12" cx="389.04" cy="130.27" r="1.18"/><circle class="cls-12" cx="394.38" cy="130.27" r="1.18"/><circle class="cls-12" cx="399.72" cy="130.27" r="1.18"/><circle class="cls-12" cx="405.05" cy="130.27" r="1.18"/><path class="cls-12" d="M320.84,135.56a1.18,1.18,0,1,0-1.18,1.17A1.18,1.18,0,0,0,320.84,135.56Z"/><path class="cls-12" d="M326.18,135.56a1.18,1.18,0,1,0-2.35,0,1.18,1.18,0,0,0,2.35,0Z"/><path class="cls-12" d="M331.51,135.56a1.18,1.18,0,1,0-1.17,1.17A1.17,1.17,0,0,0,331.51,135.56Z"/><path class="cls-12" d="M336.85,135.56a1.18,1.18,0,1,0-1.18,1.17A1.18,1.18,0,0,0,336.85,135.56Z"/><path class="cls-12" d="M342.19,135.56a1.18,1.18,0,1,0-2.35,0,1.18,1.18,0,0,0,2.35,0Z"/><path class="cls-12" d="M347.52,135.56a1.18,1.18,0,1,0-1.17,1.17A1.17,1.17,0,0,0,347.52,135.56Z"/><path class="cls-12" d="M352.86,135.56a1.18,1.18,0,1,0-1.17,1.17A1.18,1.18,0,0,0,352.86,135.56Z"/><path class="cls-12" d="M358.2,135.56a1.18,1.18,0,1,0-2.35,0,1.18,1.18,0,0,0,2.35,0Z"/><path class="cls-12" d="M363.53,135.56a1.18,1.18,0,1,0-1.17,1.17A1.17,1.17,0,0,0,363.53,135.56Z"/><path class="cls-12" d="M368.87,135.56a1.18,1.18,0,1,0-1.17,1.17A1.18,1.18,0,0,0,368.87,135.56Z"/><path class="cls-12" d="M374.21,135.56a1.18,1.18,0,1,0-2.35,0,1.18,1.18,0,0,0,2.35,0Z"/><path class="cls-12" d="M379.54,135.56a1.18,1.18,0,1,0-1.17,1.17A1.17,1.17,0,0,0,379.54,135.56Z"/><path class="cls-12" d="M384.88,135.56a1.18,1.18,0,1,0-1.17,1.17A1.17,1.17,0,0,0,384.88,135.56Z"/><path class="cls-12" d="M390.22,135.56a1.18,1.18,0,1,0-2.35,0,1.18,1.18,0,0,0,2.35,0Z"/><path class="cls-12" d="M395.56,135.56a1.18,1.18,0,1,0-2.35,0,1.18,1.18,0,0,0,2.35,0Z"/><path class="cls-12" d="M400.89,135.56a1.18,1.18,0,1,0-1.17,1.17A1.17,1.17,0,0,0,400.89,135.56Z"/><path class="cls-12" d="M406.23,135.56a1.18,1.18,0,1,0-2.35,0,1.18,1.18,0,0,0,2.35,0Z"/><circle class="cls-12" cx="319.66" cy="140.85" r="1.18"/><circle class="cls-12" cx="325" cy="140.85" r="1.18"/><circle class="cls-12" cx="330.34" cy="140.85" r="1.18"/><circle class="cls-12" cx="335.67" cy="140.85" r="1.18"/><circle class="cls-12" cx="341.01" cy="140.85" r="1.18"/><circle class="cls-12" cx="346.35" cy="140.85" r="1.18"/><circle class="cls-12" cx="351.69" cy="140.85" r="1.18"/><circle class="cls-12" cx="357.02" cy="140.85" r="1.18"/><circle class="cls-12" cx="362.36" cy="140.85" r="1.18"/><circle class="cls-12" cx="367.7" cy="140.85" r="1.18"/><circle class="cls-12" cx="373.03" cy="140.85" r="1.18"/><circle class="cls-12" cx="378.37" cy="140.85" r="1.18"/><circle class="cls-12" cx="383.71" cy="140.85" r="1.18"/><circle class="cls-12" cx="389.04" cy="140.85" r="1.18"/><circle class="cls-12" cx="394.38" cy="140.85" r="1.18"/><circle class="cls-12" cx="399.72" cy="140.85" r="1.18"/><circle class="cls-12" cx="405.05" cy="140.85" r="1.18"/><circle class="cls-12" cx="319.66" cy="146.13" r="1.18"/><circle class="cls-12" cx="325" cy="146.13" r="1.18"/><circle class="cls-12" cx="330.34" cy="146.13" r="1.18"/><circle class="cls-12" cx="335.67" cy="146.13" r="1.18"/><circle class="cls-12" cx="341.01" cy="146.13" r="1.18"/><circle class="cls-12" cx="346.35" cy="146.13" r="1.18"/><circle class="cls-12" cx="351.69" cy="146.13" r="1.18"/><circle class="cls-12" cx="357.02" cy="146.13" r="1.18"/><circle class="cls-12" cx="362.36" cy="146.13" r="1.18"/><circle class="cls-12" cx="367.7" cy="146.13" r="1.18"/><circle class="cls-12" cx="373.03" cy="146.13" r="1.18"/><circle class="cls-12" cx="378.37" cy="146.13" r="1.18"/><circle class="cls-12" cx="383.71" cy="146.13" r="1.18"/><circle class="cls-12" cx="389.04" cy="146.13" r="1.18"/><circle class="cls-12" cx="394.38" cy="146.13" r="1.18"/><circle class="cls-12" cx="399.72" cy="146.13" r="1.18"/><circle class="cls-12" cx="405.05" cy="146.13" r="1.18"/><circle class="cls-12" cx="319.66" cy="151.42" r="1.18"/><circle class="cls-12" cx="325" cy="151.42" r="1.18"/><circle class="cls-12" cx="330.34" cy="151.42" r="1.18"/><circle class="cls-12" cx="335.67" cy="151.42" r="1.18"/><circle class="cls-12" cx="341.01" cy="151.42" r="1.18"/><circle class="cls-12" cx="346.35" cy="151.42" r="1.18"/><circle class="cls-12" cx="351.69" cy="151.42" r="1.18"/><circle class="cls-12" cx="357.02" cy="151.42" r="1.18"/><circle class="cls-12" cx="362.36" cy="151.42" r="1.18"/><circle class="cls-12" cx="367.7" cy="151.42" r="1.18"/><circle class="cls-12" cx="373.03" cy="151.42" r="1.18"/><circle class="cls-12" cx="378.37" cy="151.42" r="1.18"/><circle class="cls-12" cx="383.71" cy="151.42" r="1.18"/><circle class="cls-12" cx="389.04" cy="151.42" r="1.18"/><circle class="cls-12" cx="394.38" cy="151.42" r="1.18"/><circle class="cls-12" cx="399.72" cy="151.42" r="1.18"/><circle class="cls-12" cx="405.05" cy="151.42" r="1.18"/><path class="cls-12" d="M320.84,156.71a1.18,1.18,0,1,0-1.18,1.18A1.17,1.17,0,0,0,320.84,156.71Z"/><path class="cls-12" d="M326.18,156.71a1.18,1.18,0,1,0-1.18,1.18A1.17,1.17,0,0,0,326.18,156.71Z"/><path class="cls-12" d="M331.51,156.71a1.18,1.18,0,0,0-2.35,0,1.18,1.18,0,1,0,2.35,0Z"/><path class="cls-12" d="M336.85,156.71a1.18,1.18,0,1,0-1.18,1.18A1.17,1.17,0,0,0,336.85,156.71Z"/><path class="cls-12" d="M342.19,156.71a1.18,1.18,0,1,0-1.18,1.18A1.17,1.17,0,0,0,342.19,156.71Z"/><path class="cls-12" d="M347.52,156.71a1.18,1.18,0,0,0-2.35,0,1.18,1.18,0,1,0,2.35,0Z"/><path class="cls-12" d="M352.86,156.71a1.18,1.18,0,1,0-1.17,1.18A1.17,1.17,0,0,0,352.86,156.71Z"/><path class="cls-12" d="M358.2,156.71a1.18,1.18,0,1,0-1.18,1.18A1.17,1.17,0,0,0,358.2,156.71Z"/><path class="cls-12" d="M363.53,156.71a1.18,1.18,0,0,0-2.35,0,1.18,1.18,0,1,0,2.35,0Z"/><path class="cls-12" d="M368.87,156.71a1.18,1.18,0,1,0-1.17,1.18A1.17,1.17,0,0,0,368.87,156.71Z"/><path class="cls-12" d="M374.21,156.71a1.18,1.18,0,1,0-1.18,1.18A1.17,1.17,0,0,0,374.21,156.71Z"/><path class="cls-12" d="M379.54,156.71a1.18,1.18,0,0,0-2.35,0,1.18,1.18,0,1,0,2.35,0Z"/><path class="cls-12" d="M384.88,156.71a1.18,1.18,0,0,0-2.35,0,1.18,1.18,0,1,0,2.35,0Z"/><path class="cls-12" d="M390.22,156.71a1.18,1.18,0,1,0-1.18,1.18A1.17,1.17,0,0,0,390.22,156.71Z"/><path class="cls-12" d="M395.56,156.71a1.18,1.18,0,1,0-1.18,1.18A1.17,1.17,0,0,0,395.56,156.71Z"/><path class="cls-12" d="M400.89,156.71a1.18,1.18,0,0,0-2.35,0,1.18,1.18,0,1,0,2.35,0Z"/><path class="cls-12" d="M406.23,156.71a1.18,1.18,0,1,0-1.18,1.18A1.17,1.17,0,0,0,406.23,156.71Z"/><circle class="cls-12" cx="319.66" cy="162" r="1.18"/><circle class="cls-12" cx="325" cy="162" r="1.18"/><circle class="cls-12" cx="330.34" cy="162" r="1.18"/><circle class="cls-12" cx="335.67" cy="162" r="1.18"/><circle class="cls-12" cx="341.01" cy="162" r="1.18"/><circle class="cls-12" cx="346.35" cy="162" r="1.18"/><circle class="cls-12" cx="351.69" cy="162" r="1.18"/><circle class="cls-12" cx="357.02" cy="162" r="1.18"/><circle class="cls-12" cx="362.36" cy="162" r="1.18"/><circle class="cls-12" cx="367.7" cy="162" r="1.18"/><circle class="cls-12" cx="373.03" cy="162" r="1.18"/><circle class="cls-12" cx="378.37" cy="162" r="1.18"/><circle class="cls-12" cx="383.71" cy="162" r="1.18"/><circle class="cls-12" cx="389.04" cy="162" r="1.18"/><circle class="cls-12" cx="394.38" cy="162" r="1.18"/><circle class="cls-12" cx="399.72" cy="162" r="1.18"/><circle class="cls-12" cx="405.05" cy="162" r="1.18"/><circle class="cls-12" cx="319.66" cy="167.29" r="1.18"/><circle class="cls-12" cx="325" cy="167.29" r="1.18"/><circle class="cls-12" cx="330.34" cy="167.29" r="1.18"/><circle class="cls-12" cx="335.67" cy="167.29" r="1.18"/><circle class="cls-12" cx="341.01" cy="167.29" r="1.18"/><circle class="cls-12" cx="346.35" cy="167.29" r="1.18"/><circle class="cls-12" cx="351.69" cy="167.29" r="1.18"/><circle class="cls-12" cx="357.02" cy="167.29" r="1.18"/><circle class="cls-12" cx="362.36" cy="167.29" r="1.18"/><circle class="cls-12" cx="367.7" cy="167.29" r="1.18"/><circle class="cls-12" cx="373.03" cy="167.29" r="1.18"/><circle class="cls-12" cx="378.37" cy="167.29" r="1.18"/><circle class="cls-12" cx="383.71" cy="167.29" r="1.18"/><circle class="cls-12" cx="389.04" cy="167.29" r="1.18"/><circle class="cls-12" cx="394.38" cy="167.29" r="1.18"/><circle class="cls-12" cx="399.72" cy="167.29" r="1.18"/><circle class="cls-12" cx="405.05" cy="167.29" r="1.18"/><circle class="cls-12" cx="319.66" cy="172.57" r="1.18"/><circle class="cls-12" cx="325" cy="172.57" r="1.18"/><circle class="cls-12" cx="330.34" cy="172.57" r="1.18"/><circle class="cls-12" cx="335.67" cy="172.57" r="1.18"/><circle class="cls-12" cx="341.01" cy="172.57" r="1.18"/><circle class="cls-12" cx="346.35" cy="172.57" r="1.18"/><circle class="cls-12" cx="351.69" cy="172.57" r="1.18"/><circle class="cls-12" cx="357.02" cy="172.57" r="1.18"/><circle class="cls-12" cx="362.36" cy="172.57" r="1.18"/><circle class="cls-12" cx="367.7" cy="172.57" r="1.18"/><circle class="cls-12" cx="373.03" cy="172.57" r="1.18"/><circle class="cls-12" cx="378.37" cy="172.57" r="1.18"/><circle class="cls-12" cx="383.71" cy="172.57" r="1.18"/><circle class="cls-12" cx="389.04" cy="172.57" r="1.18"/><circle class="cls-12" cx="394.38" cy="172.57" r="1.18"/><circle class="cls-12" cx="399.72" cy="172.57" r="1.18"/><circle class="cls-12" cx="405.05" cy="172.57" r="1.18"/><path class="cls-12" d="M320.84,177.86a1.18,1.18,0,1,0-1.18,1.18A1.17,1.17,0,0,0,320.84,177.86Z"/><path class="cls-12" d="M326.18,177.86A1.18,1.18,0,1,0,325,179,1.17,1.17,0,0,0,326.18,177.86Z"/><path class="cls-12" d="M331.51,177.86a1.18,1.18,0,0,0-2.35,0,1.18,1.18,0,1,0,2.35,0Z"/><path class="cls-12" d="M336.85,177.86a1.18,1.18,0,1,0-1.18,1.18A1.17,1.17,0,0,0,336.85,177.86Z"/><path class="cls-12" d="M342.19,177.86A1.18,1.18,0,1,0,341,179,1.17,1.17,0,0,0,342.19,177.86Z"/><path class="cls-12" d="M347.52,177.86a1.18,1.18,0,0,0-2.35,0,1.18,1.18,0,1,0,2.35,0Z"/><path class="cls-12" d="M352.86,177.86a1.18,1.18,0,1,0-1.17,1.18A1.17,1.17,0,0,0,352.86,177.86Z"/><path class="cls-12" d="M358.2,177.86A1.18,1.18,0,1,0,357,179,1.17,1.17,0,0,0,358.2,177.86Z"/><path class="cls-12" d="M363.53,177.86a1.18,1.18,0,0,0-2.35,0,1.18,1.18,0,1,0,2.35,0Z"/><path class="cls-12" d="M368.87,177.86A1.18,1.18,0,1,0,367.7,179,1.17,1.17,0,0,0,368.87,177.86Z"/><path class="cls-12" d="M374.21,177.86A1.18,1.18,0,1,0,373,179,1.17,1.17,0,0,0,374.21,177.86Z"/><path class="cls-12" d="M379.54,177.86a1.18,1.18,0,0,0-2.35,0,1.18,1.18,0,1,0,2.35,0Z"/><path class="cls-12" d="M384.88,177.86a1.18,1.18,0,0,0-2.35,0,1.18,1.18,0,1,0,2.35,0Z"/><path class="cls-12" d="M390.22,177.86A1.18,1.18,0,1,0,389,179,1.17,1.17,0,0,0,390.22,177.86Z"/><path class="cls-12" d="M395.56,177.86a1.18,1.18,0,1,0-1.18,1.18A1.17,1.17,0,0,0,395.56,177.86Z"/><path class="cls-12" d="M400.89,177.86a1.18,1.18,0,0,0-2.35,0,1.18,1.18,0,1,0,2.35,0Z"/><path class="cls-12" d="M406.23,177.86a1.18,1.18,0,1,0-1.18,1.18A1.17,1.17,0,0,0,406.23,177.86Z"/><circle class="cls-12" cx="319.66" cy="183.15" r="1.18"/><circle class="cls-12" cx="325" cy="183.15" r="1.18"/><circle class="cls-12" cx="330.34" cy="183.15" r="1.18"/><circle class="cls-12" cx="335.67" cy="183.15" r="1.18"/><circle class="cls-12" cx="341.01" cy="183.15" r="1.18"/><circle class="cls-12" cx="346.35" cy="183.15" r="1.18"/><circle class="cls-12" cx="351.69" cy="183.15" r="1.18"/><circle class="cls-12" cx="357.02" cy="183.15" r="1.18"/><circle class="cls-12" cx="362.36" cy="183.15" r="1.18"/><circle class="cls-12" cx="367.7" cy="183.15" r="1.18"/><circle class="cls-12" cx="373.03" cy="183.15" r="1.18"/><circle class="cls-12" cx="378.37" cy="183.15" r="1.18"/><circle class="cls-12" cx="383.71" cy="183.15" r="1.18"/><circle class="cls-12" cx="389.04" cy="183.15" r="1.18"/><circle class="cls-12" cx="394.38" cy="183.15" r="1.18"/><circle class="cls-12" cx="399.72" cy="183.15" r="1.18"/><circle class="cls-12" cx="405.05" cy="183.15" r="1.18"/><circle class="cls-12" cx="319.66" cy="188.44" r="1.18"/><circle class="cls-12" cx="325" cy="188.44" r="1.18"/><circle class="cls-12" cx="330.34" cy="188.44" r="1.18"/><circle class="cls-12" cx="335.67" cy="188.44" r="1.18"/><circle class="cls-12" cx="341.01" cy="188.44" r="1.18"/><circle class="cls-12" cx="346.35" cy="188.44" r="1.18"/><circle class="cls-12" cx="351.69" cy="188.44" r="1.18"/><circle class="cls-12" cx="357.02" cy="188.44" r="1.18"/><circle class="cls-12" cx="362.36" cy="188.44" r="1.18"/><circle class="cls-12" cx="367.7" cy="188.44" r="1.18"/><circle class="cls-12" cx="373.03" cy="188.44" r="1.18"/><circle class="cls-12" cx="378.37" cy="188.44" r="1.18"/><circle class="cls-12" cx="383.71" cy="188.44" r="1.18"/><circle class="cls-12" cx="389.04" cy="188.44" r="1.18"/><circle class="cls-12" cx="394.38" cy="188.44" r="1.18"/><circle class="cls-12" cx="399.72" cy="188.44" r="1.18"/><circle class="cls-12" cx="405.05" cy="188.44" r="1.18"/><circle class="cls-12" cx="319.66" cy="193.73" r="1.18"/><circle class="cls-12" cx="325" cy="193.73" r="1.18"/><circle class="cls-12" cx="330.34" cy="193.73" r="1.18"/><circle class="cls-12" cx="335.67" cy="193.73" r="1.18"/><circle class="cls-12" cx="341.01" cy="193.73" r="1.18"/><circle class="cls-12" cx="346.35" cy="193.73" r="1.18"/><circle class="cls-12" cx="351.69" cy="193.73" r="1.18"/><circle class="cls-12" cx="357.02" cy="193.73" r="1.18"/><circle class="cls-12" cx="362.36" cy="193.73" r="1.18"/><circle class="cls-12" cx="367.7" cy="193.73" r="1.18"/><circle class="cls-12" cx="373.03" cy="193.73" r="1.18"/><circle class="cls-12" cx="378.37" cy="193.73" r="1.18"/><circle class="cls-12" cx="383.71" cy="193.73" r="1.18"/><circle class="cls-12" cx="389.04" cy="193.73" r="1.18"/><circle class="cls-12" cx="394.38" cy="193.73" r="1.18"/><circle class="cls-12" cx="399.72" cy="193.73" r="1.18"/><circle class="cls-12" cx="405.05" cy="193.73" r="1.18"/><path class="cls-12" d="M320.84,199a1.18,1.18,0,1,0-1.18,1.18A1.17,1.17,0,0,0,320.84,199Z"/><path class="cls-12" d="M326.18,199a1.18,1.18,0,1,0-1.18,1.18A1.17,1.17,0,0,0,326.18,199Z"/><path class="cls-12" d="M331.51,199a1.18,1.18,0,0,0-2.35,0,1.18,1.18,0,1,0,2.35,0Z"/><path class="cls-12" d="M336.85,199a1.18,1.18,0,1,0-1.18,1.18A1.17,1.17,0,0,0,336.85,199Z"/><path class="cls-12" d="M342.19,199a1.18,1.18,0,1,0-1.18,1.18A1.17,1.17,0,0,0,342.19,199Z"/><path class="cls-12" d="M347.52,199a1.18,1.18,0,0,0-2.35,0,1.18,1.18,0,1,0,2.35,0Z"/><path class="cls-12" d="M352.86,199a1.18,1.18,0,1,0-1.17,1.18A1.17,1.17,0,0,0,352.86,199Z"/><path class="cls-12" d="M358.2,199a1.18,1.18,0,1,0-1.18,1.18A1.17,1.17,0,0,0,358.2,199Z"/><path class="cls-12" d="M363.53,199a1.18,1.18,0,0,0-2.35,0,1.18,1.18,0,1,0,2.35,0Z"/><path class="cls-12" d="M368.87,199a1.18,1.18,0,1,0-1.17,1.18A1.17,1.17,0,0,0,368.87,199Z"/><path class="cls-12" d="M374.21,199a1.18,1.18,0,1,0-1.18,1.18A1.17,1.17,0,0,0,374.21,199Z"/><path class="cls-12" d="M379.54,199a1.18,1.18,0,0,0-2.35,0,1.18,1.18,0,1,0,2.35,0Z"/><path class="cls-12" d="M384.88,199a1.18,1.18,0,0,0-2.35,0,1.18,1.18,0,1,0,2.35,0Z"/><path class="cls-12" d="M390.22,199a1.18,1.18,0,1,0-1.18,1.18A1.17,1.17,0,0,0,390.22,199Z"/><path class="cls-12" d="M395.56,199a1.18,1.18,0,1,0-1.18,1.18A1.17,1.17,0,0,0,395.56,199Z"/><path class="cls-12" d="M400.89,199a1.18,1.18,0,0,0-2.35,0,1.18,1.18,0,1,0,2.35,0Z"/><path class="cls-12" d="M406.23,199a1.18,1.18,0,1,0-1.18,1.18A1.17,1.17,0,0,0,406.23,199Z"/><circle class="cls-12" cx="319.66" cy="204.3" r="1.18"/><circle class="cls-12" cx="325" cy="204.3" r="1.18"/><circle class="cls-12" cx="330.34" cy="204.3" r="1.18"/><circle class="cls-12" cx="335.67" cy="204.3" r="1.18"/><circle class="cls-12" cx="341.01" cy="204.3" r="1.18"/><circle class="cls-12" cx="346.35" cy="204.3" r="1.18"/><circle class="cls-12" cx="351.69" cy="204.3" r="1.18"/><circle class="cls-12" cx="357.02" cy="204.3" r="1.18"/><circle class="cls-12" cx="362.36" cy="204.3" r="1.18"/><circle class="cls-12" cx="367.7" cy="204.3" r="1.18"/><circle class="cls-12" cx="373.03" cy="204.3" r="1.18"/><circle class="cls-12" cx="378.37" cy="204.3" r="1.18"/><circle class="cls-12" cx="383.71" cy="204.3" r="1.18"/><circle class="cls-12" cx="389.04" cy="204.3" r="1.18"/><circle class="cls-12" cx="394.38" cy="204.3" r="1.18"/><circle class="cls-12" cx="399.72" cy="204.3" r="1.18"/><circle class="cls-12" cx="405.05" cy="204.3" r="1.18"/><circle class="cls-12" cx="319.66" cy="209.59" r="1.18"/><circle class="cls-12" cx="325" cy="209.59" r="1.18"/><circle class="cls-12" cx="330.34" cy="209.59" r="1.18"/><circle class="cls-12" cx="335.67" cy="209.59" r="1.18"/><circle class="cls-12" cx="341.01" cy="209.59" r="1.18"/><circle class="cls-12" cx="346.35" cy="209.59" r="1.18"/><circle class="cls-12" cx="351.69" cy="209.59" r="1.18"/><circle class="cls-12" cx="357.02" cy="209.59" r="1.18"/><circle class="cls-12" cx="362.36" cy="209.59" r="1.18"/><circle class="cls-12" cx="367.7" cy="209.59" r="1.18"/><circle class="cls-12" cx="373.03" cy="209.59" r="1.18"/><circle class="cls-12" cx="378.37" cy="209.59" r="1.18"/><circle class="cls-12" cx="383.71" cy="209.59" r="1.18"/><circle class="cls-12" cx="389.04" cy="209.59" r="1.18"/><circle class="cls-12" cx="394.38" cy="209.59" r="1.18"/><circle class="cls-12" cx="399.72" cy="209.59" r="1.18"/><circle class="cls-12" cx="405.05" cy="209.59" r="1.18"/></g></g><g class="cls-13"><g class="cls-14"><path class="cls-12" d="M123.66,245.45a1.5,1.5,0,1,0-1.5,1.5A1.5,1.5,0,0,0,123.66,245.45Z"/><path class="cls-12" d="M130.46,245.45A1.5,1.5,0,1,0,129,247,1.5,1.5,0,0,0,130.46,245.45Z"/><path class="cls-12" d="M137.25,245.45a1.5,1.5,0,1,0-1.49,1.5A1.49,1.49,0,0,0,137.25,245.45Z"/><path class="cls-12" d="M144.05,245.45a1.5,1.5,0,1,0-1.5,1.5A1.5,1.5,0,0,0,144.05,245.45Z"/><path class="cls-12" d="M150.84,245.45a1.5,1.5,0,1,0-1.49,1.5A1.49,1.49,0,0,0,150.84,245.45Z"/><path class="cls-12" d="M157.64,245.45a1.5,1.5,0,1,0-1.5,1.5A1.5,1.5,0,0,0,157.64,245.45Z"/><path class="cls-12" d="M164.43,245.45a1.5,1.5,0,1,0-1.49,1.5A1.49,1.49,0,0,0,164.43,245.45Z"/><path class="cls-12" d="M171.23,245.45a1.5,1.5,0,1,0-1.5,1.5A1.5,1.5,0,0,0,171.23,245.45Z"/><path class="cls-12" d="M178,245.45a1.5,1.5,0,1,0-1.5,1.5A1.5,1.5,0,0,0,178,245.45Z"/><path class="cls-12" d="M184.82,245.45a1.5,1.5,0,1,0-1.49,1.5A1.49,1.49,0,0,0,184.82,245.45Z"/><path class="cls-12" d="M191.62,245.45a1.5,1.5,0,1,0-1.5,1.5A1.5,1.5,0,0,0,191.62,245.45Z"/><path class="cls-12" d="M198.41,245.45a1.5,1.5,0,1,0-1.49,1.5A1.49,1.49,0,0,0,198.41,245.45Z"/><path class="cls-12" d="M205.21,245.45a1.5,1.5,0,1,0-1.5,1.5A1.5,1.5,0,0,0,205.21,245.45Z"/><path class="cls-12" d="M212,245.45a1.5,1.5,0,1,0-1.5,1.5A1.5,1.5,0,0,0,212,245.45Z"/><path class="cls-12" d="M218.8,245.45a1.5,1.5,0,1,0-1.49,1.5A1.49,1.49,0,0,0,218.8,245.45Z"/><path class="cls-12" d="M225.6,245.45a1.5,1.5,0,1,0-1.5,1.5A1.5,1.5,0,0,0,225.6,245.45Z"/><path class="cls-12" d="M232.39,245.45a1.5,1.5,0,1,0-1.49,1.5A1.49,1.49,0,0,0,232.39,245.45Z"/><circle class="cls-12" cx="122.16" cy="252.19" r="1.5"/><circle class="cls-12" cx="128.96" cy="252.19" r="1.5"/><path class="cls-12" d="M137.25,252.19a1.5,1.5,0,1,0-1.49,1.49A1.5,1.5,0,0,0,137.25,252.19Z"/><path class="cls-12" d="M144.05,252.19a1.5,1.5,0,1,0-1.5,1.49A1.5,1.5,0,0,0,144.05,252.19Z"/><circle class="cls-12" cx="149.35" cy="252.19" r="1.5"/><path class="cls-12" d="M157.64,252.19a1.5,1.5,0,1,0-1.5,1.49A1.5,1.5,0,0,0,157.64,252.19Z"/><circle class="cls-12" cx="162.94" cy="252.19" r="1.5"/><path class="cls-12" d="M171.23,252.19a1.5,1.5,0,1,0-1.5,1.49A1.5,1.5,0,0,0,171.23,252.19Z"/><path class="cls-12" d="M178,252.19a1.5,1.5,0,1,0-1.5,1.49A1.5,1.5,0,0,0,178,252.19Z"/><path class="cls-12" d="M184.82,252.19a1.5,1.5,0,1,0-1.49,1.49A1.5,1.5,0,0,0,184.82,252.19Z"/><circle class="cls-12" cx="190.12" cy="252.19" r="1.5"/><circle class="cls-12" cx="196.92" cy="252.19" r="1.5"/><path class="cls-12" d="M205.21,252.19a1.5,1.5,0,1,0-1.5,1.49A1.5,1.5,0,0,0,205.21,252.19Z"/><path class="cls-12" d="M212,252.19a1.5,1.5,0,1,0-1.5,1.49A1.5,1.5,0,0,0,212,252.19Z"/><path class="cls-12" d="M218.8,252.19a1.5,1.5,0,1,0-1.49,1.49A1.5,1.5,0,0,0,218.8,252.19Z"/><path class="cls-12" d="M225.6,252.19a1.5,1.5,0,1,0-1.5,1.49A1.5,1.5,0,0,0,225.6,252.19Z"/><path class="cls-12" d="M232.39,252.19a1.5,1.5,0,1,0-1.49,1.49A1.5,1.5,0,0,0,232.39,252.19Z"/><path class="cls-12" d="M123.66,258.92a1.5,1.5,0,1,0-1.5,1.5A1.5,1.5,0,0,0,123.66,258.92Z"/><path class="cls-12" d="M130.46,258.92a1.5,1.5,0,1,0-1.5,1.5A1.5,1.5,0,0,0,130.46,258.92Z"/><path class="cls-12" d="M137.25,258.92a1.5,1.5,0,1,0-1.49,1.5A1.5,1.5,0,0,0,137.25,258.92Z"/><path class="cls-12" d="M144.05,258.92a1.5,1.5,0,1,0-1.5,1.5A1.5,1.5,0,0,0,144.05,258.92Z"/><path class="cls-12" d="M150.84,258.92a1.5,1.5,0,1,0-1.49,1.5A1.5,1.5,0,0,0,150.84,258.92Z"/><path class="cls-12" d="M157.64,258.92a1.5,1.5,0,1,0-1.5,1.5A1.5,1.5,0,0,0,157.64,258.92Z"/><path class="cls-12" d="M164.43,258.92a1.5,1.5,0,1,0-1.49,1.5A1.5,1.5,0,0,0,164.43,258.92Z"/><path class="cls-12" d="M171.23,258.92a1.5,1.5,0,1,0-1.5,1.5A1.5,1.5,0,0,0,171.23,258.92Z"/><path class="cls-12" d="M178,258.92a1.5,1.5,0,1,0-1.5,1.5A1.5,1.5,0,0,0,178,258.92Z"/><path class="cls-12" d="M184.82,258.92a1.5,1.5,0,1,0-1.49,1.5A1.5,1.5,0,0,0,184.82,258.92Z"/><path class="cls-12" d="M191.62,258.92a1.5,1.5,0,1,0-1.5,1.5A1.5,1.5,0,0,0,191.62,258.92Z"/><path class="cls-12" d="M198.41,258.92a1.5,1.5,0,1,0-1.49,1.5A1.5,1.5,0,0,0,198.41,258.92Z"/><path class="cls-12" d="M205.21,258.92a1.5,1.5,0,1,0-1.5,1.5A1.5,1.5,0,0,0,205.21,258.92Z"/><path class="cls-12" d="M212,258.92a1.5,1.5,0,1,0-1.5,1.5A1.5,1.5,0,0,0,212,258.92Z"/><path class="cls-12" d="M218.8,258.92a1.5,1.5,0,1,0-1.49,1.5A1.5,1.5,0,0,0,218.8,258.92Z"/><path class="cls-12" d="M225.6,258.92a1.5,1.5,0,1,0-1.5,1.5A1.5,1.5,0,0,0,225.6,258.92Z"/><path class="cls-12" d="M232.39,258.92a1.5,1.5,0,1,0-1.49,1.5A1.5,1.5,0,0,0,232.39,258.92Z"/><circle class="cls-12" cx="122.16" cy="265.65" r="1.5"/><circle class="cls-12" cx="128.96" cy="265.65" r="1.5"/><path class="cls-12" d="M137.25,265.65a1.5,1.5,0,1,0-1.49,1.5A1.49,1.49,0,0,0,137.25,265.65Z"/><path class="cls-12" d="M144.05,265.65a1.5,1.5,0,1,0-1.5,1.5A1.5,1.5,0,0,0,144.05,265.65Z"/><circle class="cls-12" cx="149.35" cy="265.65" r="1.5"/><path class="cls-12" d="M157.64,265.65a1.5,1.5,0,1,0-1.5,1.5A1.5,1.5,0,0,0,157.64,265.65Z"/><circle class="cls-12" cx="162.94" cy="265.65" r="1.5"/><path class="cls-12" d="M171.23,265.65a1.5,1.5,0,1,0-1.5,1.5A1.5,1.5,0,0,0,171.23,265.65Z"/><path class="cls-12" d="M178,265.65a1.5,1.5,0,1,0-1.5,1.5A1.5,1.5,0,0,0,178,265.65Z"/><path class="cls-12" d="M184.82,265.65a1.5,1.5,0,1,0-1.49,1.5A1.49,1.49,0,0,0,184.82,265.65Z"/><circle class="cls-12" cx="190.12" cy="265.65" r="1.5"/><circle class="cls-12" cx="196.92" cy="265.65" r="1.5"/><path class="cls-12" d="M205.21,265.65a1.5,1.5,0,1,0-1.5,1.5A1.5,1.5,0,0,0,205.21,265.65Z"/><path class="cls-12" d="M212,265.65a1.5,1.5,0,1,0-1.5,1.5A1.5,1.5,0,0,0,212,265.65Z"/><path class="cls-12" d="M218.8,265.65a1.5,1.5,0,1,0-1.49,1.5A1.49,1.49,0,0,0,218.8,265.65Z"/><path class="cls-12" d="M225.6,265.65a1.5,1.5,0,1,0-1.5,1.5A1.5,1.5,0,0,0,225.6,265.65Z"/><path class="cls-12" d="M232.39,265.65a1.5,1.5,0,1,0-1.49,1.5A1.49,1.49,0,0,0,232.39,265.65Z"/><path class="cls-12" d="M123.66,272.39a1.5,1.5,0,1,0-1.5,1.49A1.5,1.5,0,0,0,123.66,272.39Z"/><path class="cls-12" d="M130.46,272.39a1.5,1.5,0,1,0-1.5,1.49A1.5,1.5,0,0,0,130.46,272.39Z"/><path class="cls-12" d="M137.25,272.39a1.5,1.5,0,1,0-1.49,1.49A1.5,1.5,0,0,0,137.25,272.39Z"/><path class="cls-12" d="M144.05,272.39a1.5,1.5,0,1,0-1.5,1.49A1.5,1.5,0,0,0,144.05,272.39Z"/><path class="cls-12" d="M150.84,272.39a1.5,1.5,0,1,0-1.49,1.49A1.5,1.5,0,0,0,150.84,272.39Z"/><path class="cls-12" d="M157.64,272.39a1.5,1.5,0,1,0-1.5,1.49A1.5,1.5,0,0,0,157.64,272.39Z"/><path class="cls-12" d="M164.43,272.39a1.5,1.5,0,1,0-1.49,1.49A1.5,1.5,0,0,0,164.43,272.39Z"/><path class="cls-12" d="M171.23,272.39a1.5,1.5,0,1,0-1.5,1.49A1.5,1.5,0,0,0,171.23,272.39Z"/><path class="cls-12" d="M178,272.39a1.5,1.5,0,1,0-1.5,1.49A1.5,1.5,0,0,0,178,272.39Z"/><path class="cls-12" d="M184.82,272.39a1.5,1.5,0,1,0-1.49,1.49A1.5,1.5,0,0,0,184.82,272.39Z"/><path class="cls-12" d="M191.62,272.39a1.5,1.5,0,1,0-1.5,1.49A1.5,1.5,0,0,0,191.62,272.39Z"/><path class="cls-12" d="M198.41,272.39a1.5,1.5,0,1,0-1.49,1.49A1.5,1.5,0,0,0,198.41,272.39Z"/><path class="cls-12" d="M205.21,272.39a1.5,1.5,0,1,0-1.5,1.49A1.5,1.5,0,0,0,205.21,272.39Z"/><path class="cls-12" d="M212,272.39a1.5,1.5,0,1,0-1.5,1.49A1.5,1.5,0,0,0,212,272.39Z"/><path class="cls-12" d="M218.8,272.39a1.5,1.5,0,1,0-1.49,1.49A1.5,1.5,0,0,0,218.8,272.39Z"/><path class="cls-12" d="M225.6,272.39a1.5,1.5,0,1,0-1.5,1.49A1.5,1.5,0,0,0,225.6,272.39Z"/><path class="cls-12" d="M232.39,272.39a1.5,1.5,0,1,0-1.49,1.49A1.5,1.5,0,0,0,232.39,272.39Z"/><path class="cls-12" d="M123.66,279.12a1.5,1.5,0,1,0-1.5,1.5A1.5,1.5,0,0,0,123.66,279.12Z"/><path class="cls-12" d="M130.46,279.12a1.5,1.5,0,1,0-1.5,1.5A1.5,1.5,0,0,0,130.46,279.12Z"/><path class="cls-12" d="M137.25,279.12a1.5,1.5,0,1,0-1.49,1.5A1.5,1.5,0,0,0,137.25,279.12Z"/><path class="cls-12" d="M144.05,279.12a1.5,1.5,0,1,0-1.5,1.5A1.5,1.5,0,0,0,144.05,279.12Z"/><path class="cls-12" d="M150.84,279.12a1.5,1.5,0,1,0-1.49,1.5A1.5,1.5,0,0,0,150.84,279.12Z"/><path class="cls-12" d="M157.64,279.12a1.5,1.5,0,1,0-1.5,1.5A1.5,1.5,0,0,0,157.64,279.12Z"/><path class="cls-12" d="M164.43,279.12a1.5,1.5,0,1,0-1.49,1.5A1.5,1.5,0,0,0,164.43,279.12Z"/><path class="cls-12" d="M171.23,279.12a1.5,1.5,0,1,0-1.5,1.5A1.5,1.5,0,0,0,171.23,279.12Z"/><path class="cls-12" d="M178,279.12a1.5,1.5,0,1,0-1.5,1.5A1.5,1.5,0,0,0,178,279.12Z"/><path class="cls-12" d="M184.82,279.12a1.5,1.5,0,1,0-1.49,1.5A1.5,1.5,0,0,0,184.82,279.12Z"/><path class="cls-12" d="M191.62,279.12a1.5,1.5,0,1,0-1.5,1.5A1.5,1.5,0,0,0,191.62,279.12Z"/><path class="cls-12" d="M198.41,279.12a1.5,1.5,0,1,0-1.49,1.5A1.5,1.5,0,0,0,198.41,279.12Z"/><path class="cls-12" d="M205.21,279.12a1.5,1.5,0,1,0-1.5,1.5A1.5,1.5,0,0,0,205.21,279.12Z"/><path class="cls-12" d="M212,279.12a1.5,1.5,0,1,0-1.5,1.5A1.5,1.5,0,0,0,212,279.12Z"/><path class="cls-12" d="M218.8,279.12a1.5,1.5,0,1,0-1.49,1.5A1.5,1.5,0,0,0,218.8,279.12Z"/><path class="cls-12" d="M225.6,279.12a1.5,1.5,0,1,0-1.5,1.5A1.5,1.5,0,0,0,225.6,279.12Z"/><path class="cls-12" d="M232.39,279.12a1.5,1.5,0,1,0-1.49,1.5A1.5,1.5,0,0,0,232.39,279.12Z"/><path class="cls-12" d="M123.66,285.85a1.5,1.5,0,1,0-1.5,1.5A1.5,1.5,0,0,0,123.66,285.85Z"/><path class="cls-12" d="M130.46,285.85a1.5,1.5,0,1,0-1.5,1.5A1.5,1.5,0,0,0,130.46,285.85Z"/><path class="cls-12" d="M137.25,285.85a1.5,1.5,0,1,0-1.49,1.5A1.49,1.49,0,0,0,137.25,285.85Z"/><path class="cls-12" d="M144.05,285.85a1.5,1.5,0,1,0-1.5,1.5A1.5,1.5,0,0,0,144.05,285.85Z"/><path class="cls-12" d="M150.84,285.85a1.5,1.5,0,1,0-1.49,1.5A1.49,1.49,0,0,0,150.84,285.85Z"/><path class="cls-12" d="M157.64,285.85a1.5,1.5,0,1,0-1.5,1.5A1.5,1.5,0,0,0,157.64,285.85Z"/><path class="cls-12" d="M164.43,285.85a1.5,1.5,0,1,0-1.49,1.5A1.49,1.49,0,0,0,164.43,285.85Z"/><path class="cls-12" d="M171.23,285.85a1.5,1.5,0,1,0-1.5,1.5A1.5,1.5,0,0,0,171.23,285.85Z"/><path class="cls-12" d="M178,285.85a1.5,1.5,0,1,0-1.5,1.5A1.5,1.5,0,0,0,178,285.85Z"/><path class="cls-12" d="M184.82,285.85a1.5,1.5,0,1,0-1.49,1.5A1.49,1.49,0,0,0,184.82,285.85Z"/><path class="cls-12" d="M191.62,285.85a1.5,1.5,0,1,0-1.5,1.5A1.5,1.5,0,0,0,191.62,285.85Z"/><path class="cls-12" d="M198.41,285.85a1.5,1.5,0,1,0-1.49,1.5A1.49,1.49,0,0,0,198.41,285.85Z"/><path class="cls-12" d="M205.21,285.85a1.5,1.5,0,1,0-1.5,1.5A1.5,1.5,0,0,0,205.21,285.85Z"/><path class="cls-12" d="M212,285.85a1.5,1.5,0,1,0-1.5,1.5A1.5,1.5,0,0,0,212,285.85Z"/><path class="cls-12" d="M218.8,285.85a1.5,1.5,0,1,0-1.49,1.5A1.49,1.49,0,0,0,218.8,285.85Z"/><path class="cls-12" d="M225.6,285.85a1.5,1.5,0,1,0-1.5,1.5A1.5,1.5,0,0,0,225.6,285.85Z"/><path class="cls-12" d="M232.39,285.85a1.5,1.5,0,1,0-1.49,1.5A1.49,1.49,0,0,0,232.39,285.85Z"/><path class="cls-12" d="M123.66,292.59a1.5,1.5,0,1,0-1.5,1.49A1.5,1.5,0,0,0,123.66,292.59Z"/><path class="cls-12" d="M130.46,292.59a1.5,1.5,0,1,0-1.5,1.49A1.5,1.5,0,0,0,130.46,292.59Z"/><path class="cls-12" d="M137.25,292.59a1.5,1.5,0,1,0-1.49,1.49A1.5,1.5,0,0,0,137.25,292.59Z"/><path class="cls-12" d="M144.05,292.59a1.5,1.5,0,1,0-1.5,1.49A1.5,1.5,0,0,0,144.05,292.59Z"/><path class="cls-12" d="M150.84,292.59a1.5,1.5,0,1,0-1.49,1.49A1.5,1.5,0,0,0,150.84,292.59Z"/><path class="cls-12" d="M157.64,292.59a1.5,1.5,0,1,0-1.5,1.49A1.5,1.5,0,0,0,157.64,292.59Z"/><path class="cls-12" d="M164.43,292.59a1.5,1.5,0,1,0-1.49,1.49A1.5,1.5,0,0,0,164.43,292.59Z"/><path class="cls-12" d="M171.23,292.59a1.5,1.5,0,1,0-1.5,1.49A1.5,1.5,0,0,0,171.23,292.59Z"/><path class="cls-12" d="M178,292.59a1.5,1.5,0,1,0-1.5,1.49A1.5,1.5,0,0,0,178,292.59Z"/><path class="cls-12" d="M184.82,292.59a1.5,1.5,0,1,0-1.49,1.49A1.5,1.5,0,0,0,184.82,292.59Z"/><path class="cls-12" d="M191.62,292.59a1.5,1.5,0,1,0-1.5,1.49A1.5,1.5,0,0,0,191.62,292.59Z"/><path class="cls-12" d="M198.41,292.59a1.5,1.5,0,1,0-1.49,1.49A1.5,1.5,0,0,0,198.41,292.59Z"/><path class="cls-12" d="M205.21,292.59a1.5,1.5,0,1,0-1.5,1.49A1.5,1.5,0,0,0,205.21,292.59Z"/><path class="cls-12" d="M212,292.59a1.5,1.5,0,1,0-1.5,1.49A1.5,1.5,0,0,0,212,292.59Z"/><path class="cls-12" d="M218.8,292.59a1.5,1.5,0,1,0-1.49,1.49A1.5,1.5,0,0,0,218.8,292.59Z"/><path class="cls-12" d="M225.6,292.59a1.5,1.5,0,1,0-1.5,1.49A1.5,1.5,0,0,0,225.6,292.59Z"/><path class="cls-12" d="M232.39,292.59a1.5,1.5,0,1,0-1.49,1.49A1.5,1.5,0,0,0,232.39,292.59Z"/><path class="cls-12" d="M123.66,299.32a1.5,1.5,0,1,0-1.5,1.5A1.5,1.5,0,0,0,123.66,299.32Z"/><path class="cls-12" d="M130.46,299.32a1.5,1.5,0,1,0-1.5,1.5A1.5,1.5,0,0,0,130.46,299.32Z"/><path class="cls-12" d="M137.25,299.32a1.5,1.5,0,1,0-1.49,1.5A1.49,1.49,0,0,0,137.25,299.32Z"/><path class="cls-12" d="M144.05,299.32a1.5,1.5,0,1,0-1.5,1.5A1.5,1.5,0,0,0,144.05,299.32Z"/><path class="cls-12" d="M150.84,299.32a1.5,1.5,0,1,0-1.49,1.5A1.49,1.49,0,0,0,150.84,299.32Z"/><path class="cls-12" d="M157.64,299.32a1.5,1.5,0,1,0-1.5,1.5A1.5,1.5,0,0,0,157.64,299.32Z"/><path class="cls-12" d="M164.43,299.32a1.5,1.5,0,1,0-1.49,1.5A1.49,1.49,0,0,0,164.43,299.32Z"/><path class="cls-12" d="M171.23,299.32a1.5,1.5,0,1,0-1.5,1.5A1.5,1.5,0,0,0,171.23,299.32Z"/><path class="cls-12" d="M178,299.32a1.5,1.5,0,1,0-1.5,1.5A1.5,1.5,0,0,0,178,299.32Z"/><path class="cls-12" d="M184.82,299.32a1.5,1.5,0,1,0-1.49,1.5A1.49,1.49,0,0,0,184.82,299.32Z"/><path class="cls-12" d="M191.62,299.32a1.5,1.5,0,1,0-1.5,1.5A1.5,1.5,0,0,0,191.62,299.32Z"/><path class="cls-12" d="M198.41,299.32a1.5,1.5,0,1,0-1.49,1.5A1.49,1.49,0,0,0,198.41,299.32Z"/><path class="cls-12" d="M205.21,299.32a1.5,1.5,0,1,0-1.5,1.5A1.5,1.5,0,0,0,205.21,299.32Z"/><path class="cls-12" d="M212,299.32a1.5,1.5,0,1,0-1.5,1.5A1.5,1.5,0,0,0,212,299.32Z"/><path class="cls-12" d="M218.8,299.32a1.5,1.5,0,1,0-1.49,1.5A1.49,1.49,0,0,0,218.8,299.32Z"/><path class="cls-12" d="M225.6,299.32a1.5,1.5,0,1,0-1.5,1.5A1.5,1.5,0,0,0,225.6,299.32Z"/><path class="cls-12" d="M232.39,299.32a1.5,1.5,0,1,0-1.49,1.5A1.49,1.49,0,0,0,232.39,299.32Z"/><path class="cls-12" d="M123.66,306.06a1.5,1.5,0,1,0-1.5,1.49A1.5,1.5,0,0,0,123.66,306.06Z"/><path class="cls-12" d="M130.46,306.06a1.5,1.5,0,1,0-1.5,1.49A1.5,1.5,0,0,0,130.46,306.06Z"/><path class="cls-12" d="M137.25,306.06a1.5,1.5,0,1,0-1.49,1.49A1.5,1.5,0,0,0,137.25,306.06Z"/><path class="cls-12" d="M144.05,306.06a1.5,1.5,0,1,0-1.5,1.49A1.5,1.5,0,0,0,144.05,306.06Z"/><path class="cls-12" d="M150.84,306.06a1.5,1.5,0,1,0-1.49,1.49A1.5,1.5,0,0,0,150.84,306.06Z"/><path class="cls-12" d="M157.64,306.06a1.5,1.5,0,1,0-1.5,1.49A1.5,1.5,0,0,0,157.64,306.06Z"/><path class="cls-12" d="M164.43,306.06a1.5,1.5,0,1,0-1.49,1.49A1.5,1.5,0,0,0,164.43,306.06Z"/><path class="cls-12" d="M171.23,306.06a1.5,1.5,0,1,0-1.5,1.49A1.5,1.5,0,0,0,171.23,306.06Z"/><path class="cls-12" d="M178,306.06a1.5,1.5,0,1,0-1.5,1.49A1.5,1.5,0,0,0,178,306.06Z"/><path class="cls-12" d="M184.82,306.06a1.5,1.5,0,1,0-1.49,1.49A1.5,1.5,0,0,0,184.82,306.06Z"/><path class="cls-12" d="M191.62,306.06a1.5,1.5,0,1,0-1.5,1.49A1.5,1.5,0,0,0,191.62,306.06Z"/><path class="cls-12" d="M198.41,306.06a1.5,1.5,0,1,0-1.49,1.49A1.5,1.5,0,0,0,198.41,306.06Z"/><path class="cls-12" d="M205.21,306.06a1.5,1.5,0,1,0-1.5,1.49A1.5,1.5,0,0,0,205.21,306.06Z"/><path class="cls-12" d="M212,306.06a1.5,1.5,0,1,0-1.5,1.49A1.5,1.5,0,0,0,212,306.06Z"/><path class="cls-12" d="M218.8,306.06a1.5,1.5,0,1,0-1.49,1.49A1.5,1.5,0,0,0,218.8,306.06Z"/><path class="cls-12" d="M225.6,306.06a1.5,1.5,0,1,0-1.5,1.49A1.5,1.5,0,0,0,225.6,306.06Z"/><path class="cls-12" d="M232.39,306.06a1.5,1.5,0,1,0-1.49,1.49A1.5,1.5,0,0,0,232.39,306.06Z"/><circle class="cls-12" cx="122.16" cy="312.79" r="1.5"/><circle class="cls-12" cx="128.96" cy="312.79" r="1.5"/><path class="cls-12" d="M137.25,312.79a1.5,1.5,0,1,0-1.49,1.5A1.5,1.5,0,0,0,137.25,312.79Z"/><path class="cls-12" d="M144.05,312.79a1.5,1.5,0,1,0-1.5,1.5A1.5,1.5,0,0,0,144.05,312.79Z"/><circle class="cls-12" cx="149.35" cy="312.79" r="1.5"/><path class="cls-12" d="M157.64,312.79a1.5,1.5,0,1,0-1.5,1.5A1.5,1.5,0,0,0,157.64,312.79Z"/><circle class="cls-12" cx="162.94" cy="312.79" r="1.5"/><path class="cls-12" d="M171.23,312.79a1.5,1.5,0,1,0-1.5,1.5A1.5,1.5,0,0,0,171.23,312.79Z"/><path class="cls-12" d="M178,312.79a1.5,1.5,0,1,0-1.5,1.5A1.5,1.5,0,0,0,178,312.79Z"/><path class="cls-12" d="M184.82,312.79a1.5,1.5,0,1,0-1.49,1.5A1.5,1.5,0,0,0,184.82,312.79Z"/><circle class="cls-12" cx="190.12" cy="312.79" r="1.5"/><circle class="cls-12" cx="196.92" cy="312.79" r="1.5"/><path class="cls-12" d="M205.21,312.79a1.5,1.5,0,1,0-1.5,1.5A1.5,1.5,0,0,0,205.21,312.79Z"/><path class="cls-12" d="M212,312.79a1.5,1.5,0,1,0-1.5,1.5A1.5,1.5,0,0,0,212,312.79Z"/><path class="cls-12" d="M218.8,312.79a1.5,1.5,0,1,0-1.49,1.5A1.5,1.5,0,0,0,218.8,312.79Z"/><path class="cls-12" d="M225.6,312.79a1.5,1.5,0,1,0-1.5,1.5A1.5,1.5,0,0,0,225.6,312.79Z"/><path class="cls-12" d="M232.39,312.79a1.5,1.5,0,1,0-1.49,1.5A1.5,1.5,0,0,0,232.39,312.79Z"/><path class="cls-12" d="M123.66,319.52a1.5,1.5,0,1,0-1.5,1.5A1.5,1.5,0,0,0,123.66,319.52Z"/><path class="cls-12" d="M130.46,319.52A1.5,1.5,0,1,0,129,321,1.5,1.5,0,0,0,130.46,319.52Z"/><path class="cls-12" d="M137.25,319.52a1.5,1.5,0,1,0-1.49,1.5A1.49,1.49,0,0,0,137.25,319.52Z"/><path class="cls-12" d="M144.05,319.52a1.5,1.5,0,1,0-1.5,1.5A1.5,1.5,0,0,0,144.05,319.52Z"/><path class="cls-12" d="M150.84,319.52a1.5,1.5,0,1,0-1.49,1.5A1.49,1.49,0,0,0,150.84,319.52Z"/><path class="cls-12" d="M157.64,319.52a1.5,1.5,0,1,0-1.5,1.5A1.5,1.5,0,0,0,157.64,319.52Z"/><path class="cls-12" d="M164.43,319.52a1.5,1.5,0,1,0-1.49,1.5A1.49,1.49,0,0,0,164.43,319.52Z"/><path class="cls-12" d="M171.23,319.52a1.5,1.5,0,1,0-1.5,1.5A1.5,1.5,0,0,0,171.23,319.52Z"/><path class="cls-12" d="M178,319.52a1.5,1.5,0,1,0-1.5,1.5A1.5,1.5,0,0,0,178,319.52Z"/><path class="cls-12" d="M184.82,319.52a1.5,1.5,0,1,0-1.49,1.5A1.49,1.49,0,0,0,184.82,319.52Z"/><path class="cls-12" d="M191.62,319.52a1.5,1.5,0,1,0-1.5,1.5A1.5,1.5,0,0,0,191.62,319.52Z"/><path class="cls-12" d="M198.41,319.52a1.5,1.5,0,1,0-1.49,1.5A1.49,1.49,0,0,0,198.41,319.52Z"/><path class="cls-12" d="M205.21,319.52a1.5,1.5,0,1,0-1.5,1.5A1.5,1.5,0,0,0,205.21,319.52Z"/><path class="cls-12" d="M212,319.52a1.5,1.5,0,1,0-1.5,1.5A1.5,1.5,0,0,0,212,319.52Z"/><path class="cls-12" d="M218.8,319.52a1.5,1.5,0,1,0-1.49,1.5A1.49,1.49,0,0,0,218.8,319.52Z"/><path class="cls-12" d="M225.6,319.52a1.5,1.5,0,1,0-1.5,1.5A1.5,1.5,0,0,0,225.6,319.52Z"/><path class="cls-12" d="M232.39,319.52a1.5,1.5,0,1,0-1.49,1.5A1.49,1.49,0,0,0,232.39,319.52Z"/><circle class="cls-12" cx="122.16" cy="326.26" r="1.5"/><circle class="cls-12" cx="128.96" cy="326.26" r="1.5"/><path class="cls-12" d="M137.25,326.26a1.5,1.5,0,1,0-1.49,1.49A1.5,1.5,0,0,0,137.25,326.26Z"/><path class="cls-12" d="M144.05,326.26a1.5,1.5,0,1,0-1.5,1.49A1.5,1.5,0,0,0,144.05,326.26Z"/><circle class="cls-12" cx="149.35" cy="326.26" r="1.5"/><path class="cls-12" d="M157.64,326.26a1.5,1.5,0,1,0-1.5,1.49A1.5,1.5,0,0,0,157.64,326.26Z"/><circle class="cls-12" cx="162.94" cy="326.26" r="1.5"/><path class="cls-12" d="M171.23,326.26a1.5,1.5,0,1,0-1.5,1.49A1.5,1.5,0,0,0,171.23,326.26Z"/><path class="cls-12" d="M178,326.26a1.5,1.5,0,1,0-1.5,1.49A1.5,1.5,0,0,0,178,326.26Z"/><path class="cls-12" d="M184.82,326.26a1.5,1.5,0,1,0-1.49,1.49A1.5,1.5,0,0,0,184.82,326.26Z"/><circle class="cls-12" cx="190.12" cy="326.26" r="1.5"/><circle class="cls-12" cx="196.92" cy="326.26" r="1.5"/><path class="cls-12" d="M205.21,326.26a1.5,1.5,0,1,0-1.5,1.49A1.5,1.5,0,0,0,205.21,326.26Z"/><path class="cls-12" d="M212,326.26a1.5,1.5,0,1,0-1.5,1.49A1.5,1.5,0,0,0,212,326.26Z"/><path class="cls-12" d="M218.8,326.26a1.5,1.5,0,1,0-1.49,1.49A1.5,1.5,0,0,0,218.8,326.26Z"/><path class="cls-12" d="M225.6,326.26a1.5,1.5,0,1,0-1.5,1.49A1.5,1.5,0,0,0,225.6,326.26Z"/><path class="cls-12" d="M232.39,326.26a1.5,1.5,0,1,0-1.49,1.49A1.5,1.5,0,0,0,232.39,326.26Z"/><path class="cls-12" d="M123.66,333a1.5,1.5,0,1,0-1.5,1.5A1.5,1.5,0,0,0,123.66,333Z"/><path class="cls-12" d="M130.46,333a1.5,1.5,0,1,0-1.5,1.5A1.5,1.5,0,0,0,130.46,333Z"/><path class="cls-12" d="M137.25,333a1.5,1.5,0,1,0-1.49,1.5A1.5,1.5,0,0,0,137.25,333Z"/><path class="cls-12" d="M144.05,333a1.5,1.5,0,1,0-1.5,1.5A1.5,1.5,0,0,0,144.05,333Z"/><path class="cls-12" d="M150.84,333a1.5,1.5,0,1,0-1.49,1.5A1.5,1.5,0,0,0,150.84,333Z"/><path class="cls-12" d="M157.64,333a1.5,1.5,0,1,0-1.5,1.5A1.5,1.5,0,0,0,157.64,333Z"/><path class="cls-12" d="M164.43,333a1.5,1.5,0,1,0-1.49,1.5A1.5,1.5,0,0,0,164.43,333Z"/><path class="cls-12" d="M171.23,333a1.5,1.5,0,1,0-1.5,1.5A1.5,1.5,0,0,0,171.23,333Z"/><path class="cls-12" d="M178,333a1.5,1.5,0,1,0-1.5,1.5A1.5,1.5,0,0,0,178,333Z"/><path class="cls-12" d="M184.82,333a1.5,1.5,0,1,0-1.49,1.5A1.5,1.5,0,0,0,184.82,333Z"/><path class="cls-12" d="M191.62,333a1.5,1.5,0,1,0-1.5,1.5A1.5,1.5,0,0,0,191.62,333Z"/><path class="cls-12" d="M198.41,333a1.5,1.5,0,1,0-1.49,1.5A1.5,1.5,0,0,0,198.41,333Z"/><path class="cls-12" d="M205.21,333a1.5,1.5,0,1,0-1.5,1.5A1.5,1.5,0,0,0,205.21,333Z"/><path class="cls-12" d="M212,333a1.5,1.5,0,1,0-1.5,1.5A1.5,1.5,0,0,0,212,333Z"/><path class="cls-12" d="M218.8,333a1.5,1.5,0,1,0-1.49,1.5A1.5,1.5,0,0,0,218.8,333Z"/><path class="cls-12" d="M225.6,333a1.5,1.5,0,1,0-1.5,1.5A1.5,1.5,0,0,0,225.6,333Z"/><path class="cls-12" d="M232.39,333a1.5,1.5,0,1,0-1.49,1.5A1.5,1.5,0,0,0,232.39,333Z"/><circle class="cls-12" cx="122.16" cy="339.72" r="1.5"/><circle class="cls-12" cx="128.96" cy="339.72" r="1.5"/><path class="cls-12" d="M137.25,339.72a1.5,1.5,0,1,0-1.49,1.5A1.49,1.49,0,0,0,137.25,339.72Z"/><path class="cls-12" d="M144.05,339.72a1.5,1.5,0,1,0-1.5,1.5A1.5,1.5,0,0,0,144.05,339.72Z"/><circle class="cls-12" cx="149.35" cy="339.72" r="1.5"/><path class="cls-12" d="M157.64,339.72a1.5,1.5,0,1,0-1.5,1.5A1.5,1.5,0,0,0,157.64,339.72Z"/><circle class="cls-12" cx="162.94" cy="339.72" r="1.5"/><path class="cls-12" d="M171.23,339.72a1.5,1.5,0,1,0-1.5,1.5A1.5,1.5,0,0,0,171.23,339.72Z"/><path class="cls-12" d="M178,339.72a1.5,1.5,0,1,0-1.5,1.5A1.5,1.5,0,0,0,178,339.72Z"/><path class="cls-12" d="M184.82,339.72a1.5,1.5,0,1,0-1.49,1.5A1.49,1.49,0,0,0,184.82,339.72Z"/><circle class="cls-12" cx="190.12" cy="339.72" r="1.5"/><circle class="cls-12" cx="196.92" cy="339.72" r="1.5"/><path class="cls-12" d="M205.21,339.72a1.5,1.5,0,1,0-1.5,1.5A1.5,1.5,0,0,0,205.21,339.72Z"/><path class="cls-12" d="M212,339.72a1.5,1.5,0,1,0-1.5,1.5A1.5,1.5,0,0,0,212,339.72Z"/><path class="cls-12" d="M218.8,339.72a1.5,1.5,0,1,0-1.49,1.5A1.49,1.49,0,0,0,218.8,339.72Z"/><path class="cls-12" d="M225.6,339.72a1.5,1.5,0,1,0-1.5,1.5A1.5,1.5,0,0,0,225.6,339.72Z"/><path class="cls-12" d="M232.39,339.72a1.5,1.5,0,1,0-1.49,1.5A1.49,1.49,0,0,0,232.39,339.72Z"/><path class="cls-12" d="M123.66,346.46a1.5,1.5,0,1,0-1.5,1.49A1.5,1.5,0,0,0,123.66,346.46Z"/><path class="cls-12" d="M130.46,346.46A1.5,1.5,0,1,0,129,348,1.5,1.5,0,0,0,130.46,346.46Z"/><path class="cls-12" d="M137.25,346.46a1.5,1.5,0,1,0-1.49,1.49A1.5,1.5,0,0,0,137.25,346.46Z"/><path class="cls-12" d="M144.05,346.46a1.5,1.5,0,1,0-1.5,1.49A1.5,1.5,0,0,0,144.05,346.46Z"/><path class="cls-12" d="M150.84,346.46a1.5,1.5,0,1,0-1.49,1.49A1.5,1.5,0,0,0,150.84,346.46Z"/><path class="cls-12" d="M157.64,346.46a1.5,1.5,0,1,0-1.5,1.49A1.5,1.5,0,0,0,157.64,346.46Z"/><path class="cls-12" d="M164.43,346.46a1.5,1.5,0,1,0-1.49,1.49A1.5,1.5,0,0,0,164.43,346.46Z"/><path class="cls-12" d="M171.23,346.46a1.5,1.5,0,1,0-1.5,1.49A1.5,1.5,0,0,0,171.23,346.46Z"/><path class="cls-12" d="M178,346.46a1.5,1.5,0,1,0-1.5,1.49A1.5,1.5,0,0,0,178,346.46Z"/><path class="cls-12" d="M184.82,346.46a1.5,1.5,0,1,0-1.49,1.49A1.5,1.5,0,0,0,184.82,346.46Z"/><path class="cls-12" d="M191.62,346.46a1.5,1.5,0,1,0-1.5,1.49A1.5,1.5,0,0,0,191.62,346.46Z"/><path class="cls-12" d="M198.41,346.46a1.5,1.5,0,1,0-1.49,1.49A1.5,1.5,0,0,0,198.41,346.46Z"/><path class="cls-12" d="M205.21,346.46a1.5,1.5,0,1,0-1.5,1.49A1.5,1.5,0,0,0,205.21,346.46Z"/><path class="cls-12" d="M212,346.46a1.5,1.5,0,1,0-1.5,1.49A1.5,1.5,0,0,0,212,346.46Z"/><path class="cls-12" d="M218.8,346.46a1.5,1.5,0,1,0-1.49,1.49A1.5,1.5,0,0,0,218.8,346.46Z"/><path class="cls-12" d="M225.6,346.46a1.5,1.5,0,1,0-1.5,1.49A1.5,1.5,0,0,0,225.6,346.46Z"/><path class="cls-12" d="M232.39,346.46A1.5,1.5,0,1,0,230.9,348,1.5,1.5,0,0,0,232.39,346.46Z"/></g></g><polyline class="cls-15" points="191.21 140.63 194.41 142.5 197.63 140.63 200.84 142.5 204.05 140.63 207.27 142.5"/><polyline class="cls-15" points="337.17 286.08 340.38 287.95 343.59 286.08 346.8 287.95 350.01 286.08 353.23 287.95"/><line class="cls-16" x1="329.34" y1="200.96" x2="334.44" y2="200.96"/><line class="cls-16" x1="331.89" y1="203.51" x2="331.89" y2="198.41"/><line class="cls-16" x1="174.87" y1="196.88" x2="179.96" y2="196.88"/><line class="cls-16" x1="177.41" y1="199.42" x2="177.41" y2="194.33"/><line class="cls-16" x1="204.72" y1="298.86" x2="209.81" y2="298.86"/><line class="cls-16" x1="207.27" y1="301.41" x2="207.27" y2="296.32"/><path class="cls-17" d="M354.67,212.59a1.44,1.44,0,1,1-1.44-1.43A1.44,1.44,0,0,1,354.67,212.59Z"/><path class="cls-17" d="M170.44,162.33a1.44,1.44,0,1,1-1.44-1.44A1.44,1.44,0,0,1,170.44,162.33Z"/><path class="cls-17" d="M316.35,153.71a1.44,1.44,0,1,1-1.43-1.44A1.43,1.43,0,0,1,316.35,153.71Z"/><path class="cls-17" d="M178.85,249.8a1.44,1.44,0,1,1-1.44-1.43A1.43,1.43,0,0,1,178.85,249.8Z"/><path class="cls-17" d="M211.25,169.12a1.44,1.44,0,1,1-1.44-1.44A1.44,1.44,0,0,1,211.25,169.12Z"/><path class="cls-17" d="M330.6,310.52a1.44,1.44,0,1,1-1.44-1.44A1.43,1.43,0,0,1,330.6,310.52Z"/><path class="cls-18" d="M184.5,345.54a5.72,5.72,0,0,0-8,.38l-1.15,1.26-1.16-1.26a5.7,5.7,0,0,0-8.38,7.72l1.8,2,4.38,4.76a4.55,4.55,0,0,0,6.71,0l4.38-4.76,1.61-1.76A6,6,0,0,0,184.5,345.54Z"/><path class="cls-19" d="M263.47,344.09c4.64,0,8.41,3.46,8.41,7.74a7.44,7.44,0,0,1-2.84,5.78l.94,4.23-5.69-2.31h0c-.27,0-.55,0-.82,0-4.65,0-8.42-3.47-8.42-7.74S258.82,344.09,263.47,344.09Z"/><path class="cls-20" d="M362.85,360.84l-7.73-3.71-7.73,3.71a1.43,1.43,0,0,1-2.06-1.29V344.09h19.58v15.46A1.43,1.43,0,0,1,362.85,360.84Z"/><path id="SVGID-3" data-name="SVGID" class="cls-2" d="M183.74,114.41a9.93,9.93,0,1,1-9.93-9.92A9.93,9.93,0,0,1,183.74,114.41Z"/><path id="SVGID-4" data-name="SVGID" class="cls-2" d="M183.74,114.41a9.93,9.93,0,1,1-9.93-9.92A9.93,9.93,0,0,1,183.74,114.41Z"/><g class="cls-21"><rect class="cls-22" x="170.26" y="119.58" width="0.18" height="11.66"/><rect class="cls-22" x="177.18" y="119.58" width="0.18" height="11.66"/><path class="cls-23" d="M176.89,116.23h-2.2a3.77,3.77,0,0,0,.38-7.22l-.06-.21,1.5-1.52,0-.18-5.4-1.4-4,4,0,.18,2.56.66.29,1h0a1,1,0,0,0,.1.21,3.81,3.81,0,0,0,2.83,4.43h-2.2a3.38,3.38,0,0,0-3.38,3.39V129.7a3.38,3.38,0,0,0,3.38,3.39h6.16a3.39,3.39,0,0,0,3.39-3.39V119.62A3.39,3.39,0,0,0,176.89,116.23Z"/><path class="cls-2" d="M172.24,108c.13,0,.16.14.07.23a.48.48,0,0,1-.41.12c-.13,0-.15-.14-.06-.24A.48.48,0,0,1,172.24,108Z"/><polygon class="cls-2" points="172.16 108.31 169.94 110.58 169.66 110.52 171.9 108.25 172.16 108.31"/><polygon class="cls-2" points="169.94 110.58 170.56 112.84 170.35 112.66 170.27 112.76 169.65 110.52 169.94 110.58"/></g><circle class="cls-8" cx="300.41" cy="233.26" r="22.48" transform="translate(21.84 492.21) rotate(-80.74)"/><circle class="cls-8" cx="226.47" cy="233.26" r="22.48" transform="translate(-52.84 399.65) rotate(-76.63)"/><path class="cls-24" d="M239.69,215.11a22.47,22.47,0,0,1-32.09,30.41,22.47,22.47,0,1,0,32.09-30.41Z"/><path class="cls-24" d="M313.62,215.11a22.47,22.47,0,0,1-32.09,30.41,22.48,22.48,0,1,0,32.09-30.41Z"/><path class="cls-25" d="M226.47,256.77A23.51,23.51,0,1,1,250,233.26,23.54,23.54,0,0,1,226.47,256.77Zm0-44.95a21.44,21.44,0,1,0,21.44,21.44A21.47,21.47,0,0,0,226.47,211.82Z"/><path class="cls-25" d="M237.39,243.35a10.89,10.89,0,1,1-10.89-10.89A10.89,10.89,0,0,1,237.39,243.35Z"/><path class="cls-8" d="M228.28,241.38a4.46,4.46,0,1,1-4.45-4.46A4.45,4.45,0,0,1,228.28,241.38Z"/><path class="cls-25" d="M300.41,256.77a23.51,23.51,0,1,1,23.51-23.51A23.53,23.53,0,0,1,300.41,256.77Zm0-44.95a21.44,21.44,0,1,0,21.44,21.44A21.47,21.47,0,0,0,300.41,211.82Z"/><circle class="cls-25" cx="300.41" cy="243.35" r="10.89" transform="translate(-1.18 485.24) rotate(-77.74)"/><path class="cls-8" d="M302.19,241.38a4.46,4.46,0,1,1-4.46-4.46A4.46,4.46,0,0,1,302.19,241.38Z"/><path class="cls-25" d="M200,188c4.73,3.35,6.17-5.14,17-10.33,9.05-4.32,16.18-1,17-5s-8.05-7.2-21.56-1.57C202.37,175.3,194.49,184.13,200,188Z"/><path class="cls-25" d="M330.82,187.86c-5,3.6-6.71-5.4-18.45-10.8-9.79-4.51-17.4-.91-18.3-5.16s8.53-7.73,23.13-1.88C328.06,174.38,336.66,183.67,330.82,187.86Z"/><path class="cls-25" d="M297.73,292a1.48,1.48,0,0,1-1.26-.71,31.81,31.81,0,0,0-7.33-7.53,43.71,43.71,0,0,0-24.1-8.5c-22.21-1.34-35.48,16-35.61,16.15a1.48,1.48,0,0,1-2.36-1.77,46.71,46.71,0,0,1,10.06-9.22,44.71,44.71,0,0,1,28.09-8.11,46.59,46.59,0,0,1,25.83,9.2,33.58,33.58,0,0,1,7.94,8.25,1.47,1.47,0,0,1-.49,2A1.51,1.51,0,0,1,297.73,292Z"/><path class="cls-25" d="M223.14,284.57a14.11,14.11,0,0,0-1.07,12.64.77.77,0,0,0,.91.52.75.75,0,0,0,.52-.91,12.7,12.7,0,0,1,.92-11.51c.5-.81-.78-1.55-1.28-.74Z"/><path class="cls-25" d="M300.12,285.72a10.68,10.68,0,0,1,2.71,10.71c-.28.91,1.14,1.3,1.42.4a12.18,12.18,0,0,0-3.09-12.15c-.68-.66-1.72.38-1,1Z"/></g></g></svg>