<svg id="Layer_1" data-name="Layer 1" xmlns="http://www.w3.org/2000/svg" viewBox="0 0 533.74 533.74"><defs><style>.cls-1{font-size:30.27px;fill:#979bb4;font-family:Poppins-SemiBold, Poppins;font-weight:600;}.cls-2{fill:#fff;}.cls-3{fill:#efefef;}.cls-4{fill:#4b4f68;}</style></defs><text class="cls-1" transform="translate(159.78 402.27)">No user found</text><circle class="cls-2" cx="302.86" cy="225.39" r="24.19" transform="translate(-0.36 450.3) rotate(-73.22)"/><circle class="cls-2" cx="223.28" cy="225.39" r="24.19" transform="matrix(0.19, -0.98, 0.98, 0.19, -40.18, 402.16)"/><path class="cls-3" d="M237.51,205.86A24.19,24.19,0,0,1,203,238.59a24.19,24.19,0,1,0,34.54-32.73Z"/><path class="cls-3" d="M317.09,205.86a24.19,24.19,0,0,1-34.54,32.73,24.19,24.19,0,1,0,34.54-32.73Z"/><path class="cls-4" d="M223.28,250.7a25.31,25.31,0,1,1,25.3-25.31A25.34,25.34,0,0,1,223.28,250.7Zm0-48.39a23.08,23.08,0,1,0,23.08,23.08A23.11,23.11,0,0,0,223.28,202.31Z"/><path class="cls-4" d="M241,233.18a11.72,11.72,0,1,1-11.72-11.72A11.72,11.72,0,0,1,241,233.18Z"/><path class="cls-2" d="M231.16,231.05a4.8,4.8,0,1,1-4.79-4.8A4.79,4.79,0,0,1,231.16,231.05Z"/><path class="cls-4" d="M302.86,250.7a25.31,25.31,0,1,1,25.3-25.31A25.34,25.34,0,0,1,302.86,250.7Zm0-48.39a23.08,23.08,0,1,0,23.08,23.08A23.11,23.11,0,0,0,302.86,202.31Z"/><path class="cls-4" d="M308.12,233.18a11.72,11.72,0,1,1-11.72-11.72A11.72,11.72,0,0,1,308.12,233.18Z"/><path class="cls-2" d="M299,230a4.8,4.8,0,1,1-4.79-4.8A4.79,4.79,0,0,1,299,230Z"/><path class="cls-4" d="M332.47,167.66C330.33,175,321,171.27,304.24,180c-13.95,7.3-18.76,17.29-23.29,15.63s2.28-13.45,22.33-24.87C318.2,162.3,335,159.13,332.47,167.66Z"/><path class="cls-4" d="M198.94,167.53c2.12,7.36,11.5,3.66,28.18,12.5,13.91,7.36,18.68,17.38,23.22,15.73s-2.22-13.46-22.22-25C213.23,162.24,196.49,159,198.94,167.53Z"/><path class="cls-4" d="M252.07,176c1.51.18,2.49,1.8,3.18,3a45.1,45.1,0,0,1,2.68,5.28c1.38,3.34,2.1,7,1,10.54a8.92,8.92,0,0,1-3,4.39.74.74,0,0,0,0,1.05.76.76,0,0,0,1,0c2.92-2.28,4.14-6.18,4-9.78-.18-4.36-2.23-8.41-4.35-12.13-1-1.79-2.34-3.58-4.52-3.83a.75.75,0,0,0-.75.74.77.77,0,0,0,.75.74Z"/><path class="cls-4" d="M279.48,201.39a9.59,9.59,0,0,1-5.94-5.81,15.56,15.56,0,0,1-.14-10,35.55,35.55,0,0,1,2.34-6,.78.78,0,0,0-.27-1,.76.76,0,0,0-1,.27c-1.76,3.65-3.26,7.58-3.3,11.69a13.73,13.73,0,0,0,3.38,9.37,10,10,0,0,0,4.55,2.9.74.74,0,0,0,.4-1.43Z"/><path class="cls-4" d="M182.28,302.22c-.09,41.13,55.08,14,84.85,14.52s87.33,30.53,82.82-16.89c-1.53-16.15-10-24.41-22.9-23.62-16.8,1-36.93,12-59.92,12.34-25.9.39-44.13-14-60.43-13.08C196.61,276,182.33,282.11,182.28,302.22Z"/><path class="cls-2" d="M266.24,309h1.28c35.18,0,51.94-4.94,59.52-7.67a47.28,47.28,0,0,0-4.19-18.19,37.7,37.7,0,0,0-3.12-5.71c-15.23,2.94-32.86,11.07-52.6,11.37-23.61.36-40.84-11.56-56.06-13a42.55,42.55,0,0,0-7,23.61C214.32,303.14,234.89,308.85,266.24,309Z"/><path class="cls-2" d="M267.51,311.18h-1.27c-24.73-.08-42.63-3.64-53.3-6.6-3.42-1-6.32-1.9-8.73-2.77,0,.06,0,.13,0,.19a43,43,0,0,0,9.15,22.91c17.53-1.55,38.83-8.24,53.75-8,14.38.24,35.26,7.38,52.48,9.34a42,42,0,0,0,5.74-11.93A42.7,42.7,0,0,0,327,303.64C319,306.46,301.94,311.18,267.51,311.18Z"/><path class="cls-4" d="M176.64,296.9a33.25,33.25,0,0,1,9-16.88,34.24,34.24,0,0,1,7.67-5.88,32.75,32.75,0,0,1,9.71-3.5,69.31,69.31,0,0,1,14.32-.86.75.75,0,0,0,0-1.49,77.19,77.19,0,0,0-13.16.65,34.74,34.74,0,0,0-10.6,3.38A35.66,35.66,0,0,0,179.22,286a33.37,33.37,0,0,0-4,10.55.74.74,0,1,0,1.43.39Z"/><path class="cls-4" d="M309.47,276.76c8.54-3.21,17.85-6.71,27.12-4.93a25.71,25.71,0,0,1,20.88,26.91c-.06,1,1.42.95,1.48,0a27.35,27.35,0,0,0-9.66-22.47,27.76,27.76,0,0,0-10.72-5.52,32.44,32.44,0,0,0-13.87-.22,91,91,0,0,0-15.63,4.8.77.77,0,0,0-.52.91.76.76,0,0,0,.92.52Z"/><path class="cls-4" d="M253.5,325.66a30,30,0,0,1,22.24.4,28,28,0,0,1,5.53,3.09.76.76,0,0,0,1-.27.75.75,0,0,0-.27-1,31.47,31.47,0,0,0-22.47-5.31,29.2,29.2,0,0,0-6.44,1.67.76.76,0,0,0-.52.91.74.74,0,0,0,.91.52Z"/></svg>