<svg id="Layer_1" data-name="Layer 1" xmlns="http://www.w3.org/2000/svg" viewBox="0 0 857.74 662.74"><defs><style>.cls-1{fill:#d8e9ff;}.cls-13,.cls-2{fill:#8bce87;}.cls-2,.cls-32{opacity:0.5;}.cls-3{fill:#f8caa4;}.cls-4{fill:#fddbba;}.cls-5{fill:#e4ac83;}.cls-6{fill:#fff1e3;}.cls-7{fill:#fff;}.cls-8{fill:#fc7600;}.cls-9{fill:#ff8f20;}.cls-10{fill:#e3a271;}.cls-11{fill:#f9e5d4;}.cls-12{fill:#f7dbc8;}.cls-14{fill:#9bd399;}.cls-15{fill:#ffae73;}.cls-16{fill:#ca3139;}.cls-17{fill:#1e3865;}.cls-18{fill:#f99352;}.cls-19{fill:#2a3967;}.cls-20{fill:#25468f;}.cls-21{fill:#ff912b;}.cls-22{fill:#f48f4e;}.cls-23{fill:#eaf2ff;}.cls-24{fill:#f28018;}.cls-25{fill:#e06600;}.cls-26{fill:#e06b00;}.cls-27,.cls-28{fill:#e65f00;}.cls-27{opacity:0.4;}.cls-29{fill:#c3433b;}.cls-30{fill:#0d458e;}.cls-31,.cls-32{fill:#f6fbff;}.cls-33{fill:#73b471;}.cls-34{fill:#e06700;}.cls-35{fill:#ff9d40;}.cls-36{fill:#b13332;}.cls-37{fill:#fb995b;}.cls-38{fill:#ffb600;}.cls-39{fill:#ff9f00;}.cls-40{fill:#0b3563;}.cls-41{fill:#3d6aa9;}.cls-42{fill:#fa9332;}.cls-43{fill:#dd7517;}.cls-44{fill:#cde3ff;}.cls-45{fill:#9c242a;}.cls-46{fill:#458e9c;}.cls-47{fill:#63acbf;}.cls-48{fill:#e8f2fa;}.cls-49{fill:#c23b35;}.cls-50{fill:#ff9d5d;}.cls-51{fill:#d44b40;}.cls-52{fill:#105baf;}.cls-53{fill:#004faa;}.cls-54{fill:#f1ddcb;}.cls-55{fill:#ffebd8;}.cls-56{fill:#eb6600;}.cls-57{fill:#aa2727;}.cls-58{fill:#122e54;}.cls-59{fill:#63a660;}.cls-60{fill:#10518a;}.cls-61{fill:#004682;}.cls-62{fill:#042444;}</style></defs><path class="cls-1" d="M323.44-67.42C218.64,25.34,68.91-39.28-84-20.17V668.58l93.83.09H319.31l117.39.13h402l25.5.07v-753C738.64-199.43,468.65-195.82,323.44-67.42Z"/><path class="cls-2" d="M172.25,392.59s-59-7.58-81.83,13.85S79.53,454.1,43.94,453.12-12,504-14,532.57-2.9,564.43-2.9,564.43H180.41Z"/><rect class="cls-3" x="49.98" y="267.34" width="764.72" height="293.13"/><rect class="cls-4" x="147.35" y="267.34" width="79.3" height="285.61"/><rect class="cls-4" x="639.35" y="267.34" width="79.3" height="285.61"/><rect class="cls-5" x="42.43" y="520.13" width="766.6" height="41.05"/><rect class="cls-4" x="327.37" y="226.85" width="189.47" height="330.29"/><rect class="cls-6" x="271.89" y="415.1" width="26.53" height="9.39"/><rect class="cls-6" x="277.84" y="424.49" width="14.63" height="135.97"/><path class="cls-5" d="M277.84,430.63a8.06,8.06,0,0,1,7.31-3.83c5.61.2,7.31,3.83,7.31,3.83v-6.14H277.84Z"/><rect class="cls-5" x="271.89" y="415.09" width="26.53" height="1.64"/><rect class="cls-6" x="346.42" y="415.1" width="26.53" height="9.39"/><rect class="cls-6" x="352.37" y="424.49" width="14.63" height="135.97"/><path class="cls-5" d="M352.37,430.63a8.06,8.06,0,0,1,7.31-3.83c5.61.2,7.32,3.83,7.32,3.83v-6.14H352.37Z"/><rect class="cls-5" x="346.42" y="415.09" width="26.53" height="1.64"/><rect class="cls-6" x="473.54" y="415.1" width="26.53" height="9.39"/><rect class="cls-6" x="479.5" y="424.49" width="14.63" height="135.97"/><path class="cls-5" d="M479.5,430.63a8,8,0,0,1,7.31-3.83c5.61.2,7.31,3.83,7.31,3.83v-6.14H479.5Z"/><rect class="cls-5" x="473.54" y="415.09" width="26.53" height="1.64"/><rect class="cls-6" x="555.8" y="415.1" width="26.53" height="9.39"/><rect class="cls-6" x="561.75" y="424.49" width="14.63" height="135.97"/><path class="cls-5" d="M561.75,430.63a8.06,8.06,0,0,1,7.31-3.83c5.61.2,7.32,3.83,7.32,3.83v-6.14H561.75Z"/><rect class="cls-5" x="555.8" y="415.09" width="26.53" height="1.64"/><path class="cls-3" d="M412.25,453.12h23a19.1,19.1,0,0,1,19.1,19.1v87.67a0,0,0,0,1,0,0H392a0,0,0,0,1,0,0V473.4a20.27,20.27,0,0,1,20.27-20.27Z"/><path class="cls-5" d="M93.71,313.81h11.61a9.63,9.63,0,0,1,9.63,9.63V363a0,0,0,0,1,0,0H83.48a0,0,0,0,1,0,0V324a10.23,10.23,0,0,1,10.23-10.23Z"/><path class="cls-7" d="M101,312.69H98.25a15.9,15.9,0,0,0-15.89,15.88v35.51h33.72V327.72A15.05,15.05,0,0,0,101,312.69Zm-2.79,2.25H101a12.8,12.8,0,0,1,12.79,12.78v34.11H84.61V328.19A13.66,13.66,0,0,1,98.25,314.94Z"/><rect class="cls-7" x="83.73" y="328.19" width="30.71" height="2.12"/><rect class="cls-7" x="98.05" y="329.25" width="2.06" height="33.52"/><path class="cls-5" d="M91.33,300.85s6.72-2.25,17.14,0l-3.63,9a42.44,42.44,0,0,0-9.86,0Z"/><path class="cls-5" d="M93.66,310.08l-3.92-7.64s-4.28.87-5.82,2.54l6.5,5.9Z"/><path class="cls-5" d="M106.12,310.12l3.57-7.56s3.72.37,5.82,2.54l-6.45,5.78Z"/><path class="cls-5" d="M180.32,313.81h11.61a9.63,9.63,0,0,1,9.63,9.63V363a0,0,0,0,1,0,0H170.09a0,0,0,0,1,0,0V324A10.23,10.23,0,0,1,180.32,313.81Z"/><path class="cls-7" d="M187.66,312.69h-2.81A15.89,15.89,0,0,0,169,328.57v35.51h33.72V327.72A15.05,15.05,0,0,0,187.66,312.69Zm-2.81,2.25h2.81a12.79,12.79,0,0,1,12.78,12.78v34.11H171.22V328.19A13.66,13.66,0,0,1,184.85,314.94Z"/><rect class="cls-7" x="170.34" y="328.19" width="30.71" height="2.12"/><rect class="cls-7" x="184.66" y="329.25" width="2.06" height="33.52"/><path class="cls-5" d="M177.94,300.85s6.72-2.25,17.13,0l-3.62,9a42.44,42.44,0,0,0-9.86,0Z"/><path class="cls-5" d="M180.26,310.08l-3.91-7.64s-4.28.87-5.82,2.54l6.5,5.9Z"/><path class="cls-5" d="M192.73,310.12l3.57-7.56s3.72.37,5.82,2.54l-6.45,5.78Z"/><path class="cls-5" d="M93.71,438.74h11.61a9.63,9.63,0,0,1,9.63,9.63v39.51a0,0,0,0,1,0,0H83.48a0,0,0,0,1,0,0V449A10.23,10.23,0,0,1,93.71,438.74Z"/><path class="cls-7" d="M101,437.62H98.25a15.91,15.91,0,0,0-15.89,15.89V489h33.72V452.65A15.05,15.05,0,0,0,101,437.62Zm-2.79,2.25H101a12.8,12.8,0,0,1,12.79,12.78v34.11H84.61V453.12A13.66,13.66,0,0,1,98.25,439.87Z"/><rect class="cls-7" x="83.73" y="453.12" width="30.71" height="2.12"/><rect class="cls-7" x="98.05" y="454.19" width="2.06" height="33.52"/><path class="cls-5" d="M91.33,425.78s6.72-2.25,17.14,0l-3.63,9a41.81,41.81,0,0,0-9.86,0Z"/><path class="cls-5" d="M93.66,435l-3.92-7.64s-4.28.87-5.82,2.54l6.5,5.91Z"/><path class="cls-5" d="M106.12,435.05l3.57-7.56s3.72.37,5.82,2.54l-6.45,5.79Z"/><path class="cls-5" d="M757.71,313.81h11.61a9.63,9.63,0,0,1,9.63,9.63V363a0,0,0,0,1,0,0H747.48a0,0,0,0,1,0,0V324A10.23,10.23,0,0,1,757.71,313.81Z"/><path class="cls-7" d="M765,312.69h-2.79a15.9,15.9,0,0,0-15.89,15.88v35.51h33.72V327.72A15.05,15.05,0,0,0,765,312.69Zm-2.79,2.25H765a12.8,12.8,0,0,1,12.79,12.78v34.11H748.61V328.19A13.66,13.66,0,0,1,762.25,314.94Z"/><rect class="cls-7" x="747.73" y="328.19" width="30.71" height="2.12"/><rect class="cls-7" x="762.05" y="329.25" width="2.06" height="33.52"/><path class="cls-5" d="M755.33,300.85s6.72-2.25,17.14,0l-3.63,9a42.44,42.44,0,0,0-9.86,0Z"/><path class="cls-5" d="M757.66,310.08l-3.92-7.64s-4.28.87-5.82,2.54l6.5,5.9Z"/><path class="cls-5" d="M770.12,310.12l3.57-7.56s3.72.37,5.82,2.54l-6.45,5.78Z"/><path class="cls-5" d="M757.71,438.74h11.61a9.63,9.63,0,0,1,9.63,9.63v39.51a0,0,0,0,1,0,0H747.48a0,0,0,0,1,0,0V449A10.23,10.23,0,0,1,757.71,438.74Z"/><path class="cls-7" d="M765,437.62h-2.79a15.91,15.91,0,0,0-15.89,15.89V489h33.72V452.65A15.05,15.05,0,0,0,765,437.62Zm-2.79,2.25H765a12.8,12.8,0,0,1,12.79,12.78v34.11H748.61V453.12A13.66,13.66,0,0,1,762.25,439.87Z"/><rect class="cls-7" x="747.73" y="453.12" width="30.71" height="2.12"/><rect class="cls-7" x="762.05" y="454.19" width="2.06" height="33.52"/><path class="cls-5" d="M755.33,425.78s6.72-2.25,17.14,0l-3.63,9a41.81,41.81,0,0,0-9.86,0Z"/><path class="cls-5" d="M757.66,435l-3.92-7.64s-4.28.87-5.82,2.54l6.5,5.91Z"/><path class="cls-5" d="M770.12,435.05l3.57-7.56s3.72.37,5.82,2.54l-6.45,5.79Z"/><path class="cls-5" d="M180.32,438.74h11.61a9.63,9.63,0,0,1,9.63,9.63v39.51a0,0,0,0,1,0,0H170.09a0,0,0,0,1,0,0V449A10.23,10.23,0,0,1,180.32,438.74Z"/><path class="cls-7" d="M187.66,437.62h-2.81A15.9,15.9,0,0,0,169,453.51V489h33.72V452.65A15.05,15.05,0,0,0,187.66,437.62Zm-2.81,2.25h2.81a12.79,12.79,0,0,1,12.78,12.78v34.11H171.22V453.12A13.66,13.66,0,0,1,184.85,439.87Z"/><rect class="cls-7" x="170.34" y="453.12" width="30.71" height="2.12"/><rect class="cls-7" x="184.66" y="454.19" width="2.06" height="33.52"/><path class="cls-5" d="M177.94,425.78s6.72-2.25,17.13,0l-3.62,9a41.81,41.81,0,0,0-9.86,0Z"/><path class="cls-5" d="M180.26,435l-3.91-7.64s-4.28.87-5.82,2.54l6.5,5.91Z"/><path class="cls-5" d="M192.73,435.05l3.57-7.56s3.72.37,5.82,2.54l-6.45,5.79Z"/><path class="cls-5" d="M272.33,313.81h11.61a9.63,9.63,0,0,1,9.63,9.63V363a0,0,0,0,1,0,0H262.1a0,0,0,0,1,0,0V324A10.23,10.23,0,0,1,272.33,313.81Z"/><path class="cls-7" d="M279.67,312.69h-2.81A15.9,15.9,0,0,0,261,328.57v35.51H294.7V327.72A15.05,15.05,0,0,0,279.67,312.69Zm-2.81,2.25h2.81a12.79,12.79,0,0,1,12.78,12.78v34.11H263.23V328.19A13.66,13.66,0,0,1,276.86,314.94Z"/><rect class="cls-7" x="262.35" y="328.19" width="30.71" height="2.12"/><rect class="cls-7" x="276.67" y="329.25" width="2.06" height="33.52"/><path class="cls-5" d="M270,300.85s6.72-2.25,17.14,0l-3.62,9a42.54,42.54,0,0,0-9.87,0Z"/><path class="cls-5" d="M272.28,310.08l-3.92-7.64s-4.27.87-5.82,2.54l6.51,5.9Z"/><path class="cls-5" d="M284.74,310.12l3.57-7.56s3.72.37,5.82,2.54l-6.45,5.78Z"/><path class="cls-5" d="M415.91,282.54h15.31a12.7,12.7,0,0,1,12.7,12.7v52.09a0,0,0,0,1,0,0H402.43a0,0,0,0,1,0,0V296A13.48,13.48,0,0,1,415.91,282.54Z"/><path class="cls-7" d="M425.58,281.06h-3.69A21,21,0,0,0,400.94,302v46.81H445.4V300.88A19.84,19.84,0,0,0,425.58,281.06Zm-3.69,3h3.69a16.87,16.87,0,0,1,16.86,16.86v45H403.91V302c0-.17,0-.33,0-.5A18,18,0,0,1,421.89,284Z"/><rect class="cls-7" x="402.75" y="301.5" width="40.49" height="2.8"/><rect class="cls-7" x="421.64" y="302.9" width="2.72" height="44.2"/><path class="cls-5" d="M456.51,299.62h11.36A9.43,9.43,0,0,1,477.3,309v38.67a0,0,0,0,1,0,0H446.5a0,0,0,0,1,0,0V309.63a10,10,0,0,1,10-10Z"/><path class="cls-7" d="M463.69,298.52H461a15.57,15.57,0,0,0-15.55,15.55v34.74h33V313.23A14.73,14.73,0,0,0,463.69,298.52Zm-2.74,2.2h2.74a12.52,12.52,0,0,1,12.51,12.51v33.38H447.6V314.07c0-.13,0-.25,0-.38A13.35,13.35,0,0,1,461,300.72Z"/><rect class="cls-7" x="446.74" y="313.69" width="30.06" height="2.08"/><rect class="cls-7" x="460.76" y="314.73" width="2.02" height="32.81"/><path class="cls-5" d="M379.06,299.62h11.36a9.43,9.43,0,0,1,9.43,9.43v38.67a0,0,0,0,1,0,0H369a0,0,0,0,1,0,0V309.63A10,10,0,0,1,379.06,299.62Z"/><path class="cls-7" d="M386.24,298.52H383.5A15.56,15.56,0,0,0,368,314.07v34.74h33V313.23A14.72,14.72,0,0,0,386.24,298.52Zm-2.74,2.2h2.74a12.53,12.53,0,0,1,12.51,12.51v33.38h-28.6V313.69A13.36,13.36,0,0,1,383.5,300.72Z"/><rect class="cls-7" x="369.29" y="313.69" width="30.06" height="2.08"/><rect class="cls-7" x="383.31" y="314.73" width="2.02" height="32.81"/><path class="cls-5" d="M572.88,313.81h11.61a9.63,9.63,0,0,1,9.63,9.63V363a0,0,0,0,1,0,0H562.65a0,0,0,0,1,0,0V324A10.23,10.23,0,0,1,572.88,313.81Z"/><path class="cls-7" d="M580.21,312.69h-2.8a15.89,15.89,0,0,0-15.88,15.88v35.51h33.71V327.72A15,15,0,0,0,580.21,312.69Zm-2.8,2.25h2.8A12.8,12.8,0,0,1,593,327.72v34.11H563.77V328.57c0-.13,0-.25,0-.38A13.65,13.65,0,0,1,577.41,314.94Z"/><rect class="cls-7" x="562.9" y="328.19" width="30.71" height="2.12"/><rect class="cls-7" x="577.22" y="329.25" width="2.06" height="33.52"/><path class="cls-5" d="M570.5,300.85s6.72-2.25,17.13,0l-3.62,9a42.47,42.47,0,0,0-9.86,0Z"/><path class="cls-5" d="M572.82,310.08l-3.91-7.64s-4.28.87-5.82,2.54l6.5,5.9Z"/><path class="cls-5" d="M585.29,310.12l3.57-7.56s3.72.37,5.82,2.54l-6.45,5.78Z"/><path class="cls-5" d="M674.1,313.81h11.61a9.63,9.63,0,0,1,9.63,9.63V363a0,0,0,0,1,0,0H663.87a0,0,0,0,1,0,0V324A10.23,10.23,0,0,1,674.1,313.81Z"/><path class="cls-7" d="M681.43,312.69h-2.8a15.89,15.89,0,0,0-15.88,15.88v35.51h33.71V327.72A15,15,0,0,0,681.43,312.69Zm-2.8,2.25h2.8a12.8,12.8,0,0,1,12.79,12.78v34.11H665V328.57c0-.13,0-.25,0-.38A13.65,13.65,0,0,1,678.63,314.94Z"/><rect class="cls-7" x="664.12" y="328.19" width="30.71" height="2.12"/><rect class="cls-7" x="678.44" y="329.25" width="2.06" height="33.52"/><path class="cls-5" d="M671.72,300.85s6.72-2.25,17.13,0l-3.62,9a42.47,42.47,0,0,0-9.86,0Z"/><path class="cls-5" d="M674,310.08l-3.91-7.64s-4.28.87-5.82,2.54l6.5,5.9Z"/><path class="cls-5" d="M686.51,310.12l3.57-7.56s3.72.37,5.82,2.54l-6.45,5.78Z"/><path class="cls-5" d="M674.1,438.74h11.61a9.63,9.63,0,0,1,9.63,9.63v39.51a0,0,0,0,1,0,0H663.87a0,0,0,0,1,0,0V449a10.23,10.23,0,0,1,10.23-10.23Z"/><path class="cls-7" d="M681.43,437.62h-2.8a15.9,15.9,0,0,0-15.88,15.89V489h33.71V452.65A15,15,0,0,0,681.43,437.62Zm-2.8,2.25h2.8a12.8,12.8,0,0,1,12.79,12.78v34.11H665V453.51c0-.13,0-.26,0-.39A13.65,13.65,0,0,1,678.63,439.87Z"/><rect class="cls-7" x="664.12" y="453.12" width="30.71" height="2.12"/><rect class="cls-7" x="678.44" y="454.19" width="2.06" height="33.52"/><path class="cls-5" d="M671.72,425.78s6.72-2.25,17.13,0l-3.62,9a41.84,41.84,0,0,0-9.86,0Z"/><path class="cls-5" d="M674,435l-3.91-7.64s-4.28.87-5.82,2.54l6.5,5.91Z"/><path class="cls-5" d="M686.51,435.05l3.57-7.56s3.72.37,5.82,2.54l-6.45,5.79Z"/><polygon class="cls-8" points="327.37 267.33 23.71 267.33 49.98 244.54 327.37 244.54 327.37 267.33"/><path class="cls-8" d="M824,244.54a186.87,186.87,0,0,1-6.79,22.8H516.85v-22.8Z"/><rect class="cls-6" x="262.27" y="403.89" width="330.1" height="11.2"/><polygon class="cls-9" points="328.19 215.22 316.44 215.22 422.52 125.95 529.57 215.22 328.19 215.22"/><polygon class="cls-6" points="262.27 403.89 427.33 372.2 592.38 403.89 262.27 403.89"/><polygon class="cls-3" points="309.59 403.89 427.33 381.29 545.07 403.89 309.59 403.89"/><polygon class="cls-4" points="516.85 226.85 328.19 226.85 328.19 215.22 422.16 137.7 516.85 215.22 516.85 226.85"/><path class="cls-10" d="M418.06,162.63a5.12,5.12,0,1,1,5.11,5.12A5.12,5.12,0,0,1,418.06,162.63Z"/><circle class="cls-10" cx="423.17" cy="434.72" r="5.12"/><rect class="cls-6" x="266.76" y="544.21" width="311.35" height="4.81"/><rect class="cls-11" x="248.7" y="549.02" width="347.47" height="4.81"/><rect class="cls-12" x="229.87" y="553.82" width="385.13" height="6.64"/><path class="cls-5" d="M417.67,208.7h11.61a9.63,9.63,0,0,1,9.63,9.63v39.51a0,0,0,0,1,0,0H407.44a0,0,0,0,1,0,0V218.93A10.23,10.23,0,0,1,417.67,208.7Z"/><path class="cls-7" d="M438.09,215.22A15,15,0,0,0,425,207.58h-2.8a15.89,15.89,0,0,0-15.89,15.88V259H440V222.61A14.92,14.92,0,0,0,438.09,215.22Zm-.31,41.5H408.56V223.46c0-.13,0-.25,0-.38a13.64,13.64,0,0,1,13.63-13.25H425a12.77,12.77,0,0,1,12.78,12.78Z"/><rect class="cls-7" x="407.68" y="223.08" width="30.71" height="2.12"/><rect class="cls-7" x="422.01" y="224.14" width="2.06" height="33.52"/><path class="cls-5" d="M415.29,195.74s6.72-2.25,17.13,0l-3.62,9a42.47,42.47,0,0,0-9.86,0Z"/><path class="cls-5" d="M417.61,205l-3.92-7.64s-4.27.87-5.82,2.54l6.51,5.9Z"/><path class="cls-5" d="M430.08,205l3.57-7.56s3.72.37,5.82,2.54L433,205.77Z"/><path class="cls-13" d="M23.93,566.81s-115.89-.38-160.24-.22c-.3-1.25-.59-2.52-.88-3.8l-.42-1.84a0,0,0,0,1,0,0c-1.12-4.9-2.24-10-3.28-15.11a616.14,616.14,0,0,1-10.26-67c9.25-2.65,46.59-12.07,70.73.64C-52.7,494-57.31,515.73-30.56,509.63S40.71,526.46,23.93,566.81Z"/><path class="cls-14" d="M968.8,587.81A153.1,153.1,0,0,1,965.16,613c-.19.81-.39,1.63-.59,2.45-.62,2.54-1.31,5.12-2,7.69-.88,3.42-2,7-3.32,10.65-.21.62-1.9,4.71-4,9.74a35.31,35.31,0,0,1-32.57,21.69H830l-34-.1H491.83L442.39,665,403,665H168.83L71,664.9H-72.74a47.21,47.21,0,0,1-44.64-31.83c-.56-1.63-1.09-3.18-1.55-4.59-1.82-5.61-3.75-11.8-5.75-18.48-1.92-6.46-3.91-13.38-5.89-20.69q-.72-2.68-1.44-5.44c-1.76-6.73-3.52-13.76-5.18-21.08l-.42-1.84a0,0,0,0,1,0,0h1105v0A118.93,118.93,0,0,1,968.8,587.81Z"/><polygon class="cls-4" points="425.88 600.97 362.94 664.99 441.99 664.99 491.08 610 425.88 600.97"/><polygon class="cls-15" points="447.23 535.59 446.65 538.06 445.87 541.34 443.43 541.34 443.29 538.2 443.18 535.78 447.23 535.59"/><path class="cls-16" d="M455,481.84s1.92-2.06,3.18-.45a16.83,16.83,0,0,0,4.56,3.95c1.92,1.25-1.7,11-4.11,10.79S446.35,488.25,455,481.84Z"/><path class="cls-8" d="M445.36,480.86a13.26,13.26,0,0,1,9.22-.39c4.32,1.5-3.34,5.66-3.34,5.66l-2.48.11Z"/><path class="cls-17" d="M442.47,544.93a6.4,6.4,0,0,1,.17-1.58c.17-.4.79-2,.79-2h2.44a15.23,15.23,0,0,1,.48,1.95c0,.48,0,1.64,0,1.64Z"/><path class="cls-17" d="M457.93,544.93a6.4,6.4,0,0,0-.17-1.58c-.17-.4-.79-2-.79-2h-2.44a15.23,15.23,0,0,0-.48,1.95c0,.48,0,1.64,0,1.64Z"/><path class="cls-15" d="M448.18,478a23,23,0,0,1-.43,3.85l-2.69,5.79,10.12-2.4-2.41-3.34s-.73-3.56-.35-4.87S448.18,478,448.18,478Z"/><path class="cls-18" d="M448.16,478.41s.8,1.93,2.31,1.88,1.85-1.74,1.85-1.74Z"/><path class="cls-19" d="M447.26,476.85a24.48,24.48,0,0,0-.83-3.17c-.34-.73-.62-4,3.15-4.18a4.25,4.25,0,0,0,2.23-.32s0,.49-.2.66a2.49,2.49,0,0,1,2.33.82c1,1.13-.68,5.09-.6,6Z"/><path class="cls-15" d="M450.3,479.55a3.71,3.71,0,0,1-3.11-3.27v-2.81a1.13,1.13,0,0,1,1-1.2h4.17a1.13,1.13,0,0,1,1,1.2v2.65A3.62,3.62,0,0,1,450.3,479.55Z"/><path class="cls-19" d="M447.19,475s0-1.69,1.35-2,4.33.82,4.75-.41-5.78-1.21-6.1-.43A8.06,8.06,0,0,0,447.19,475Z"/><path class="cls-20" d="M451.86,504.23c.67-2.09.65,8.63-2,20.69-.41,1.84-1.33,6.27-2,10.57h-5.51c-.07-3.47-.44-8.31-.68-11.94a79,79,0,0,1,1.14-19.89Z"/><path class="cls-20" d="M458.93,523.55c-.06,3.48-.77,8.09-.83,11.48h-5.59c-.38-2.46-1-5-1.4-7a19.41,19.41,0,0,1-.53-3.4c0-1.48-.92-5.74-1.48-9.49h0l-.06-.43a62.17,62.17,0,0,1-.49-10.44l9.44-.59A195.3,195.3,0,0,1,458.93,523.55Z"/><path class="cls-17" d="M442,508s2.12,2.57,7.89,2.2a33.93,33.93,0,0,0,8.51-1.37Z"/><path class="cls-21" d="M458.43,508.86c-1.88.25-14.69.92-16.4-.83s2.79-25.58,2.79-25.58.51-.15,1.37-.31c.43-.09,1-.17,1.56-.24a5.07,5.07,0,0,0,2.49,4.15,4.15,4.15,0,0,0,2.53-4.11.34.34,0,0,1,0-.1c.37,0,.75.09,1.13.16a16.35,16.35,0,0,1,2.32.57S460.32,508.6,458.43,508.86Z"/><path class="cls-21" d="M442.14,496.55c-.08.1.43.83,1.15,1.78,1.49,1.93,3.86,4.75,3.86,4.75a9.21,9.21,0,0,1-.17,1.58,35.41,35.41,0,0,1-6.92-4.14,10.69,10.69,0,0,1-2.64-2.69c3.29-13.92,7.51-15.37,7.51-15.37l1.38,8.39S442.37,496.25,442.14,496.55Z"/><path class="cls-7" d="M453.89,482l-.85,2.58-1.13,1.66-1.63.88-1.52-.88-2.57-4.1c.43-.09,1-.17,1.56-.24a2.63,2.63,0,0,0,.32,1,2.52,2.52,0,0,0,4.46,0,2.08,2.08,0,0,0,.24-1s0-.07,0-.1C453.13,481.88,453.51,481.93,453.89,482Z"/><path class="cls-15" d="M447.15,503.08a.19.19,0,0,1,0,.08,3.84,3.84,0,0,1,0,.5,2.61,2.61,0,0,1-.27.31,2.78,2.78,0,0,1-.47.39l-.25-.12a34.24,34.24,0,0,1-6.06-3.72,7.31,7.31,0,0,0,3.23-2.19C444.78,500.26,447.15,503.08,447.15,503.08Z"/><path class="cls-21" d="M463.32,497.32a10.66,10.66,0,0,1-2.59,2.74,35.64,35.64,0,0,1-6.83,4.27,9.48,9.48,0,0,1-.2-1.57s2.32-2.87,3.76-4.83a6.08,6.08,0,0,0,1.12-1.8l-3.76-4.93-.52-.69,1.4-8.25S459.77,483.46,463.32,497.32Z"/><path class="cls-15" d="M460.73,500.06a34,34,0,0,1-6,3.85l-.21.11a3.92,3.92,0,0,1-.7-1.4l.18-.22c.66-.83,2.34-2.93,3.47-4.47A7.25,7.25,0,0,0,460.73,500.06Z"/><path class="cls-15" d="M452.76,481.84a22.22,22.22,0,0,0-5,.06h0S452.38,479,452.76,481.84Z"/><polygon class="cls-8" points="448.11 489.94 448.01 489.94 447.94 485.48 448.19 485.48 448.11 489.94"/><path class="cls-8" d="M448,489.83c-.09.13-.29.56-.16.6a.54.54,0,0,0,.42,0C448.33,490.36,448.17,489.58,448,489.83Z"/><polygon class="cls-8" points="452.5 489.94 452.4 489.94 452.33 485.48 452.57 485.48 452.5 489.94"/><path class="cls-8" d="M452.39,489.83c-.09.13-.28.56-.15.6a.52.52,0,0,0,.41,0C452.72,490.36,452.55,489.58,452.39,489.83Z"/><path class="cls-8" d="M448.76,486.24l-3.94-3.79s-.89-.63.51-1.58S448.76,486.24,448.76,486.24Z"/><path class="cls-8" d="M451.91,486.24l3.94-3.79s.88-.63-.52-1.58S451.91,486.24,451.91,486.24Z"/><path class="cls-8" d="M456.85,504.71a2.4,2.4,0,0,1-1.9-.56l-.23-.24a3.76,3.76,0,0,1-.73-1.51,5.38,5.38,0,0,1-.16-1v-.11h-6.36v.12a3.43,3.43,0,0,1-.33,1.75,2.32,2.32,0,0,1-.46.65,2.26,2.26,0,0,1-.56.43,3.87,3.87,0,0,1-1.81.47h-.12v2.69H457v-2.7Z"/><path class="cls-8" d="M458.58,496.13s-3.54-4.65-.74-6c1.12-.54,2.69,5.85,1.85,6.45s-2.23,1.36-2.23,1.36Z"/><path class="cls-8" d="M442.55,495.36s1.23-5.84.15-5.24-2.69,5.85-1.85,6.45,2.23,1.36,2.23,1.36Z"/><path class="cls-16" d="M458.09,496.12c-1.62-2-2.23-5.28-2.15-8.65a38.77,38.77,0,0,1,.44-4.89l1.32,1a9.3,9.3,0,0,0-.82,3.86,19.15,19.15,0,0,0,1.12,7.88Z"/><path class="cls-17" d="M445.79,536.73h-2.85c-.25,0-.65-.35-.65-.87a9.77,9.77,0,0,0-.09-1.5c-.36-1,.18-1,.71-1h5.21c.52,0-.29,1.64-.29,2.17l.19.69C448,536.71,446.32,536.73,445.79,536.73Z"/><path class="cls-7" d="M446.65,538.06l-.78,3.28h-2.44l-.14-3.14A5.12,5.12,0,0,0,446.65,538.06Z"/><polygon class="cls-15" points="453.17 535.59 453.76 538.06 454.54 541.34 456.97 541.34 457.12 538.2 457.23 535.78 453.17 535.59"/><path class="cls-17" d="M454.61,536.73h2.85c.26,0,.65-.35.65-.87a11.25,11.25,0,0,1,.09-1.5c.37-1-.18-1-.71-1h-5.2c-.53,0,.28,1.64.28,2.17l-.19.69C452.38,536.71,454.08,536.73,454.61,536.73Z"/><path class="cls-7" d="M453.76,538.06l.78,3.28H457l.14-3.14A5.09,5.09,0,0,1,453.76,538.06Z"/><path class="cls-7" d="M449.26,477.59a1.33,1.33,0,0,0,1,.49,1.23,1.23,0,0,0,1-.49A6.62,6.62,0,0,0,449.26,477.59Z"/><path class="cls-22" d="M509,505.85s-1.38,15,1.71,23.13c.86,2.26,10.35,11,11.84,14,0,0,2-1.77,1.78-2.19-1.37-2.18-3.22-8.94-7.35-13.43s.85-16.1.85-16.1Z"/><path class="cls-15" d="M510.21,501.23c-3.9-1-8.19-7.05-8.19-7.05l1.1-.95c1.14,1.34,5.87,3.65,5.87,3.65,0-1.23,0-2.35.08-3.37.53-6.93,3.14-9.23,3.85-9.74l.18-.12a.85.85,0,0,1,0,.15c0,.2,0,.62,0,1.19C513.3,489.23,513.48,502.06,510.21,501.23Z"/><path class="cls-15" d="M503.12,493.23c0-.17.07-2.31-.64-2.75s-1.37-1.32-1.64-1.27a2.85,2.85,0,0,0-.57,2.67,9,9,0,0,0,1.75,2.3Z"/><path class="cls-15" d="M512.78,548.94l2-.23S520,538,519.26,531.39a11.18,11.18,0,0,1,.42-4.53c.5-1.59,1.13-3.7,1.67-5.76.33-1.25.65-2.56.94-3.9.39-1.77.71-3.57.91-5.27.33-2.82.31-5.35-.36-7l-9-.89s-.77,7.19-1,14.32l0,1.34a60.21,60.21,0,0,0,.89,10,13.13,13.13,0,0,1,.09,2.66Z"/><path class="cls-17" d="M516.17,476a2.57,2.57,0,0,1,.18,3.84s1.6.16,2.15-.29a1.58,1.58,0,0,1-.21.32,5.23,5.23,0,0,0,2.53-.5c.74-.56.27-9.73-4.71-8.7,0,0-4.22-.32-3.82,4.56s-1.2,4.88-1.2,4.88a2.24,2.24,0,0,0,.65.22s.32-.12.38-.29a1,1,0,0,1-.14.35,4.48,4.48,0,0,0,2.57-.48C515.41,479.21,516.42,477,516.17,476Z"/><path class="cls-15" d="M509.85,486.65h11.5c-.82-2.06-2-3.55-2.89-3.73-.48-.13-1.29-1.85-1.28-4.63l-.21,0-3.62.72s.09,1.13.09,2.2c0,.9-.05,1.8-.25,1.91a4.45,4.45,0,0,0-.5.07A9.31,9.31,0,0,0,509.85,486.65Z"/><path class="cls-22" d="M513.35,479.05s.09,1.13.09,2.2c2-.05,3.09-1.9,3.53-2.92Z"/><path class="cls-17" d="M517.34,477.94a10.61,10.61,0,0,0,1.31-3.11c.18-1-.34-4.81-4.14-4.26a5.21,5.21,0,0,0-2.15.81c-.82.56-2,1.76-.68,5.07l.34,1.11Z"/><path class="cls-15" d="M512.68,480.06s4.78.08,4.78-2.9.63-5-2.43-5.15-3.64,1-3.89,1.95S511.44,480,512.68,480.06Z"/><path class="cls-17" d="M512.86,471.93s1.31,3.5,3.31,4a4,4,0,0,0,2.89,0,5.62,5.62,0,0,1-1.86-3.36S513.84,470.27,512.86,471.93Z"/><path class="cls-17" d="M513.18,472.22a4.23,4.23,0,0,0-1.22,1.54c-.23.76-.34,2.32-.8,2.26,0,0-1-2.37.13-3.71S513.18,472.22,513.18,472.22Z"/><path class="cls-15" d="M529.17,509.41l-1.44.43s-4.73-7.85-5.16-9.9c-.14-.66-.49-2-.89-3.49-.83-3.09-1.9-6.87-1.9-6.87l-.36-1.53-1.2-5.22a16.14,16.14,0,0,1,3.66.8,1.66,1.66,0,0,1,.9.67c1,2.18,2,7.68,2.68,11.61.39,2.19.68,3.89.84,4.25C526.73,501.16,528.05,506.69,529.17,509.41Z"/><path class="cls-17" d="M513,472.34s.93,3.66,3.47,4.83c0,0-2.54-2.25-2.75-4.67S513,472.34,513,472.34Z"/><path class="cls-7" d="M513.31,492.92c-.21,4.94-.95,9.83-3.1,9.52-2.63-.39-3.32-2.85-3.46-4.68a10.09,10.09,0,0,1,0-2,4.72,4.72,0,0,0,1.5-.2c1-.92.71-9.95,1.2-10.89s3.69-1.54,3.69-1.54S513.51,488,513.31,492.92Z"/><path class="cls-20" d="M525.5,515.92a30.17,30.17,0,0,1-4.65,1.09c-3.43.53-8.23.73-12.52-1.09,0,0-.35-7.21.66-11s1.49-5.55,1.49-5.55a19.06,19.06,0,0,0,8.2.25,12.26,12.26,0,0,0,1.74-.5s2.55,6.11,3.25,8.74S525.5,515.92,525.5,515.92Z"/><path class="cls-7" d="M529.69,502.11c0,1.24-1.26,2-2.62,2.37a5.11,5.11,0,0,1-3.14.07c-.75-.51-2-6.1-2.33-7.81-.06-.31-.1-.49-.1-.49s-1,2.33-1,2.55,0,.23,0,.35,0,.26,0,.26-5.3,2.68-9.93.22c0,0-1.89-10.9-1.07-12.77.41-.93,2.53-2.86,3.38-3.69.19-.18.17-.55.09-.89a.39.39,0,0,1,.48-.46,5,5,0,0,0,2.58-.23,6.07,6.07,0,0,0,1.58-.77.24.24,0,0,1,.37.17c.08.65.28,1.84.64,1.84s3.86.41,4.11.82c.08.15,1,2.13,2.06,4.75h0C526.81,493.33,529.69,500.52,529.69,502.11Z"/><path class="cls-23" d="M521.5,496.25s-1,2.33-1,2.55,0,.23,0,.35a4.71,4.71,0,0,1-1.63.85c-1.65.5-2.37-2.66-2.27-4.24s2.44-6.09,3.22-6.18S521.5,496.25,521.5,496.25Z"/><path class="cls-24" d="M521.6,496.74c-.06-.31-.1-.49-.1-.49A3,3,0,0,1,521.6,496.74Z"/><path class="cls-25" d="M532.73,515.53a1.46,1.46,0,0,0-.93-1.08,5.66,5.66,0,0,0-3.61-.09c-2.63.77-2.89,2.39-2.71,3.56s-.35,3-.27,4.34.45,4.64,2.4,4.46,8.24-1.86,8.24-1.86,1.09-2.07-1.14-5.06A10.68,10.68,0,0,1,532.73,515.53Z"/><path class="cls-26" d="M531.52,514l-.52,0a1.14,1.14,0,0,0-.3-.58.85.85,0,0,0-.76-.19.79.79,0,0,0-.62.41,1.23,1.23,0,0,0-.07.72l-.51.11a2.09,2.09,0,0,1,.11-1.23,1.26,1.26,0,0,1,1-.68A1.32,1.32,0,0,1,531,513,2,2,0,0,1,531.52,514Z"/><path class="cls-21" d="M537.14,524.56s-6.28,1.7-8.24,1.87-2.33-3.14-2.4-4.47.44-3.17.27-4.34a2.75,2.75,0,0,1,0-.71c0-1,.63-2.22,2.75-2.84a5.66,5.66,0,0,1,3.61.09,1.46,1.46,0,0,1,.93,1.08c0,.1,0,.22.07.35a11,11,0,0,0,1.91,3.92C538.23,522.5,537.14,524.56,537.14,524.56Z"/><path class="cls-27" d="M527.45,522.24l3.79-.86s.88,2.72-.91,3.21S527.8,524,527.45,522.24Z"/><path class="cls-26" d="M527.45,522.24a2.37,2.37,0,0,0,2.06.55,2.92,2.92,0,0,0,1.73-1.41Z"/><path class="cls-27" d="M532,521.21l3.79-.86s.88,2.72-.91,3.21S532.36,523,532,521.21Z"/><path class="cls-26" d="M532,521.21a2.33,2.33,0,0,0,2.06.54,2.88,2.88,0,0,0,1.73-1.4Z"/><path class="cls-8" d="M534,515.24c0,.1,0,.22.07.35a4.53,4.53,0,0,1-3.06,2.66,4.62,4.62,0,0,1-4.3-1.34c0-1,.63-2.22,2.75-2.84a5.66,5.66,0,0,1,3.61.09A1.46,1.46,0,0,1,534,515.24Z"/><path class="cls-28" d="M531.07,518.82h0a.32.32,0,0,1-.38-.24l-.06-.28a.31.31,0,0,1,.24-.38h0a.31.31,0,0,1,.38.24l.06.28A.32.32,0,0,1,531.07,518.82Z"/><path class="cls-15" d="M529.07,509.17a3.69,3.69,0,0,0,.89,1.32,2.56,2.56,0,0,1,1,1.53,1.35,1.35,0,0,1-1.18,1.65c-.58,0-1.13-.78-1.46-2.65,0-.1-.57-1.18-.57-1.18Z"/><path class="cls-29" d="M514.83,500.83c-3,0-4.26-1-4.35-1.11l-.2-1.42s4.08,2.45,10.34.13l-.13,1.07A16.37,16.37,0,0,1,514.83,500.83Z"/><path class="cls-15" d="M514.78,549a2.26,2.26,0,0,0,0,1.32l-2.86,1.75-3.37.87-1-.51s5-2.55,5.27-6.44C513,543,514.78,549,514.78,549Z"/><path class="cls-30" d="M512.31,552.9c-1.63.22-1.1.51-3.31,1.1s-3.16,0-3.34-.24.84-.77,1.91-1.33l0,0a6.43,6.43,0,0,0,3.39-.24c1.45-.52,2.82-1.52,3.81-1.89a3.87,3.87,0,0,1,.37,1C515.33,552.33,513.94,552.69,512.31,552.9Z"/><path class="cls-22" d="M527.11,541.9c.84.43.32,1.66-.44,3s-.24,1.1-1,3.06-1.74,2.35-2.06,2.32-.09-1,.1-2.15c0-.14,0-.28.07-.42a9.31,9.31,0,0,0-.65-3.65c-.31-1.22-2.33-3.49-2.33-3.49l1-2.7s1.79,2.09,2.59,2.93a3.4,3.4,0,0,0,1.81.82A3.55,3.55,0,0,1,527.11,541.9Z"/><path class="cls-30" d="M526.67,544.88c-.76,1.32-.24,1.1-1,3.06s-1.74,2.35-2.06,2.32-.09-1,.1-2.15h0a5.93,5.93,0,0,0,1.74-2.63c.43-1.36.46-2.93.75-3.87a3.55,3.55,0,0,1,.94.3C528,542.33,527.43,543.56,526.67,544.88Z"/><polygon class="cls-17" points="499.91 488.21 499.98 489.62 500.07 491.47 500.15 493 502.7 493 502.79 491.47 502.89 489.62 502.96 488.21 499.91 488.21"/><polygon class="cls-7" points="499.73 488.44 503.12 488.44 503.02 487.92 499.79 487.92 499.73 488.44"/><polygon class="cls-7" points="501.1 487.92 500.31 487.74 500.2 487.92 501.1 487.92"/><polygon class="cls-7" points="499.98 489.62 500.07 491.47 502.79 491.47 502.89 489.62 499.98 489.62"/><path class="cls-15" d="M500,489.62s.69-.52.8.18c.06.35-.72,1.48-.72,1.48C499.8,491,499.6,489.79,500,489.62Z"/><path class="cls-31" d="M-64.44,184.79s7.4-9.63,25.1-8.56c0,0,25.7-16.06,53.1-2.14,0,0,29.13-3.45,50.71,3,14.38,4.29,19.13,8.79,19.13,8.79Z"/><path class="cls-31" d="M499,97.25s6.2-9.63,21-8.56c0,0,21.53-16,44.5-2.14,0,0,24.41-3.45,42.49,3,12.05,4.28,16,8.78,16,8.78Z"/><path class="cls-31" d="M113.71,222.88s8.21-9.63,27.83-8.56c0,0,28.48-16.06,58.86-2.14,0,0,32.29-3.45,56.2,3,15.95,4.29,21.21,8.79,21.21,8.79Z"/><path class="cls-31" d="M851.76,144l-230-1.5s12.78-15,43.34-13.33c0,0,44.37-25,91.68-3.34,0,0,50.29-5.37,87.53,4.65l.13,0A146.59,146.59,0,0,1,851.76,144Z"/><path class="cls-31" d="M96.19,188.57a6.17,6.17,0,1,1,6.17,6.17A6.16,6.16,0,0,1,96.19,188.57Z"/><path class="cls-32" d="M35.19,210.61s4.84-6.3,16.42-5.6c0,0,16.8-10.5,34.73-1.4,0,0,19-2.25,33.16,2,9.41,2.8,12.51,5.74,12.51,5.74Z"/><path class="cls-33" d="M967.36,561,687,561s-2.51-23.7,18.12-28.6,9.63-19.08,25.23-26.56,38-4.34,43.56,13.37,22.47,1.57,43.1,0,26.34,9.54,29.91,15.5,32,9.53,45.29-6.6,22.93-19.68,37.6-19.78c3.92,0,7.12-1.63,10.12-4,2.58,3.12,5.06,6.31,7.44,9.6A117.21,117.21,0,0,1,967.36,561Z"/><path class="cls-4" d="M636.75,597.84c0,11.3-82.86,20.46-185.07,20.46s-185.07-9.16-185.07-20.46,82.86-20.46,185.07-20.46S636.75,586.54,636.75,597.84Z"/><path class="cls-4" d="M663.1,601.85c0,15-99.71,27.16-222.72,27.16s-222.71-12.16-222.71-27.16,99.71-27.17,222.71-27.17S663.1,586.84,663.1,601.85Z"/><path class="cls-4" d="M968.8,587.81A153.1,153.1,0,0,1,965.16,613c-.19.81-.39,1.63-.59,2.45H566.05L619,587.81Z"/><path class="cls-4" d="M349.21,586.59V610H-124.68c-1.92-6.46-3.91-13.38-5.89-20.69Z"/><path class="cls-33" d="M646.72,587.81a7.23,7.23,0,0,1-5.21-12.24,24.8,24.8,0,0,1,11.72-7.05c13.57-3.33,16.9,6.91,25,6s21.06-6.32,33.74,2.91,35-6.08,50.22-4.49c5.13.53,8.46,2.4,10.62,4.64a6.1,6.1,0,0,1-4.45,10.28Z"/><polygon class="cls-34" points="746.72 560.7 837.06 560.7 841.23 539.47 751.05 539.47 746.72 560.7"/><polygon class="cls-9" points="745.17 560.7 835.51 560.7 839.69 539.47 749.51 539.47 745.17 560.7"/><path class="cls-34" d="M812,560.7h25a0,0,0,0,1,0,0v2.6a0,0,0,0,1,0,0H810.39a0,0,0,0,1,0,0v-1A1.64,1.64,0,0,1,812,560.7Z" transform="translate(1647.45 1124) rotate(180)"/><rect class="cls-35" x="728.54" y="560.7" width="82.05" height="2.6" transform="translate(1539.14 1124) rotate(180)"/><path class="cls-35" d="M831.66,563.3l1.55,6.08h0l4.58,18a.53.53,0,0,0,.51.4.74.74,0,0,0,.73-.88l-4.09-21-.5-2.61Z"/><path class="cls-34" d="M833.21,569.38c-.15-3.11,1.73-3.47,1.73-3.47l-.5-2.61h-2.78Z"/><path class="cls-35" d="M812.07,563.3l1.54,6.08h0l4.58,18a.56.56,0,0,0,.52.4.74.74,0,0,0,.72-.88l-4.08-21-.51-2.61Z"/><path class="cls-34" d="M813.61,569.38c-.14-3.11,1.74-3.47,1.74-3.47l-.51-2.61h-2.77Z"/><path class="cls-35" d="M736,563.3l-1.55,6.08h0l-4.57,18a.56.56,0,0,1-.52.4.74.74,0,0,1-.72-.88l4.08-21,.51-2.61Z"/><path class="cls-34" d="M734.48,569.38c.15-3.11-1.73-3.47-1.73-3.47l.51-2.61H736Z"/><path class="cls-35" d="M755.63,563.3l-1.55,6.08h0l-4.58,18a.53.53,0,0,1-.51.4.75.75,0,0,1-.73-.88l4.09-21,.51-2.61Z"/><path class="cls-34" d="M754.08,569.38c.15-3.11-1.73-3.47-1.73-3.47l.51-2.61h2.77Z"/><polygon class="cls-34" points="105.97 557.7 183.72 557.7 187.32 539.42 109.7 539.42 105.97 557.7"/><polygon class="cls-9" points="104.64 557.7 182.39 557.7 185.99 539.42 108.37 539.42 104.64 557.7"/><path class="cls-34" d="M162.18,557.7h21.54a0,0,0,0,1,0,0v2.24a0,0,0,0,1,0,0h-23a0,0,0,0,1,0,0v-.83A1.41,1.41,0,0,1,162.18,557.7Z" transform="translate(344.5 1117.64) rotate(180)"/><rect class="cls-35" x="90.32" y="557.7" width="70.62" height="2.24" transform="translate(251.27 1117.64) rotate(180)"/><path class="cls-35" d="M179.08,559.94l1.33,5.23h0l3.94,15.51a.47.47,0,0,0,.44.34.64.64,0,0,0,.63-.76l-3.52-18.08-.43-2.25Z"/><path class="cls-34" d="M180.41,565.17c-.13-2.68,1.49-3,1.49-3l-.43-2.25h-2.39Z"/><path class="cls-35" d="M162.21,559.94l1.34,5.23h0l3.94,15.51a.45.45,0,0,0,.44.34.63.63,0,0,0,.62-.76L165,562.19l-.44-2.25Z"/><path class="cls-34" d="M163.55,565.17c-.13-2.68,1.49-3,1.49-3l-.44-2.25h-2.39Z"/><path class="cls-35" d="M96.77,559.94l-1.33,5.23h0L91.5,580.69a.47.47,0,0,1-.45.34.63.63,0,0,1-.62-.76L94,562.19l.43-2.25Z"/><path class="cls-34" d="M95.44,565.17c.12-2.68-1.49-3-1.49-3l.43-2.25h2.39Z"/><path class="cls-35" d="M113.63,559.94l-1.33,5.23h0l-3.94,15.51a.45.45,0,0,1-.44.34.63.63,0,0,1-.62-.76l3.51-18.08.44-2.25Z"/><path class="cls-34" d="M112.3,565.17c.13-2.68-1.49-3-1.49-3l.44-2.25h2.38Z"/><path class="cls-17" d="M127.58,475.39c1.08-1.63,5.36-.72,9.56,2.05s6.73,6.33,5.65,8-5.35.72-9.56-2.05S126.5,477,127.58,475.39Z"/><path class="cls-16" d="M149.52,536.2l-.82,0s-.33-14.49-1.6-20.34a57.47,57.47,0,0,0-8.61-19.51l1.49-.48a50.33,50.33,0,0,1,2.9,5.25A53.82,53.82,0,0,1,148,515.38C149,521.29,149.56,536.12,149.52,536.2Z"/><path class="cls-36" d="M134.54,475.26s5.42-1.15,8,3.26,2.75,12.07,4.48,14.57,4.79,13.08,1.54,15.45-23.29-.09-24.41-1.17.07-12.18,2-15.4S123.38,473.63,134.54,475.26Z"/><path class="cls-15" d="M126.46,523.52c-6.13-1.56-12.87-11.08-12.87-11.08l1.72-1.49c1.79,2.1,9.23,5.74,9.23,5.74,0-1.93,0-3.69.13-5.3.82-10.88,4.93-14.51,6-15.3a2.31,2.31,0,0,1,.28-.18,1.76,1.76,0,0,1,0,.22c0,.33.05,1,.08,1.87C131.32,504.67,131.59,524.83,126.46,523.52Z"/><path class="cls-15" d="M115.31,511c0-.26-.19-4-.94-4.71s-2.21-1.68-2.63-1.6a4.19,4.19,0,0,0-1.18,4.09,14,14,0,0,0,3,3.71Z"/><path class="cls-15" d="M139.82,586.8c-.38,1.49-.79,2.9-1.21,4.22-.09.28-.17.56-.26.83s-.09.27-.14.4-.17.52-.26.76-.23.65-.34,1l-.24.67c-1.25,3.33-2.29,5.44-2.29,5.44l-2.48-.17a67.54,67.54,0,0,0,1.12-10.76c0-.23,0-.46,0-.69,0-.49,0-1,0-1.5v-.64a57.11,57.11,0,0,0-2.88-18.07,117.19,117.19,0,0,1-4-13.93c-3-13.67-2.27-22.66-2.27-22.66l13.94,1.64.65.07c.06,6.41.23,15.1.37,21.9,0,1.18,0,2.3.07,3.34.1,4.37.17,7.35.17,7.35C142.53,571.73,141.56,579.88,139.82,586.8Z"/><path class="cls-15" d="M146.47,530.1c-2.64-5.91-3.9-7.58-3.94-9.44,0-1.47.69-3,2.1-6.94a14.54,14.54,0,0,0,.7-2.82c1.11-7.5-3.22-15.6-5.92-16.15-.75-.2-2-2.91-2-7.27l-.34.06-5.68,1.13s.13,1.78.14,3.46c0,1.41-.07,2.83-.39,3s-4.87.83-5.68,2.11.09,1.37-.22,5.95c-.41,6.11,3.9,13.35.08,25.57C121.42,541.23,147.93,533.37,146.47,530.1Z"/><path class="cls-37" d="M131.39,488.67s.13,1.78.14,3.46c3.17-.09,4.85-3,5.54-4.59Z"/><path class="cls-15" d="M130.33,490.26s7.52.12,7.52-4.56,1-7.81-3.82-8.09-5.73,1.51-6.11,3.07S128.38,490.11,130.33,490.26Z"/><path class="cls-36" d="M130.61,477.49s2.06,5.5,5.22,6.31,4.52,0,4.52,0a8.92,8.92,0,0,1-2.92-5.28S132.16,474.88,130.61,477.49Z"/><path class="cls-36" d="M131.12,477.94a6.73,6.73,0,0,0-1.91,2.42c-.37,1.19-.54,3.64-1.26,3.56,0,0-1.55-3.73.19-5.84S131.12,477.94,131.12,477.94Z"/><path class="cls-15" d="M156.24,536.38l-2.25.67s-7.45-12.34-8.12-15.55c-.22-1-.76-3.14-1.39-5.49-1.31-4.85-3-10.8-3-10.8l-.55-2.4-1.9-8.2a25.94,25.94,0,0,1,5.75,1.25,2.71,2.71,0,0,1,1.43,1.06c1.56,3.42,3.11,12.07,4.2,18.24.61,3.44,1.08,6.11,1.32,6.67C152.41,523.41,154.48,532.09,156.24,536.38Z"/><path class="cls-36" d="M130.84,478.13s1.46,5.75,5.45,7.59c0,0-4-3.54-4.33-7.33S130.84,478.13,130.84,478.13Z"/><path class="cls-15" d="M147.81,585.6a34.35,34.35,0,0,1-4.33,14.09l-1.2,1.09s-1.1-6.26-1.89-13.43c-.76-6.82-1.79-14-3-16.23-1.75-3.29-3.05-10-4-17.12-1.54-11.77-2.08-24.57-2.08-24.57l14.13-.7c1.42,2.39,2,6.31,2.19,10.77a106.47,106.47,0,0,1-.73,14.68c-.71,6.61-1.71,12.12-1.94,13.35h0a.78.78,0,0,0,.09.47C147.94,573.58,148.34,580,147.81,585.6Z"/><path class="cls-38" d="M121,518.07c.22,2.87,1.3,6.74,5.44,7.35,1.46.21,2.51-1.11,3.26-3.31,1-2.88,1.42-7.25,1.6-11.65.17-4.17.1-8.36,0-11.32-1.7-.19-4.82-1.63-5.78-2l-.08.09,0,.07c0,.05-.06.1-.09.14-.41.79-.47,5.19-.68,9.35-.17,3.64-.46,7.08-1.19,7.76a7.51,7.51,0,0,1-2.37.32A16.14,16.14,0,0,0,121,518.07Z"/><path class="cls-39" d="M131.32,510.46c-.32,7.76-1.48,15.45-4.86,15-4.14-.61-5.22-4.48-5.44-7.35,1-.05,2.8-.3,3.52-1.39,1-1.55,4.19-11.55,4.19-11.55S130,507.37,131.32,510.46Z"/><path class="cls-20" d="M126.92,521s8.32,2.09,15.61-.34c0,0,4,8.51,5.11,12.15s9.42,50.28,9.42,50.28-18.32,5.3-30.49.73c0,0-3.59-49.87-2-55.09S126.92,521,126.92,521Z"/><path class="cls-38" d="M124.64,506.77c.61,6,2.28,14.16,2.28,14.16a13.66,13.66,0,0,0,2.8,1.1c6.46,1.75,12.81-1.44,12.81-1.44s0-.19,0-.41,0-.4.06-.55c0-.34,1.58-4,1.58-4l.16.77c.56,2.67,2.48,11.43,3.66,12.22.69.46,2.87.46,4.93-.09s4.12-1.78,4.12-3.73c0-2.48-4.52-13.74-7.79-21.45h0c-1.73-4.11-2.74-7-4.07-7.29,0,0-8.93,3.63-13.88,3.07-1.7-.19-4.82-1.62-5.78-2l-.08.09,0,.07a.35.35,0,0,0,0,.08c-.73,1.07-.62,2.84-.65,3.52A31.22,31.22,0,0,0,124.64,506.77Z"/><path class="cls-39" d="M144.19,515.7s-1.53,3.66-1.58,4c0,.15,0,.36-.06.55a7.43,7.43,0,0,1-2.55,1.34c-2.59.79-3.72-4.18-3.56-6.67s3.82-9.56,5-9.71S144.19,515.7,144.19,515.7Z"/><path class="cls-24" d="M144.35,516.47l-.16-.77A4.4,4.4,0,0,1,144.35,516.47Z"/><path class="cls-40" d="M133.64,522.59c-4.74,0-6.62-1.33-6.76-1.44l-.31-2.23c.05,0,6.4,3.85,16.24.2l-.21,1.68A24.56,24.56,0,0,1,133.64,522.59Z"/><path class="cls-39" d="M157.06,524.9c0,2-2,3.15-4.12,3.73,2.94-3.5-3.5-24.71-3.66-25.25C152.54,511.12,157.06,522.4,157.06,524.9Z"/><path class="cls-17" d="M136.51,602.16h-1.58c-.53-.08-.93-.23-1.47-.3a1.51,1.51,0,0,0-1.28.3v0h-6.72c-.17-.24,0-.8.15-1.21a1,1,0,0,1,.63-.58,7.19,7.19,0,0,0,3.4-1.55c.73-.66,3.5-2.41,3.5-2.41h0c.06,0,.35.09,1.61,1.15.65.55,1.76-.77,1.76-.77a1.59,1.59,0,0,1,.37.49,1.65,1.65,0,0,1,.14,1,6.83,6.83,0,0,0,.48,2.49c.16.47.29.79.29.79S137.87,602,136.51,602.16Z"/><path class="cls-41" d="M136.88,597.3a5.05,5.05,0,0,1-1.7.86c-.72.09-2.05-1.73-2.05-1.73h0c.06,0,.35.09,1.61,1.15.65.55,1.76-.77,1.76-.77A1.59,1.59,0,0,1,136.88,597.3Z"/><path class="cls-41" d="M136.51,602.16h-1.58c-.53-.08-.93-.23-1.47-.3a1.51,1.51,0,0,0-1.28.3v0h-6.72c-.17-.24,0-.8.15-1.21.2-.18.26.79.37.94a29.93,29.93,0,0,0,5.79-.17,3.23,3.23,0,0,1,2.54-.31,6,6,0,0,0,3.2-.61c.16.47.29.79.29.79S137.87,602,136.51,602.16Z"/><path class="cls-17" d="M145,602.16h-1.58c-.53-.08-.92-.23-1.47-.3a1.51,1.51,0,0,0-1.28.3v0h-6.72c-.17-.24,0-.8.15-1.21a1,1,0,0,1,.63-.58,7.19,7.19,0,0,0,3.4-1.55c.73-.66,3.5-2.41,3.5-2.41h0c.06,0,.35.09,1.61,1.15.66.55,1.77-.77,1.77-.77a1.67,1.67,0,0,1,.5,1.52,6.65,6.65,0,0,0,.49,2.49c.15.47.28.79.28.79S146.31,602,145,602.16Z"/><path class="cls-41" d="M145.32,597.3a5,5,0,0,1-1.7.86c-.72.09-2.05-1.73-2.05-1.73h0c.06,0,.35.09,1.61,1.15.66.55,1.77-.77,1.77-.77A1.67,1.67,0,0,1,145.32,597.3Z"/><path class="cls-41" d="M145,602.16h-1.58c-.53-.08-.92-.23-1.47-.3a1.51,1.51,0,0,0-1.28.3v0h-6.72c-.17-.24,0-.8.15-1.21.2-.18.26.79.37.94a30,30,0,0,0,5.8-.17,3.21,3.21,0,0,1,2.53-.31,6.08,6.08,0,0,0,3.21-.61c.15.47.28.79.28.79S146.31,602,145,602.16Z"/><path class="cls-15" d="M156.08,536a5.93,5.93,0,0,0,1.4,2.07,4,4,0,0,1,1.54,2.4,2.13,2.13,0,0,1-1.85,2.6c-.91,0-1.77-1.23-2.3-4.17,0-.16-.88-1.85-.88-1.85Z"/><polygon class="cls-42" points="111.9 502.61 112.01 503.69 112.34 507.11 112.55 509.29 116.91 509.29 117.18 507.11 117.6 503.69 117.73 502.61 111.9 502.61"/><polygon class="cls-43" points="111.59 502.61 118.08 502.61 117.95 501.96 111.75 501.96 111.59 502.61"/><polygon class="cls-43" points="112.01 503.69 112.34 507.11 117.18 507.11 117.6 503.69 112.01 503.69"/><path class="cls-15" d="M111.43,504.92s1.11-1.23,2.21-.29-.08,2.95-1,3.5a6.93,6.93,0,0,0-1.26.83Z"/><path class="cls-16" d="M136.42,536.26l.83-.06s-1.62-14.49-1.15-20.5A58.23,58.23,0,0,1,142,495.07l-1.53-.27a47.84,47.84,0,0,0-2.18,5.62,54.59,54.59,0,0,0-3.12,14.86C134.92,521.33,136.38,536.19,136.42,536.26Z"/><path class="cls-44" d="M146.46,533.08s-.8-2-2.08-2.48l-6.54,1.23s1.62,1.54,1.77,2.54Z"/><rect class="cls-45" x="136.32" y="533.82" width="13.3" height="9.47" rx="0.97" transform="translate(-97.27 35.79) rotate(-10.67)"/><rect class="cls-24" x="142.31" y="528.99" width="5.34" height="6.85" transform="translate(294.61 1063.54) rotate(179.5)"/><rect class="cls-42" x="142.61" y="528.99" width="5.34" height="6.85" transform="translate(295.22 1063.53) rotate(179.5)"/><rect class="cls-46" x="140.87" y="530.77" width="5.34" height="6.85" transform="translate(582.2 871.15) rotate(142.57)"/><rect class="cls-47" x="141.34" y="530.41" width="5.34" height="6.85" transform="translate(582.83 870.21) rotate(142.57)"/><rect class="cls-16" x="138.81" y="533.35" width="13.3" height="9.47" rx="1.21" transform="translate(-97.13 36.24) rotate(-10.67)"/><path class="cls-17" d="M143.51,481.35s3.42-6.81-1.35-9.5-8.28-1.63-10.91,1.66Z"/><path class="cls-20" d="M127.38,479.37a7.9,7.9,0,0,1,.75-1.75,1.71,1.71,0,0,1,0-1.57c.32-.52,1-.73,2-.66a15.87,15.87,0,0,1,6.66,2.57A15.64,15.64,0,0,1,142.5,484c.49,1,2.24,2.25,2.85,3.56a2,2,0,0,0,1.29-.88c.89-1.43-.45-4-3.2-6.69a32.78,32.78,0,0,0-5.51-4.26,33.45,33.45,0,0,0-5.09-2.63c-4.15-1.7-7.59-1.95-8.57-.38C123.39,474.17,124.69,476.71,127.38,479.37Z"/><path class="cls-40" d="M64.87,499.64c-.49-.94,10.58-4.31,10.76,4.93,0,0,20.74-.51,10.84-12.07-3.43-4-3.08-7.31-3-10.39s-2.13-12-9.81-11.13a5.72,5.72,0,0,0-4.52.48C63.46,474.42,50.68,503,64.87,499.64Z"/><path class="cls-15" d="M98.77,510s1.35-2,2.44-2.09,3.1-.61,2.94-.21-1.41.45-1.53.69,1.86.6,2.42.64,1.89,0,1.85.29a6.35,6.35,0,0,1-4.06,1.28,11.19,11.19,0,0,0-3.71.49Z"/><path class="cls-4" d="M79.25,510.63a19.81,19.81,0,0,0,2.07,3.12c1.6,2,4.07,4.33,7.18,4.79a7.75,7.75,0,0,0,4.27-.7h0a19.46,19.46,0,0,0,6.61-5.52,3.13,3.13,0,0,0-.42-3.05s-7.62,1.72-8.35,1.36-5-12.56-6-14.09-4.44-2.32-4.44-2.32Z"/><path class="cls-3" d="M81.32,513.75c1.6,2,4.07,4.33,7.18,4.79a7.75,7.75,0,0,0,4.27-.7c-.15,0-3.92.49-5.42-2.2s-3.19-7.09-5.46-5.64C80.91,510.63,81,512.18,81.32,513.75Z"/><path class="cls-17" d="M50.84,592.83S48.51,595,49,596.46s2.55,2.51,2.83,4.35,1.42,2.85,2.44,2.85H59.1s.75-1.3-1.06-1.69-2.5-2.55-2.38-4.56a36.09,36.09,0,0,0-.17-4.69l-3.86-.89Z"/><path class="cls-17" d="M70.51,593.73s-.84,9,.18,9.49l13.06,0s0-1.5-2.1-1.84-5.78-1.56-6.4-4.3S70.51,593.73,70.51,593.73Z"/><path class="cls-15" d="M61.2,529.28c2.69-6,4.33-7.76,4-9.63-.23-1.39.71-25.95.71-25.95.32-.1,1-.19,1.31-.26a3.28,3.28,0,0,0,2.39-2.09,16.59,16.59,0,0,0,.81-5.54l.35.07L76.58,487s-.14,1.82-.14,3.53v.05a3.31,3.31,0,0,0,2.4,3.21l1.37.4a53.23,53.23,0,0,1,2.53,12.29c.41,6.24-3.86,8.94,0,21.4C86.75,540.63,59.72,532.61,61.2,529.28Z"/><path class="cls-22" d="M76.58,487s-.14,1.82-.14,3.53c-3.24-.09-5-3-5.65-4.68Z"/><path class="cls-15" d="M77.66,488.65S70,488.78,70,484s-1-8,3.89-8.25,5.85,1.54,6.24,3.13S79.65,488.49,77.66,488.65Z"/><path class="cls-40" d="M77.37,475.63s-2.09,5.6-5.31,6.43-4.62,0-4.62,0a9.1,9.1,0,0,0,3-5.39S75.79,473,77.37,475.63Z"/><path class="cls-40" d="M76.85,476.09a4.73,4.73,0,0,1,2.2,1.72,7.69,7.69,0,0,1,1,4.38s1.58-3.81-.2-6S76.85,476.09,76.85,476.09Z"/><path class="cls-48" d="M76,485.69a1.93,1.93,0,0,0,1.59.65,1.41,1.41,0,0,0,1.18-.78A5.14,5.14,0,0,0,76,485.69Z"/><path class="cls-4" d="M60.46,504.57a53.16,53.16,0,0,0,0,6c.13,2.18,2.34,5.1,2.65,5.83.79,1.81,1.67,2.11,1.67,2.11l6.86,1.68,2.41.59,7.6-2.27s3.46-9.67,2.07-15.11a41.75,41.75,0,0,0-3.51-9.21s-6.2,6.07-14.28-.52Z"/><path class="cls-3" d="M62.47,511.49a21.72,21.72,0,0,0,.64,4.94c.79,1.81,1.67,2.11,1.67,2.11l6.86,1.68,3-.88s-9.94-1.51-8.84-10.06Z"/><path class="cls-8" d="M81.17,520s3.76,11.72,4,15.71S78,592.38,77.68,594.22s-2.43,2.83-2.43,2.83a3.25,3.25,0,0,1-2.41.19A5.91,5.91,0,0,1,70.27,596s-2.93-37.57-1.12-51A212.76,212.76,0,0,0,71,520Z"/><path class="cls-21" d="M65.22,519.65s-5.74,7.71-6.28,12.92-.84,23.5-2,28.57S51.63,576,51.63,591.83a3.21,3.21,0,0,0,1.78,1.39c.43.15,1,.3,1.57.43a2.45,2.45,0,0,0,2.75-1.31c2.83-5.7,11.86-24.09,12.32-27.91.33-2.71,3.18-20.59,9.39-31.08,1.49-2.52-.91-12.54-.91-12.54Z"/><path class="cls-7" d="M76.16,485.82s.13.56,1.53.47c0,0,1.18-.07,1.14-.69A3.76,3.76,0,0,0,76.16,485.82Z"/><path class="cls-17" d="M81.77,518.19a7.86,7.86,0,0,1-4.51,1.26c-3.59.07-12.47-.91-12.47-.91a7.16,7.16,0,0,0-.38,2.26s10.85,2.74,17.14.4A4,4,0,0,0,81.77,518.19Z"/><path class="cls-7" d="M76.48,520.69a1.65,1.65,0,1,1,1.64,1.85A1.75,1.75,0,0,1,76.48,520.69Zm.54,0a1.11,1.11,0,1,0,1.1-1.31A1.22,1.22,0,0,0,77,520.69Z"/><rect class="cls-49" x="57.92" y="507.45" width="14.74" height="20.18" transform="translate(-225.34 950.73) rotate(-138.95)"/><path class="cls-15" d="M67.29,520.35s4.08.48,4.06,1.44-1,3-1.51,3-3.32-2.68-3.32-2.68Z"/><path class="cls-4" d="M65.93,493.7s-5.44.38-7.52,5.45-6,13.58-6,15,2.21,5.84,14.07,8.38c0,0,1.23-1.29,1.16-2.31,0,0-7.41-6.36-7.39-7.11,0-1.41,1.21-3.26,7.72-9.77C69.69,501.58,65.93,493.7,65.93,493.7Z"/><path class="cls-33" d="M509.5,665.09H491.83L442.39,665a31.81,31.81,0,0,1-.92-15.09c3-19.5,15.87-30.46,32.76-30.22s26.62,10.4,31.42,19.77C509,646.06,510.35,657.1,509.5,665.09Z"/><path class="cls-33" d="M185.39,634.15s-9.47-5.75-7.14-22.67,12.36-26.42,25.52-26.21,20.72,9,24.46,17.14,4.25,24.13,1.23,29.12S196.6,637.91,185.39,634.15Z"/><path class="cls-33" d="M234.05,581.23s-6.22-3.77-4.68-14.89,8.12-17.37,16.77-17.23,13.62,5.93,16.07,11.27,2.8,15.86.81,19.14S241.43,583.71,234.05,581.23Z"/><path class="cls-33" d="M349.63,653.37s-4-23-7-18.23S349.63,653.37,349.63,653.37Z"/><path class="cls-33" d="M346.53,652.87s-7.19-12.48-8.7-11S346.53,652.87,346.53,652.87Z"/><path class="cls-33" d="M351.38,653.51c0-.22-.82-18.3,3.68-16.37S351.38,653.51,351.38,653.51Z"/><path class="cls-33" d="M340.11,652.87s7.14-3.75,19.36-.73c0,0,2.86,1.51,0,2.46S335.54,655.94,340.11,652.87Z"/><path class="cls-33" d="M120.71,654.83s-4-23-7-18.24S120.71,654.83,120.71,654.83Z"/><path class="cls-33" d="M117.61,654.32s-7.19-12.48-8.7-11S117.61,654.32,117.61,654.32Z"/><path class="cls-33" d="M122.46,655c0-.21-.82-18.3,3.68-16.37S122.46,655,122.46,655Z"/><path class="cls-33" d="M111.19,654.32s7.14-3.75,19.36-.73c0,0,2.86,1.51,0,2.46S106.61,657.39,111.19,654.32Z"/><polygon class="cls-5" points="758.24 657.36 578.39 657.3 614.65 627.41 794.5 627.48 758.24 657.36"/><path class="cls-50" d="M786,532.31a19.69,19.69,0,0,0-2.37,6.93c-.75,4.12-1.41,5.64-2.5,6.48s-7.16,3.34-7.16,3.34l.45,1.06s8.9-1.21,9.9-2.7,4.81-10.27,4.51-12.29S786,532.31,786,532.31Z"/><path class="cls-15" d="M779.9,578.82c.56.67-.31,1.53-1.41,2.39s-.6.85-2,2.23-2.3,1.39-2.57,1.25.3-.92.85-1.79l.2-.34a8.21,8.21,0,0,0,.73-3.33,12.18,12.18,0,0,0-.76-3.78l1.82-2s.79,2.41,1.17,3.41a3.24,3.24,0,0,0,1.26,1.33A3.48,3.48,0,0,1,779.9,578.82Z"/><path class="cls-51" d="M778.49,581.21c-1.11.85-.6.85-2,2.23s-2.3,1.39-2.57,1.25.3-.92.85-1.79h0a5.44,5.44,0,0,0,2.4-1.63c.84-1,1.42-2.33,2-3a3.48,3.48,0,0,1,.69.58C780.46,579.49,779.59,580.35,778.49,581.21Z"/><path class="cls-19" d="M790.2,550.49s-17.31-1.3-20.57.76,5.88,28.07,5.88,28.07a6,6,0,0,0,1.63-.76,8.42,8.42,0,0,0,1.3-1.27,57.32,57.32,0,0,0-2.3-19.3c-.33-1.16,14.07,2.52,16.34-1.48a9.23,9.23,0,0,0,.39-8Z"/><path class="cls-15" d="M770.88,584.17c.08.87-1.13,1.08-2.53,1.15s-1,.36-2.89.71-2.69-.18-2.82-.44.76-.59,1.71-1l.36-.15a8.46,8.46,0,0,0,2.51-2.32,12.17,12.17,0,0,0,1.53-3.54l2.61-.55s-.73,2.42-1,3.46a3.26,3.26,0,0,0,.26,1.81A3.31,3.31,0,0,1,770.88,584.17Z"/><path class="cls-51" d="M768.35,585.32c-1.39.07-1,.36-2.89.71s-2.69-.18-2.82-.44.76-.59,1.71-1l0,0a5.4,5.4,0,0,0,2.9,0c1.27-.34,2.5-1.1,3.37-1.34a3.31,3.31,0,0,1,.24.87C771,585,769.75,585.25,768.35,585.32Z"/><path class="cls-30" d="M793.6,551.57s-15.39.73-18.56,2.91-7.47,26.33-7.47,26.33a2.15,2.15,0,0,0,1,.29,8.64,8.64,0,0,0,2.14-.4s7.09-11,7.51-13.73.2-5.12,1.4-5.23,16.29,1.19,18.4-2.9S793.6,551.57,793.6,551.57Z"/><path class="cls-40" d="M789.37,531.63a9.44,9.44,0,0,1-1.48-2.94,10,10,0,0,0,2,3.16c3.87,1.33,7.73,9.58,7.76,9.55S805.4,535,800,529.53a11.68,11.68,0,0,1-3.06-6.35c-.33-1.73-3-8.86-7.48-5.67a3.29,3.29,0,0,0-1.24,0,1.06,1.06,0,0,1,.5.09,4,4,0,0,0-2,.94C785.15,520.05,785.9,529.77,789.37,531.63Z"/><path class="cls-15" d="M794.24,529.74a16.77,16.77,0,0,0-2.86,0,9.09,9.09,0,0,0-2.49.62c-1.35.57-1.21,3,1.63,2.52S794.44,530.45,794.24,529.74Z"/><path class="cls-15" d="M789,531.49s-.4,2.06,1.46,2c1.22-.06,3.86-1.53,3.62-2.58a13.09,13.09,0,0,1-1.22-4.74l-.22.06-3.74,1s.16,1.18.24,2.31C789.22,530.47,789.22,531.37,789,531.49Z"/><path class="cls-50" d="M788.91,527.22s.16,1.18.24,2.31c2.12-.2,3.11-2.21,3.5-3.32Z"/><path class="cls-40" d="M793,525.56a11,11,0,0,0,.53-3.51c-.08-1.09-1.6-4.81-5.34-3.26a5.43,5.43,0,0,0-2,1.38c-.7.79-1.6,2.33.62,5.35l.65,1.05Z"/><path class="cls-15" d="M788.81,528.94s4.89-1.17,4.12-4.21-.67-5.23-3.83-4.61-3.46,1.93-3.45,3S787.52,529.17,788.81,528.94Z"/><path class="cls-40" d="M786.87,520.61s2.24,3.22,4.43,3.22,2.93-.77,2.93-.77a6,6,0,0,1-2.78-2.94S787.44,518.66,786.87,520.61Z"/><path class="cls-40" d="M787.27,520.82a4.5,4.5,0,0,0-.84,1.88c0,.84.26,2.46-.22,2.52,0,0-1.63-2.16-.85-3.82S787.27,520.82,787.27,520.82Z"/><path class="cls-52" d="M783.24,550.76c.41.48,1.68.63,3,.85a9.12,9.12,0,0,1,3,.87c1.82,1.06,7.74,4.66,9.47,4.5.67-.07.55-1.35.14-3.05-.64-2.7-2-6.43-2-8.06a48.38,48.38,0,0,0-.69-5.38c0-.2-.07-.39-.1-.59-.78-4.66-1.86-10.16-1.86-10.16s-1.2,2.62-3.55,2.62-1.8-2-1.8-2-2.14.25-2.65.8a21.63,21.63,0,0,0-2,3.54s-.05.82,2,1.2a26.94,26.94,0,0,0-.55,3.7c0,1.09.75,4.51,1,6.64a4,4,0,0,1,0,1.61,3,3,0,0,1-1.24,1C784.18,549.54,782.76,550.18,783.24,550.76Z"/><path class="cls-15" d="M794.88,531.47s1.79-1.09,3.52,1-1.23,16.76-3.79,17.52c-2.84.84-11.37.8-11.37.8l.36-1s8.86-2.85,9.22-3.32S794,531.71,794.88,531.47Z"/><path class="cls-52" d="M794.24,529.74s3.67.33,4.73,1.53,1.38,4.48,1.38,4.48a8.77,8.77,0,0,1-7.12,1.59Z"/><path class="cls-40" d="M771.48,545.46l-.35-3.21,4.55,6s-1.91,1-2,.77Z"/><polygon class="cls-53" points="778.29 545.46 782.49 551.88 775.43 551.88 771.48 545.46 778.29 545.46"/><polygon class="cls-54" points="771.48 545.46 771.15 542.28 773.53 545.25 771.48 545.46"/><polygon class="cls-54" points="782.27 551.55 782.6 551.32 778.42 545.12 778.29 545.46 782.27 551.55"/><polygon class="cls-55" points="778.42 545.12 771.77 545.3 771.48 545.46 778.29 545.46 778.42 545.12"/><path class="cls-15" d="M779.81,550.61a2.2,2.2,0,0,1,.45,0c-.51-.23-1-.49-1-.49s.23-.23,1.1.08a.77.77,0,0,0,.3,0l-1.23-.55c.22-.2.81,0,1.26.13a1,1,0,0,0,1-.15h0c-.71-.1-.9-.51-.7-.46s1.4.13,1.4.13a5.66,5.66,0,0,1,1.61.38l-.6,1.11a8.78,8.78,0,0,1-2.17.18l-.13,0h0l-1.57-.11S779.46,550.65,779.81,550.61Z"/><g id="girl_2" data-name="girl 2"><path class="cls-18" d="M714.05,593.66c-.24,0-11.43,6.51-10.56,8.57s15.08-4.6,15.08-4.6Z"/><path class="cls-17" d="M716.21,574.07s-.29-3,5.38-5.33,8.5,1.89,8.81,3.39,3,9.82-3.77,11.1S716.21,574.07,716.21,574.07Z"/><path class="cls-15" d="M716.88,598.29a13.88,13.88,0,0,0,4.83,2.06c7.44,1.72,10.3-4.57,11.37-8.89a6.31,6.31,0,0,0-2.52-.77c-.54-.07-1.11-.11-1.58-.13-.83-.64-2.08-3.26-2.35-7.33l-.35.09-5.87,1.61s.27,1.86.4,3.63a18.87,18.87,0,0,1,.05,2.23c-.46.1-.92,1-.92,1h0A38.7,38.7,0,0,0,716.88,598.29Z"/><path class="cls-18" d="M720.41,584.93s.27,1.86.4,3.63c3.33-.34,4.87-3.5,5.47-5.24Z"/><path class="cls-15" d="M719.42,586.68s7.89-.44,7.54-5.34.44-8.27-4.61-8.2-5.9,2-6.18,3.68S717.36,586.67,719.42,586.68Z"/><path class="cls-17" d="M716.21,574.07c1.11-1.56,2-1.31,2.6-.9a5.51,5.51,0,0,1,7.16.63,9.37,9.37,0,0,0,3.47,5.31s-1.38,1-4.75.38a5.63,5.63,0,0,1-2.81-1.66,18.47,18.47,0,0,0,3.44,3.64c-4.09-1.54-6.07-6.93-6.27-7.5a6.17,6.17,0,0,0-1.55,2.41c-.31,1.28-.61,2.6-1.37,2.57A4.61,4.61,0,0,1,716.21,574.07Z"/><path class="cls-49" d="M735.33,614.33c.71-3.64,3-18.19.71-22.87-.84-1.68-4.11-1.83-7.7-1.69-1.12.73-5.38,3.45-7.13,3.11l-.09,0a1.23,1.23,0,0,1-.26-2.07s-2,.61-4.18,1c-1.25.23-5,2.78-5,2.78a15.48,15.48,0,0,0,4.59,3.31c-.42,3.8.21,5.48,4.15,14.26a16.69,16.69,0,0,1-.45,14.1S739.58,642,739.69,634C739.77,628,734.41,619,735.33,614.33Z"/><path class="cls-56" d="M719,643.42a3.63,3.63,0,0,1-2.62-1.6l-.31-.45c-2.23-3.38-3.1-13.74-8.12-24.76-1.22-2.69-5.61-3.17-6.81-6.2,0,0-3-9.84,5.64-10.13s23,27.37,23.22,30.27S735.67,645.3,719,643.42Z"/><path class="cls-57" d="M684.86,643.19h12.22a5.06,5.06,0,0,0-.34-3.27,2.36,2.36,0,0,1,.09-2.82,4.65,4.65,0,0,1-2.06.39,4.2,4.2,0,0,1-1.82-.64,45.94,45.94,0,0,1-3.48,3.66C688.67,641.08,685.11,640.88,684.86,643.19Z"/><path class="cls-57" d="M734,595.27s1.59,14.48-8.73,17.51-13.24-13.32-4.91-14.49A80.46,80.46,0,0,0,734,595.27Z"/><path class="cls-8" d="M700.85,603.12c-.74,5.52-3.61,22.93-8.68,31.43-1.63,2.74,4.12,4.28,4.15,4.27a9.63,9.63,0,0,0,2.65-2c4.11-3.71,12.47-14.21,12.47-22.63,0-4.11.07-12-2.91-13.94C706.69,599.05,701.14,600.93,700.85,603.12Z"/><path class="cls-21" d="M726.28,643.19s-.45-.63-1.24-1.82a44.1,44.1,0,0,1-3.25-7.82c-1.32-3.77-2.89-8.41-4.86-13.24-.61-1.49-1.25-3-1.94-4.5-1.22-2.68-4.58-2.31-5.78-5.35,0,0-4.67-10.52,3.92-10.81S738,627.8,739,630.55C740,633.56,745,646.08,726.28,643.19Z"/><path class="cls-49" d="M693.83,643.19h12.22a5.06,5.06,0,0,0-.34-3.27,2.36,2.36,0,0,1,.09-2.82,4.65,4.65,0,0,1-2.06.39,4.24,4.24,0,0,1-1.82-.64,44.21,44.21,0,0,1-3.48,3.66C697.64,641.08,694.08,640.88,693.83,643.19Z"/><path class="cls-8" d="M721.79,633.55c-1.32-3.77-2.89-8.41-4.86-13.24.51-3.65,1.62-6.85,3.48-8.14C720.41,612.17,724.93,626.16,721.79,633.55Z"/><path class="cls-21" d="M708,602.73c-.74,5.52-1.78,23.32-6.85,31.82-1.63,2.74,4.12,4.28,4.15,4.27a9.63,9.63,0,0,0,2.65-2c4.12-3.71,12.47-14.21,12.47-22.63,0-4.11-4.82-11.62-7.8-13.61A3,3,0,0,0,708,602.73Z"/><path class="cls-15" d="M733.08,591.46s-17.35,6.39-20,6.26c-1.69-.09-15.69-5-15.69-5l-1.26,2.38s13.63,8.76,17.38,8.72c7.39-.09,19.88-4.63,21.29-5.52S737.17,592.36,733.08,591.46Z"/><path class="cls-15" d="M697.44,592.71s-1.26-1.93-2.51-2-3.42.85-4.16,1-2.84.82-2.21,1.84,3.52,1.26,4.77,1a5.77,5.77,0,0,1,2.85.5Z"/><path class="cls-15" d="M695.27,590.78s-2-.91-2.56-1.08-.46,0-.29.54,1.2,1,1.2,1.22S695.27,590.78,695.27,590.78Z"/><path class="cls-7" d="M717.94,583.86a7.23,7.23,0,0,1,2.85-.13s-.11.82-1.66.9A1.23,1.23,0,0,1,717.94,583.86Z"/><path class="cls-49" d="M724.14,594.61a9.53,9.53,0,0,0,6.88,6s8.8-2.71,4.42-8.71C735.44,591.93,731.11,588.72,724.14,594.61Z"/><path class="cls-17" d="M727.32,569s2-2.86,7.2-1.37,2.56,7.86,4.29,9.64,4,5.46,0,7-7.38,1.79-6.37-3.8.35-11.37-4.53-10.12Z"/></g><g id="girl_2-2" data-name="girl 2"><path class="cls-58" d="M644.51,633.08c.43-1,7-18.2,12.07-18.2,2.73,0,5.16.63,4.59,5.12s-5.59,28.82-8.74,28.47S644.51,633.08,644.51,633.08Z"/><path class="cls-58" d="M662.94,644.93a11.57,11.57,0,0,0-.08,3.13.52.52,0,0,0,.51.41h8.18a.51.51,0,0,0,.45-.76,5.13,5.13,0,0,0-2-2.16,14.51,14.51,0,0,1-2.31-1.25.5.5,0,0,0-.32-.08l-4,.26A.51.51,0,0,0,662.94,644.93Z"/><path class="cls-17" d="M665.29,617.94s2.54,24.53,2.83,26.57c0,0-3.94.79-5.12,0s-6.13-14-6-16.32S665.29,617.94,665.29,617.94Z"/><path class="cls-17" d="M648.6,633.08c.43-1,7-18.2,12.07-18.2,2.72,0,5.16.63,4.58,5.12s-5.59,28.82-8.74,28.47S648.6,633.08,648.6,633.08Z"/><path class="cls-17" d="M629.24,636.63s-2,11.22,6.35,11.84,19.63.49,20.92,0,5.38-10.23-2.33-12.16S629.24,636.63,629.24,636.63Z"/><path class="cls-7" d="M653,621.25c.67-3.46,2.88-17.28.67-21.72-.79-1.6-3.9-1.74-7.31-1.6-1.06.68-5.1,3.27-6.76,3,0,0-14.88,8.71-11.13,17,1.71,3.82,1.1,9.58.17,14.07a7.26,7.26,0,0,0,5.43,8.55c8.94,2.11,20,1,20.08-4.24C654.26,630.56,652.16,625.67,653,621.25Z"/><path class="cls-15" d="M648.87,606.67S656.66,619.43,662,622c0,0,2.47-3.87-2.15-10.42s-6.38-13.42-7.79-12.83S648.87,606.67,648.87,606.67Z"/><path class="cls-15" d="M660.67,614.88s4.26-.07,5.34,1-.43,6.55-4,6.12Z"/><path class="cls-7" d="M651.73,598.22s2.1,0,4,4.5c0,0-2,7.9-6.22,7.2S651.73,598.22,651.73,598.22Z"/><path class="cls-17" d="M644.4,577.66s-5-.95-7.54.88c-4.54,3.31-4.79,14.74-6.49,16.45s-5.8,1-6.17,9.78,1.63,9.55-.75,13.49,1,7.87,1,7.87-1.39-2.18-.79-3.74c0,0,3,4.26,5,5.46a14.17,14.17,0,0,0,14.52.1,3.71,3.71,0,0,1,1.47-.56c1.48-.25,4.59-2.2,3.45-14.56-.62-6.78,3.69-13.56,1.89-16.51a6.54,6.54,0,0,1,.9,2.67,3.52,3.52,0,0,0-.79-4c-1.88-1.93,2.2-5.92,1.59-10.54A7.4,7.4,0,0,0,644.4,577.66Z"/></g><path class="cls-33" d="M68.87,664.9H-72.74a47.21,47.21,0,0,1-44.64-31.83c-.56-1.63-1.09-3.18-1.55-4.59-2.68-8.31-5.64-17.85-8.64-28.39,0,0,23-6.07,48.24,6.77s16.67,33.32,45.24,29.51,73.21-8.57,89,4.77C63.4,648.34,67.19,657.75,68.87,664.9Z"/><path class="cls-33" d="M38,639s9.46-15.23,15.21-13-12.83,13-12.83,13Z"/><path class="cls-33" d="M33.88,635.42s1.66-10.1,5.71-9.63-2,9.63-2,9.63Z"/><path class="cls-33" d="M564.39,595c0,5.76-49.84,10.42-111.31,10.42S341.76,600.73,341.76,595s49.84-10.43,111.32-10.43S564.39,589.21,564.39,595Z"/><path class="cls-59" d="M410.88,595.58s-7.71-4.34-3.47-15.3S421,558.39,440,557s29.51-.37,39.16,6.74,23,17.14,18.91,27.17S426.5,598.91,410.88,595.58Z"/><path class="cls-40" d="M328.5,480.93a8.83,8.83,0,0,0-6,3.63c-1.5,2.25-1.23,7.55-3.26,9.37a4.42,4.42,0,0,0,1,6.94c2.57,1.51,16.18,2.57,20.42-1s-1.47-5.6-1.16-11.66C339.63,485.36,335.65,480.11,328.5,480.93Z"/><path class="cls-50" d="M315.55,540.12a20.52,20.52,0,0,0-2.38,2.75c-.31.69-.76,2.4.79,2.54s2.16-.1,2.38-.84.65-3.19.65-3.19Z"/><path class="cls-15" d="M322.87,504.67s-4,1.09-5.11,6.31-.06,16.38-1.05,19.88-2.24,9.9-2.24,9.9a5,5,0,0,0,2.89,1.06s7.6-11.13,7.67-14.14S322.87,504.67,322.87,504.67Z"/><path class="cls-17" d="M353.12,606.22s2.39,2.18,1.92,3.73-2.62,2.59-2.91,4.48-1.46,2.93-2.51,2.93h-5s-.78-1.33,1.09-1.73,2.57-2.63,2.46-4.7a36.29,36.29,0,0,1,.17-4.83l4-.92Z"/><path class="cls-17" d="M332.86,607.14s.87,9.25-.19,9.77l-13.44,0s0-1.55,2.16-1.89,5.95-1.61,6.59-4.43S332.86,607.14,332.86,607.14Z"/><path class="cls-15" d="M342.45,540.77c-2.77-6.2-4.46-8-4.14-9.91.24-1.43-.73-26.72-.73-26.72-.33-.1-1-.19-1.35-.27a3.39,3.39,0,0,1-2.46-2.15,16.89,16.89,0,0,1-.84-5.7l-.36.07-5.95,1.18s.13,1.87.14,3.64v0a3.44,3.44,0,0,1-2.48,3.32l-1.41.4a55,55,0,0,0-2.6,12.66c-.42,6.42,4,9.21,0,22C316.14,552.46,344,544.2,342.45,540.77Z"/><path class="cls-22" d="M326.62,497.27s.13,1.87.14,3.64c3.33-.1,5.09-3.14,5.81-4.82Z"/><path class="cls-15" d="M325.5,498.94s7.89.13,7.9-4.79,1-8.2-4-8.49-6,1.58-6.42,3.22S323.45,498.78,325.5,498.94Z"/><path class="cls-40" d="M325.79,485.54s2.16,5.76,5.48,6.61,4.75,0,4.75,0a9.4,9.4,0,0,1-3.07-5.55S327.42,482.79,325.79,485.54Z"/><path class="cls-40" d="M326.33,486a4.9,4.9,0,0,0-2.26,1.77,7.88,7.88,0,0,0-1.07,4.51s-1.63-3.92.2-6.13S326.33,486,326.33,486Z"/><path class="cls-48" d="M327.22,495.89a2,2,0,0,1-1.64.66,1.45,1.45,0,0,1-1.21-.8A5.26,5.26,0,0,1,327.22,495.89Z"/><path class="cls-7" d="M341.37,515.33s0,3.74-.23,7.13a22,22,0,0,1-.66,5.08c-.81,1.87-1.72,2.17-1.72,2.17l-7.06,1.73-2.48.61-7.83-2.34s-3.57-10-2.13-15.55a43.23,43.23,0,0,1,3.61-9.49s6.39,6.25,14.71-.53Z"/><path class="cls-8" d="M321.89,531.22s-3.88,12.07-4.13,16.17,7.41,58.36,7.72,60.25,2.5,2.92,2.5,2.92a3.37,3.37,0,0,0,2.48.19,6.06,6.06,0,0,0,2.65-1.25s3-38.69,1.15-52.51a220.83,220.83,0,0,1-1.89-25.77Z"/><path class="cls-21" d="M338.31,530.86s5.91,7.94,6.46,13.3.87,24.2,2,29.43,5.49,15.29,5.49,31.59a3.23,3.23,0,0,1-1.83,1.43,15.2,15.2,0,0,1-1.61.45,2.54,2.54,0,0,1-2.84-1.35c-2.92-5.87-12.21-24.81-12.68-28.74-.34-2.79-3.28-21.2-9.68-32-1.53-2.59.95-12.91.95-12.91Z"/><path class="cls-7" d="M327,496s-.13.58-1.57.49c0,0-1.21-.07-1.18-.71A3.92,3.92,0,0,1,327,496Z"/><path class="cls-17" d="M321.27,529.36a8.08,8.08,0,0,0,4.64,1.29c3.7.08,12.85-.94,12.85-.94a7.84,7.84,0,0,1,.39,2.34s-11.18,2.82-17.65.41A4.07,4.07,0,0,1,321.27,529.36Z"/><rect class="cls-40" x="337.79" y="540.1" width="17.99" height="10.08" transform="translate(-166.71 153.02) rotate(-20.17)"/><path class="cls-60" d="M336.6,543.51s5.45,3.39,10.66,1.21a10.91,10.91,0,0,0,6.23-7.41Z"/><path class="cls-61" d="M339.09,543.5a1,1,0,1,1,.83-1.11A1,1,0,0,1,339.09,543.5Zm-.23-1.62a.65.65,0,1,0,.74.56A.65.65,0,0,0,338.86,541.88Z"/><path class="cls-15" d="M350.1,544.46a8,8,0,0,0,.28,2.11c.27.69,1.09,1.61,1.36,1.61s-.25-1.43-.12-1.41.79,2.39,1.27,2.45.9-2.65.65-3.71a7,7,0,0,0-1.32-2.33Z"/><path class="cls-15" d="M337.58,504.14a9.6,9.6,0,0,1,6.71,5.22c1.82,3.57,3.06,14.82,4.34,18.37a102.81,102.81,0,0,1,3.43,14.46c.07.4.16,1,.16,1l-2.12,1.28c.21.38-.7-1.49-.9-1.93A152.81,152.81,0,0,1,343,526.4a65,65,0,0,0-4.05-8.31c-2.3-3.72-4.09-5.16-2.8-9.34Z"/><path class="cls-50" d="M314.74,541a7.26,7.26,0,0,0-1.77,1.21c-.34.48-1,1.12-.58,1.19s1.48-.74,1.48-.74Z"/><path class="cls-15" d="M313.18,544s1.29-1,2.1-.61a1.48,1.48,0,0,1,.62,1.87c-.25.27-2.28.56-2.82-.15A.7.7,0,0,1,313.18,544Z"/><path class="cls-7" d="M324.28,504.27a20,20,0,0,0,12-.4s4.33.18,6.28,2.44,4.28,8.24,4.28,8.24a9.5,9.5,0,0,1-8.49,4.79c-6.25.09-19.27-4-19.27-4a3.64,3.64,0,0,1-3-.47s1.37-6.51,3.4-8.37A10.39,10.39,0,0,1,324.28,504.27Z"/><path class="cls-62" d="M338.53,541.82c0-.15-3.27-15.9-4.34-24.86a37.39,37.39,0,0,1,0-10.14,7.16,7.16,0,0,1,1.2-3.26l.35.05s-2.13,4.43-1.07,13.29S339,541.57,339,541.72Z"/></svg>