<svg id="Layer_1" data-name="Layer 1" xmlns="http://www.w3.org/2000/svg" viewBox="0 0 533.74 533.74"><defs><style>.cls-1{fill:#36384a;}.cls-2{fill:#fff;}.cls-3{fill:none;stroke:#e62a00;stroke-width:7px;}.cls-3,.cls-8{stroke-miterlimit:10;}.cls-4{fill:#4b4f68;}.cls-5{fill:#979bb4;}.cls-6{fill:#7f7e7c;}.cls-7,.cls-8{fill:#7a7e9f;}.cls-8{stroke:#4b4f68;}</style></defs><path class="cls-1" d="M251.79,474.8c-4.46-2.5-109.66-61.93-134.51-136.68-29.8-89.64-8.74-208.94-7.83-214l1.47-8.16,6.87-4.65c17.39-11.76,67-31.66,142.59-31.66,94.45,0,142.27,30.14,144.26,31.42l6.6,4.26L413.1,123c1.23,5,29.62,124.28-3.79,211.75-34,89.05-134.42,138.48-138.7,140.54l-9.22,4.44Z"/><path class="cls-2" d="M261.87,449.71c-16.79-9.93-99.71-61.39-119.2-120-25.19-75.77-10.42-178.91-7.4-197.76,16.19-9.63,59.55-25.5,125.11-25.5,74.55,0,117.16,20.29,127.38,25.81,4.05,18.46,24.31,120.3-3.45,193C356.92,396.88,277.93,441.29,261.87,449.71Z"/><path class="cls-3" d="M262.21,434.28c-42.44-26.23-93.56-68.86-106.85-108.82-22.1-66.49-12.08-155.61-7.86-184.91,18.09-8.8,57.21-20.75,112.88-20.75,62,0,100.92,14.71,115.61,21.52,5.71,28.55,20,115.9-4.18,179.1C348.8,380.66,285.83,420.91,262.21,434.28Z"/><polygon class="cls-4" points="219.87 319.54 199.15 319.54 201.25 243.76 217.78 243.76 219.87 319.54"/><polygon class="cls-5" points="202.82 319.54 202.04 319.54 203.09 243.76 203.87 243.76 202.82 319.54"/><rect class="cls-5" x="205.85" y="243.76" width="0.79" height="75.78"/><polygon class="cls-5" points="216.44 319.54 217.23 319.54 216.18 243.76 215.39 243.76 216.44 319.54"/><rect class="cls-5" x="212.63" y="243.76" width="0.79" height="75.78"/><rect class="cls-5" x="209.12" y="243.76" width="0.79" height="75.78"/><rect class="cls-5" x="196.88" y="319.26" width="25.53" height="3.15"/><polygon class="cls-4" points="255.75 319.54 235.03 319.54 237.13 243.76 253.66 243.76 255.75 319.54"/><polygon class="cls-5" points="238.7 319.54 237.92 319.54 238.97 243.76 239.75 243.76 238.7 319.54"/><rect class="cls-5" x="241.73" y="243.76" width="0.79" height="75.78"/><polygon class="cls-5" points="252.32 319.54 253.11 319.54 252.06 243.76 251.27 243.76 252.32 319.54"/><rect class="cls-5" x="248.51" y="243.76" width="0.79" height="75.78"/><rect class="cls-5" x="245" y="243.76" width="0.79" height="75.78"/><rect class="cls-5" x="232.76" y="319.26" width="25.53" height="3.15"/><rect class="cls-6" x="236.62" y="242.5" width="17.44" height="1.26"/><rect class="cls-5" x="232.63" y="236.58" width="25.53" height="5.92"/><rect class="cls-6" x="272.55" y="242.51" width="17.44" height="1.26"/><rect class="cls-5" x="268.51" y="236.59" width="25.53" height="5.92"/><rect class="cls-6" x="308.38" y="242.51" width="17.44" height="1.26"/><rect class="cls-5" x="304.39" y="236.59" width="25.53" height="5.92"/><rect class="cls-6" x="200.74" y="242.5" width="17.44" height="1.26"/><rect class="cls-5" x="196.75" y="236.58" width="25.53" height="5.92"/><polygon class="cls-4" points="291.63 319.26 270.91 319.26 273.01 243.76 289.54 243.76 291.63 319.26"/><polygon class="cls-5" points="274.59 319.26 273.8 319.26 274.85 243.76 275.63 243.76 274.59 319.26"/><rect class="cls-5" x="277.61" y="243.76" width="0.79" height="75.5"/><polygon class="cls-5" points="288.2 319.26 288.99 319.26 287.94 243.76 287.15 243.76 288.2 319.26"/><rect class="cls-5" x="284.39" y="243.76" width="0.79" height="75.5"/><rect class="cls-5" x="280.88" y="243.76" width="0.79" height="75.5"/><rect class="cls-5" x="268.64" y="319.26" width="25.53" height="3.15"/><rect class="cls-4" x="270.21" y="318.28" width="22.14" height="0.98"/><rect class="cls-4" x="234.32" y="318.28" width="22.14" height="0.98"/><rect class="cls-4" x="198.57" y="318.28" width="22.14" height="0.98"/><polygon class="cls-4" points="327.51 319.28 306.79 319.28 308.89 243.76 325.42 243.76 327.51 319.28"/><polygon class="cls-5" points="310.47 319.28 309.68 319.28 310.73 243.76 311.51 243.76 310.47 319.28"/><rect class="cls-5" x="313.49" y="243.76" width="0.79" height="75.52"/><polygon class="cls-5" points="324.08 319.28 324.87 319.28 323.82 243.76 323.03 243.76 324.08 319.28"/><rect class="cls-5" x="320.27" y="243.76" width="0.79" height="75.52"/><rect class="cls-5" x="316.76" y="243.76" width="0.79" height="75.52"/><rect class="cls-5" x="304.52" y="319.26" width="25.53" height="3.15"/><rect class="cls-4" x="196.88" y="323.46" width="133.17" height="5.77"/><rect class="cls-7" x="196.88" y="224.35" width="133.17" height="10.73"/><polygon class="cls-4" points="331.82 236.79 195.04 236.79 196.88 235.09 330.05 235.09 331.82 236.79"/><polygon class="cls-4" points="331.85 324.12 195.08 324.12 196.91 322.41 330.08 322.41 331.85 324.12"/><polygon class="cls-1" points="332.15 224.35 194.89 224.38 196.88 222.85 330.02 222.85 332.15 224.35"/><polygon class="cls-4" points="330.05 222.85 196.88 222.85 263.46 170.67 330.05 222.85"/><polygon class="cls-8" points="216.54 216.93 263.6 178.81 310.65 216.93 216.54 216.93"/><rect class="cls-5" x="232.76" y="324.11" width="61.67" height="5.12"/><rect class="cls-4" x="196.88" y="328.71" width="133.17" height="5.77"/><polygon class="cls-4" points="331.85 330.41 195.08 330.41 196.91 328.7 330.08 328.7 331.85 330.41"/><rect class="cls-5" x="228.75" y="330.41" width="70.3" height="4.07"/><rect class="cls-4" x="306.08" y="318.28" width="22.14" height="0.98"/><rect class="cls-4" x="196.88" y="334.48" width="133.17" height="1.92"/></svg>