<svg id="Layer_1" data-name="Layer 1" xmlns="http://www.w3.org/2000/svg" viewBox="0 0 857.74 662.74"><defs><style>.cls-1{fill:#b32100;}.cls-2{fill:#e62a00;}.cls-3{fill:#6f89d1;}.cls-4{fill:#fff;}.cls-5{fill:#aacaf9;}.cls-6{fill:#7fa8e6;}.cls-7{fill:#36384a;}.cls-8{fill:#7a7e9f;}.cls-9{fill:#4b4f68;}.cls-10{fill:#ffeae5;}.cls-11{fill:#ff6d4d;}.cls-12{fill:#f5fbfb;}.cls-13{fill:#e8eaea;}.cls-14{fill:#a33d64;}.cls-15{fill:#979bb4;}.cls-16{fill:#f0f6ff;}.cls-17{fill:#ff9780;}.cls-18{fill:#27debf;}.cls-19{fill:#ffc0b3;opacity:0.5;}.cls-20{fill:#2d2979;}.cls-21{fill:#b56d50;}.cls-22{fill:#c4d9ff;}.cls-23{fill:#8e5542;}.cls-24{fill:#543354;}.cls-25{fill:#c1cff4;}.cls-26{fill:#20222c;}.cls-27{fill:#b5755e;}.cls-28{fill:#313135;}.cls-29{fill:#e94372;}.cls-30{fill:#14a589;}.cls-31{fill:#b44c65;}.cls-32{fill:#6d293d;}.cls-33{fill:#aa1f09;}.cls-34{fill:#ffa8a7;}.cls-35{fill:#e5553e;}.cls-36{fill:#f28f8f;}</style></defs><path class="cls-1" d="M490.55,33.6V56.48h0c0,1.53,1,3.05,3,4.21a16.12,16.12,0,0,0,14.57,0c2-1.16,3-2.68,3-4.21h0V33.6Z"/><path class="cls-2" d="M511.16,33.6s-2.22,2.83-10.31,2.83-10.3-2.83-10.3-2.83a10.31,10.31,0,1,1,20.61,0Z"/><polygon class="cls-3" points="348.35 151.24 261.91 201.48 261.91 366.91 348.35 316.69 348.35 151.24"/><path class="cls-4" d="M264.69,204.23l83.66-48.3q6.47,7.51,19.12,10.52l-82.94,48.09S279.17,213.28,264.69,204.23Z"/><path class="cls-5" d="M292.57,214.25a17.79,17.79,0,0,1-16.08,0l-14.09-8.13c-4.43-2.56-4.43-6.72,0-9.28l82.45-47.6,3.5,2-81.09,47.12c-2.67,1.53-2.66,4,0,5.56l13.09,7.47a10.66,10.66,0,0,0,9.65,0l81.06-47,3.95,2.28Z"/><path class="cls-3" d="M375,166.65V332.08l-82.44,47.6a17.79,17.79,0,0,1-16.08,0l-14.09-8.13c-2.21-1.28-3.32-2.95-3.32-4.64V201.47c0,1.69,1.11,3.36,3.32,4.64l14.09,8.15a17.79,17.79,0,0,0,16.08,0Z"/><path class="cls-6" d="M284.53,216.18a16.45,16.45,0,0,1-8-1.92l-14.09-8.15c-2.21-1.28-3.32-3-3.32-4.64V366.91c0,1.69,1.11,3.36,3.32,4.64l14.09,8.13a16.45,16.45,0,0,0,8,1.92Z"/><polygon class="cls-7" points="383.7 171.73 297.26 221.97 297.26 387.4 383.7 337.18 383.7 171.73"/><path class="cls-4" d="M300,224.72l83.66-48.3q6.46,7.52,19.13,10.52L319.88,235S314.52,233.77,300,224.72Z"/><path class="cls-8" d="M327.92,234.74a17.73,17.73,0,0,1-16.08,0l-14.08-8.13c-4.44-2.56-4.44-6.72,0-9.28l82.44-47.6,3.5,2-81.09,47.12c-2.66,1.54-2.66,4,0,5.56l13.09,7.47a10.66,10.66,0,0,0,9.65,0l81.06-47,4,2.28Z"/><path class="cls-7" d="M410.36,187.14V352.57l-82.44,47.6a17.79,17.79,0,0,1-16.08,0L297.75,392c-2.21-1.28-3.32-3-3.32-4.64V222c0,1.69,1.11,3.36,3.32,4.64l14.09,8.15a17.79,17.79,0,0,0,16.08,0Z"/><path class="cls-9" d="M319.88,236.67a16.45,16.45,0,0,1-8-1.92l-14.09-8.15c-2.21-1.28-3.32-2.95-3.32-4.64V387.4c0,1.69,1.11,3.36,3.32,4.64l14.09,8.13a16.45,16.45,0,0,0,8,1.92Z"/><polygon class="cls-10" points="455.61 578.91 288.03 675.58 0.59 675.58 312.34 496.19 455.61 578.91"/><polygon class="cls-11" points="583.8 339.46 500.85 291.57 583.8 243.69 666.75 291.57 583.8 339.46"/><polygon class="cls-11" points="417.91 243.69 334.96 195.79 417.91 147.91 500.85 195.8 417.91 243.69"/><polygon class="cls-12" points="583.8 557.14 334.96 413.47 334.96 195.79 417.91 243.69 417.91 174.03 500.86 221.92 500.85 291.57 583.8 339.46 583.8 557.14"/><polygon class="cls-1" points="417.91 452.65 500.85 500.54 500.85 430.89 417.91 382.97 417.91 452.65"/><polygon class="cls-13" points="583.8 557.14 583.8 339.46 666.75 291.57 666.75 509.25 583.8 557.14"/><polygon class="cls-11" points="500.86 221.92 417.91 174.03 500.85 126.14 583.8 174.03 500.86 221.92"/><polygon class="cls-13" points="500.86 221.92 583.8 174.03 583.8 243.69 500.85 291.57 500.86 221.92"/><path class="cls-1" d="M459.38,217.09c11.24,6.49,20.36,22.28,20.36,35.26s-9.12,18.25-20.36,11.76S439,241.83,439,228.84,448.14,210.6,459.38,217.09Z"/><polygon class="cls-1" points="568.72 364.37 553.64 355.67 553.64 399.2 568.72 407.91 568.72 364.37"/><polygon class="cls-1" points="538.56 346.96 523.48 338.25 523.48 381.79 538.56 390.5 538.56 346.96"/><polygon class="cls-1" points="395.29 264.24 380.2 255.54 380.21 299.07 395.29 307.78 395.29 264.24"/><polygon class="cls-1" points="365.13 246.83 350.04 238.12 350.04 281.66 365.13 290.37 365.13 246.83"/><polygon class="cls-1" points="568.72 465.96 553.64 457.25 553.64 500.79 568.72 509.49 568.72 465.96"/><polygon class="cls-1" points="538.56 448.54 523.48 439.84 523.48 483.37 538.56 492.08 538.56 448.54"/><polygon class="cls-14" points="395.29 365.83 380.2 357.12 380.21 400.65 395.29 409.36 395.29 365.83"/><polygon class="cls-1" points="365.13 348.41 350.04 339.7 350.04 383.24 365.13 391.95 365.13 348.41"/><polygon class="cls-9" points="523.48 513.61 523.48 522.31 455.61 561.49 455.61 552.79 523.48 513.61"/><polygon class="cls-15" points="523.48 513.61 395.29 439.6 327.42 478.78 455.61 552.79 523.48 513.61"/><polygon class="cls-8" points="327.42 487.48 455.61 561.49 455.61 552.79 327.42 478.78 327.42 487.48"/><polygon class="cls-15" points="523.48 522.31 531.02 526.67 455.61 570.2 312.34 487.48 327.42 478.78 327.42 487.48 455.61 561.49 523.48 522.31"/><polygon class="cls-9" points="531.02 535.37 531.02 526.67 455.61 570.2 455.61 578.91 531.02 535.37"/><polygon class="cls-8" points="312.34 487.48 312.34 496.19 455.61 578.91 455.61 570.2 312.34 487.48"/><path class="cls-16" d="M460.94,539.73V457H450.28v82.72h0a2.65,2.65,0,0,0,1.56,2.17,8.28,8.28,0,0,0,7.54,0A2.65,2.65,0,0,0,460.94,539.73Z"/><path class="cls-16" d="M438.32,526.65V443.94H427.66v82.71h0a2.65,2.65,0,0,0,1.56,2.18,8.35,8.35,0,0,0,7.54,0A2.65,2.65,0,0,0,438.32,526.65Z"/><path class="cls-16" d="M483.56,526.65V443.94H472.9v82.71h0a2.65,2.65,0,0,0,1.56,2.18,8.35,8.35,0,0,0,7.54,0A2.65,2.65,0,0,0,483.56,526.65Z"/><path class="cls-16" d="M506.19,513.58V430.86H495.52v82.72h0a2.65,2.65,0,0,0,1.56,2.18,8.35,8.35,0,0,0,7.54,0A2.64,2.64,0,0,0,506.19,513.58Z"/><path class="cls-16" d="M355.38,478.76V396.05H344.71v82.71h0a2.65,2.65,0,0,0,1.56,2.18,8.35,8.35,0,0,0,7.54,0A2.64,2.64,0,0,0,355.38,478.76Z"/><path class="cls-16" d="M378,492.47V409.76H367.33v82.71h0a2.64,2.64,0,0,0,1.57,2.18,8.35,8.35,0,0,0,7.54,0A2.65,2.65,0,0,0,378,492.47Z"/><path class="cls-16" d="M400.62,452.62V369.9H390v82.72h0a2.68,2.68,0,0,0,1.57,2.18,8.35,8.35,0,0,0,7.54,0A2.66,2.66,0,0,0,400.62,452.62Z"/><path class="cls-12" d="M459.38,93.45v78.73h0c0,6.13,4.05,12.26,12.15,16.93,16.19,9.35,42.45,9.35,58.65,0,8.1-4.67,12.15-10.8,12.15-16.93h0V93.45Z"/><path class="cls-11" d="M542.33,93.45s-8.94,14.23-41.48,14.23-41.47-14.23-41.47-14.23a41.48,41.48,0,0,1,83,0Z"/><path class="cls-1" d="M497.08,123.52v54.26a63.22,63.22,0,0,0,7.54,0V123.52c-1.21,0-2.48.07-3.77.07S498.3,123.57,497.08,123.52Z"/><path class="cls-1" d="M513.18,176.94a53.56,53.56,0,0,0,7.53-1.7V121.93c-2.26.43-4.76.77-7.53,1Z"/><path class="cls-1" d="M481,175.23a52.21,52.21,0,0,0,7.53,1.71V123c-2.77-.25-5.27-.59-7.53-1Z"/><path class="cls-1" d="M466.76,167.43a29.42,29.42,0,0,0,4.6,3.26c.94.54,1.93,1,2.94,1.51V119.7a41.15,41.15,0,0,1-7.54-2.93Z"/><path class="cls-1" d="M527.41,172.2c1-.47,2-1,2.94-1.51a29.9,29.9,0,0,0,4.6-3.26V116.77a41.27,41.27,0,0,1-7.54,2.91Z"/><polygon class="cls-2" points="455.61 448.3 387.75 350.18 327.42 374.29 455.61 448.3"/><polygon class="cls-2" points="455.61 448.3 455.61 465.71 523.48 426.53 523.48 409.12 455.61 448.3"/><polygon class="cls-2" points="455.61 457.01 455.61 465.71 526.57 424.67 526.57 415.97 455.61 457.01"/><polygon class="cls-2" points="324.39 381.24 324.39 389.95 455.61 465.71 455.61 457.01 324.39 381.24"/><polygon class="cls-11" points="327.42 374.29 327.42 383 455.61 457.01 455.61 448.3 327.42 374.29"/><polygon class="cls-11" points="523.48 409.12 455.61 448.3 387.75 350.18 327.42 374.29 455.61 312.21 523.48 409.12"/><polygon class="cls-2" points="500.85 291.57 500.85 296.44 583.8 344.43 583.8 339.46 500.85 291.57"/><polygon class="cls-2" points="417.91 174.03 417.91 178.9 500.85 226.89 500.85 221.92 417.91 174.03"/><polygon class="cls-2" points="334.96 195.8 334.96 200.66 417.91 248.66 417.91 243.69 334.96 195.8"/><polygon class="cls-2" points="666.75 291.57 666.75 296.44 583.8 344.43 583.8 339.46 666.75 291.57"/><polygon class="cls-2" points="583.8 174.03 583.8 178.9 500.85 226.89 500.85 221.92 583.8 174.03"/><polygon class="cls-17" points="324.39 381.24 327.42 379.33 455.61 452.97 455.61 457.01 324.39 381.24"/><polygon class="cls-11" points="455.61 457.01 455.61 452.97 523.48 414.04 526.57 415.97 455.61 457.01"/><polygon class="cls-7" points="692.86 350.18 606.42 400.41 606.42 565.85 692.86 515.62 692.86 350.18"/><path class="cls-4" d="M609.2,403.16l83.66-48.3q6.46,7.51,19.13,10.52l-83,48.09S623.68,412.21,609.2,403.16Z"/><path class="cls-8" d="M637.08,413.19a17.79,17.79,0,0,1-16.08,0l-14.08-8.14c-4.44-2.56-4.44-6.72,0-9.28l82.45-47.6,3.49,2-81.09,47.11c-2.66,1.54-2.66,4,0,5.57l13.1,7.47a10.67,10.67,0,0,0,9.64,0l81.06-47,4,2.28Z"/><path class="cls-7" d="M719.52,365.58V531l-82.44,47.59c-4.44,2.57-11.64,2.57-16.07,0l-14.09-8.13c-2.21-1.28-3.33-3-3.33-4.64V400.4c0,1.69,1.12,3.36,3.33,4.65L621,413.19c4.43,2.57,11.63,2.57,16.07,0Z"/><path class="cls-9" d="M629,415.12a16.28,16.28,0,0,1-8-1.93l-14.09-8.14c-2.21-1.29-3.33-3-3.33-4.65V565.84c0,1.69,1.12,3.36,3.33,4.64L621,578.61a16.39,16.39,0,0,0,8,1.92Z"/><polygon class="cls-3" points="728.21 370.59 641.77 420.83 641.77 586.26 728.21 536.04 728.21 370.59"/><path class="cls-4" d="M644.55,423.58l83.66-48.3q6.46,7.52,19.13,10.52l-83,48.09S659,432.63,644.55,423.58Z"/><path class="cls-5" d="M672.43,433.6a17.79,17.79,0,0,1-16.08,0l-14.08-8.13c-4.44-2.56-4.44-6.72,0-9.28l82.45-47.6,3.49,2-81.09,47.12c-2.66,1.53-2.66,4,0,5.56l13.1,7.47a10.63,10.63,0,0,0,9.64,0l81.06-47,4,2.28Z"/><path class="cls-3" d="M754.87,386V551.43L672.43,599c-4.44,2.56-11.64,2.56-16.07,0l-14.09-8.13c-2.21-1.28-3.33-2.95-3.33-4.64V420.82c0,1.69,1.12,3.36,3.33,4.64l14.09,8.15c4.43,2.56,11.63,2.56,16.07,0Z"/><path class="cls-6" d="M664.39,435.53a16.39,16.39,0,0,1-8-1.92l-14.09-8.15c-2.21-1.28-3.33-2.95-3.33-4.64V586.26c0,1.69,1.12,3.36,3.33,4.64L656.36,599a16.39,16.39,0,0,0,8,1.92Z"/><path class="cls-9" d="M791.1,585.55v-74H780.44v74h0a2.64,2.64,0,0,0,1.56,2.17,8.28,8.28,0,0,0,7.54,0A2.65,2.65,0,0,0,791.1,585.55Z"/><path class="cls-18" d="M768,545.3c0-11.82,12-70,17.76-70s17.76,58.2,17.76,70-7.95,21.41-17.76,21.41S768,557.12,768,545.3Z"/><path class="cls-9" d="M829.57,618.53v-74H818.91v74h0a2.66,2.66,0,0,0,1.56,2.18,8.35,8.35,0,0,0,7.54,0A2.66,2.66,0,0,0,829.57,618.53Z"/><path class="cls-18" d="M806.48,578.28c0-11.82,12-70,17.76-70s17.76,58.2,17.76,70-8,21.41-17.76,21.41S806.48,590.1,806.48,578.28Z"/><path class="cls-9" d="M242.26,360.29v-74H231.6v74h0a2.65,2.65,0,0,0,1.56,2.18,8.35,8.35,0,0,0,7.54,0A2.65,2.65,0,0,0,242.26,360.29Z"/><path class="cls-18" d="M219.17,320.05c0-11.82,12-70,17.76-70s17.76,58.2,17.76,70-7.95,21.4-17.76,21.4S219.17,331.87,219.17,320.05Z"/><path class="cls-19" d="M251.51,603.08c0,5.93-8.32,10.73-18.6,10.73S214.3,609,214.3,603.08s8.33-10.74,18.61-10.74S251.51,597.15,251.51,603.08Z"/><path class="cls-20" d="M240.36,593.67a12.37,12.37,0,0,0,1.2.93,6.33,6.33,0,0,1,1.71,1.61,3.19,3.19,0,0,1-.75,2.58,5.4,5.4,0,0,0-.91,3,5,5,0,0,1-1.9,3.57c-1,.7-2.2,1.38-2.74,1.21s-.6-.85.1-3.88,1.25-5,.73-6.75Z"/><path class="cls-6" d="M224.15,554.14l7.82,9.23h-.22l-1.67,13.27a11.66,11.66,0,0,1,3.32,3.41c1.41,2.15,7,13.62,7,13.62s-.66,2.55-2.56,2.3c0,0-3-3.69-6.12-7.72-3.47-4.43-7.2-9.27-7.53-10.1C223.51,576.57,224.15,554.14,224.15,554.14Z"/><path class="cls-3" d="M232,563.37a21.42,21.42,0,0,1-4.92-3.11s2.07,2.49,2.79,3.39c1,1.31.35,12.13.35,12.13Z"/><path class="cls-3" d="M233.4,580.05c1.41,2.15,7,13.62,7,13.62s-.66,2.55-2.56,2.3c0,0-3-3.69-6.12-7.72Z"/><path class="cls-21" d="M213,554a17.48,17.48,0,0,1,2.39-.76,8.12,8.12,0,0,0,2.36-.62c.81-.37,2.58-2.83,3.94-5a21,21,0,0,0,2.79-7.89c.18-2.9.05-8.73.2-10.75a3.18,3.18,0,0,1,2-3.14c1.26-.58,2.27-.32,2.4,2.59a56,56,0,0,1-.65,12.41,27.18,27.18,0,0,1-3.36,8.21A31.23,31.23,0,0,1,220.3,555c-.52.54-.78,1.07-1.65,2.21a9,9,0,0,1-3.28,2.72c-1.12.45-1.59.44-1.78.26s-.12-.53.37-.79a7.4,7.4,0,0,0,2.16-1.5s-1,.64-1.69,1a7.11,7.11,0,0,1-1.84.64c-.61.11-1.27-.55-.79-.83s.93-.37,1.89-.86a7.45,7.45,0,0,0,1.43-1,14.26,14.26,0,0,1-2,.72,3.06,3.06,0,0,1-1.72.05c-.29-.08-.55-.58.1-.85a10.93,10.93,0,0,0,2.45-.93c.75-.46,1.22-.89,1.05-.94s-.59.25-1.36.3-1.48-.33-1.48-.74S212.28,554.2,213,554Z"/><path class="cls-22" d="M227.2,525.53a3.29,3.29,0,0,0-2.65,3,79.78,79.78,0,0,0-.28,8.19,4.83,4.83,0,0,0,5.38.24,62.42,62.42,0,0,0,0-9.2C229.35,525.57,227.9,525.32,227.2,525.53Z"/><path class="cls-20" d="M233.22,602.41a12.83,12.83,0,0,0-2.25-2.58,10.78,10.78,0,0,0-1.41-.36,7.29,7.29,0,0,1-1.25-.4,17.32,17.32,0,0,1-2.25-1.68,4.19,4.19,0,0,0-1-.69c-.64-.27-1.16-.39-1.55.3a2.22,2.22,0,0,0-.23.7,4.41,4.41,0,0,0,1,3.93c.44.45,1.06.86,1.53,1.27a15.65,15.65,0,0,1,2.12,1.75c.92,1.19,1.76,2.37,3.45,2.07a2,2,0,0,0,1.6-1C233.42,604.93,233,603.21,233.22,602.41Z"/><path class="cls-6" d="M224.15,554.14,241,555.65c.45,2.85-.17,9.51-1.36,14.72-1.31,5.69-3.08,11.34-3.08,11.34a12.23,12.23,0,0,1,.1,6.79c-1.21,4-3.49,14.58-3.49,14.58a6.75,6.75,0,0,0-3.57-3.61s.59-5.31.94-9.35.55-7.38.69-9.88c.2-4,.78-16.87.78-16.87h-.22s-6.62-3.42-7.64-7.83Z"/><path class="cls-21" d="M236.17,524.16s-.19,3.85-.11,4.19,1.77,1.47,2.26,1.88-2.66,3.51-4.2,4.22-6.39-1.15-6.47-3.54.83-4.39,1.57-4.5S236.17,524.16,236.17,524.16Z"/><path class="cls-23" d="M229.84,528.57c-.5-.46.08-1.47.43-2.17,1.59-.48,5.9-2.24,5.9-2.24s0,.89-.07,1.51h0a2.5,2.5,0,0,1-1,1.89,7.08,7.08,0,0,1-1.71,1C232.72,528.81,231,529.62,229.84,528.57Z"/><path class="cls-12" d="M236.61,528.93s-2.77,4.86-6,3.28-2-4.25-.33-5.63c0,0-1.56-1.26-2.63-1a5.55,5.55,0,0,0-2.41,3.08,25,25,0,0,0-1.37,8.91c.06,4.09.11,16.59.11,16.59s.06,2.23,3.92,3.92a13.07,13.07,0,0,0,9,.65,7.88,7.88,0,0,0,4.05-3.06c-.18-2.87-1.66-8.25-1.18-11.85s1.23-6.29,1.43-9.2.3-3-1.25-3.89A27.64,27.64,0,0,0,236.61,528.93Z"/><path class="cls-22" d="M236.45,528.79a8.45,8.45,0,0,1-2.33,2.53,3.72,3.72,0,0,1-4.09.18c-1.18-.83-1.93-2.63.39-4.87l-.6-.27a7.12,7.12,0,0,0-1.42,2.25,3,3,0,0,0,1.25,3.52,4.22,4.22,0,0,0,4.85-.15,10.48,10.48,0,0,0,2.67-2.8Z"/><path class="cls-21" d="M227.46,518.42h0c.46-3,2.61-5.26,5.69-5.09a5.94,5.94,0,0,1,5.61,6.27,5.87,5.87,0,0,1-2.59,4.56,6.26,6.26,0,0,1-.47,1.31c-1.09,1.27-4.39,2.06-5.34,1.92a2.82,2.82,0,0,1-2.46-2C226.88,523,227.2,519.9,227.46,518.42Z"/><path class="cls-24" d="M227.9,516a5.89,5.89,0,0,1,6.17-2.56,6,6,0,0,1,4.68,5.26,5.9,5.9,0,0,1-2.58,5.45c.07-.2,1.62-2.53,0-3a2,2,0,0,0-.33,1.22s-.79-.08-.62-1l.14-.71a2.75,2.75,0,0,0-.45-2.06,2.35,2.35,0,0,1-.42-1.94A8,8,0,0,1,230,517,4.21,4.21,0,0,1,227.9,516Z"/><path class="cls-24" d="M230.51,513c4.26-1.55,6.8,1.1,7.25,3l-3.25.67s-.56,1.48-3.49,2.24a7.73,7.73,0,0,1-4.48.15S226.8,514.32,230.51,513Z"/><path class="cls-21" d="M238.58,563.62a21.84,21.84,0,0,1,1.88-1.68,4.46,4.46,0,0,0,1.6-1.5c.54-.8,1.11-3.52,1.38-6.1a25.39,25.39,0,0,0-.86-8.61c-1.05-3.33-3.28-7.82-4-9.71a3.2,3.2,0,0,1,.5-3.72c.89-1.07,2.44-1,3.81,1.57a53.42,53.42,0,0,1,4.21,11.23,26.91,26.91,0,0,1,.49,8.85,31.82,31.82,0,0,1-1.84,7.43c-.24.71-.25,1.3-.55,2.71A8.85,8.85,0,0,1,243.4,568c-.82.89-1.25,1.09-1.5,1s-.33-.42,0-.87a7.31,7.31,0,0,0,1.3-2.28s-.66,1-1.11,1.59a7,7,0,0,1-1.38,1.36c-.51.37-1.39.06-1.08-.4s.69-.74,1.34-1.6a7,7,0,0,0,.88-1.47,12.93,12.93,0,0,1-1.54,1.52,3,3,0,0,1-1.52.78c-.3,0-.75-.28-.28-.8a11.28,11.28,0,0,0,1.82-1.9c.48-.73.72-1.32.54-1.3s-.43.48-1.09.86-1.49.34-1.66,0S238,564.09,238.58,563.62Z"/><path class="cls-22" d="M238.77,531.87c1.17-.92,2.76-.83,4.11,1.46a69.75,69.75,0,0,1,3.31,7.31s-.94,3-4.94,2.92c0,0-1.73-4-2.59-5.78S237.12,533.19,238.77,531.87Z"/><path class="cls-21" d="M236.17,524.14s.14.31.72.34c1.08.06,2.35-2,1.48-3.32a1.42,1.42,0,0,0-2.18,0Z"/><ellipse class="cls-25" cx="43.98" cy="548.43" rx="24.66" ry="14.23"/><path class="cls-26" d="M37.06,499.6a3,3,0,0,0-2.46-.68c-2.51.3-3.07,2.56-3,7.35s-.06,7-.32,8,2,3.53,4.42,2.47S37.06,499.6,37.06,499.6Z"/><path class="cls-26" d="M40.32,499.55a3.68,3.68,0,0,1,3,.48c1.66,1,3.43,4.29,1.07,6.8S38.32,502.16,40.32,499.55Z"/><path class="cls-27" d="M65.48,527.28a18.35,18.35,0,0,0-2.31.73c-.82.42-1.36.91-2.21.83a16.13,16.13,0,0,1-9.72-4.62,57.1,57.1,0,0,1-6.1-8.08c-1-1.76-2.25-2-3.38-1.78-1.32.25-1.85,1.07-.33,3.44A52.9,52.9,0,0,0,48.84,527a22.91,22.91,0,0,0,11.1,5.37,17.23,17.23,0,0,1,2.86.55,8.48,8.48,0,0,0,4.1.31c1.13-.26,1.5-.54,1.55-.79s-.21-.47-.74-.41a7.07,7.07,0,0,1-2.53,0s1.17-.07,1.87-.18a6.94,6.94,0,0,0,1.79-.53c.55-.25.71-1.14.17-1.09s-.94.23-2,.38a7,7,0,0,1-1.65,0,13.35,13.35,0,0,0,2-.58,2.92,2.92,0,0,0,1.38-.91c.18-.23.11-.76-.55-.62a10.21,10.21,0,0,1-2.45.64c-.85.06-1.46,0-1.36-.16s.61-.13,1.24-.52,1-1.09.75-1.41S66.16,527,65.48,527.28Z"/><path class="cls-12" d="M40.44,515.09a2.14,2.14,0,0,1,2.4-.91,3.9,3.9,0,0,1,2.45,1.66c.51.6,3.06,4.14,3.06,4.14s-1.74,2.63-4.32,2.33a54.46,54.46,0,0,1-3.3-5.33C40.27,515.79,40.23,515.55,40.44,515.09Z"/><path class="cls-9" d="M25.6,554.18c-2.07-1.26-1.23-3.87.28-7.06A66.07,66.07,0,0,1,31.46,538l14.32-3.79s15.31-.21,16.83,2.92c1.22,2.51-6.32,5.08-7.87,5.23l-10.65,1.05-3.5,1.13L30.73,553Z"/><path class="cls-28" d="M37.79,560.8a3.75,3.75,0,0,0,1,2.84A10.69,10.69,0,0,0,40,564.8c.43.39,1.32.74,1.77.17a1.21,1.21,0,0,0,.19-.65c.13-1.52.17-3.05.4-4.56A11.54,11.54,0,0,1,44,554.6l-2.66-2.39c-.21.22-.56.47-.86.72a11.09,11.09,0,0,1-1,.7A3.26,3.26,0,0,0,38,555.41a4.88,4.88,0,0,0,.17,1.85A13.32,13.32,0,0,1,37.79,560.8Z"/><path class="cls-9" d="M52.94,538.75a40.58,40.58,0,0,0-3.66,3.54c-3.1,3.62-8.08,10.19-8.08,10.19s.48,2.28,2.57,2.37c0,0,15.52-12.1,16.81-13.23,1.94-1.71,3.64-4.68.6-5.21S54.25,537.59,52.94,538.75Z"/><path class="cls-28" d="M60,548.46a3.8,3.8,0,0,1,2,2.24,10.71,10.71,0,0,1,.45,1.59c.14.56,0,1.51-.7,1.63a1.11,1.11,0,0,1-.66-.15c-1.4-.61-2.76-1.31-4.2-1.84a11.61,11.61,0,0,0-5.32-1l-.81-3.48c.29-.08.68-.26,1-.41s.72-.34,1.08-.52a3.23,3.23,0,0,1,2.28-.46,5,5,0,0,1,1.54,1A13.36,13.36,0,0,0,60,548.46Z"/><path class="cls-9" d="M27.46,550a21.74,21.74,0,0,1,9-1.6c6.09,0,14.31-1,14.31-1a4,4,0,0,1,.77,3.5S40.49,555.1,37,555.43c-5.54.53-7.67.59-10.29-.58S23.2,551.15,27.46,550Z"/><path class="cls-27" d="M35.47,510.17s.26,4.66.18,5-1.83.67-2.32,1.07,2.51,5.14,4,5.84,6.3-1.07,6.63-3.43c.32-2.18-1.56-3.84-2.2-4.43a5.67,5.67,0,0,0-1.1-.08l-.13-2.25C38.49,511.22,35.47,510.17,35.47,510.17Z"/><path class="cls-22" d="M34.82,515.62c-1.31.19-2.81.89-3,1.6a15.51,15.51,0,0,0,.35,7.77c1.13,3,2.22,3.92,2.33,6.22,0,0,5.71,1.65,10.28-1.16a31,31,0,0,0,.49-4.16c4-3.42,1.06-7.63-2.25-11a2.31,2.31,0,0,0-1.71-.71h-.24A13.73,13.73,0,0,1,42.84,517c.59,1.35.51,3-.67,3.34-2,.62-3.08-.34-4.47-1.85C36.74,517.46,36.33,516.47,34.82,515.62Z"/><path class="cls-23" d="M40.68,513.71l-.11-1.82-1.48-.49-3.62-1.23.07,1.46s.15,1.59,2.77,2.84C38.78,514.68,40.53,514.85,40.68,513.71Z"/><path class="cls-27" d="M44.18,504.43h0c-.46-3-2.61-5.26-5.69-5.08a5.92,5.92,0,0,0-3,10.82,15.41,15.41,0,0,0,.72,1.56c1.12,1.5,3.74,1.84,4.7,1.86s1.69-.69,2.32-2.05A13.14,13.14,0,0,0,44.18,504.43Z"/><path class="cls-26" d="M44,503.28c-1.31-3.62-3.69-4.38-6.52-3.94a6,6,0,0,0-4.71,5.4,5.93,5.93,0,0,0,2.66,5.43c-.06-.2-1.62-2.52,0-3a2,2,0,0,1,.33,1.22s.79-.07.61-1c0-.26-.09-.5-.13-.72a2.76,2.76,0,0,1,.45-2.06c.89-1.36,2.85-.69,4-2.76A4.31,4.31,0,0,0,44,503.28Z"/><path class="cls-27" d="M33.16,544.17a18.21,18.21,0,0,0-1.71-1.72c-.74-.55-1.42-.8-1.73-1.6a16.17,16.17,0,0,1-.28-10.76A57,57,0,0,1,33.9,521c1.09-1.72.74-2.91.05-3.82-.81-1.07-1.79-1.17-3.21,1.26a52.79,52.79,0,0,0-4.83,10.75,22.91,22.91,0,0,0,.24,12.33,17.61,17.61,0,0,1,.79,2.8,8.56,8.56,0,0,0,1.58,3.79c.75.9,1.16,1.1,1.4,1s.33-.4,0-.84a7.11,7.11,0,0,1-1.16-2.25s.59,1,1,1.58A7.51,7.51,0,0,0,31.08,549c.48.37,1.34.11,1.05-.35s-.63-.74-1.22-1.59a6.7,6.7,0,0,1-.79-1.46,13.88,13.88,0,0,0,1.42,1.53A2.93,2.93,0,0,0,33,548c.29.06.73-.25.3-.77a10.12,10.12,0,0,1-1.67-1.9c-.44-.73-.65-1.31-.48-1.28s.4.48,1,.87,1.41.39,1.6,0S33.71,544.65,33.16,544.17Z"/><path class="cls-27" d="M35.47,510.17s-.14.3-.72.33c-1.08.05-2.35-2-1.48-3.32a1.41,1.41,0,0,1,2.18-.05Z"/><path class="cls-22" d="M34.36,530.2a5.56,5.56,0,0,1-.64,3.06c-.43,1-1.12,2.16-2.26,4.78.09.38,1.18,2.83,4.89,3.25,4.52.52,10.15-2.36,9.65-5.94-.3-1.91-1-3.42-1.24-5.3S34.36,530.2,34.36,530.2Z"/><path class="cls-26" d="M48.69,543s3.85-4.61,6.84-5.73A12.37,12.37,0,0,0,51.37,539a19.47,19.47,0,0,0-4.21,4.14Z"/><path class="cls-9" d="M42.15,554.17l4.31-1.42-2.69,2.1a2,2,0,0,1-.86-.18A2,2,0,0,1,42.15,554.17Z"/><path class="cls-12" d="M32.71,516.33a2.14,2.14,0,0,1,1.89,1.73,3.93,3.93,0,0,1-.37,2.94c-.31.72-2.31,4.6-2.31,4.6s-3.13-.36-4-2.8a55.69,55.69,0,0,1,3.27-5.36C32,516.49,32.2,516.35,32.71,516.33Z"/><path class="cls-29" d="M37.31,499.38a5.28,5.28,0,0,0-2.7,1.51A2.18,2.18,0,0,1,36,499.34,1.49,1.49,0,0,1,37.31,499.38Z"/><path class="cls-25" d="M200.16,497.37c0,5.93-8.32,10.73-18.6,10.73S163,503.3,163,497.37s8.33-10.74,18.61-10.74S200.16,491.44,200.16,497.37Z"/><path class="cls-21" d="M166.4,432.22c-.17,1.47-2,7.53-1.6,9.7s6.41,6.07,6.41,6.07l.83-3.71-2.55-2.51a2.09,2.09,0,0,1-.61-1.79l.75-5.1Z"/><path class="cls-5" d="M172,428.44c.34-4.15-3.46-3.79-4.34-2.33s-2.67,11-2.76,11.86c0,0,1.9,2.73,4.62,1.65Z"/><path class="cls-20" d="M170.19,492.4a11.28,11.28,0,0,1-.26,1.47c-.16.63-.19,1.46.52,1.69a1.73,1.73,0,0,0,2-.47,13.88,13.88,0,0,1,1.7-2.48,5.86,5.86,0,0,0,2.07-2.68c.26-1,.09-1.68-.62-1.78a5.32,5.32,0,0,0-3,1.15A27.48,27.48,0,0,0,170.19,492.4Z"/><path class="cls-20" d="M179.83,498.42s-.05.83-.1,1.48a6.29,6.29,0,0,0-.08,2.18c.21.49,1.29.84,2.56.83a6.28,6.28,0,0,1,3,1.12,4.67,4.67,0,0,0,3.74.64c1.09-.34,2.3-.84,2.48-1.35s-.38-.75-3-2-4.62-2.05-5.65-3.46Z"/><path class="cls-22" d="M169.55,478.27a30.45,30.45,0,0,1,1.17-5.55s-.35-4.78-.52-9.32c-.19-4.9-.49-11-.58-12.26l15.89,3.54s-1,19-1.18,21.48-.37,5.93-.62,9.13c-.33,4-.68,13-.68,13a4.78,4.78,0,0,1-3.23.62s-1.38-11.15-1.61-14a21.83,21.83,0,0,1,.67-7.16s-.44-4.92-.82-9c-.34-3.61-.77-5.77-.83-7.54l-.32-.17s-.32,7-.49,9.5-.54,4.87-1.21,9.5c-.58,4-2.1,12.26-2.1,12.26a2.7,2.7,0,0,1-2.9.1S169.1,481.75,169.55,478.27Z"/><path class="cls-5" d="M177.21,461.21a30.42,30.42,0,0,1-5.35-3.59,12.2,12.2,0,0,0,3.83,3.62s.78,8.71.77,8.54l.45-8.58Z"/><path class="cls-21" d="M182.58,416.43h0c-.61-3-2.87-5.12-5.94-4.8a5.93,5.93,0,0,0-2.49,11,5.84,5.84,0,0,0,.54,1.28c1.15,1.22,4.48,1.85,5.42,1.67a2.83,2.83,0,0,0,2.36-2.13C183.38,421,182.9,417.9,182.58,416.43Z"/><path class="cls-21" d="M179.11,425.53s-.16.91-.27,1.49-.07.9,1.09,1.61-1.76,2.18-3.66,2-4.05-1.29-4.63-2.53-.6-3,.23-2.95c1.21.06,2.11.37,2.26,0a15.47,15.47,0,0,0,.28-1.89Z"/><path class="cls-7" d="M173.5,422.79a6.47,6.47,0,0,1-2.16-4.63,6,6,0,0,1,5.3-6.53,5.14,5.14,0,0,1,4.92,2.32,3.25,3.25,0,0,1-.56.77,1.4,1.4,0,0,1-.21,1.3,1.82,1.82,0,0,0-.37,1.45,7.51,7.51,0,0,1,.09,1.85,1.68,1.68,0,0,1-.89,1.26,7.94,7.94,0,0,0-.45-2,1.12,1.12,0,0,0-2,.1,2.82,2.82,0,0,0,.12,2.42c.26.82,1,.51,1.3.7a1.43,1.43,0,0,1-1,2,4.47,4.47,0,0,1-3.15-.32A5.82,5.82,0,0,1,173.5,422.79Z"/><path class="cls-7" d="M181,414.72a3.74,3.74,0,0,0,2.95-1.46c1.41-1.61.62-3.11-1.08-2.43s-4.54.29-6,.14-5.24.63-4.85,3.71Z"/><path class="cls-6" d="M173.62,425.37c-.33.84.52,1.86,2.79,2.57s2.48-.2,2.48-.2A44.11,44.11,0,0,1,183.3,430c1.36,1,2,3.71,2.15,8.36.22,5.39.66,16,.48,17.4,0,0-1.54.89-2.94-1.13a7.45,7.45,0,0,1-4.32,3.07,8.49,8.49,0,0,1-9.83-4.49c0-4.72,1.36-8.69.6-11.41-1.75-6.23-2.67-8.78-1.82-12.92.7-3.42,1.68-3.84,3-3.81S173.62,425.37,173.62,425.37Z"/><path class="cls-5" d="M174.2,424.91a6.49,6.49,0,0,0,4.66,2c.49-.09.76.87,1,1.34,0,0-1.14.93-3.69.29s-3.44-2.53-3.22-3.22C173,425.29,173.8,424.4,174.2,424.91Z"/><path class="cls-21" d="M190.58,443.71c-2.68.68-3.31-1-3.66-2.41-.85-3.38-1.31-6.43-1.94-8.36-.75-2.26-1.53-2.62-2.63-3.06-1.29-.52-2.41.57-2,3.45a57.39,57.39,0,0,0,2.46,9.84A8.7,8.7,0,0,0,185,447c1.38,1.12,3.46,1.07,6.61.29A36.26,36.26,0,0,0,197,445c.68-.32,1.21-.53,2.52-1.14a9,9,0,0,0,3.36-2.62c.68-1,.77-1.46.63-1.68s-.48-.22-.85.19a7.38,7.38,0,0,1-1.92,1.79s.84-.88,1.3-1.44a7,7,0,0,0,1-1.66c.24-.58-.25-1.36-.63-1s-.56.83-1.25,1.66a7.29,7.29,0,0,1-1.24,1.18,14.09,14.09,0,0,0,1.14-1.83,3,3,0,0,0,.41-1.67c0-.3-.44-.66-.84-.08a11,11,0,0,1-1.44,2.19c-.61.64-1.13,1-1.15.82s.37-.52.59-1.26,0-1.52-.41-1.6-.33-.07-.65.63a19,19,0,0,0-1.22,2.21,4.5,4.5,0,0,1-1.1,1.89C194.58,442.3,193.12,443.07,190.58,443.71Z"/><path class="cls-5" d="M181.36,429.42c1.78-.27,3,.54,3.84,3.24s2.39,8.9,2.39,8.9,0,1.46-2.08,2a10.37,10.37,0,0,1-3.63.28s-1.84-7.58-2.21-9.51S179.14,429.74,181.36,429.42Z"/><ellipse class="cls-25" cx="114.42" cy="548.93" rx="24.66" ry="14.23"/><path class="cls-21" d="M96.78,519.79a18.9,18.9,0,0,0,3.53,3.52c2,1.5,8.72,5.6,10.47,3.82.71-.73,7.18-17.81,7.18-17.81a2.35,2.35,0,0,0-2-.36c-1.29.26-2.35,1.46-3.13,3.33s-4,9.76-4.7,10.2c-.37.24-6.16-2.21-7.36-3.06A38,38,0,0,1,96.78,519.79Z"/><path class="cls-20" d="M95.64,511.94s3.74.56,4.15.59,2.57,6.51,2.7,7.06-3.23-.16-4.06-.45C97.84,518.93,95.37,512.35,95.64,511.94Z"/><path class="cls-21" d="M96.78,519.79c-.37-.77-1.41-3.15-.9-4.47a3.28,3.28,0,0,1,1.49-1.5c.26-.16.55-.24.82-.39a11.21,11.21,0,0,1,1.11-.52.32.32,0,0,1,.25,0,.22.22,0,0,1,.12.18.51.51,0,0,1,0,.21c-.25.85-1.14,1.38-1.76,1.94,0,0-.1.1-.08.16a4.48,4.48,0,0,0,1.09-.61c.31-.23.57-.54.89-.74A.25.25,0,0,1,100,514a.24.24,0,0,1,.2.16.61.61,0,0,1,0,.27,2.32,2.32,0,0,1-.47,1c-.23.32-.49.61-.72.93a1,1,0,0,0-.17.32c0,.06,0,.14,0,.15s.07,0,.1,0a8.07,8.07,0,0,0,1.35-1.51c.06-.1.16-.23.28-.2s.12.1.15.18a1.63,1.63,0,0,1-.11,1c-.14.34-.34.66-.47,1a2,2,0,0,0,0,1.28,1.83,1.83,0,0,0,.15.59,1.21,1.21,0,0,0,.16.45C100.85,520.45,96.78,519.79,96.78,519.79Z"/><path class="cls-6" d="M117.88,508.5c-.87-.56-2.44-.48-3.91,1.29s-3.44,6-4.21,7.35c0,0,2.15,3.32,5,2.61a67.16,67.16,0,0,0,3.66-7.13C119.05,510.69,119.38,509.47,117.88,508.5Z"/><path class="cls-18" d="M134,553.25c1-2,.13-4.63-1.15-7.92-1.4-3.62-3-7.34-3-7.34l-16.79-5.62s-15.52-.29-17,2.84c-1.21,2.5,9.56,6.26,11.11,6.41l9.48.52,1,.47,6.64,8.41Z"/><path class="cls-26" d="M118.54,561.06a3.75,3.75,0,0,1-1.25,2.74,10.65,10.65,0,0,1-1.27,1.06c-.47.35-1.38.62-1.78,0a1.17,1.17,0,0,1-.13-.67c0-1.52.1-3.05,0-4.58a11.61,11.61,0,0,0-1.2-5.28l2.86-2.14c.2.23.52.51.8.79s.61.53.92.79a3.25,3.25,0,0,1,1.33,1.9,5.09,5.09,0,0,1-.33,1.83A13.2,13.2,0,0,0,118.54,561.06Z"/><path class="cls-18" d="M105.42,537.75a39.07,39.07,0,0,1,3.32,3.86c2.77,3.88,7.14,10.87,7.14,10.87s-.68,2.22-2.77,2.12c0,0-14.38-13.43-15.56-14.67-1.78-1.88-3.21-5-.13-5.24S104.22,536.48,105.42,537.75Z"/><path class="cls-30" d="M108.81,541.71s-2.56-3.75-5.22-5.32c0,0,2.65.53,6.65,5.4Z"/><path class="cls-30" d="M115.5,553.25l-6.51-2.5,4.12,3.85a2.55,2.55,0,0,0,1.57-.44C115.47,553.62,115.5,553.25,115.5,553.25Z"/><path class="cls-21" d="M125.47,507s-.2,3.85-.11,4.19,1.77,1.47,2.26,1.88-2.67,3.51-4.2,4.22-6.39-1.15-6.48-3.54.83-4.39,1.58-4.5S125.47,507,125.47,507Z"/><path class="cls-23" d="M119.14,511.42c-.51-.46.08-1.47.43-2.17,1.59-.48,5.9-2.24,5.9-2.24s0,.89-.07,1.51h0a2.54,2.54,0,0,1-1,1.9,7.3,7.3,0,0,1-1.72,1C122,511.66,120.31,512.47,119.14,511.42Z"/><path class="cls-12" d="M125.91,511.78s-3,3.07-5.91,1.86c-1.58-.65-1.9-2.69-.43-4.21,0,0-1.56-1.26-2.63-1a5.55,5.55,0,0,0-2.41,3.08,25,25,0,0,0-1.37,8.91c.06,4.09-.13,14.24-.13,14.24s-.67,3,4.27,5.25a13.56,13.56,0,0,0,8.57,1.28,6.65,6.65,0,0,0,4-3.18,60.84,60.84,0,0,1-.22-11c.29-3.62.67-6.64.87-9.55s-.38-2.86-1.84-3.89A23,23,0,0,0,125.91,511.78Z"/><path class="cls-6" d="M125.58,511.49l.76.53a7,7,0,0,1-2.7,1.91c-1.64.61-3.22.71-4.54-.32s-1.06-3.17,0-4.51l.79.5a5.33,5.33,0,0,0-.74,2.14,2.23,2.23,0,0,0,2.38,1.69A6.63,6.63,0,0,0,125.58,511.49Z"/><path class="cls-21" d="M116.75,501.27h0c.46-3,2.62-5.26,5.7-5.09a5.93,5.93,0,0,1,3,10.83,5.85,5.85,0,0,1-.48,1.31c-1.09,1.27-4.38,2.06-5.33,1.92a2.82,2.82,0,0,1-2.46-2C116.18,505.88,116.5,502.75,116.75,501.27Z"/><path class="cls-26" d="M117.2,498.86a5.87,5.87,0,0,1,6.16-2.56A5.84,5.84,0,0,1,125.47,507c.07-.2,1.62-2.53,0-3a2,2,0,0,0-.33,1.22.76.76,0,0,1-.62-1l.14-.71a2.75,2.75,0,0,0-.45-2.06,2.39,2.39,0,0,1-.43-1.94,8,8,0,0,1-4.51.35A4.16,4.16,0,0,1,117.2,498.86Z"/><path class="cls-21" d="M128.56,543.82a20.78,20.78,0,0,1,1.81-1.75A4.44,4.44,0,0,0,132,540a17.19,17.19,0,0,0-.05-11.64c-1.18-3.28-3.58-7.68-4.38-9.54a3.18,3.18,0,0,1,.36-3.73c.84-1.11,2.4-1.11,3.86,1.41a48.85,48.85,0,0,1,4.5,10.57,27.72,27.72,0,0,1-.48,14,29.35,29.35,0,0,0-.63,3,8.83,8.83,0,0,1-1.65,3.92c-.78.93-1.2,1.14-1.46,1.06s-.34-.41,0-.87a7.26,7.26,0,0,0,1.21-2.33s-.62,1-1,1.64a7.65,7.65,0,0,1-1.33,1.41c-.5.38-1.39.11-1.09-.37s.66-.75,1.28-1.64a7.26,7.26,0,0,0,.81-1.51,13.45,13.45,0,0,1-1.47,1.59,3.11,3.11,0,0,1-1.5.84c-.29.06-.75-.26-.3-.8a11.19,11.19,0,0,0,1.74-2c.45-.76.67-1.35.49-1.32s-.41.49-1.06.9-1.47.39-1.66,0S128,544.32,128.56,543.82Z"/><path class="cls-21" d="M125.47,507s.14.31.72.34c1.08.06,2.35-1.95,1.47-3.32a1.41,1.41,0,0,0-2.17,0Z"/><path class="cls-26" d="M99.1,547.28A3.78,3.78,0,0,0,97,549.43a9.52,9.52,0,0,0-.52,1.56c-.16.56-.09,1.52.62,1.67a1.2,1.2,0,0,0,.67-.12c1.43-.55,2.82-1.19,4.28-1.65a11.52,11.52,0,0,1,5.36-.78l1-3.44c-.29-.1-.67-.3-1-.46s-.71-.38-1.06-.57a3.21,3.21,0,0,0-2.26-.56,4.79,4.79,0,0,0-1.58,1A13.26,13.26,0,0,1,99.1,547.28Z"/><path class="cls-18" d="M131.51,550.32a21.7,21.7,0,0,0-8.94-2c-6.07-.31-14.24-1.66-14.24-1.66a4,4,0,0,0-.93,3.46s10.9,4.43,14.33,5.16c5.5,1.18,7.19.91,9.86-.14S135.71,551.61,131.51,550.32Z"/><path class="cls-6" d="M128.4,514.37c-1,.37-1.83,1.7-1.26,3.92a44.42,44.42,0,0,0,3.18,7.8s3.83.29,5.06-2.74a55.27,55.27,0,0,0-3.34-7C130.85,514.71,130.06,513.73,128.4,514.37Z"/><path class="cls-25" d="M566.2,606.77c0,5.92-8.33,10.73-18.6,10.73S529,612.69,529,606.77,537.32,596,547.6,596,566.2,600.84,566.2,606.77Z"/><path class="cls-31" d="M562.76,541.49c.17,1.47,1.92,7.81,1.54,10s-6.36,5.8-6.36,5.8l-.83-3.71,3.32-3.25-.9-6.15Z"/><path class="cls-7" d="M558.13,534.38a2.62,2.62,0,0,1,3.33,1c.88,1.45,1.79,6.46,1.88,7.31a3.52,3.52,0,0,1-3.09,1.42Z"/><path class="cls-20" d="M559,601.67a12.6,12.6,0,0,0,.27,1.47c.16.64.19,1.46-.53,1.69a1.74,1.74,0,0,1-2-.46,13.38,13.38,0,0,0-1.7-2.48,6,6,0,0,1-2.06-2.68c-.26-1-.09-1.69.61-1.79a5.27,5.27,0,0,1,3,1.15A27.19,27.19,0,0,1,559,601.67Z"/><path class="cls-20" d="M551.55,607.7s.06.82.11,1.47a6.31,6.31,0,0,1,.07,2.19c-.21.48-1.29.84-2.56.83a6.11,6.11,0,0,0-3,1.12,4.7,4.7,0,0,1-3.75.64c-1.09-.35-2.3-.85-2.48-1.35s.39-.75,3-2,4.62-2.06,5.66-3.46Z"/><path class="cls-11" d="M559.61,587.54a30.45,30.45,0,0,0-1.17-5.54s.35-4.79.52-9.32c.19-4.9.49-11,.58-12.26L543.65,564s1,19,1.18,21.48a58.21,58.21,0,0,0,1.48,8.79c.87,4,1.91,13.47,1.91,13.47a3.52,3.52,0,0,0,3.33,0s.43-11.56.32-14.43a26.09,26.09,0,0,0-1-6.27s.28-4.67.52-8.73.51-6,.57-7.78l.31-.17s.33,7,.5,9.49.54,4.88,1.21,9.5c.58,4,2.1,12.27,2.1,12.27a2.69,2.69,0,0,0,2.89.09S560.06,591,559.61,587.54Z"/><path class="cls-2" d="M552,570.49a30.48,30.48,0,0,0,5.35-3.6,12.29,12.29,0,0,1-3.83,3.63s-.78,8.7-.77,8.53l-.45-8.58Z"/><path class="cls-31" d="M546.58,525.71h0c.6-3,2.86-5.13,5.94-4.81a6,6,0,0,1,5.3,6.54,5.88,5.88,0,0,1-2.81,4.42,6.42,6.42,0,0,1-.54,1.29c-1.15,1.22-4.48,1.84-5.42,1.66a2.83,2.83,0,0,1-2.36-2.13C545.78,530.29,546.26,527.17,546.58,525.71Z"/><path class="cls-31" d="M550.05,534.81s.16.91.27,1.49.07.89-1.09,1.6,1.76,2.19,3.66,2,4-1.29,4.63-2.52.6-3-.23-2.95c-1.21.06-2.11.37-2.26,0a15.47,15.47,0,0,1-.28-1.89Z"/><path class="cls-32" d="M555.66,532.06a6.45,6.45,0,0,0,2.16-4.62,6,6,0,0,0-5.3-6.54,5.13,5.13,0,0,0-4.92,2.33,3.39,3.39,0,0,0,.55.77,1.42,1.42,0,0,0,.22,1.3,1.76,1.76,0,0,1,.36,1.44,8.16,8.16,0,0,0-.08,1.86,1.67,1.67,0,0,0,.89,1.25,8.31,8.31,0,0,1,.44-2,1.13,1.13,0,0,1,2,.1,2.84,2.84,0,0,1-.12,2.43c-.27.82-1,.5-1.3.7a1.42,1.42,0,0,0,1,2,4.44,4.44,0,0,0,3.16-.32A5.82,5.82,0,0,0,555.66,532.06Z"/><path class="cls-32" d="M548.15,524a3.78,3.78,0,0,1-2.95-1.47c-1.4-1.61-.61-3.1,1.09-2.43s4.54.29,6,.15,5.25.62,4.85,3.71Z"/><path class="cls-12" d="M555.54,534.65c.33.83-.52,1.85-2.79,2.57s-2.48-.21-2.48-.21a44.11,44.11,0,0,0-4.41,2.28c-1.37,1-2,3.71-2.16,8.37-.21,5.39-.23,14.91-.05,16.29a8.24,8.24,0,0,0,5.81,2.27c3.26-.26,8.75-3.15,10.08-5.38,0-4.72-.59-7,.18-9.74,1.75-6.24,2.67-8.79,1.82-12.93-.7-3.41-1.68-3.84-3-3.8A27.14,27.14,0,0,0,555.54,534.65Z"/><path class="cls-7" d="M555,534.18a6.45,6.45,0,0,1-4.66,2c-.49-.08-.76.87-1,1.34,0,0,1.15.94,3.69.29s3.44-2.52,3.23-3.22C556.17,534.56,555.36,533.67,555,534.18Z"/><path class="cls-20" d="M528.82,546.9a7.45,7.45,0,0,1-1-2.46c1.16-1.44,4.45-2.35,4.91-1.74s4.13,7,4.19,7.46c-.47,1-3.62,2.53-4.42,2.55S529.1,547.45,528.82,546.9Z"/><path class="cls-31" d="M538.58,553c2.67.67,3.3-1,3.65-2.41.86-3.39,1.32-6.44,1.95-8.36.75-2.27,1.53-2.63,2.63-3.07,1.29-.52,2.4.58,2,3.46a56.6,56.6,0,0,1-2.45,9.84,8.74,8.74,0,0,1-2.2,3.83c-1.38,1.11-3.46,1.07-6.6.28a15.56,15.56,0,0,1-2.7-1c-1.06-.5-2.3-.9-3.29-1.48-2-1.19-3.1-4.38-3.1-6.58,0-.26.13-.62.38-.55a.38.38,0,0,1,.19.14,16.93,16.93,0,0,0,1.32,1.49s.78.66.79.48-.37-.53-.59-1.26,0-1.52.42-1.61.32-.06.65.63a20.64,20.64,0,0,1,1.22,2.21,4.6,4.6,0,0,0,1.1,1.9C534.58,551.57,536,552.35,538.58,553Z"/><path class="cls-7" d="M547.8,538.69c-1.79-.27-3,.54-3.84,3.25s-1.34,4.93-1.34,4.93a4.89,4.89,0,0,0,3,2c2.13.51,2.9-.51,2.9-.51s.6-2.83,1-4.77S550,539,547.8,538.69Z"/><path class="cls-19" d="M355,608.12c0,5.93-8.33,10.74-18.61,10.74s-18.6-4.81-18.6-10.74,8.33-10.73,18.6-10.73S355,602.19,355,608.12Z"/><path class="cls-31" d="M330.9,565.6a18.2,18.2,0,0,0-2.15-1.31,8.14,8.14,0,0,1-2.14-1.16,9.54,9.54,0,0,1-2.47-4.44,24,24,0,0,1-.56-8.61,56.14,56.14,0,0,1,2.13-10c.66-2,.26-3.12-.6-3.94s-2.61-.63-3.43,2.16a53.4,53.4,0,0,0-2.31,11.92,20.67,20.67,0,0,0,.95,7.93,28.91,28.91,0,0,0,3,6.64,19.92,19.92,0,0,1,1.34,2.55,8.94,8.94,0,0,0,2.54,3.42c1,.7,1.44.81,1.67.67s.23-.48-.18-.86a7,7,0,0,1-1.73-2s.85.86,1.41,1.33A6.51,6.51,0,0,0,330,571c.57.26,1.37-.22,1-.61s-.82-.58-1.63-1.29a7.69,7.69,0,0,1-1.16-1.26A14.1,14.1,0,0,0,330,569a3,3,0,0,0,1.65.45c.3,0,.67-.43.11-.84a11.43,11.43,0,0,1-2.17-1.49c-.62-.62-1-1.15-.79-1.16s.51.38,1.24.61,1.52,0,1.62-.37S331.58,565.94,330.9,565.6Z"/><path class="cls-22" d="M324.86,535.55a2.07,2.07,0,0,0-2.8,1.36,41.94,41.94,0,0,0-2.26,7.81,3.88,3.88,0,0,0,2.09,2.34c1.88,1.09,2.76-.17,2.76-.17s1.43-6.57,1.51-8.3A4.38,4.38,0,0,0,324.86,535.55Z"/><path class="cls-20" d="M336.43,605.85s0,.86,0,1.62-.12,2.11.74,2.49a2.21,2.21,0,0,0,2.57-.23,18.55,18.55,0,0,1,2.83-2.64c1.09-.8,2.43-1.69,2.93-3.08s.25-2.3-.54-2.72c-1.13-.61-4.35,2.61-5.17,2.13S336.43,605.85,336.43,605.85Z"/><path class="cls-2" d="M322.56,566.05l8.67,24.87,5.2,14.93s2.2.59,3.23-2.48L336.89,586l-3-19.1Z"/><path class="cls-33" d="M331.23,590.92l5.2,14.93s2.2.59,3.23-2.48L336.89,586Z"/><path class="cls-20" d="M330.2,611c-1.19-.13-2.17-4.52-1.85-5.88l-3-1.3a5.22,5.22,0,0,1-2,1.33,2.64,2.64,0,0,0-.58.41,1.75,1.75,0,0,0,.13,2.36c.27.37.61.68.91,1a12.73,12.73,0,0,1,1.69,2.25c.54,1,.9,2.63,2.53,2.92a3.64,3.64,0,0,0,2.17-.37,10.94,10.94,0,0,0,2-1.25C332.51,612,331.92,610.81,330.2,611Z"/><path class="cls-2" d="M322,564.28a7.75,7.75,0,0,1,1.17-5.83l14.3,5.13A118.86,118.86,0,0,1,339.33,585c0,2.5-3.12,6.94-5.58,10.79s-5.42,9.58-5.42,9.58a2.6,2.6,0,0,1-3.1-1.39s2.48-7.81,3.26-10.58c1.7-6,4.21-7.89,4.21-7.89s-.61-2.46-1.26-5.51c-.77-3.58-2-8.8-2-8.8S322.79,569.37,322,564.28Z"/><path class="cls-31" d="M335.09,525.65h0c-.61-3-2.87-5.12-5.94-4.8a5.93,5.93,0,0,0-2.49,11,6.8,6.8,0,0,0,.58.85c1.15,1.22,4.56,2.06,5.38,2.1,1.23,0,1.7-.9,2.22-2.26A13.18,13.18,0,0,0,335.09,525.65Z"/><path class="cls-31" d="M331.47,534a13.08,13.08,0,0,0-.13,2.2c0,.59-.06.89,1.1,1.61s-1.76,2.18-3.66,2-4-1.3-4.63-2.53-.92-1.72.17-1.79c2.31-.14,2.54.25,2.72-.58.07-.29.2-2.33.2-2.33Z"/><path class="cls-32" d="M326,532a6.49,6.49,0,0,1-2.16-4.63,5.94,5.94,0,0,1,5.3-6.53,5.12,5.12,0,0,1,4.92,2.32,3.25,3.25,0,0,1-.56.77,1.4,1.4,0,0,1-.21,1.3,1.77,1.77,0,0,0-.37,1.44,7.62,7.62,0,0,1,.09,1.86,1.7,1.7,0,0,1-.89,1.26,7.94,7.94,0,0,0-.45-2,1.11,1.11,0,0,0-2,.09,2.88,2.88,0,0,0,.11,2.43c.27.82,1.05.5,1.31.7a1.42,1.42,0,0,1-1,2,4.42,4.42,0,0,1-3.15-.31A5.82,5.82,0,0,1,326,532Z"/><path class="cls-32" d="M324,520.42a1.45,1.45,0,0,1-.32-.6,1.59,1.59,0,0,1,2.73-1.49,2.29,2.29,0,1,1,1.77,3.74,2.08,2.08,0,0,1-.71-.13,2.85,2.85,0,0,1,0,.41,2.3,2.3,0,1,1-3.51-1.93Z"/><path class="cls-32" d="M332.08,521.37a2.87,2.87,0,0,1,3.75,2.42,3.86,3.86,0,0,1-3.13,4.61Z"/><path class="cls-12" d="M326.82,535.44c-.12.43.2.93,1.32,1.26a5.21,5.21,0,0,0,3.27.16,24.06,24.06,0,0,1,3.75,2c3.69,2.57,4.58,7,.86,8.56-.23,1.67-1,3.8-1.08,4.79.21,3,1.65,5.29,2.61,11.66a32.72,32.72,0,0,1-6.6.11c-5.43-.54-8.1-3.33-8.44-4.28,1.94-4.61,2.26-6.54,2-7.61-1.5-5.58-2.93-8-2.51-12.18.24-2.41.42-3.62,1.7-4.26A12.75,12.75,0,0,1,326.82,535.44Z"/><path class="cls-33" d="M329.06,569.61l2.69,11.86L328,570.73a11.37,11.37,0,0,1-4.46-3.29A15.69,15.69,0,0,0,329.06,569.61Z"/><path class="cls-8" d="M330.15,538s1.47-1.22,2.28-.8l1.64.93s-1.6.2-2,1.14C332.08,539.31,330.46,539.16,330.15,538Z"/><path class="cls-8" d="M323.44,536.67a2.59,2.59,0,0,1,1.54-1.26,2.89,2.89,0,0,1,1.64.11,1.77,1.77,0,0,0-.91,1.18Z"/><path class="cls-15" d="M325.61,536.4c2.86.79,6.34,2,7.09,3.87s2.16,13.49.43,15.78a6.61,6.61,0,0,1-5.7,2.83c-1.87-.07-7.35-2.39-8.81-5S319,534.58,325.61,536.4Z"/><path class="cls-9" d="M326.62,551.22s-.37,3.95-.46,4.89-5.51-1.45-6.62-3.13c-.72-1.09-.18-4.47,0-5.19S326,550,326.62,551.22Z"/><path class="cls-9" d="M332.51,539.89a3.37,3.37,0,0,1,.19.38c.75,1.84,2.16,13.49.43,15.78a6.92,6.92,0,0,1-3.51,2.56c-1.36.2-2-.92-2-2.56a109.88,109.88,0,0,1,1.57-12C330,540.19,331.46,539.48,332.51,539.89Z"/><path class="cls-9" d="M329.23,544.05c-.09.84-.77,2.18-3.49,1.59s-5.21-1.74-5.94-2.72c0,0,.44,1.67,3.75,3S329,547,329.23,544.05Z"/><path class="cls-31" d="M350.18,565.58a17.28,17.28,0,0,0-2.45-.57,8,8,0,0,1-2.39-.43c-.84-.3-1.82-1.35-3.34-3.46a23.74,23.74,0,0,1-3.26-7.91A60,60,0,0,1,337.49,543a3.54,3.54,0,0,0-2.25-3.51c-1.09-.51-2.21,0-2.11,2.88a54.39,54.39,0,0,0,1.58,12.13,26.62,26.62,0,0,0,8.05,12.67,19.17,19.17,0,0,1,2.07,2,8.83,8.83,0,0,0,3.48,2.44c1.15.37,1.62.32,1.8.12s.07-.53-.44-.76a7.21,7.21,0,0,1-2.26-1.32s1.08.56,1.75.83A7.94,7.94,0,0,0,351,571c.63.06,1.23-.65.73-.89s-1-.29-2-.71a7.82,7.82,0,0,1-1.49-.84,14.12,14.12,0,0,0,2.09.55,3.09,3.09,0,0,0,1.71-.08c.29-.11.5-.62-.16-.84a11.21,11.21,0,0,1-2.52-.74c-.79-.39-1.29-.79-1.12-.85s.61.2,1.38.19,1.45-.44,1.41-.86S350.94,565.69,350.18,565.58Z"/><path class="cls-22" d="M334.76,538.89c1.51-.18,2.81,1.39,3.12,4.71s.72,7,.72,7-2.45,2.13-5,1.09c0,0-.82-5.8-1-8.54S332.93,539.11,334.76,538.89Z"/><ellipse class="cls-25" cx="232.15" cy="484.55" rx="18.61" ry="10.74"/><path class="cls-34" d="M214,434.43a18.12,18.12,0,0,1,2.42-.68,7.9,7.9,0,0,0,2.37-.55c.82-.34,2.68-2.41,4.11-4.58a25.27,25.27,0,0,0,3.16-8,59.64,59.64,0,0,0,.64-10.46c-.1-2.12.82-3,1.91-3.47,1.28-.55,2.21-.14,2.25,2.78a54.8,54.8,0,0,1-1.16,12.15,26,26,0,0,1-3.47,8.06,32.83,32.83,0,0,1-5,5.92c-.54.52-.81,1-1.72,2.16a8.88,8.88,0,0,1-3.36,2.61c-1.13.42-1.61.4-1.79.2s-.1-.52.4-.77a7.5,7.5,0,0,0,2.2-1.43s-1.06.6-1.72.91a7.21,7.21,0,0,1-1.85.57c-.62.09-1.26-.58-.77-.85s.94-.34,1.92-.8a7.34,7.34,0,0,0,1.45-.91,13.18,13.18,0,0,1-2.06.65,3,3,0,0,1-1.71,0c-.29-.09-.54-.6.12-.85a11,11,0,0,0,2.48-.85c.76-.44,1.25-.85,1.08-.91s-.6.23-1.37.26-1.47-.38-1.46-.79S213.27,434.58,214,434.43Z"/><path class="cls-20" d="M231.46,475.65a8.48,8.48,0,0,0,.42,1.33,6,6,0,0,1,.53,2.14c0,.53-1.13,1.43-1.92,1.66a5.09,5.09,0,0,0-2.28,1.91,4.66,4.66,0,0,1-3.32,1.85c-1.14,0-2.45,0-2.78-.45s0-1,2.06-3,3.54-3.28,4-4.95Z"/><path class="cls-20" d="M239.34,480.09a4.07,4.07,0,0,1,.59,2.68,14.86,14.86,0,0,0,.18,3.74,6.79,6.79,0,0,1-1.19,4.14,1.75,1.75,0,0,1-3-.5,7.05,7.05,0,0,1-.3-4.46c.4-1.57-.13-2.77.13-3.83a8.6,8.6,0,0,1,.64-1.77Z"/><path class="cls-22" d="M241.5,433.31c1.16,4.94-.37,12.78-.61,16.85s-.61,8.79-.61,8.79a31.24,31.24,0,0,1,1.18,7.58c-.07,3.51-2.12,13.56-2.12,13.56a2.78,2.78,0,0,1-3,0s-.52-8.69-1-12.72c-.49-4.2-.66-7.26-1.09-9.72-.54-3.06-1.45-17.07-1.45-17.07l-.48.14-1.44,16.13A12.24,12.24,0,0,1,232,461c0,2.57-.5,14.62-.5,14.62a2.66,2.66,0,0,1-3.25.48s-2.58-17-2.94-18.93c-.34-1.79-1.14-20.39.32-24.71Z"/><path class="cls-5" d="M232.8,440.58a24.56,24.56,0,0,1-4.73-1.93s1.86,1.48,2.67,2,.5,12.29.5,12.29l1.09-12.25Z"/><path class="cls-34" d="M236.64,402.51s-.26,4.65-.17,5,1.83.67,2.32,1.08-2.52,5.13-4,5.84-6.29-1.07-6.63-3.44c-.31-2.17,1.35-3.87,2-4.46a10.63,10.63,0,0,1,1.31,0l.13-2.26C233.62,403.55,236.64,402.51,236.64,402.51Z"/><path class="cls-12" d="M237.3,408c1.31.2,2.8.9,3,1.61a15.51,15.51,0,0,1-.35,7.77,48.5,48.5,0,0,1-3.09,6.32,12.55,12.55,0,0,1-9.52-1.26,31,31,0,0,1-.49-4.16c-4.22-3.66-.63-8.2,2.92-11.73a8,8,0,0,1,1.29,0,8.67,8.67,0,0,0-1.95,2.64,2.4,2.4,0,0,0,1,3.27c1.65.73,2.86.28,4.26-1.23C235.33,410.14,235.78,408.81,237.3,408Z"/><path class="cls-35" d="M236.64,402.51a10.79,10.79,0,0,1-.84,3.95,21.26,21.26,0,0,0-1.5,3.67,7.91,7.91,0,0,0,0,4.29c-.06-.18.21-.71.28-.89.11-.34.23-.68.36-1a19.7,19.7,0,0,1,.83-1.89c.46-.9,1.23-2.33,2.36-2.48l1,.39a2.64,2.64,0,0,1,.93.52s.85-1.85,1-6.55-1-9.15-3.29-8.91Z"/><path class="cls-35" d="M229.47,404.74a5,5,0,0,1-.12.92,4.83,4.83,0,0,1-.47,1,9,9,0,0,0-1,2.29,6,6,0,0,0,.6,4.52,12.66,12.66,0,0,1,.32-2,13.56,13.56,0,0,1,.43-1.37,10.64,10.64,0,0,1,1.58-2.88,7.3,7.3,0,0,1,.65-.71l.13-2.26Z"/><path class="cls-36" d="M231.43,406.05l.11-1.83,1.48-.48,3.62-1.23s0,.35,0,.78a4.59,4.59,0,0,1-2.8,3.51C233.34,407,231.58,407.19,231.43,406.05Z"/><path class="cls-34" d="M227.93,396.77h0c.46-3,2.61-5.26,5.7-5.09a5.93,5.93,0,0,1,3,10.83,5.72,5.72,0,0,1-.47,1.31c-1.09,1.27-4,2.09-4.94,2.1s-1.55-.76-2.33-2A10.25,10.25,0,0,1,227.93,396.77Z"/><path class="cls-35" d="M228.38,394.36a5.87,5.87,0,0,1,6.16-2.56,6,6,0,0,1,4.81,5.17,6.17,6.17,0,0,1-2.71,5.54c.07-.2,1.63-2.53,0-3a1.91,1.91,0,0,0-.34,1.22s-.79-.08-.61-1c.05-.26.09-.49.14-.71a2.75,2.75,0,0,0-.46-2.06A2.38,2.38,0,0,1,235,395a8,8,0,0,1-4.51.35A4.12,4.12,0,0,1,228.38,394.36Z"/><path class="cls-34" d="M236.64,402.51s.15.3.73.32c1.08.06,2.34-1.95,1.47-3.32a1.41,1.41,0,0,0-2.17,0Z"/><path class="cls-12" d="M237.19,423.05c-.32.6-.37,1.27.7,2.81s3.21,4.88,3.61,7.45a8.43,8.43,0,0,1-5.74,3.33c-5.3.84-9.25-1.48-10.5-2.84a35.86,35.86,0,0,1,1-6.24,41.79,41.79,0,0,0,1.09-5.17C227.58,420.5,237.19,423.05,237.19,423.05Z"/><path class="cls-34" d="M238,439.64a18.74,18.74,0,0,1,1.77-1.66,6.67,6.67,0,0,0,1.53-1.66c.56-.65,1.3-3.42,1.56-5.91a22.59,22.59,0,0,0-.92-8,52.83,52.83,0,0,0-3.87-8.84,3.59,3.59,0,0,1,.17-4.21c.85-1,1.83-1.1,3.15,1.39a52.3,52.3,0,0,1,4.39,10.93,25,25,0,0,1,.6,8.46,31.5,31.5,0,0,1-1.66,7.28c-.23.69-.23,1.25-.52,2.62a8.44,8.44,0,0,1-1.73,3.72c-.78.87-1.2,1.05-1.44,1s-.31-.41,0-.84a7.29,7.29,0,0,0,1.25-2.2s-.63,1-1.07,1.54a7.06,7.06,0,0,1-1.33,1.31c-.49.35-1.34.06-1-.39s.67-.71,1.29-1.54a7,7,0,0,0,.85-1.42,13.36,13.36,0,0,1-1.48,1.47,3,3,0,0,1-1.47.76c-.29.05-.72-.28-.27-.78a10.83,10.83,0,0,0,1.75-1.83c.46-.72.69-1.28.52-1.26s-.41.46-1.06.83-1.43.33-1.6,0S237.45,440.1,238,439.64Z"/><path class="cls-35" d="M237.94,393.92a4.32,4.32,0,0,0-2.8-2.63c-2-.44-5.67-.06-7.5,2.85a5.9,5.9,0,0,0-.94,4.06A8.18,8.18,0,0,0,235,395Z"/></svg>