<svg id="Layer_1" data-name="Layer 1" xmlns="http://www.w3.org/2000/svg" xmlns:xlink="http://www.w3.org/1999/xlink" viewBox="0 0 533.74 533.74"><defs><style>.cls-1{fill:none;}.cls-2{clip-path:url(#clip-path);}.cls-3{fill:#ffeae5;}.cls-4{fill:#e62a00;}.cls-5{fill:#b56d50;}.cls-6{fill:#36384a;}.cls-7{fill:#b32100;}.cls-8{fill:#eddad3;}.cls-9{fill:#8c4d37;}</style><clipPath id="clip-path"><path class="cls-1" d="M494,272.08A228.41,228.41,0,0,1,346.5,485.61c-4.65,1.77-9.39,3.39-14.18,4.84q-4.69,1.44-9.48,2.66c-4.12,1.06-8.29,2-12.51,2.84-1.15.23-2.31.46-3.47.66-3.59.66-7.22,1.22-10.86,1.71-5.69.75-11.45,1.3-17.26,1.61-2.63.16-5.26.26-7.91.32-1.68,0-3.36.05-5.05.05-5.69,0-11.34-.21-16.92-.62l-1-.08h0l-.31,0a226.86,226.86,0,0,1-115-42.18q-4-2.85-7.82-5.87-8.13-6.4-15.64-13.52A227.87,227.87,0,0,1,37.57,272.08c0-126,102.17-228.22,228.21-228.22S494,146,494,272.08Z"/></clipPath></defs><g class="cls-2"><path class="cls-3" d="M494,272.08A228.41,228.41,0,0,1,346.5,485.61c-4.65,1.77-9.39,3.39-14.18,4.84q-4.69,1.44-9.48,2.66c-4.12,1.06-8.29,2-12.51,2.84-1.15.23-2.31.46-3.47.66-3.59.66-7.22,1.22-10.86,1.71-5.69.75-11.45,1.3-17.26,1.61-2.63.16-5.26.26-7.91.32-1.68,0-3.36.05-5.05.05-5.69,0-11.34-.21-16.92-.62l-1-.08h0l-.31,0a226.86,226.86,0,0,1-115-42.18q-4-2.85-7.82-5.87-8.13-6.4-15.64-13.52A227.87,227.87,0,0,1,37.57,272.08c0-126,102.17-228.22,228.21-228.22S494,146,494,272.08Z"/><path class="cls-4" d="M100.56,527.18c-5.92-5.61-9.41-10.08-6.94-13.88,5.11-7.84,48.28-82.41,48.28-82.41s22.37,49.05,28.65,74.57a194.23,194.23,0,0,1,4.25,21.72h199c.19-13.74,5.07-45.62,11-58.22,6.28-13.35,10.59-49.85,10.59-49.85s52,70.65,60.24,78.1c6.37,5.76-2.48,15.58-15.83,30h65.82c13.71-18.9,11.76-26.62,8.36-33.5-1-2-54.61-86.34-69.14-124.8S395.43,312.75,379,307.26c-5.88-2-16.36-5.38-27.41-8.95-19.91-6.44-41.66-13.42-41.66-13.42H241.19s-23.79,8-49.06,16.82l0,0C168.82,309.9,144.29,318.81,136,323c-17.27,8.63-46.31,70.25-52.19,77.31s-51.16,91-57.7,123.24a7.92,7.92,0,0,0,.24,3.67Z"/><path class="cls-5" d="M283.72,96.12s53.71,8.46,45.53,92.49-55.58,77.15-58.75,77.07-47.59,1.53-51.05-101.07C219.45,164.61,217.94,88.73,283.72,96.12Z"/><path class="cls-5" d="M330.08,164.88s5.89-6.29,8,.07-8,34.73-8.38,36.06c0,0-1.08,2.46-2.49,1.11S330.08,164.88,330.08,164.88Z"/><path class="cls-5" d="M220.9,163.81s-5.76-6.39-8-.07,7.26,34.87,7.69,36.2c0,0,1,2.49,2.46,1.16S220.9,163.81,220.9,163.81Z"/><path class="cls-6" d="M330.06,177.77l-7.69,10.28s.22-22.54-1-26.07-3.12-14.33-4.15-16.88-46.12-15.18-86,3.69c0,0,1.76,16.21-2.06,17.65s-2,26.39-2,26.39l-6.32-7.13s-9.68-64.66-7.29-71.39,10-47.26,91.72-23.21c0,0,25.48-5.39,30.59,12.2S330.06,177.77,330.06,177.77Z"/><path class="cls-7" d="M351.54,298.31s-22.52,99-76.17,99-83.27-95.55-83.27-95.55l0,0c25.27-8.85,49.06-16.82,49.06-16.82h68.69S331.63,291.87,351.54,298.31Z"/><polygon class="cls-8" points="409.32 527.18 412.11 508.4 132.01 514.87 134.17 527.18 409.32 527.18"/><path class="cls-5" d="M310.58,285.12a.9.9,0,0,0-.08-.23c-3.34-7.48-1.71-44-1.71-44s-68.41-17.41-66.45-4.1-5.9,49.66-5.9,49.66l-35.09,12S238.74,398.9,281.71,386s59.21-91.07,59.21-91.07Z"/><path class="cls-9" d="M242.23,250.35s12.11,15.5,31.24,15.5c12.59,0,22.52-4.4,35-16.62,0,0-6.33,24.08-35,26.24C273.56,275.47,251.7,276.84,242.23,250.35Z"/></g></svg>