<svg id="Layer_1" data-name="Layer 1" xmlns="http://www.w3.org/2000/svg" viewBox="0 0 533.74 533.74"><defs><style>.cls-1{fill:#ffeae5;}.cls-2{fill:#1a0500;}.cls-3{fill:#b5755e;}.cls-4{fill:#8c4d37;}.cls-5{fill:#e62a00;}.cls-6{fill:#b32100;}.cls-7{fill:#b56d50;}.cls-8{fill:#36384a;}.cls-9{fill:#20222c;}</style></defs><path class="cls-1" d="M494,272.08A228.41,228.41,0,0,1,346.5,485.61c-4.65,1.77-9.39,3.39-14.18,4.84q-4.69,1.44-9.48,2.66c-4.12,1.06-8.29,2-12.51,2.84-1.15.23-2.31.46-3.47.66-3.59.66-7.22,1.22-10.86,1.71-5.69.75-11.45,1.3-17.26,1.61-2.63.16-5.26.26-7.91.32-1.68,0-3.36.05-5.05.05-5.69,0-11.34-.21-16.92-.62l-1-.08h0l-.31,0a226.86,226.86,0,0,1-115-42.18q-4-2.85-7.82-5.87-8.13-6.4-15.64-13.52A227.87,227.87,0,0,1,37.57,272.08c0-126,102.17-228.22,228.21-228.22S494,146,494,272.08Z"/><path class="cls-2" d="M150.39,132.6s46.27-55.6,70.76-20c0,0,18.28,7.58,24.89,38.68,6.74,31.74-14.36,55.87-25.27,49.91-7-3.83-12.3,8.42-12.3,8.42Z"/><path class="cls-2" d="M216.1,106.94s6.22-24.89,42.77-17.11c0,0-17.5-2.21-22.29,4.53,0,0,13.87-6.35,22.55-1s10.11,23.2,8.81,28.64-10.88,21.65-17.23,21.65S236.84,138,236.84,138Z"/><path class="cls-3" d="M270.83,500.25c-1.68,0-3.36.05-5.05.05q-9.06,0-17.94-.7h0a226.82,226.82,0,0,1-115.26-42.2c4.33-22.1,4.1-38.56,2.22-52.4-2.27-16.65-6.92-29.51-8.92-43.78a90.47,90.47,0,0,1-.76-18.78c1-15.23,5.88-30.84,11.73-44.61,0,0,0,0,0,0a246.55,246.55,0,0,1,14.73-28.93c5.12-8.64,8.93-13.93,8.93-13.93h.17l3.65-.35.66-.06c2.18-1.15,2.77-10.32,2.74-20,0-.57,0-1.13,0-1.7,0-1.13,0-2.27-.05-3.39,0-.7,0-1.4,0-2.09l0-1,0-1c0-.49,0-1-.05-1.46,0-.83-.06-1.64-.09-2.42,0-.06,0-.12,0-.18,0-.57-.05-1.14-.08-1.68,0-.37,0-.72,0-1.06,0-.56-.06-1.08-.08-1.59l0-.58c-.09-1.63-.17-3-.23-4,0-.09,0-.18,0-.27-.06-.94-.1-1.48-.1-1.48l26.66-5.28h0l10.26-2,2.22-.44,2.33-.47v0c0,2.44.05,4.82.15,7.12,1,23.23,7.4,38.39,12.13,42.16a4.26,4.26,0,0,0,1.55.86,18.79,18.79,0,0,1,7.58,3.89c18,14.13,39.94,62.44,33.24,107.56a99.79,99.79,0,0,1-4.84,19.4c-1.08,3-2.1,5.77-3.07,8.39a.08.08,0,0,1,0,0c-7.68,20.83-11.6,30.47-11.39,39.47.31,12.83,9,24.35,27.17,65.11A4.93,4.93,0,0,1,270.83,500.25Z"/><path class="cls-4" d="M166.81,210.62s.89,12.32.91,23.92c21.91-.62,33.49-20.6,38.23-31.68Z"/><path class="cls-2" d="M210,198.6s11.48-18.13,14.24-33.64c2-11.08-3.67-52.12-44.92-46.21a56,56,0,0,0-23.24,8.79c-8.95,6-21.87,19.1-7.42,54.92l3.75,12.1Z"/><path class="cls-3" d="M159.49,221.61s51.83.85,51.86-31.43,6.75-53.92-26.34-55.83-39.53,10.4-42.16,21.17S146,220.55,159.49,221.61Z"/><path class="cls-2" d="M164.93,136.63s-10.6,8.46-13.18,16.68-3.75,25.15-8.68,24.57c0,0-10.69-25.74,1.32-40.31C157.13,122.13,164.93,136.63,164.93,136.63Z"/><path class="cls-3" d="M322.84,493.11A226.47,226.47,0,0,1,296,498.32C282.7,474.44,269,448,266.65,437.07c-1.47-6.94-5-20.56-9.12-36-.16-.61-.33-1.23-.5-1.85-.66-2.45-1.33-4.94-2-7.44-.13-.5-.27-1-.4-1.5,0,0,0,0,0-.06-1.17-4.3-2.36-8.66-3.55-13a.64.64,0,0,1,0-.07.14.14,0,0,0,0-.06c-7.44-27.08-14.61-52.37-14.61-52.37l-3.84-16.59-7.72-33.45h0l-5.34-23.12,1.06.11c1.71.2,5.35.65,9.92,1.37,8.3,1.32,19.66,3.57,28,6.91l.39.16.1,0,.21.08c4.13,1.73,7.43,3.74,9.11,6.06l0,0a6.4,6.4,0,0,1,.69,1.17c10.75,23.64,21.48,83.29,29,125.84.19,1.06.37,2.11.55,3.15,3.93,22.19,6.93,39.14,8.53,42.88C309.83,445.78,315.86,469,322.84,493.11Z"/><path class="cls-3" d="M163.69,266.69,158,297l-5,26.77-3.14,16.73s-8,33.24-15.07,64.5c-.83,3.64-1.65,7.25-2.44,10.78-3.3,14.68-6.16,27.93-7.6,35.75q-8.13-6.4-15.64-13.52a226.32,226.32,0,0,1-18.8-20q.42-3.12.86-6.38c2.5-18.6,5.47-40.44,8.82-61.17,4.38-27,9.41-52.16,14.93-65.77.94-2.33,3.45-4.44,6.88-6.34h0c.83-.45,1.71-.9,2.64-1.34a88,88,0,0,1,11.93-4.37c5.22-1.54,10.61-2.81,15.2-3.76,1.53-.32,3-.6,4.29-.85C160.55,267.15,163.69,266.69,163.69,266.69Z"/><path class="cls-5" d="M298.56,396.52c1.43-.66,2.88-1.4,4.33-2.2-8.78-42.85-21.27-102.93-33.77-126.74a7.53,7.53,0,0,0-.83-1.22l0,0a13.25,13.25,0,0,0-2.22-2l.12-.15a38.77,38.77,0,0,0-7.22-4l-.1,0-.39-.16c-12.2-5.22-28-6.93-28-6.93v0c0,.17-.32,1.43-.79,3.38-1,4.15-2.81,11.47-4.85,18.26h0c-2.13,7.09-4.49,13.61-6.4,15.36-3.39,3.11-40.05,7.65-60.42,6.92-7.68-.28-13-1.29-13.47-3.42-.87-4.34,5.55-16.06,11.31-25.55,4.1-6.75,7.87-12.38,8.46-13.44a36,36,0,0,0-3.65.35h-.17c-7.72,1-13.16,1.79-17.08,2.46a56,56,0,0,0-7.67,1.71h0c-1.24.34-31,9.14-44,82.52,0,0,10.58,14.51,25.49,18.79.39.12.79.21,1.19.31h0c-1.27,21.17-5.73,49.23-9.28,77.25q7.5,7.11,15.64,13.52,3.84,3,7.82,5.87a226.82,226.82,0,0,0,115.26,42.2h0q8.88.7,17.94.7c1.69,0,3.37,0,5.05-.05,2.65-.06,5.28-.16,7.91-.32-.19-.83-.37-1.66-.56-2.51-.38-1.7-.77-3.44-1.19-5.21-.21-.89-.42-1.79-.62-2.69-.51-2.12-1-4.29-1.55-6.49s-1.06-4.46-1.61-6.75c-.72-3-1.46-6-2.2-9.11-.25-1.06-.51-2.12-.76-3.19s-.53-2.2-.79-3.3q-1.65-6.92-3.28-14.08l-.54-2.37c-.45-2-.9-4-1.35-6.08-.16-.75-.33-1.51-.49-2.28-.34-1.53-.67-3.07-1-4.61-.16-.78-.33-1.55-.48-2.33l-.66-3.23c-.66-3.24-1.29-6.49-1.89-9.73-.2-1.12-.41-2.23-.6-3.34q-.63-3.5-1.2-7c-.13-.78-.25-1.55-.38-2.32l-.36-2.32.29.08C263.18,402.56,279.45,405.43,298.56,396.52Z"/><path class="cls-6" d="M278.74,499.93c-2.63.16-5.26.26-7.91.32-1.68,0-3.36.05-5.05.05q-9.06,0-17.94-.7h0c-2.92-3.28-6-6.91-9.06-10.93-47.2-61-4-132.7,1.78-134,2.88-.66,7,10.8,10.46,22.5a.14.14,0,0,1,0,.06.64.64,0,0,0,0,.07c1.33,4.53,2.56,9.1,3.55,13,0,0,0,0,0,.06.13.52.26,1,.39,1.54,1.37,5.4,2.23,9.17,2.23,9.17l.36,2.32c.13.77.25,1.54.38,2.32q.57,3.48,1.2,7c.19,1.11.4,2.22.6,3.34.6,3.24,1.23,6.49,1.89,9.73l.66,3.23.48,2.33c.32,1.54.65,3.08,1,4.61.16.77.33,1.53.49,2.28.45,2,.9,4.06,1.35,6.08l.54,2.37q1.62,7.15,3.28,14.08c.26,1.1.53,2.21.79,3.3s.51,2.13.76,3.19c.74,3.09,1.48,6.13,2.2,9.11q.82,3.44,1.61,6.75c.53,2.2,1,4.37,1.55,6.49.2.9.41,1.8.62,2.69.42,1.77.81,3.51,1.19,5.21C278.37,498.27,278.55,499.1,278.74,499.93Z"/><path class="cls-2" d="M163,137.91s10.11,39.67,37.59,52.37c0,0-27.48-24.37-29.82-50.55S163,137.91,163,137.91Z"/><path class="cls-2" d="M161.41,133.56s14.19,37.87,36,43.47,31.22-.23,31.22-.23-16.7-13.27-20.17-36.43C208.43,140.37,172.11,115.53,161.41,133.56Z"/><path class="cls-7" d="M389.83,342.83c-39.43,12.44-107.66-21.14-107.66-21.14s36.36-27.29,34.45-84l30.49,24.57,20.71,16.69A246.27,246.27,0,0,1,365.47,306c-.59,4.54-1.34,9.59-2.28,15.12A94.32,94.32,0,0,1,389.83,342.83Z"/><path class="cls-4" d="M367.82,278.93A246.27,246.27,0,0,1,365.47,306c-22.94-3.94-49-41-49-41,11.69-3.37,21.92-4,30.62-2.74Z"/><path class="cls-7" d="M379.88,278s-65.13,10.82-71.25-29.85S290,181.5,331.32,172.87s51.76,5.67,57.1,18.75S396.67,274.13,379.88,278Z"/><path class="cls-8" d="M430.85,405.61c-7.9-31.78-26.07-52.72-42.66-68.12l-13.62-12c-1.12.23-2.26.43-3.39.61a64,64,0,0,1-39.06-5.75c-15.6-7.7-32.58-16-35.35-14l-.69.53a67.52,67.52,0,0,0-13.72,14.73l-.13.17c-22.66,32.32-33.91,93.49-33.65,161.52,0,2.27,0,4.54.06,6.83,0,.71,0,1.42,0,2.13v.19q.06,3.63.18,7.29c5.58.41,11.23.62,16.92.62,1.69,0,3.37,0,5.05-.05,2.65-.06,5.28-.16,7.91-.32,5.81-.31,11.57-.86,17.26-1.61,3.64-.49,7.27-1.05,10.86-1.71,1.16-.2,2.32-.43,3.47-.66,4.22-.82,8.39-1.78,12.51-2.84q4.79-1.22,9.48-2.66c4.79-1.45,9.53-3.07,14.18-4.84a228.39,228.39,0,0,0,88.25-60.12C433.57,418,432.27,411.33,430.85,405.61Z"/><path class="cls-8" d="M308.58,244.24s6.68-1.12,5.61-10.33-1.07-21.24,6.42-19,7.85,8.23,10.93,4.73,3.13-18.24,25.4-19.27,31.33,6.73,41.68,2.17,10.91-20.23,10.91-20.23-2.95,5.6-7.4,7.38c0,0,17.28-23.63-2.72-39.84s-40.41-5.59-52-4.89c-25.5,1.54-42,3.07-50.31,19.83S292.21,228.1,308.58,244.24Z"/><path class="cls-9" d="M351.33,435.51h0s0,0,0,0l0,.07c-.49,1.93-6.41,25-4.78,50-4.65,1.77-9.39,3.39-14.18,4.84q-4.69,1.44-9.48,2.66c-4.12,1.06-8.29,2-12.51,2.84-1.15.23-2.31.46-3.47.66q1.78-4.44,3.63-8.72v0C322.23,460.62,336.13,438.9,351.33,435.51Z"/><path class="cls-8" d="M272.41,350.53s-11,63.82-21.23,126.44h0q-1.27,7.74-2.5,15.4h0q-.59,3.62-1.16,7.19l.31,0h0l1,.08c5.58.41,11.23.62,16.92.62,1.69,0,3.37,0,5.05-.05,2.65-.06,5.28-.16,7.91-.32,5.81-.31,11.57-.86,17.26-1.61,3.64-.49,7.27-1.05,10.86-1.71,1.16-.2,2.32-.43,3.47-.66,4.22-.82,8.39-1.78,12.51-2.84q4.79-1.22,9.48-2.66c9.91-28.94,18.29-52.89,19-54.82l0-.07s0,0,0,0h0Z"/></svg>