<svg id="Layer_1" data-name="Layer 1" xmlns="http://www.w3.org/2000/svg" viewBox="0 0 533.74 533.74"><defs><style>.cls-1{fill:#ffeae5;}.cls-2{fill:#3e3d51;}.cls-3{fill:#b5755e;}.cls-4{fill:#233862;}.cls-5{fill:#132644;}.cls-6{fill:#efcbab;}.cls-7{fill:#d8a987;}.cls-8{fill:#8c4d37;}.cls-9{fill:#a53d38;}.cls-10{fill:#c45446;}.cls-11{fill:#912f2f;}.cls-12{fill:#1c468a;}.cls-13{fill:#bc3f3f;}.cls-14{fill:#9b2323;}.cls-15{fill:#fff;}.cls-16{fill:#b56f40;}.cls-17{fill:#c94c43;}.cls-18{fill:#ddb08e;}.cls-19{fill:#99592e;}.cls-20{fill:#e62a00;}.cls-21{fill:#2c3a64;}.cls-22{fill:#d2e3fc;}.cls-23{fill:#fff0e6;}.cls-24{fill:#b32100;}.cls-25{fill:#82b378;}.cls-26{fill:#b56d50;}.cls-27{fill:#6bb7bf;}.cls-28{fill:#86d1cd;}.cls-29{fill:#5685d8;}.cls-30{fill:#739af0;}.cls-31{fill:#ff6d4d;}.cls-32{fill:#ed7d2b;}</style></defs><path class="cls-1" d="M429.25,447.31c42-26.95,44.76-157.6-36.5-188.18S326.55,151.38,258.19,93.7c-62.31-52.58-165.4-8-199.74,128.73C34,319.93,62.54,442.25,82,447.31Z"/><path class="cls-2" d="M452.22,449.87H57.57a2.34,2.34,0,0,1-2.34-2.34h0a2.34,2.34,0,0,1,2.34-2.34H452.22a2.34,2.34,0,0,1,2.34,2.34h0A2.34,2.34,0,0,1,452.22,449.87Z"/><path class="cls-3" d="M352,309.21s-3,6.44-2.82,8.2,2.82,7.34,2.82,7.34L355.25,310Z"/><polygon class="cls-3" points="354.38 281.53 352.04 309.21 355.25 309.96 363.74 284.86 354.38 281.53"/><polygon class="cls-4" points="423.57 192.62 391.61 173.75 369.65 189.14 400.06 206.88 423.57 192.62"/><path class="cls-5" d="M407.15,201.32a10.78,10.78,0,0,0,5.29,7c4.47,2.4,8.3,3.1,7.34,10.81s4.31,9.47,5.27,14.58.84,14.44-12,11.65-42.16-.8-45.35-5-1-12.77,4.48-19.32-1.76-10.82.79-16.59a60.63,60.63,0,0,1,7.46-11.69S401.54,188.85,407.15,201.32Z"/><polygon class="cls-3" points="401.1 413.64 396.77 431.85 390.3 431.81 390.06 413.64 401.1 413.64"/><polygon class="cls-3" points="346.62 414.42 334.32 431.85 329.52 425.7 336.93 412.02 346.62 414.42"/><path class="cls-3" d="M384.08,230.12s.8,20.27,4.27,20.31c.73,0,6.09-14.18,6.78-14.37,3.71-1,4.23-10.1,4.18-10.11-1.57-.31-2-2.47-2-11.76l-.71.14-11.95,2.37s.27,3.76.28,7.31C385,227,384.77,229.8,384.08,230.12Z"/><path class="cls-6" d="M432.36,209.8l.39-.82c-8.69-4.13-9.16-13.92-9.15-16.18a.74.74,0,0,0-.43-.67h0a.4.4,0,0,0-.56.37C422.62,195.13,423.29,205.48,432.36,209.8Z"/><polygon class="cls-7" points="432.75 208.98 433.97 209.17 433.27 210.57 432.36 209.8 432.75 208.98"/><path class="cls-6" d="M434,209.17s1.6.73,2,.32c0,0-.19,1.43-.84,1.7a4.62,4.62,0,0,1-1.89-.62Z"/><path class="cls-8" d="M384.66,216.7s.27,3.76.28,7.31c6.69-.19,10.22-6.29,11.67-9.68Z"/><path class="cls-5" d="M399.07,214.75s4.53-4.73,6.29-9.21c1.26-3.19,2-15.82-10.66-16.54a17.06,17.06,0,0,0-7.48,1.23c-3.05,1.27-7.7,4.4-5.54,16l.39,3.85Z"/><path class="cls-9" d="M330.67,421.71s3.18.55,5.79.75c.58,0,1.13.07,1.61.07a27.79,27.79,0,0,0,5-.83l.11,0,1.37-.34.08,0s15.84-17.64,24.72-45.91c.21-.65.43-1.32.66-2,4.86-14.18,14.94-32,20.25-48.09q1.27-3.84,2.29-7.26c.22-.74.43-1.45.63-2.16a171.14,171.14,0,0,0,6.1-32.08L367.38,292S354,350.09,330.67,421.71Z"/><path class="cls-3" d="M382.57,218.59S398,222,400,212.31s5.28-15.73-4.51-18.29-12.46.72-13.9,3.79S378.59,217.46,382.57,218.59Z"/><path class="cls-5" d="M388.45,192.36s2,12.19,8.14,15.18,9.36,1.81,9.36,1.81a18.83,18.83,0,0,1-3.84-12.12S392.74,187.61,388.45,192.36Z"/><path class="cls-5" d="M389.32,193.49s-3.68,1.89-4.95,4.19-3.91,3.13-4.08,6.83c0,0-1.65-8.35,2.83-12C387.86,188.68,389.32,193.49,389.32,193.49Z"/><path class="cls-3" d="M397,430.83a17.64,17.64,0,0,0,.82,7.47s1.06,4.83-3.69,4.92-5.93-.36-5.39-3.32,1.57-8.08,1.57-8.08Z"/><path class="cls-10" d="M397.81,438.3s.88,4.56.35,7c0,0-1.44,1.08-4.89,1.08a10,10,0,0,1-5-1.08s-.1-5,.78-7.1C389.06,438.18,392.43,443.24,397.81,438.3Z"/><path class="cls-3" d="M318.06,440.38s8.77-9.73,11.46-14.68L336,429l-14.57,13.69-3.42-.45Z"/><path class="cls-10" d="M312.49,446.09s9.42,0,11-.18,2.91-2.51,4.66-6a5.88,5.88,0,0,1,4-2.66v8.11h2.49l2.35-8.62c1.56-2.85.13-5.44-1-7.69-1.27,0-4.69.86-11.17,8.16a8.46,8.46,0,0,1-6.81,3.18l-.1.05C312.58,442.86,312.49,446.09,312.49,446.09Z"/><path class="cls-11" d="M336.46,422.46c.58,0,1.13.07,1.61.07a27.79,27.79,0,0,0,5-.83l.11,0,1.37-.34.08,0s15.84-17.64,24.72-45.91c.21-.65.43-1.32.66-2,4.86-14.18,14.94-32,20.25-48.09q1.27-3.84,2.29-7.26c.22-.74.43-1.45.63-2.16l-5.64-4.29s-17,27.46-22.22,53.31C361,386.35,342.27,414.12,336.46,422.46Z"/><path class="cls-9" d="M387,367.34c-.09,12.56.54,41.46,2.18,53.42,0,0,1.55,1.38,5.4,1.39s5.71-1.44,5.71-1.44c4.1-20.79,7-38,9.15-52.84,1.75-12.16,3.3-22.6,4.49-31.58,1.06-8-5.62-29.51-5.62-29.51l-25.08-2.45C383.63,326.35,387,360,387,367.34Z"/><path class="cls-11" d="M394.56,422.15a9.75,9.75,0,0,0,5.71-1.44c4.1-20.79,7-38,9.15-52.84,1.75-12.16,3.3-22.6,4.49-31.58,1.06-8-5.62-29.51-5.62-29.51l-8.5,5.43s12,11,9.09,31.7S398.68,419.22,394.56,422.15Z"/><path class="cls-12" d="M355.07,289.41a29.13,29.13,0,0,0,5.08,1.09c2.78.41,5.49.67,7.22,1.46,5.13,2.32,17.55-66.28,17.55-66.28s-9,.09-13.19,6.63S351.42,271.17,350,281.53C349.34,286.19,351.75,288.29,355.07,289.41Z"/><path class="cls-12" d="M336.46,381.93a22.94,22.94,0,0,0,3.11,5,36.29,36.29,0,0,0,4.56,4.82c5.08,4.5,13.17,9.36,25.68,11.78.66.13,1.34.25,2,.36,3.76.63,7.38,1.07,10.83,1.38a140.51,140.51,0,0,0,18.68.39c3.67-.16,6.9-.47,9.61-.81a77.61,77.61,0,0,0,9.62-1.7s0-62-5.11-98.8C412.64,284,403.16,226,403.16,226l-4.72-.73-11.31,25.19-2.21-24.75-5.14,1.66a7.67,7.67,0,0,0-5.1,5.43Z"/><polygon class="cls-13" points="372.91 286.71 399.14 284.05 394.89 246.04 368.65 248.7 372.91 286.71"/><polygon class="cls-14" points="394.89 246.04 396.57 245.91 400.52 283.89 399.14 284.05 394.89 246.04"/><path class="cls-3" d="M416.89,265.63a276.81,276.81,0,0,1-36,8.14s-5.81,2.52-3.08,3.2c.7.18,35.95,7.87,41.18,2.88Z"/><path class="cls-12" d="M398.48,225.24s13.79,1.67,16.1,4.45c7.34,8.8,14,46.37,8.24,55-6.87,10.36-17.44-5.9-20.76-15.48C400.34,264.28,397.54,234.27,398.48,225.24Z"/><path class="cls-3" d="M382.6,273.52s-2.16-.2-2.57-.9c-.82-1.38-2.12-1.36-3.2-1.54s-2.3-1.37-2.52-1.13.8,1.54,1.37,2a4.67,4.67,0,0,1-1.93-.3c-.77-.36-3.47-3.44-3.48-2.12,0,3.2.21,3.71,3,6,2.24,1.86,9.87,2.55,9.87,2.55Z"/><path class="cls-4" d="M398.52,264.8l.54,5.4a20,20,0,0,0,3-.95c7.56-3,4.58-18.05,4.58-18.05C405.46,257.21,401.67,261.86,398.52,264.8Z"/><path class="cls-12" d="M380.46,192.85s11.17-4.24,26.69,8.47l-.32-2.9a9.37,9.37,0,0,0-3.72-6.53,25.46,25.46,0,0,0-11.79-4.48,10.53,10.53,0,0,0-10.05,4.31Z"/><path class="cls-4" d="M355.07,289.41a29.13,29.13,0,0,0,5.08,1.09l7.25-32S355.2,283.1,355.07,289.41Z"/><path class="cls-15" d="M388.1,213.28s-.71,1.38-1.76,1.38a14.2,14.2,0,0,1-3.9-.5,13.19,13.19,0,0,1-.7-1.7S386.13,212.38,388.1,213.28Z"/><path class="cls-16" d="M237.6,157.22s3-2.66,3.68-4.53.63-5,.63-7.05a.82.82,0,0,0-1.11.66c-.21,1-.61,3.22-1.43,3.67s-2.66.4-3.09,2.72A6.5,6.5,0,0,0,237.6,157.22Z"/><path class="cls-16" d="M230.83,157.67s-2.68-5.5-2.14-7.29,8.8-3.76,9.89-2.91,0,11.13,0,11.13Z"/><path class="cls-16" d="M317.76,323.5s-.39,4.55,1.19,6.72,2.44,4.15,3,3.16-.85-4.41-.39-4.35,1.74,4.09,2.38,5.34,2,3.23,3,2.24-.85-10.34-1.58-11.53-2.24-3.82-2.24-3.82Z"/><polygon class="cls-4" points="260.96 186.52 292.41 168.84 313.53 195.02 284.74 208.98 260.96 186.52"/><path class="cls-17" d="M274.17,194.86s-.66,2.83-2.51,3.83,1.06,3.72.33,5.72,2.2,4.57,2.2,4.57l20.31,2.34a5.83,5.83,0,0,0,3.24-4.78c.27-3.49.58-7.85.58-7.85l-8.87-6.77-12.78.6Z"/><path class="cls-6" d="M205.93,161a39.77,39.77,0,0,1-1.59-4.6,16.92,16.92,0,0,1-.6-3.24,5.45,5.45,0,0,1,.09-1.5s26.18-5.41,28.75-6.45,25.09-8.59,25.09-8.59a32.08,32.08,0,0,1,1.48,3.7,25.34,25.34,0,0,1,.73,2.58,13.76,13.76,0,0,1,.32,5s-26.53,3.15-29.28,4.46S205.93,161,205.93,161Z"/><path class="cls-18" d="M204.34,156.4a16.92,16.92,0,0,1-.6-3.24,5.45,5.45,0,0,1,.09-1.5s26.18-5.41,28.75-6.45,25.09-8.59,25.09-8.59a32.08,32.08,0,0,1,1.48,3.7,25.34,25.34,0,0,1,.73,2.58c-7.47.92-27.73,3.5-30.25,4.7S211,154.18,204.34,156.4Z"/><path class="cls-17" d="M237,143.62s-7,.68-9.52,2.92l1.48,6.59s6.42-.65,9.64-2.35Z"/><path class="cls-4" d="M243.37,448.47s0-4.2.6-5.6,2.8-7.09,2.8-7.09h8.59a52.85,52.85,0,0,1,1.69,6.89c.1,1.7,0,5.8,0,5.8Z"/><path class="cls-4" d="M297.9,448.47s0-4.2-.6-5.6-2.8-7.09-2.8-7.09h-8.58a52.49,52.49,0,0,0-1.7,6.89c-.1,1.7,0,5.8,0,5.8Z"/><path class="cls-16" d="M276.42,211.8S274.7,221,272.87,225l-10.38,5.1L277,258.79l20-18-6.63-12.92s-.63-12.8,1.41-17.18S276.42,211.8,276.42,211.8Z"/><path class="cls-19" d="M276.17,213.07s1.76,7.15,7,7.81,7.38-5.1,7.38-5.1Z"/><path class="cls-16" d="M283,218.19c-3.8-.65-10-6.8-9.06-13.08l1.51-9.8c.35-2.29,2.24-3.92,4.19-3.62l14.53,2.23c2,.31,3.27,2.43,2.91,4.72l-1.42,9.24C294.65,214.47,287.36,218.94,283,218.19Z"/><path class="cls-20" d="M244.45,302.87c0-1.14,1.49,45.55-.74,72.06-2.22,26.18,0,62.61,0,62.61a17,17,0,0,0,15,0s8.54-50.57,8.48-62.61c-.05-12.82,9.3-70.06,9.3-70.06Z"/><path class="cls-20" d="M297.59,437.54a17,17,0,0,1-15,0s-8.54-50.57-8.49-62.61c0-5.41-1.63-18.75-3.55-32.35-2.63-18.61-5.75-37.71-5.75-37.71l33.27-2.08s-2.74,46-.49,72.14S297.59,437.54,297.59,437.54Z"/><path class="cls-21" d="M279.89,205.77c-1.42-.21-4.21-1-4.33-3.51a2.24,2.24,0,0,1,.7-1.85,2.68,2.68,0,0,1,2.21-.57l4.37.68a1.93,1.93,0,0,1,1.61,1,2.87,2.87,0,0,1-.46,2.44c-.92,1.52-2,2.13-3.3,1.93A6.73,6.73,0,0,1,279.89,205.77Zm-1.46-5.64a2.38,2.38,0,0,0-2,.49,2,2,0,0,0-.61,1.63c.06,1.3.89,2.26,2.45,2.84a8.62,8.62,0,0,0,2.41.48h0c1.21.19,2.17-.38,3-1.79.19-.32.79-1.4.43-2.17a1.67,1.67,0,0,0-1.39-.81Z"/><path class="cls-21" d="M289.94,207.32a7.8,7.8,0,0,1-.79-.16c-1.32-.2-2.14-1.11-2.57-2.83a2.87,2.87,0,0,1,.3-2.47,2,2,0,0,1,1.83-.44l4.36.67a2.66,2.66,0,0,1,1.94,1.2,2.24,2.24,0,0,1,.11,2C294.25,207.66,291.36,207.54,289.94,207.32Zm-1.27-5.61a1.64,1.64,0,0,0-1.57.35c-.57.62-.33,1.84-.24,2.2.4,1.6,1.14,2.43,2.35,2.62h0a8.93,8.93,0,0,0,2.44.26c1.67-.08,2.74-.74,3.19-2a1.93,1.93,0,0,0-.09-1.73,2.36,2.36,0,0,0-1.73-1.06Z"/><path class="cls-21" d="M283.9,202.74a.17.17,0,0,1-.14-.12.18.18,0,0,1,.12-.22,4.13,4.13,0,0,1,3.3.52.17.17,0,0,1,0,.24.16.16,0,0,1-.24,0,3.8,3.8,0,0,0-3-.45Z"/><path class="cls-15" d="M280.06,230.05l-9.83-4.26s-5.08,40.42,1.7,42.92c0,0,19.36-34.38,18-38.79Z"/><path class="cls-22" d="M273.84,223.23a9.63,9.63,0,0,0-4.22,1.86s2.11,6.85,7.71,8.89l2.4-3.93S275.16,227.89,273.84,223.23Z"/><path class="cls-22" d="M279.73,230.05s9.16-.35,10.52-4.76a7.43,7.43,0,0,1,1.76,5s-2.89,4.38-10.14,4.43Z"/><path class="cls-23" d="M280.49,211.32s4.87.22,7,1.08a4.22,4.22,0,0,1-3.43,1.47C282.14,213.57,280.78,212.63,280.49,211.32Z"/><path class="cls-16" d="M246,197c-4.42,2.78-10.46,6.56-15.38,9.54a17,17,0,0,1-.53-2.25c-1.63-10.42.74-46.59.74-46.59a10.53,10.53,0,0,1,3.34-1,4.48,4.48,0,0,1,4.41,1.89S244.17,190.42,246,197Z"/><path class="cls-12" d="M324.25,322.77l-3.33,1.39a9.79,9.79,0,0,1-12.83-6.05c-2.34-7.25-2.59-15.07-3.46-21.5-.42-3.16-.92-9.68-2.83-14.76h0l3.35,112.43C255,397.83,230.48,369,230.48,369c-1.29-30.44,10.87-99,15.3-122.79-2.14-4.83-17.32-18.69-19.85-32.3-1.18-6.32,2.51-10.79,7-13.81a41.28,41.28,0,0,1,12.54-5.3l16.22,21.68a10.54,10.54,0,0,1,1.36,1.78c1.25,2.55,7.74,6.77,7.74,6.77s.7,36.56,2,37.72c1.91-.73,14.7-26.34,17.53-34.88a95.65,95.65,0,0,1,13.11,4.68s8.78,4.69,10,25.12c1,17.33,11.64,39.44,14,59.54A5.35,5.35,0,0,1,324.25,322.77Z"/><path class="cls-24" d="M269,223.77s1.18,35.31,2.69,44.15L294.18,229l-3.1-1.15-17.8,32.24L271.53,225Z"/><path class="cls-15" d="M273.84,222.4a9.5,9.5,0,0,0-4.22,1.86s2.11,6.84,7.71,8.89l2.4-3.1S275.16,227.06,273.84,222.4Z"/><path class="cls-15" d="M279.73,230.05s9.16-1.19,10.52-5.6a7.44,7.44,0,0,1,1.76,5s-2.89,4.37-10.14,4.42Z"/><circle class="cls-4" cx="267.96" cy="271.69" r="1.66"/><path class="cls-4" d="M263.17,286.67a1.66,1.66,0,1,1,1.66,1.66A1.66,1.66,0,0,1,263.17,286.67Z"/><path class="cls-6" d="M263.24,203.1l.55-.53c-5.57-5.87-3-13.69-2.29-15.46a.61.61,0,0,0-.14-.65h0a.33.33,0,0,0-.55.12C260,188.65,257.43,197,263.24,203.1Z"/><polygon class="cls-7" points="263.79 202.57 264.68 203.09 263.71 203.98 263.24 203.1 263.79 202.57"/><path class="cls-6" d="M264.68,203.09s1,1.06,1.5.86c0,0-.58,1.06-1.17,1.08a4,4,0,0,1-1.3-1.05Z"/><path class="cls-17" d="M274.68,197s3.9.26,5.05-1.71c0,0,3.17.79,4.56-.4,0,0,4.89,1,5-1,0,0,3.74,7.48,7.83,5.91s-6.55-9.13-6.55-9.13l-13.92,1.85Z"/><path class="cls-12" d="M275,191.39l-.79,3.47S285,191,298.32,198.69l-.16-5.59a3.76,3.76,0,0,0-1.37-2.82c-2.4-2-8.14-5.86-18.78-2.77C276.52,188,275.31,189.88,275,191.39Z"/><path class="cls-16" d="M227.43,148.58a3.36,3.36,0,0,1,.23-3.1c1-1.39,7.42-3.52,8-2.4s.22,5-1.85,5.89S227.59,149.44,227.43,148.58Z"/><path class="cls-4" d="M245.78,246.2c-2.14-4.83-17.32-18.69-19.85-32.3-1.18-6.32,2.51-10.79,7-13.81a25.18,25.18,0,0,0,3.86,18.18C242.74,226.9,245.78,246.2,245.78,246.2Z"/><path class="cls-4" d="M320.92,324.16a9.79,9.79,0,0,1-12.83-6.05c-2.34-7.25-2.59-15.07-3.46-21.5-.42-3.16-.92-9.68-2.83-14.76A128.48,128.48,0,0,1,312.94,306C318.21,321,316.56,323.23,320.92,324.16Z"/><path class="cls-25" d="M486.59,448.43h-28.3c-1.52-1.28,1-4.2,3.73-4.4a16.64,16.64,0,0,1,4.32.51c.39-5.17,2.61-28.42,11-27.49,9.42,1.05,0,10.24-2.67,15.68a130.53,130.53,0,0,0-5,12.55c.76.16,1.55.32,2.36.47,1.25-3.83,5.9-16.73,11.81-16,6.94.88,4.15,6.05-.77,9.12-3.61,2.26-8,5.47-10.14,7a29.57,29.57,0,0,0,5.53.44C483.31,446.24,485.67,447.67,486.59,448.43Z"/><path class="cls-25" d="M90.84,445.47s-13-35.85-22.21-32.79S90.84,445.47,90.84,445.47Z"/><path class="cls-25" d="M85.84,445.47c-1.11,0-21.93-21.62-23.32-16S85.84,445.47,85.84,445.47Z"/><path class="cls-25" d="M108.06,445.47s-8.62-7.9-19.52-5.84-15.56,4.3-22.41,2.75-10.35,3.09-10.35,3.09Z"/><path class="cls-26" d="M135.24,358.93c2-3.15-14.92-37.95-5.83-57.32,1.13-2.42,22.22,1.19,22.22,1.19s4.31,48.93,1.89,61.88c-1.71,9.15-5.07,36.14-6.88,51.2l0,.15c-.43,3.58-.78,6.47-1,8.27a8.6,8.6,0,0,0,.47,4c1.34,3.68,4.26,11.31,5.72,12.36,0,0-8,2.28-9.51,1.38s-5.43-15-5.43-15a6.93,6.93,0,0,0,.69-4.25c-.3-1.91-.76-4.92-1.28-8.62h0C129.41,386.39,130.44,366.44,135.24,358.93Z"/><path class="cls-26" d="M90.16,421.37a6.87,6.87,0,0,0,2.15-3.73c.4-1.9,1-4.88,1.85-8.52h0c3.41-28.48,11.42-46.77,18.56-52.11,3-2.23-.54-40.76,14.8-55.68,1.91-1.86,20.37,9,20.37,9s-13.26,47.3-20.1,58.55c-4.83,8-17.51,32-24.53,45.47h0l-3.92,7.52a8.66,8.66,0,0,0-1,3.93c0,3.92-.57,14.42,1,15.34a14.87,14.87,0,0,1,2.49,1.83s-7.28-.62-8.16-.67-6.46-17.51-6.57-17.84h0C88.21,423.21,89.34,422.11,90.16,421.37Z"/><polygon class="cls-4" points="83.47 430.85 81.65 441.55 82.62 442.27 88.34 434.01 83.47 430.85"/><path class="cls-12" d="M83.67,431.67c6.25,3.27,7.18,14.2,8.17,16.55l11.42,0c1.72-.58,1-3-1.44-5.31,0,0-7.28-.62-8.16-.67s-6.46-17.51-6.57-17.84C84.47,427.28,81.93,430.75,83.67,431.67Z"/><path class="cls-20" d="M93.66,395.45c.5,13.68,27.7,11.05,27.7,11.05L125,389.11l2.39-11.54.79-3.83-1.19-.56L109.64,365l-5.42-2.57-.22.68-9.33,29.22h0Z"/><path class="cls-24" d="M94.67,392.3c7.85-8.08,30.28-3.19,30.28-3.19l2.39-11.54-.4-4.39L109.64,365,104,363.07l-9.33,29.22Z"/><polygon class="cls-4" points="134.81 438.01 136.3 448.22 137.95 448.22 138.73 440.31 134.81 438.01"/><path class="cls-12" d="M134.81,438c3.47,1.61,7.27,8.36,9,10.21l14.41.1c1.8-1.47-4.5-6.24-6.43-7.64,0,0-8,2.28-9.51,1.38s-5.43-15-5.43-15C135.17,430.4,132.26,436.83,134.81,438Z"/><path class="cls-20" d="M128.13,368.7,131.71,408c6.65,8.42,24.2,3.25,24.2,3.25s1.34-32.44,2-33.72l-2.55-.75Z"/><path class="cls-24" d="M128.13,368.7,131.71,408c.19-19.33,25.18-17.38,25.18-17.38l-1.51-13.84Z"/><polygon class="cls-4" points="158.75 184.26 122.08 169.72 101.57 189.5 136.43 203.1 158.75 184.26"/><path class="cls-5" d="M141.57,191s.08,4.37,3.29,5.73c6.64,2.82.32,6.08,6.83,10.69,1.5,1.06,2.58,7.65-7.79,8.63s-11.66,1.86-11.66,1.86a16.05,16.05,0,0,1-16.23-.14c-4.93-2.94,1.29-11.13-1-13.22-3-2.8-3.46-12,1-15.8s11.56-6,11.56-6Z"/><path class="cls-6" d="M170.67,200.46l.28-.93c-9.81-2.91-11.92-13.09-12.28-15.47a.76.76,0,0,0-.56-.63h0a.42.42,0,0,0-.53.48C158,186.67,160.44,197.42,170.67,200.46Z"/><polygon class="cls-7" points="170.95 199.53 172.25 199.53 171.75 201.12 170.68 200.46 170.95 199.53"/><path class="cls-6" d="M172.25,199.53s1.81.5,2.19,0c0,0,0,1.53-.6,1.93a5,5,0,0,1-2.09-.34Z"/><path class="cls-26" d="M143.82,218.71c-.73-.1-2.93-1.85-3.93-4.55-1.2-3.23-2.23-6.75-2.23-6.75l-3.19.52L126,209.32l-.7.11a41.28,41.28,0,0,1,1.56,5,26.15,26.15,0,0,1,.8,7,2.92,2.92,0,0,1-1.55,2.66c-.24.15,9,30.38,13.43,28.87C143.36,251.7,144.2,218.6,143.82,218.71Z"/><path class="cls-8" d="M127.62,221.47c5.11-2.07,10-14.07,10-14.07a6.54,6.54,0,0,0-3.19.53c-2.82,1.13-5.69,3.83-7.65,6.55A26.15,26.15,0,0,1,127.62,221.47Z"/><path class="cls-26" d="M124.35,216.59s15.2-2.46,13.52-11.91-.85-16.12-10.63-15-11,5.12-11.22,8.4S120.35,217,124.35,216.59Z"/><path class="cls-26" d="M123,225.36s-25.65-7.72-27.48-9.86-6.26-30.65-6.26-34.76l-3.73.54s-2.77,32.42.44,39.77S121.52,240,121.52,240Z"/><path class="cls-26" d="M143.05,218.34s-3.15,9.82-15.48,3.64l13,28.5L143.9,225Z"/><path class="cls-26" d="M153.53,221.24s-1.55,5.11,28.15,21.3l21.92-15,2.63,2.21s-21,25.32-24.29,24.78-25.84-15.39-25.84-15.39Z"/><path class="cls-12" d="M72.78,347.88a48.54,48.54,0,0,0,2.64,6.21c3.16,6.32,9.37,16,19.75,21.8,11.78,6.59,49.94,19.18,76.15,13.08,0,0-2.48-82.94-8-117-.13-.79-.26-1.56-.39-2.29,1.6,6.12,9.8,8.14,13.16,7,7.39-2.49,10-8.23,10.31-14.3.54-9.35-4.18-19.51-4.72-19.81-12.12-6.88-14.36-17.79-20.24-21.69-5.25-3.48-17.79-2.57-18.4-2.51l-2.74,27.26L127.57,222s-20.56-1.8-32-6.49c0,0-34.36,47.53,8.19,46.91,0,10.94-5.12,20.89-10,35.69S72.78,347.88,72.78,347.88Z"/><path class="cls-15" d="M127.66,209.71s-.17,1.54-1.14,1.92a14.23,14.23,0,0,1-3.83.94,14,14,0,0,1-1.26-1.33S125.49,209.58,127.66,209.71Z"/><path class="cls-26" d="M89.35,180.76s1.57-1.09.74-4.09c-.56-2-.18-3.64-.61-3.59s-.8,2.66-1.07,3.3-3.63-5.91-4.51-5.41-2.58,3.06,1.5,11.88Z"/><path class="cls-26" d="M203.6,227.53s2.33-5.53,3.11-6.67c1.54-2.26,5.92-3.67,6.2-2.67S210.1,220.66,210,223c0,.64,1.27-.6,2.08-1.08.48-.29.78,0,.52.32-1.29,1.87-2,3.8-3.22,4.51a17.19,17.19,0,0,0-3.12,3Z"/><polygon class="cls-24" points="143.05 218.34 140.31 245.6 127.62 221.47 123 221.49 141.67 255.46 146.46 218.2 143.05 218.34"/><path class="cls-5" d="M118.07,190.08s-4.45,5.25,9.59,7.82a6.89,6.89,0,0,1,5.54,8.86c-1.82,5.47,2.79,11.35,9.57,9.23,5.4-1.69-3.4-26.91-8.19-27.29S118.07,190.08,118.07,190.08Z"/><path class="cls-5" d="M123,191.29s-4.51,3.24-4.89,5.83-1.44,6.3-3.16,3.68-2-6.16,0-8.56,6.51-3.47,7.47-2.64A1.51,1.51,0,0,1,123,191.29Z"/><path class="cls-12" d="M115,189.78s8.62-7.42,26.92,3.51l.24-4.52c-.7-2.68-1.56-2.66-4-4a26.9,26.9,0,0,0-13.1-2.87c-4.17,0-6.61-.5-8.51,3.22Z"/><path class="cls-6" d="M229.09,241.61a39.93,39.93,0,0,0,3-3.8,18.33,18.33,0,0,0,1.64-2.85,5,5,0,0,0,.41-1.45s-22.86-13.85-24.93-15.69-20.77-16.48-20.77-16.48a32,32,0,0,0-2.64,3,26.24,26.24,0,0,0-1.55,2.19,13.42,13.42,0,0,0-2,4.59s23.94,11.84,26.09,14S229.09,241.61,229.09,241.61Z"/><path class="cls-18" d="M232.14,237.81a18.33,18.33,0,0,0,1.64-2.85,5,5,0,0,0,.41-1.45s-22.86-13.85-24.93-15.69-20.77-16.48-20.77-16.48a32,32,0,0,0-2.64,3,26.24,26.24,0,0,0-1.55,2.19c6.74,3.36,25,12.57,26.94,14.54S226.58,233.49,232.14,237.81Z"/><path class="cls-17" d="M205.6,214.83s6.36,3,8,5.94L210,226.49s-5.84-2.76-8.31-5.44Z"/><path class="cls-26" d="M209.35,226.71a7.29,7.29,0,0,0,2.57-1.86c1-1.2,2.27-3.14.65-2.65s-4.49,2.51-5.57,2.7-.7,1-.77,1.27S209.35,226.71,209.35,226.71Z"/><path class="cls-4" d="M72.78,347.88a48.54,48.54,0,0,0,2.64,6.21c6.89-7.28,16.48-18.88,23.17-32.83,11.54-24.06,5.12-58.85,5.12-58.85,0,10.94-5.12,20.89-10,35.69S72.78,347.88,72.78,347.88Z"/><path class="cls-4" d="M143.9,265.29a1.15,1.15,0,1,0-1.15,1.15A1.15,1.15,0,0,0,143.9,265.29Z"/><path class="cls-4" d="M143.9,286.16a1.15,1.15,0,1,0-1.15,1.15A1.14,1.14,0,0,0,143.9,286.16Z"/><path class="cls-4" d="M163.33,271.93c-.13-.79-.26-1.56-.39-2.29,1.6,6.12,9.8,8.14,13.16,7,7.39-2.49,10-8.23,10.31-14.3-.8.41-12.78,6.54-18.36,2.94s-9.19-12-9.3-12.22Z"/><path class="cls-27" d="M404.8,159.92a12.53,12.53,0,0,1-7.26,2.32c-2.89-.15-5.84-2.68-6-2.85l-2.1,4.09s5.38,2.93,9.83,1.85a11.44,11.44,0,0,0,4.49-2.87A3.88,3.88,0,0,0,404.8,159.92Z"/><path class="cls-28" d="M404.32,151.63,410,149s-.24,12-10,16.11C400,165.09,405.88,156.61,404.32,151.63Z"/><path class="cls-27" d="M132.83,160.77a12.5,12.5,0,0,1-7.26,2.33c-2.89-.16-5.85-2.69-6-2.86l-2.11,4.09s5.39,2.93,9.83,1.85a11.4,11.4,0,0,0,4.5-2.87A3.94,3.94,0,0,0,132.83,160.77Z"/><path class="cls-28" d="M132.35,152.48l5.64-2.65s-.23,12-10,16.11C128,165.94,133.91,157.46,132.35,152.48Z"/><path class="cls-29" d="M260.22,81.86s8.2-5.7,14.36,2.79l6.76-2.91s-3.34-5.27-16.45-2.93C256.32,80.34,260.22,81.86,260.22,81.86Z"/><path class="cls-30" d="M252.14,87.43s2.23-9.22,19.06-9.22c0,0-6.31.6-11.23,8.78Z"/><path class="cls-31" d="M206.45,118.88s-4.53-2.86-5-6.32c0,0-4.41.24-5.36,1.67,0,0,2,5.72,4.41,6.8C200.49,121,205.85,121.39,206.45,118.88Z"/><path class="cls-31" d="M506.78,359.93s-4.53-2.86-5-6.31c0,0-4.41.23-5.36,1.67,0,0,2,5.72,4.41,6.79C500.82,362.08,506.18,362.44,506.78,359.93Z"/><path class="cls-32" d="M94,243.62s-4.53-2.86-5-6.32c0,0-4.41.24-5.37,1.67,0,0,2,5.72,4.41,6.79C88,245.76,93.39,246.12,94,243.62Z"/></svg>