<svg id="Layer_1" data-name="Layer 1" xmlns="http://www.w3.org/2000/svg" viewBox="0 0 533.74 533.74"><defs><style>.cls-1{fill:#ffeae5;}.cls-2{fill:#333343;}.cls-3{fill:#b85c50;}.cls-4{fill:#7a7e9f;}.cls-5{fill:#979bb4;}.cls-6{fill:#e62a00;}.cls-7{fill:#ff431a;}.cls-8{fill:#853b2f;}.cls-9{fill:#3e3d51;}.cls-10{fill:#20222c;}.cls-11{fill:#8282a8;}.cls-12{fill:#fbf3ff;}.cls-13{fill:#b1b1de;}.cls-14{fill:#ff7685;}.cls-15{fill:#fff;}.cls-16{fill:#f7a491;}.cls-17{fill:#f47458;}.cls-18{fill:#f8a492;}.cls-19{fill:#36384a;}</style></defs><path class="cls-1" d="M461.53,453.94c44.36-28.45,47.26-166.38-38.53-198.67S353.11,141.52,280.94,80.62C215.16,25.11,106.33,72.17,70.08,216.53,44.23,319.47,74.39,448.59,95,453.94Z"/><path class="cls-2" d="M293.12,201.53c1.74,5.83,4.32,18.73-8.12,25.09-7.72,3.95-20.55.06-21.64-5.53s-4.09-19.76,3.38-25.68C273,190.46,289.23,188.51,293.12,201.53Z"/><path class="cls-3" d="M304.82,243.77l29.05,27.12s17.19,11.31,26,17.11c-.62,2.65-1.18,5.34-1.58,8.05-8-3.26-24.92-10.14-31.69-14.8-10-6.88-29.81-24.52-29.81-24.52Z"/><path class="cls-4" d="M303.57,339l.68.52S304.38,338.9,303.57,339Z"/><path class="cls-4" d="M298.08,342.49l.52-.38c2.84-2.25,4.26-3,5-3.07l-28.21-21.79s-.39.33-1.09,1c-.95.91-2.46,2.39-4.46,4.16-4.3,3.77-10.51,8.81-16.94,14.31Z"/><path class="cls-5" d="M288.73,342.56,324,338.45a89.24,89.24,0,0,0-.74-12c-1.54-9.07-18.86-24.23-18.86-24.23l-28.07,7.83-2,.32c0,4.5-.24,7.73-.13,7.87,3.24,4.36,12,15.43,12.85,17.53A67.48,67.48,0,0,1,288.73,342.56Z"/><path class="cls-6" d="M252.82,229.88s11.55,9.47,16.18,8.42l-11.06,19.92s-16.15-12.67-18.19-15.08C239.75,243.14,246.72,231.13,252.82,229.88Z"/><path class="cls-7" d="M271,304c2.88,6.36,3.21,14.23,3.21,14.23,6.84-.72,30.44-5.27,33.76-13.83.12-.31-12.58-11.85-13.37-18-1.18-9.08,1.16-25.89,1.49-26.86.56-1.62,6.4,3.92,6.4,3.92,4.26-1.37,10.75-14.44,10.75-14.44s-15.82-14.23-19.14-15-27,4.29-27,4.29c-1.72.44-5,5.94-5.86,7.61C251.51,265.15,262.19,284.55,271,304Z"/><path class="cls-3" d="M277.57,226.77s.21,9.06,1.3,12.42,1.24,8.35-6,10-3.81-7.35-3.86-10.86-2.15-13.94-2.15-13.94Z"/><path class="cls-8" d="M267.84,229.61c-.51-2.87-1-5.25-1-5.25l10.72,2.41s.05,1.86.19,4.2C273.69,232.75,270.26,231.84,267.84,229.61Z"/><path class="cls-3" d="M276.71,199.5a13.38,13.38,0,0,1,7.09,5.92c2.54,4.55,3.59,17.49-6.22,22.81s-16.51-3.66-16.05-11.91S264.53,197.18,276.71,199.5Z"/><path class="cls-3" d="M259.56,213.58c.66,2,2.16,3.4,3.36,3s1.62-2.35,1-4.4-2.16-3.39-3.35-3S258.9,211.54,259.56,213.58Z"/><path class="cls-3" d="M282.67,217.27c-.84,2.1-.36,4.25,1.06,4.81s3.23-.68,4.07-2.77.35-4.25-1.06-4.82S283.5,215.17,282.67,217.27Z"/><path class="cls-2" d="M285.89,191.41c-2.25-5.46-13.05-25-1-31.16s19.4,6.87,20.31-14.2c.84-19.51,22.51-19.18,27.66-6.26a12.28,12.28,0,0,1,5.83-.95c7.1.58,12.36,7.14,11.74,14.64-.1,1.19.5,2.15.13,3.23,3.38,5.25,4.51,12.16,2.27,20.28-6.13,22.19-24.58,7-32.43,10.72s-.41,8.36-5.86,15.68-11.6,7.9-27.62-1.94l-4.08-2.82A5.12,5.12,0,0,0,285.89,191.41Z"/><path class="cls-9" d="M247.79,354.64l93.27.38a22.47,22.47,0,0,0,22.62-22l2.6-195.18a22,22,0,0,0-22-22.22L251,115.2a22.47,22.47,0,0,0-22.62,22c-.11,8-2.55,190.7-2.61,195.19A22,22,0,0,0,247.79,354.64Zm-12.86-37.32c0-3.94,1.83-136.69,2.41-180.52a13,13,0,0,1,13-12.71l94.23.39a12.67,12.67,0,0,1,12.7,12.82l-2.41,180.52a13,13,0,0,1-13.05,12.71l-94.23-.39A12.68,12.68,0,0,1,234.93,317.32Z"/><path class="cls-3" d="M359.88,291.73a19.59,19.59,0,0,1,2.92.74l-.09-.1-2.39-1.3c-2.23-.78-1.77-2.54.2-2.19a19.5,19.5,0,0,1,3.2.84s-3.83-1.87-4-2.32c-.43-1.45,1.79-2,4.66.17,2.51,1.91,1.42,7.06,1,8.32a5.47,5.47,0,0,1-1.32,2.84l-1.37-2.67a4.84,4.84,0,0,0-3.07-2.14C357.83,293.71,357.92,291.37,359.88,291.73Z"/><path class="cls-10" d="M181.29,134.75c-3.55-1.9-4.72-6.66-2.6-10.62s6.73-5.63,10.29-3.73,4.71,6.66,2.59,10.62S184.85,136.66,181.29,134.75Z"/><path class="cls-10" d="M235.51,149.88h1.24a6.83,6.83,0,0,1,6.83,6.83v3.57a0,0,0,0,1,0,0H228.68a0,0,0,0,1,0,0v-3.57A6.83,6.83,0,0,1,235.51,149.88Z" transform="translate(484.3 20.09) rotate(118.16)"/><path class="cls-3" d="M208.23,173.06c1.08-1.7,4.2-3.83,5.86-4.55s9.17-3.18,10.73-1.69-4.63,9.17-4.35,11.43,16.08,33.58,19.66,39.65c1.77,3,6.49,8.18,10.82,12.67-3.51,1.81-7,6.33-9.18,9.42-6.26-6.77-12.93-14.51-14.78-18.57C223.26,213.23,207.15,174.76,208.23,173.06Z"/><path class="cls-11" d="M204.18,170.39l19.64-17.62,5.49,5.44-16.36,18a2.11,2.11,0,0,1-2.48.47l-5.82-2.89A2.09,2.09,0,0,1,204.18,170.39Z"/><path class="cls-7" d="M189.66,149.72A40.79,40.79,0,0,1,214,154.24l15.4,8.24,3.6-3.87a18.51,18.51,0,0,0,4.48-8.37l1.22-5.15-15.39-8.24a40.81,40.81,0,0,1-17.23-17.73l-6.76-13.51-24.61,46Z"/><path class="cls-6" d="M198.52,140.4c-4.33-.88-14.86,3.93-21.86,7.49l-2,3.71,15-1.88A40.79,40.79,0,0,1,214,154.24l15.4,8.24,3.6-3.87a18.51,18.51,0,0,0,4.48-8.37l1.22-5.15s-4.46,6.57-9.66,8.15S205.26,141.77,198.52,140.4Z"/><path class="cls-12" d="M169.94,151.48,196.43,102a2.13,2.13,0,0,1,2.87-.87h0a2.13,2.13,0,0,1,.87,2.87l-26.5,49.5a2.13,2.13,0,0,1-2.87.87h0A2.12,2.12,0,0,1,169.94,151.48Z"/><path class="cls-3" d="M218.84,169.75a81,81,0,0,1,5.46-6.16l-.26-1.71c.17-2.5,1.68-1.25,2.13-.84,0,0,1,2.81.8,3.25,0,0-2.19,4.64-3.18,6.44-.49.9-2.15,3.48-2.15,3.48Z"/><path class="cls-3" d="M214.37,160.15c1.95,1,2.26,8.57,1.54,9.36s-2.84-4.88-3.49-4.47,2.79,4.78,1.75,5.25c-.72.33-3.65-2.9-4.11-2.69-.73.31,2.21,3.65,1.33,3.94s-5.6-3.18-5.65-3.41.32-1.57,2.58-3.35a19.42,19.42,0,0,0,2.66-2.57C211.7,161.47,213.29,159.6,214.37,160.15Z"/><path class="cls-7" d="M430.84,212.45,426.3,209l-5.41,1.8a.79.79,0,0,1-1-1l1.87-5.38-3.37-4.59a.79.79,0,0,1,.65-1.25l5.7.12,3.32-4.63a.79.79,0,0,1,1.39.23l1.65,5.45,5.43,1.73a.78.78,0,0,1,.21,1.39l-4.68,3.26,0,5.7A.79.79,0,0,1,430.84,212.45Z"/><path class="cls-13" d="M303.56,99,299,95.54l-5.42,1.8a.78.78,0,0,1-1-1l1.87-5.39-3.38-4.6a.79.79,0,0,1,.65-1.25l5.71.12,3.33-4.64a.78.78,0,0,1,1.38.23l1.66,5.47L309.26,88a.78.78,0,0,1,.21,1.39l-4.69,3.26,0,5.71A.78.78,0,0,1,303.56,99Z"/><path class="cls-7" d="M189.78,262.87l-5-4.83L178,259.39a1,1,0,0,1-1-1.35l3.06-6.21-3.38-6a1,1,0,0,1,1-1.4l6.85,1,4.69-5.08a1,1,0,0,1,1.64.48L192,247.6l6.28,2.9a1,1,0,0,1,0,1.7l-6.12,3.23-.82,6.87A1,1,0,0,1,189.78,262.87Z"/><path class="cls-11" d="M219.89,71.52A4.25,4.25,0,0,1,223.73,67a4.23,4.23,0,1,1-3.84,4.57Zm.82-6.58-2.92-18.07a2.65,2.65,0,0,1,2.33-3l1.81-.2a2.64,2.64,0,0,1,2.93,2.47L226,64.37Z"/><path class="cls-14" d="M356.59,55.28a5.74,5.74,0,0,1,3.77-3.35,4.65,4.65,0,0,1,5.71,3.45c.83,2.93-.62,7.08-6.08,11.88-7.16-1.22-10.57-4-11.4-6.91a4.64,4.64,0,0,1,3-5.94A5.77,5.77,0,0,1,356.59,55.28Z"/><path class="cls-13" d="M388.16,165.93a5,5,0,0,1,4.3-.94,4.05,4.05,0,0,1,2.86,5c-.62,2.58-3.48,5.12-9.67,6.44-4.93-4-6.34-7.53-5.73-10.11a4,4,0,0,1,4.84-3.21A5,5,0,0,1,388.16,165.93Z"/><path class="cls-13" d="M147.58,112.47l-55.43,0c-3.81,0-6.89-3.92-6.88-8.75l0-23c0-4.83,3.1-8.74,6.9-8.73l55.44,0c3.8,0,6.88,3.93,6.87,8.75l0,23C154.48,108.57,151.39,112.48,147.58,112.47Z"/><path class="cls-15" d="M109.45,93.82a4.21,4.21,0,1,1-4.2-4.2A4.2,4.2,0,0,1,109.45,93.82Z"/><path class="cls-15" d="M124.1,93.82a4.21,4.21,0,1,1-4.2-4.2A4.2,4.2,0,0,1,124.1,93.82Z"/><path class="cls-15" d="M138.75,93.82a4.21,4.21,0,1,1-4.21-4.2A4.2,4.2,0,0,1,138.75,93.82Z"/><polygon class="cls-13" points="153.97 93.83 166.95 110.11 152.73 104.96 153.97 93.83"/><polygon class="cls-11" points="150.72 199.55 142.63 200.25 142.78 207.82 134.83 208.86 134.09 216.11 128.27 217.86 129.15 220.81 136.94 218.47 137.64 211.59 145.91 210.51 145.76 203.06 153.09 202.43 150.72 199.55"/><polygon class="cls-11" points="394.5 99.76 395.12 107.86 402.69 107.79 403.65 115.74 410.89 116.56 412.59 122.4 415.54 121.54 413.28 113.74 406.41 112.96 405.42 104.69 397.97 104.76 397.41 97.42 394.5 99.76"/><polygon class="cls-7" points="148.06 150.49 143.25 155.23 134.77 148.34 126.89 154.41 119.7 150.29 117.61 153.93 127.23 159.44 134.7 153.69 143.53 160.85 150.76 153.72 148.06 150.49"/><path class="cls-3" d="M124.65,359.39s-.23-1.14-.28-1.52-.12-1.8-.12-1.8,0-4.73.35-4.7.8.84.9,1.13.25.62.36.91a.6.6,0,0,0,.77.36c.38-.1.22-1.36.08-1.78a47.07,47.07,0,0,0-2.5-4.95c-.21-.42,1.29-8.63,1.59-11.48h0c.62-4.66,1.49-9.42,1.56-9.91l8.29-18.32-5.54-5.66s-9.48,20.21-9.84,21.28c-.17.5-.77,11.41-.77,11.41,0,5.38.1,10.13.08,11,0,0-.78,2.72-1.38,4.42a15.26,15.26,0,0,0-.56,4,11.29,11.29,0,0,0-.15,3.93c.25,1.86.87,0,.87,0s.16-3.52.43-3.46,0,2,.27,4c.07.52.13,1,.2,1.52.17,1.26,1,1.5,1,.16a11.52,11.52,0,0,0-.06-1.83,10.67,10.67,0,0,1,0-1.71,14.08,14.08,0,0,1,0-1.77c.06,0,.2-.17.29.39s0,2.15.24,3.12c.13.55.33,1.72.33,1.72a11.5,11.5,0,0,0,.66,1.86c.61,0,.61-1.47.33-2.2a8.13,8.13,0,0,0-.18-1.78s.06-2.6.43-2.6,1.37,6.23,2,6.16S124.65,359.39,124.65,359.39Z"/><path class="cls-12" d="M132.28,317.94a39.18,39.18,0,0,1-5.27-1.27c-2.43-.91-4-1.7-4-1.7s2.67-11.44,6-18.38c1.38-2.87,2.77-4.26,4.72-4.59,0,0,4.09,2.69,3.93,9.17C137.59,302.7,132.28,317.94,132.28,317.94Z"/><path class="cls-3" d="M142.86,356.37l4.46,41s-2.18,8.68-1.92,11.15,4.85,34.8,4.85,34.8l-.19,1.81v5.36h17a77.19,77.19,0,0,1-8.67-5A3.61,3.61,0,0,1,157,443c-1.35-10,1.32-43.21,1.32-43.21l2.1-43.28Z"/><path class="cls-3" d="M129.18,365c-1,.25-2.44,35.53-3.23,37.1-5,9.91-6.25,40-6.25,40l-1.47,4.29-1.57,5.26s5,1.38,7.69-.12l-.3-5.19-.27-4.74,12.73-37.55,7-38.3Z"/><path class="cls-7" d="M154.5,296.66C152.45,293.77,144,285.4,143,285.42c-2.74.05-11.75.05-13.51,1v2a106.52,106.52,0,0,0,3.39,26.12c1.55,5.95,3,12.3,2.83,14.58l0,0a12.22,12.22,0,0,0,18.2-.9h0a108.9,108.9,0,0,1,.71-12.08C155.85,307.08,159.6,303.84,154.5,296.66Z"/><path class="cls-3" d="M140.27,276.45s.24,5.88-.27,8.11-1.2,2.39,3.2,3.07c1.73.27,3.4.67,3.4.67s-.45-3.28-.52-4.66c-.11-2.27.51-9.3.51-9.3Z"/><path class="cls-8" d="M143.63,279.37a7.49,7.49,0,0,0,2.53.93c.15-2.78.43-6,.43-6l-6,2A8,8,0,0,0,143.63,279.37Z"/><path class="cls-3" d="M141.67,260a7.68,7.68,0,0,0-3.9,3.66c-1.39,2.77-1.91,10.56,3.56,13.61,2.71,1.51,5.84,1.79,7.31.47s1.32-4.36,1.17-6.86C149.51,265.91,148.42,258.41,141.67,260Z"/><path class="cls-16" d="M137.64,269.76c.31,1.3-.11,2.56-.93,2.81s-1.74-.61-2.05-1.91.1-2.56.92-2.8S137.33,268.46,137.64,269.76Z"/><path class="cls-2" d="M124.05,446.37a8.14,8.14,0,0,1-5.82.07l-1.61,5.28s5.07,1.5,7.72,0Z"/><path class="cls-17" d="M126.26,386Z"/><path class="cls-2" d="M149.87,451.85h17.7c.65-.06.81-.61.58-1-.46-.7-2.53-1.21-4.85-2.33-4.07.45-12.61-2.45-13.25-3.42C149.68,447.1,149.51,451.77,149.87,451.85Z"/><path class="cls-3" d="M185.41,310c.34-.48,1.49-2.81,1.49-2.81s1.19-4,.94-3.94a4.55,4.55,0,0,0-1.21,1.81c-.36.73-.75,2-1.11,2.67-.65,1.12-1.37,1.58-1.19,1.15s.57-.57,1-1.25c.94-1.63,1.78-4.3,1.42-4.25s-1.24,1.89-2.25,3.32a10.56,10.56,0,0,1-2.48,1.91,3.15,3.15,0,0,1,.16-.88c.1-.31,1.5-2.18,1-2.41s-3.89,3.8-3.89,3.8l-1.38,2.34-.12.09h0S161,318.12,160.45,318c-1.31-.42-5.79-13.42-5.79-13.42l-9.34,1.69c-.13-.08,9.82,19.34,11.67,20.29,1.63.84,19-8.2,22.23-10.13,4.49-1.73,6.24-3.78,7-4.83.39-.57,1.89-3,1.89-3s.33-3.41.08-3.44c-.82-.1-1,3.11-1,3.11s-1.11,1.51-1.31,1.71C185.32,310.41,185.41,310,185.41,310Z"/><path class="cls-12" d="M139.3,293.21c-1.28,5.4,5.52,17.44,5.52,17.44s9.68-4.7,11.38-6.73c0,0-6.68-11-7.09-11.74-.9-1.55-4-4.77-6.15-4.18C141.62,288.38,139.3,293.21,139.3,293.21Z"/><path class="cls-2" d="M140.83,279.89c.73-4.95,8.95-15.05,5.77-19.26-2.57-3.42-7-2.4-9.9-1.41-12.93,4.45-12.19,20.71-16.27,23.25-7.41,4.61-12,7.48-12.49,17.87-.64,12.32,9.83,18.61,22.41,15.6,6.76-1.62,8.56-3.84,11.27-10.23,1.22-2.88,3.69-11.86,3-16.25C144,285.53,140.25,283.88,140.83,279.89Z"/><path class="cls-3" d="M145.75,270.81c0,1.47-.53,2.66-1.19,2.66s-1.19-1.19-1.19-2.66.54-2.65,1.19-2.65S145.75,269.35,145.75,270.81Z"/><path class="cls-9" d="M162,383.06l.61-24.34a48.22,48.22,0,0,0-4-20L154,328.2a27.27,27.27,0,0,1-5.57,1.35,53.78,53.78,0,0,1-12.67-.49,2.47,2.47,0,0,1-.06.43c-.77,3.58-5,11.58-6.84,22.5-2,12.4-2.81,30.95-2.56,32.4C145.84,385.28,150.5,386,162,383.06Z"/><path class="cls-3" d="M439.67,315.12a6,6,0,0,1-.54,1.42,54.48,54.48,0,0,1-5.25,7.45L431,317.17s.46-2.14,1.26-5.2C435,312.73,437.65,313.17,439.67,315.12Z"/><path class="cls-4" d="M423.41,309.2s15.82,7.28,16.33,7.14c.33-.09,6.5-11.1,6.56-21.45,0-4.78-4.62-10.53-9.81-9.4-2.61.58-2.57,1.35-6.44,7.35S423.41,309.2,423.41,309.2Z"/><path class="cls-3" d="M409.9,439.61l.37,6.64c.14.85.69,2.93.69,3.69,0,2.88-12.8-2.44-9.93-3.71.26-.12,1.62-1,1.7-2,.13-1.51.47-4.56.47-4.56Z"/><path class="cls-14" d="M401.06,446.2a45.89,45.89,0,0,0,4.54,1.1c1.54.22,3.57-1.63,4.66-1.13s1.15,5.5,1.15,5.5-16.11,1.41-20.64-.05C389,451.05,394.92,448.25,401.06,446.2Z"/><path class="cls-3" d="M436.08,439.61l.37,6.64c.14.85.68,2.93.68,3.69,0,2.88-12.79-2.44-9.92-3.71.26-.12,2-1.64,2.1-2.62.14-1.51.07-3.91.07-3.91Z"/><path class="cls-14" d="M427.24,446.2a45.89,45.89,0,0,0,4.54,1.1c1.54.22,3.57-1.63,4.66-1.13s1.24,5.5,1.24,5.5-16.18,1.65-20.73-.05C415.18,451,421.1,448.25,427.24,446.2Z"/><path class="cls-3" d="M432.16,318.8,420.89,302c0-.15-.15-.45-.3-.92-.57-1.67-1.75-5.15-2.78-8.61v0c-.32-1.21-1-3.33-1.67-5.37-.74-2.27-1.65-5.08-1.69-5.56,0-.08.09-.23.16-.43a42,42,0,0,0,1.17-5c.12-.76.25-2.59-.59-2.59-1.33,0-.7,1.83-1.31,3a31.22,31.22,0,0,1-.91-3.82l-.22-3.58c-.05-.27.22-2.25-.7-2.25H412c-.83.06-.81,2.16-1.16,5.72-.11-.41-.22-.91-.3-1.36a14.44,14.44,0,0,0-.28-1.87c.17-1,.07-2.56-.92-2.41-.5.07-.45,2.25-.45,2.25,0,.3,0,2.61,0,3.06-.11-.77-.5-4.07-1.28-4.07s-.69.89-.68,1.59c0,.42.41,4,.44,4.41-.31-.55-.67-3.69-1-3.69-1.25,0-.8,4.47-.34,5.64a5.15,5.15,0,0,1,.15.62,11.06,11.06,0,0,0,1.07,3.33c.79,1.44,1.87,3.73,2,4.08.12.71.5,3.28,1,6.51.21,1.38.43,2.89.66,4.46h0c0,.34.28,1.42,1.17,5.47a54.88,54.88,0,0,0,1.4,5.89c.53,1,12.68,18.61,13.2,19.36l.31.44Z"/><path class="cls-3" d="M411.2,279.49s.92-2.49,2.54-2.5a1.77,1.77,0,0,0-1.69.31A3.57,3.57,0,0,0,411.2,279.49Z"/><path class="cls-3" d="M434.89,274.67l1.45,9.79s-5.53,4.74-8.75,3.74c-2.71-.84-.85-4.61-.85-4.61s1.44-5.23,1-8S434.89,274.67,434.89,274.67Z"/><path class="cls-8" d="M433.85,277.63a21.51,21.51,0,0,1-6.26,1.88,14.12,14.12,0,0,0,.15-3.89c-.21-1.26,1.3-1.56,3-1.52,2.2.2,4.17.57,4.17.57l.28,1.88A4.62,4.62,0,0,1,433.85,277.63Z"/><path class="cls-3" d="M441.86,263.38c.23,0-2.18,10.94-5.92,12.82s-9.3.9-10.35-2.05c-1.15-3.26,3.06-14.42,8.32-15.84S441.86,263.38,441.86,263.38Z"/><path class="cls-2" d="M437.54,253.32a12.4,12.4,0,0,1,4.82,5.68c1.4.71,3.09,2.24,3.9,6.38a9,9,0,0,1-6.32,10.17c-3.77,1.18-4.41,3.84-4.41,3.84l-.37-2.86a11.49,11.49,0,0,1,2.1-3.74c1.26-1.25-.6-3.07-.76-4.56-.13-1.14.66-3.36.49-5.23,0,0-2.09-3.39-4.16-4.23C429.31,257.35,433.71,251,437.54,253.32Z"/><path class="cls-3" d="M436,270.14c-.48,1.26-.28,2.52.45,2.8s1.73-.51,2.21-1.77.29-2.52-.44-2.81S436.44,268.88,436,270.14Z"/><path class="cls-18" d="M422,319.07l-21.74-3.79s2.47-6.64,3.36-6.64,16.44,7.25,16.44,7.25l1.23,2.65Z"/><path class="cls-19" d="M433.18,335s2.17,11.19,1.28,19.67-.95,38.62-.95,38.62l3.37,48.23-8,.18s-9.49-48.2-9.31-47-3.18-33.94-3.18-33.94l11.31-26.86Z"/><path class="cls-19" d="M431.06,334.45s1.41,10.07-.36,14.49-15.16,47.78-15.34,51.31-4.63,42.61-4.63,42.61l-9.3-.28-2-43.44,4.21-54.6,4.09-13.81Z"/><path class="cls-3" d="M436.34,284.46a8,8,0,0,1-4.44,1.42c-2.14-.18-5.16-2.29-5.16-2.29l.42-1.52s5.53-.86,5.67-.77S436.34,284.46,436.34,284.46Z"/><path class="cls-3" d="M411.88,308.31s-8.22,8.28-11.93,6.87-5.25-6.25,3.81-13.32C411.86,295.53,411.88,308.31,411.88,308.31Z"/><path class="cls-5" d="M406.31,318.54c1.22-7.1,10.08-29.17,10.78-33.23.35-2,5.12-2,9.67-1.77,4.81.28,9.58.92,9.58.92s4.25.75,6.12,2.62,2.37,7.05-.32,16.87c-2.12,7.76-4.75,12-6.06,17.67-.26,1.89-.49,3.76-.79,5.95-.48,8.44,0,19.6,0,19.6s-23.16,5.13-31.82-2.65C403.48,344.52,405.06,325.8,406.31,318.54Z"/><path class="cls-4" d="M400.41,303.28s9.08,8,9.61,8c.34,0,13-9.91,15.88-18.05,1.61-4.51-1.77-9.54-5.63-9.53-2.67,0-3.86.75-9.16,5.52S400.41,303.28,400.41,303.28Z"/><path class="cls-9" d="M485.79,456.65H69.15a2.47,2.47,0,0,1-2.47-2.47h0a2.46,2.46,0,0,1,2.47-2.47H485.79a2.47,2.47,0,0,1,2.47,2.47h0A2.48,2.48,0,0,1,485.79,456.65Z"/></svg>