<svg id="Layer_1" data-name="Layer 1" xmlns="http://www.w3.org/2000/svg" xmlns:xlink="http://www.w3.org/1999/xlink" viewBox="0 0 533.74 533.74"><defs><style>.cls-1{fill:#ffc0b3;}.cls-2{clip-path:url(#clip-path);}.cls-3,.cls-4{fill:#36384a;}.cls-3{stroke:#36384a;}.cls-3,.cls-5{stroke-miterlimit:10;stroke-width:4px;}.cls-5{fill:#23bed0;stroke:#ffc0b3;}</style><clipPath id="clip-path"><path id="SVGID" class="cls-1" d="M491,270.52c0,122.65-99.43,222.09-222.09,222.09S46.83,393.17,46.83,270.52,146.25,48.43,268.91,48.43,491,147.86,491,270.52Z"/></clipPath></defs><path id="SVGID-2" data-name="SVGID" class="cls-1" d="M491,270.52c0,122.65-99.43,222.09-222.09,222.09S46.83,393.17,46.83,270.52,146.25,48.43,268.91,48.43,491,147.86,491,270.52Z"/><g class="cls-2"><path class="cls-3" d="M351.55,229a82.64,82.64,0,1,1-82.64-82.64A82.63,82.63,0,0,1,351.55,229Z"/><path class="cls-4" d="M413.53,612.4a75.75,75.75,0,0,1-75.76,75.76H200.05A75.75,75.75,0,0,1,124.3,612.4V386.88a75.74,75.74,0,0,1,75.75-75.75H337.77a75.75,75.75,0,0,1,75.76,75.75Z"/><line class="cls-5" x1="191.44" y1="386.02" x2="191.44" y2="646.84"/><line class="cls-5" x1="346.39" y1="386.02" x2="346.39" y2="646.84"/></g></svg>