<svg id="Layer_1" data-name="Layer 1" xmlns="http://www.w3.org/2000/svg" xmlns:xlink="http://www.w3.org/1999/xlink" viewBox="0 0 533.74 533.74"><defs><style>.cls-1,.cls-2{fill:#ffc0b3;}.cls-2,.cls-3{clip-path:url(#clip-path);}.cls-4,.cls-5{fill:#36384a;}.cls-4{stroke:#36384a;}.cls-4,.cls-6{stroke-miterlimit:10;stroke-width:4px;}.cls-6{fill:#23bed0;stroke:#ffc0b3;}.cls-7{fill:#4b4f68;}.cls-8{fill:#ff431a;}</style><clipPath id="clip-path"><path id="SVGID" class="cls-1" d="M491,270.52c0,122.65-99.43,222.09-222.09,222.09S46.83,393.17,46.83,270.52,146.25,48.43,268.91,48.43,491,147.86,491,270.52Z"/></clipPath></defs><path id="SVGID-3" data-name="SVGID" class="cls-1" d="M491,270.52c0,122.65-99.43,222.09-222.09,222.09S46.83,393.17,46.83,270.52,146.25,48.43,268.91,48.43,491,147.86,491,270.52Z"/><path id="SVGID-4" data-name="SVGID" class="cls-1" d="M491,270.52c0,122.65-99.43,222.09-222.09,222.09S46.83,393.17,46.83,270.52,146.25,48.43,268.91,48.43,491,147.86,491,270.52Z"/><g class="cls-3"><path class="cls-4" d="M351.55,229a82.64,82.64,0,1,1-82.64-82.64A82.63,82.63,0,0,1,351.55,229Z"/><path class="cls-5" d="M413.53,612.4a75.75,75.75,0,0,1-75.76,75.76H200.05A75.75,75.75,0,0,1,124.3,612.4V386.88a75.74,75.74,0,0,1,75.75-75.75H337.77a75.75,75.75,0,0,1,75.76,75.75Z"/><line class="cls-6" x1="191.44" y1="386.02" x2="191.44" y2="646.84"/><line class="cls-6" x1="346.39" y1="386.02" x2="346.39" y2="646.84"/></g><path class="cls-7" d="M271,147.33c27.15,7.08,33.22,29.19,13.49,49.14S226.35,227,199.2,219.88,166,190.7,185.7,170.75C180.29,176.22,278.39,149.27,271,147.33Z"/><rect class="cls-7" x="164.98" y="126.44" width="124.77" height="58.9" transform="translate(487.9 246) rotate(164.64)"/><path class="cls-7" d="M256,92.89c27.16,7.07,33.23,29.18,13.5,49.13s-58.09,30.49-85.25,23.42S151,136.26,170.75,116.31,228.84,85.82,256,92.89Z"/><polygon class="cls-5" points="320.72 104.37 232.7 193.94 111.3 162.53 110.24 158.67 199.93 73.06 319.66 100.51 320.72 104.37"/><polygon class="cls-7" points="319.66 100.51 231.64 190.08 110.24 158.67 198.87 69.2 319.66 100.51"/><path class="cls-8" d="M225.35,121.25c2.88.75,3.52,3.1,1.43,5.22a10.43,10.43,0,0,1-9,2.48c-2.88-.75-3.52-3.1-1.43-5.21A10.4,10.4,0,0,1,225.35,121.25Z"/><polygon class="cls-8" points="223.43 127.56 173.94 178.17 167.48 176.81 217.72 126.17 223.43 127.56"/><polygon class="cls-8" points="173.87 178.19 187.73 228.89 182.91 224.77 181.14 226.94 167.42 176.83 173.87 178.19"/></svg>