<?xml version="1.0" encoding="utf-8"?>
<!-- Generator: Adobe Illustrator 24.2.1, SVG Export Plug-In . SVG Version: 6.00 Build 0)  -->
<svg version="1.1" id="Layer_1" xmlns="http://www.w3.org/2000/svg" xmlns:xlink="http://www.w3.org/1999/xlink" x="0px" y="0px"
	 viewBox="0 0 512 512" style="enable-background:new 0 0 512 512;" xml:space="preserve">
<g>
	<path d="M152.9,186v42.4l-25,0c-23.8,0-47.6,0-71.4,0c-10.5,0-15.4,5-15.4,15.6c0,11.8,0,24.4,0,37c0,11.2,5.1,16.2,16.5,16.2
		l95.8,0v137.9h26V186H152.9z M152.9,255.2v15.1H68.1v-15.1H152.9z"/>
	<path d="M448.7,270.1c0-7.7,0-15.5,0-23.2c0-6.2-0.3-11.1-3.8-14.7c-3.5-3.5-8.6-3.8-14.9-3.8c-9,0-18.1,0-27.1,0
		c-21.4,0-43.6,0-65.3,0.1c-0.1,0-0.1,0-0.2,0c0.3-5.5,0.2-10.9,0.2-16.2c0-2.3-0.1-4.5-0.1-6.8c0-7.5,0-12.1-3.5-15.3
		c-3.5-3.2-7.9-2.9-15.8-2.2c-1.1,0.1-2,0.4-2.5,0.7c-0.1,0.1-0.3,0.1-0.5,0.2l-3.9,1.5v244.7h26.2V297.3l23.8,0
		c23.7,0,47.5,0,71.2,0c3.9,0,8.9-0.5,12.4-4c3.5-3.5,3.9-8.5,3.9-12.5L448.7,270.1z M421.7,255.4v15h-83.9v-15H421.7z"/>
	<path d="M369.4,177.3c-1-4-4.8-6-7.3-7.3l-0.7-0.3c-15.1-8.1-30.3-16.3-45.4-24.4c-14-7.5-28.1-15.1-42.1-22.6
		c-1.7-0.9-3.6-1.8-5.3-2.5c-3.3-1.5-7.1-3.2-8.2-4.9c-0.9-1.5-0.6-5.1-0.4-8.3c0.2-2.5,0.3-5,0.2-7.6c-0.1-1.1,0.1-1.5,0-1.6
		c0,0,0.4-0.4,1.7-0.9c12.7-4.9,25.5-10.1,37.9-15.1c5.6-2.3,11.2-4.5,16.8-6.8c2.6-1,10.5-4.2,10.3-12
		c-0.2-10.4-7.5-13.2-10.2-14.3c-22.4-8.8-41-16.1-60.3-23.8c-5.2-2.1-11.7-4-16.8-0.5c-5.1,3.4-5.7,10.2-5.7,15.7
		c0,5.7,0,11.4,0,17.1c0,18-0.1,36.6,0.1,55c0,2.9-0.2,3.3-2.6,4.6c-26.2,13.3-52.8,27.1-78.4,40.4c-7.9,4.1-15.8,8.2-23.7,12.3
		c-5.6,2.9-8.9,6.3-10.1,10.3c-0.7,2.2-1,5.7,1.3,9.8c1.9,3.4,7.7,10.4,21.1,3.5c8.3-4.3,16.6-8.6,24.8-12.8
		c25.7-13.3,52.3-27.1,78.5-40.7c1.7-0.9,2.2-0.9,4,0.1c16.1,8.8,32.5,17.6,48.4,26.1c5.1,2.7,10.3,5.5,15.4,8.2l13.1,7
		c8.4,4.5,16.8,9,25.2,13.5c2.5,1.4,5.1,2,7.4,2c4.1,0,7.7-1.9,9.9-5.7C371.2,185.5,369.9,179.1,369.4,177.3z M260.5,68.8V55
		l17.3,6.8L260.5,68.8z"/>
	<path d="M280.6,196c-9.7-9.8-22.2-15.3-35.2-15.3c-0.1,0-0.2,0-0.3,0c-27.1,0-50.9,23.4-51.1,50.1c-0.2,27.9,23,51.6,50.7,51.8
		c0.1,0,0.2,0,0.3,0c12.7,0,25.5-5.4,35.2-14.8c9.8-9.6,15.5-22.3,15.6-34.9C295.9,219.3,290.4,205.9,280.6,196z M269.2,231.6
		L269.2,231.6c0.1,14.5-9.5,24.3-23.9,24.4c-7.3,0.1-13.6-2.2-18.1-6.6c-4.4-4.3-6.7-10.3-6.8-17.3c-0.1-7.5,2.2-13.7,6.6-18.1
		c4.3-4.4,10.4-6.7,17.8-6.7c0,0,0.1,0,0.1,0C259.7,207.2,269.2,216.8,269.2,231.6z"/>
	<path d="M286.7,355.5c0-10.2-5-15.1-15.4-15.1c-16.8-0.1-33.9-0.1-52.5,0c-11,0-15.9,4.9-15.9,15.7c0,22.8,0,45.6,0,68.4
		c0,1.3,0.1,2.5,0.1,3.6c0,0.4,0.1,0.9,0.1,1.3l0.3,5.7h26.3v-68h30.5v68.2h25.9l0.3-5.7c0-0.7,0.1-1.3,0.1-1.9
		c0.1-1.3,0.1-2.5,0.2-3.7C286.8,401.1,286.8,378.3,286.7,355.5z"/>
	<g>
		<rect x="64.2" y="305" width="25.6" height="130.1"/>
		<rect x="107.3" y="321.9" width="25.8" height="42.2"/>
		<path d="M133.5,386.8l0-12.2h-26.1v41.8l5.5,0.4c0.4,0,0.8,0.1,1.2,0.1c0.8,0.1,1.6,0.1,2.5,0.2c1.2,0,2.4,0,3.5,0
			c4.6,0,7.7-0.4,10.3-2.9c3.2-3.1,3.2-7.1,3.2-13.7C133.5,395.9,133.5,391.4,133.5,386.8z"/>
	</g>
	<g>
		<rect x="400.1" y="304.9" width="25.6" height="130.1"/>
		<rect x="356.6" y="321.8" width="25.8" height="42.3"/>
		<path d="M373.2,374.4c-2.9-0.1-5.6-0.1-8.4,0.2c-3.8,0.5-8.3,4.4-8.4,8.8c-0.3,7.8-0.2,16.2,0,24.8c0.1,4.1,4.1,8.3,8.2,8.7
			c1.9,0.2,3.8,0.2,5.7,0.2c1.1,0,2.2,0,3.2,0c1,0,2.1,0,3.1,0h6v-42.6h-6C375.4,374.4,374.3,374.4,373.2,374.4z"/>
	</g>
	<g>
		<path d="M245,268c-10.3,0-19.5-3.6-26.1-10c-6.6-6.5-10.3-15.6-10.4-25.8c-0.1-10.7,3.4-19.9,10-26.7c6.6-6.7,15.7-10.2,26.3-10.3
			c0.1,0,0.1,0,0.2,0c21.3,0,36.2,14.9,36.2,36.3v0c0.1,21.2-14.6,36.2-35.7,36.5C245.3,268,245.2,268,245,268z M245,207.2
			c0,0-0.1,0-0.1,0c-7.3,0-13.5,2.4-17.8,6.7c-4.4,4.4-6.6,10.7-6.6,18.1c0.1,7,2.4,13,6.8,17.3c4.5,4.4,10.7,6.7,18.1,6.6
			c14.3-0.2,23.9-10,23.9-24.4v0C269.2,216.8,259.7,207.2,245,207.2z"/>
	</g>
</g>
</svg>
